<svg width="106" height="75" viewBox="0 0 106 75" fill="none" xmlns="http://www.w3.org/2000/svg">
<mask id="mask0_2475_21571" style="mask-type:luminance" maskUnits="userSpaceOnUse" x="0" y="0" width="106" height="75">
<path d="M105.357 0H0V75H105.357V0Z" fill="white"/>
</mask>
<g mask="url(#mask0_2475_21571)">
<path d="M69.5933 15.5657L73.379 17.4705L73.7856 16.6765H73.782L78.6415 7.06873L68.9492 2.05859L67.0022 5.8217C66.9194 5.94038 66.805 6.03346 66.672 6.09038C66.5389 6.14731 66.3926 6.16579 66.2496 6.14372C66.1066 6.12165 65.9726 6.05991 65.8629 5.96553C65.7532 5.87115 65.6722 5.74791 65.629 5.60979C65.5222 5.21657 65.2659 4.88074 64.9147 4.67408C64.6107 4.55662 64.2736 4.55729 63.97 4.67595C63.6664 4.79461 63.4183 5.02267 63.2745 5.31518C63.1306 5.6077 63.1015 5.94346 63.1929 6.25634C63.2844 6.56922 63.4896 6.83654 63.7683 7.00562C63.9503 7.1084 64.1554 7.16335 64.3645 7.16533C64.5735 7.16731 64.7796 7.11625 64.9635 7.01694C65.0521 6.98135 65.147 6.96471 65.2424 6.96809C65.3377 6.97147 65.4313 6.9948 65.5171 7.03657C65.6021 7.07458 65.6788 7.12906 65.7427 7.19688C65.8065 7.2647 65.8563 7.34452 65.8891 7.4317C65.922 7.51888 65.9372 7.6117 65.9339 7.7048C65.9306 7.7979 65.9089 7.88942 65.8701 7.97408L63.6606 12.4907L65.1177 13.2276L67.3117 14.3586C67.4483 14.4129 67.5628 14.5113 67.6371 14.6381C67.7115 14.7648 67.7414 14.9128 67.7221 15.0585C67.7028 15.2042 67.6355 15.3393 67.5308 15.4424C67.426 15.5455 67.2899 15.6107 67.1439 15.6277C66.9522 15.6688 66.7708 15.7486 66.6109 15.8621C66.4509 15.9756 66.3157 16.1204 66.2135 16.2878C66.1427 16.4381 66.1036 16.6015 66.0989 16.7676C66.0941 16.9337 66.1237 17.0991 66.1858 17.2532C66.2478 17.4074 66.3411 17.5471 66.4596 17.6636C66.5782 17.78 66.7196 17.8707 66.8748 17.93C67.0153 18.0256 67.1736 18.092 67.3402 18.1254C67.5068 18.1588 67.6784 18.1584 67.8449 18.1244C68.0113 18.0903 68.1693 18.0232 68.3094 17.927C68.4495 17.8309 68.5689 17.7076 68.6606 17.5646C68.736 17.3759 68.7734 17.1741 68.7704 16.9709C68.7674 16.7677 68.7242 16.567 68.6433 16.3806C68.6068 16.2953 68.5898 16.203 68.5936 16.1103C68.5974 16.0176 68.6219 15.9269 68.6653 15.8449C68.7056 15.7635 68.7622 15.6911 68.8316 15.6325C68.901 15.5738 68.9817 15.53 69.0687 15.5038C69.1557 15.4777 69.2472 15.4696 69.3374 15.4803C69.4277 15.4909 69.5148 15.52 69.5933 15.5657Z" fill="#C0CFD5"/>
<path d="M28.3373 21.7196C27.4708 20.008 26.7539 18.2248 26.1944 16.3898C25.6362 14.5463 25.5446 12.593 25.9278 10.7053C25.9938 10.422 26.6182 8.50292 26.9093 8.4922C27.1171 8.48625 26.8051 10.2446 26.9319 10.4095C28.0907 12.0355 28.7283 13.975 28.7605 15.9714C28.8324 17.8975 28.6897 19.8256 28.3349 21.7202" fill="#263238"/>
<path d="M40.9789 36.5548C40.8212 35.2102 40.0735 28.4881 40.086 28.487C40.086 28.487 44.6349 27.4334 44.3533 22.828C44.2176 20.6036 43.564 16.0453 42.9247 11.928C42.5934 9.79379 41.4706 7.86254 39.7799 6.51866C38.0891 5.17478 35.9543 4.51678 33.8003 4.67563L33.3563 4.70839C28.5902 5.33993 26.464 9.74052 27.2253 14.4875L30.6777 36.5667L38.7932 36.1804L40.9789 36.5548Z" fill="#FFBF9D"/>
<path d="M40.1202 28.4827C37.9949 28.6336 35.8709 28.1719 34 27.1523C34 27.1523 35.6905 30.4607 40.25 29.7089L40.1202 28.4827Z" fill="#FF9A6C"/>
<path d="M41.5777 16.2299C41.5921 16.4012 41.5389 16.5712 41.4296 16.7038C41.3203 16.8364 41.1634 16.9209 40.9926 16.9395C40.9095 16.9522 40.8246 16.9482 40.7431 16.9277C40.6616 16.9072 40.5849 16.8705 40.5178 16.8199C40.4506 16.7693 40.3942 16.7058 40.352 16.6331C40.3097 16.5604 40.2825 16.48 40.2718 16.3966C40.2577 16.2256 40.3108 16.0559 40.4198 15.9234C40.5288 15.7909 40.6852 15.7062 40.8557 15.6871C40.9389 15.6742 41.0238 15.6782 41.1054 15.6986C41.1871 15.7191 41.2638 15.7557 41.3311 15.8063C41.3984 15.8569 41.4549 15.9205 41.4972 15.9932C41.5396 16.066 41.5669 16.1465 41.5777 16.2299Z" fill="#263238"/>
<path d="M42.0517 13.9029C41.9761 13.994 41.4517 13.6648 40.7422 13.7166C40.035 13.7601 39.5434 14.1618 39.46 14.0809C39.4195 14.0452 39.491 13.8845 39.7047 13.7035C39.9952 13.4689 40.3511 13.3301 40.7237 13.3059C41.0911 13.2777 41.4579 13.3669 41.7713 13.5607C42.0035 13.7124 42.0868 13.8619 42.0517 13.9029Z" fill="#263238"/>
<path d="M35.167 17.0532C35.1814 17.2243 35.1283 17.3943 35.0191 17.5269C34.9099 17.6594 34.7532 17.744 34.5825 17.7627C34.4994 17.7755 34.4146 17.7716 34.3331 17.7512C34.2515 17.7307 34.1749 17.6941 34.1077 17.6436C34.0405 17.593 33.9841 17.5296 33.9419 17.4569C33.8996 17.3842 33.8723 17.3038 33.8616 17.2204C33.8474 17.0493 33.9004 16.8795 34.0095 16.7469C34.1185 16.6143 34.275 16.5294 34.4456 16.5103C34.5287 16.4975 34.6136 16.5014 34.6952 16.5219C34.7769 16.5424 34.8535 16.579 34.9208 16.6296C34.988 16.6802 35.0444 16.7437 35.0867 16.8165C35.129 16.8892 35.1563 16.9697 35.167 17.0532Z" fill="#263238"/>
<path d="M35.1767 14.7033C35.1017 14.795 34.5761 14.4652 33.8672 14.517C33.1607 14.5611 32.6684 14.9622 32.5851 14.8813C32.5446 14.8456 32.6154 14.6849 32.8303 14.5039C33.1205 14.2692 33.4763 14.1301 33.8488 14.1057C34.2162 14.0774 34.5832 14.1668 34.8964 14.3611C35.1285 14.5128 35.2136 14.6623 35.1767 14.7033Z" fill="#263238"/>
<path d="M38.0988 19.9516C38.4622 19.8078 38.8421 19.7099 39.2297 19.66C39.4083 19.6278 39.5767 19.5796 39.5988 19.454C39.6 19.2664 39.5442 19.0829 39.4387 18.9278L38.8035 17.5927C38.2226 16.4645 37.7331 15.2915 37.3398 14.085C38.0104 15.1635 38.5931 16.2944 39.0821 17.4665C39.2964 17.9356 39.5008 18.384 39.6952 18.8117C39.8247 19.0211 39.8764 19.2693 39.841 19.5129C39.8195 19.5785 39.7834 19.6383 39.7353 19.6878C39.6873 19.7373 39.6286 19.7752 39.5637 19.7987C39.4656 19.8332 39.3636 19.8552 39.2601 19.8641C38.8782 19.942 38.488 19.9714 38.0988 19.9516Z" fill="#263238"/>
<path d="M41.4489 10.9451C41.3435 11.1196 40.8393 11.01 40.2548 11.0701C39.6685 11.11 39.1899 11.3035 39.0572 11.1493C38.9977 11.0737 39.0572 10.9047 39.2548 10.7279C39.5237 10.5127 39.8504 10.3822 40.1936 10.353C40.5367 10.3237 40.8808 10.397 41.1822 10.5636C41.4072 10.7023 41.4941 10.8606 41.4489 10.9451Z" fill="#263238"/>
<path d="M35.1865 13.0802C35.0716 13.2487 34.574 13.1118 33.9877 13.1397C33.4002 13.1475 32.9121 13.3141 32.7877 13.1528C32.7329 13.0743 32.8008 12.9082 33.0079 12.7433C33.288 12.543 33.6213 12.4304 33.9656 12.4198C34.3098 12.4092 34.6494 12.5011 34.9413 12.6838C35.1579 12.8368 35.2365 12.9987 35.1865 13.0802Z" fill="#263238"/>
<path d="M27.8484 17.8676C27.7675 17.8397 24.6187 17.1652 24.9502 20.3033C25.2818 23.4414 28.6657 22.576 28.6615 22.4855C28.6574 22.395 27.8484 17.8676 27.8484 17.8676Z" fill="#FFBF9D"/>
<path d="M27.3082 21.2872C27.2933 21.2783 27.2576 21.3312 27.1701 21.383C27.0459 21.4522 26.8998 21.4705 26.7624 21.4342C26.5462 21.3271 26.3625 21.1644 26.23 20.9628C26.0974 20.7613 26.0209 20.5281 26.0082 20.2872C25.9722 20.019 25.9964 19.7461 26.079 19.4884C26.098 19.3873 26.1413 19.2923 26.2052 19.2116C26.2691 19.1309 26.3516 19.067 26.4457 19.0253C26.5068 19.0021 26.574 19.0009 26.6359 19.022C26.6977 19.0431 26.7502 19.0851 26.7844 19.1408C26.8356 19.2241 26.8225 19.289 26.8392 19.2926C26.8558 19.2961 26.8987 19.233 26.8618 19.1063C26.8362 19.0303 26.7853 18.9654 26.7177 18.9223C26.6243 18.8665 26.5128 18.8494 26.407 18.8747C26.281 18.9139 26.1671 18.9847 26.0761 19.0803C25.9852 19.176 25.9202 19.2933 25.8874 19.4211C25.7828 19.7064 25.7495 20.0129 25.7903 20.314C25.8045 20.595 25.9013 20.8655 26.0686 21.0917C26.2359 21.3179 26.4663 21.4896 26.7308 21.5854C26.8176 21.6008 26.9068 21.5966 26.9917 21.5731C27.0767 21.5497 27.1553 21.5075 27.2219 21.4497C27.3118 21.3634 27.3207 21.2914 27.3082 21.2872Z" fill="#FF9A6C"/>
<path d="M40.2951 6.96722C40.7713 6.62912 39.0594 5.16067 37.7481 4.73805C35.7653 4.09936 32.8278 3.90472 31.1469 4.5946C29.1231 5.42793 27.5046 6.66782 26.6731 8.69222C25.8837 10.7468 25.6551 12.9743 26.0106 15.1464C26.0612 15.8156 26.2895 16.4592 26.6719 17.0107C27.1891 17.6541 28.0796 17.994 28.1522 18.9541C28.1605 19.1286 28.2032 19.2997 28.278 19.4576C28.3528 19.6154 28.4581 19.7569 28.588 19.8738C29.2314 20.4184 29.8677 19.7642 30.1243 19.1529C30.6725 17.8434 30.5814 16.3714 30.4814 14.9577C30.4641 13.9485 30.2816 12.9489 29.9409 11.9988C29.7278 11.494 29.4249 11.0285 29.2397 10.5107C29.1312 10.2583 29.0788 9.98534 29.0862 9.71071C29.0936 9.43608 29.1606 9.16635 29.2826 8.9202C29.3485 8.81773 29.4238 8.72168 29.5076 8.63329C29.901 8.20162 30.4022 7.88241 30.9598 7.70845C31.5173 7.53449 32.1111 7.51205 32.6802 7.64342C34.5171 8.06544 37.6391 8.65531 38.3576 7.96305C38.8771 7.527 39.2997 6.98706 39.5981 6.37794L40.2951 6.96722Z" fill="#151C1F"/>
<path d="M38.6287 21.8404C38.5918 21.7273 38.0334 21.8404 37.4531 21.5946C36.8656 21.3565 36.5513 20.8857 36.4453 20.9398C36.3953 20.9637 36.4073 21.1268 36.5364 21.3476C36.7155 21.6339 36.9796 21.857 37.2918 21.9857C37.604 22.1144 37.9487 22.1423 38.2775 22.0655C38.5239 22.0006 38.6465 21.8934 38.6287 21.8404Z" fill="#263238"/>
<path d="M30.3323 13.912C29.5804 14.0092 28.8184 13.9955 28.0704 13.8716C27.3132 13.8333 26.5675 13.6704 25.8633 13.3894C25.877 13.3448 26.8597 13.5359 28.0942 13.6656C29.3288 13.8097 30.3323 13.8561 30.3323 13.912Z" fill="#EBEBEB"/>
<path d="M22.9994 52.8071L16.1744 52.4601L22.6488 47.1029L17.4482 37.5273C17.4482 37.5273 6.61483 50.2238 5.66781 52.0315C4.61066 54.0553 3.71423 57.3464 6.63983 58.9553C8.67316 60.0738 24.7458 59.9583 24.7458 59.9583L22.9994 52.8071Z" fill="#FFBF9D"/>
<path d="M32.2734 77.9765V103.673H56.1669L58.9246 71.5586L32.2734 77.9765Z" fill="#29586F"/>
<path d="M50.418 30.8965C50.418 30.8965 63.6323 42.434 63.8436 42.1542C64.0549 41.8745 68.1977 30.8965 68.1977 30.8965L75.7305 31.0477C75.7305 31.0477 71.7424 47.6917 69.2971 49.8786C66.8519 52.0655 64.1227 51.359 62.2346 50.9876C60.3465 50.6161 51.2513 42.256 51.2513 42.256L50.418 30.8965Z" fill="#FFBF9D"/>
<path d="M30.0364 30.6841L19.4453 34.2704L21.7566 42.7668L26.4185 56.4413L31.8775 78.0764L62.5566 70.3091L53.781 43.0853L50.431 30.9002L47.5632 29.8389L42.3751 30.643L40.5965 30.5156C40.5965 30.5156 41.0191 32.7532 36.8352 32.9055C34.3215 32.9966 30.0364 30.6841 30.0364 30.6841Z" fill="#D9E7ED"/>
<path d="M53.0645 45.7594L56.7984 48.0897L61.0115 38.9969C61.0115 38.9969 52.8026 30.5653 50.1187 29.9981C47.4347 29.4308 46.4609 30.2612 46.4609 30.2612L53.0645 45.7594Z" fill="#D9E7ED"/>
<path d="M19.1362 52.1562L9.74219 45.8092C9.74219 45.8092 15.972 37.4419 16.8571 36.4104C17.6156 35.4981 18.5511 34.7489 19.6071 34.208L23.4553 47.6777L19.1362 52.1562Z" fill="#D9E7ED"/>
<path d="M20.9269 39.9463C20.8894 39.9582 21.7965 42.8577 22.9507 46.4219C24.1049 49.9862 25.0733 52.8672 25.1108 52.8553C25.1483 52.8434 24.2412 49.9439 23.087 46.3785C21.9329 42.813 20.9638 39.9344 20.9269 39.9463Z" fill="#263238"/>
<path d="M53.0516 56.3235L44.0742 56.2812V58.2401H44.0831L44.1927 90.0973L68.4986 90.1931L68.5415 71.9514C68.5278 71.1455 69.3951 70.5723 70.2933 70.5604C70.736 70.5627 71.1609 70.7351 71.4802 71.0419C72.1086 71.6787 72.9532 72.0563 73.8468 72.1002C74.203 72.1078 74.5569 72.0409 74.8858 71.9038C75.2147 71.7668 75.5113 71.5626 75.7567 71.3043C76.0021 71.046 76.1909 70.7393 76.311 70.4038C76.431 70.0684 76.4797 69.7115 76.454 69.3562C76.4272 67.7687 75.5064 66.8086 73.7558 66.6836C73.2981 66.6611 72.8418 66.7509 72.4268 66.9453C72.0118 67.1396 71.6506 67.4325 71.3748 67.7984C71.2305 67.9505 71.0571 68.0722 70.8651 68.1562C70.673 68.2402 70.466 68.2849 70.2564 68.2877C70.0556 68.3039 69.8536 68.2804 69.6619 68.2185C69.4702 68.1566 69.2925 68.0576 69.1392 67.927C68.9858 67.7964 68.8596 67.6369 68.7679 67.4576C68.6761 67.2782 68.6207 67.0826 68.6046 66.8818L68.6177 56.477L64.7909 56.4621L58.8052 56.4026C58.3963 56.4184 57.9978 56.2712 57.6974 55.9934C57.3969 55.7156 57.219 55.3299 57.2028 54.9211C57.2075 54.7172 57.2573 54.5169 57.3487 54.3346C57.4401 54.1523 57.5708 53.9926 57.7314 53.8669C58.2611 53.4425 59.0105 52.6842 59.026 51.7836C59.0498 50.3824 57.8171 49.3865 56.0498 49.3627C54.2826 49.3389 53.0141 50.3008 52.9909 51.7014C52.976 52.605 53.6992 53.3836 54.2147 53.8217C54.371 53.952 54.4963 54.1155 54.5814 54.3003C54.6666 54.4851 54.7095 54.6866 54.707 54.8901C54.6756 55.2989 54.4841 55.6788 54.1741 55.9472C53.8641 56.2157 53.4607 56.3509 53.0516 56.3235Z" fill="#586B76"/>
<path d="M83.9521 79.8401L92.9294 79.7978V81.7567H92.9205L92.811 104.207L68.505 104.303L68.4622 95.468C68.4759 94.6621 67.6086 94.0889 66.7104 94.077C66.2676 94.0793 65.8427 94.2517 65.5235 94.5585C64.895 95.1953 64.0504 95.5729 63.1568 95.6168C62.8006 95.6244 62.4467 95.5575 62.1179 95.4204C61.789 95.2834 61.4924 95.0792 61.2469 94.8209C61.0015 94.5626 60.8128 94.2559 60.6927 93.9204C60.5726 93.585 60.5239 93.2281 60.5497 92.8728C60.5765 91.2853 61.4973 90.3252 63.2479 90.2002C63.7056 90.1777 64.1618 90.2675 64.5769 90.4619C64.9919 90.6562 65.353 90.9491 65.6288 91.315C65.7732 91.4671 65.9465 91.5888 66.1386 91.6728C66.3307 91.7568 66.5376 91.8015 66.7473 91.8043C66.9481 91.8205 67.1501 91.797 67.3418 91.7351C67.5335 91.6732 67.7111 91.5742 67.8645 91.4436C68.0179 91.313 68.1441 91.1535 68.2358 90.9742C68.3275 90.7948 68.383 90.5992 68.3991 90.3984L68.386 79.9936L72.2128 79.9787L78.1985 79.9192C78.6074 79.935 79.0058 79.7878 79.3063 79.51C79.6067 79.2322 79.7846 78.8465 79.8009 78.4377C79.7962 78.2338 79.7463 78.0335 79.6549 77.8512C79.5635 77.669 79.4328 77.5092 79.2723 77.3835C78.7425 76.9591 77.9931 76.2008 77.9776 75.3002C77.9538 73.899 79.1866 72.9031 80.9538 72.8793C82.7211 72.8555 83.9896 73.8174 84.0128 75.218C84.0276 76.1216 83.3044 76.9002 82.7889 77.3383C82.6326 77.4686 82.5074 77.6321 82.4222 77.8169C82.3371 78.0017 82.2942 78.2032 82.2967 78.4067C82.3281 78.8155 82.5196 79.1955 82.8296 79.4639C83.1395 79.7323 83.5429 79.8675 83.9521 79.8401Z" fill="#35454D"/>
<path d="M83.4357 56.459C83.0267 56.4328 82.6239 56.569 82.3147 56.838C82.0056 57.1071 81.815 57.4872 81.7845 57.8959C81.7816 58.0999 81.8242 58.302 81.9094 58.4873C81.9946 58.6727 82.1201 58.8367 82.2768 58.9673C82.7923 59.406 83.5155 60.184 83.5006 61.0876C83.4768 62.4882 82.2113 63.4507 80.4417 63.4263C78.672 63.4019 77.4399 62.406 77.4655 61.0054C77.4804 60.1019 78.2304 59.3435 78.7595 58.9221C78.9201 58.7963 79.0509 58.6365 79.1423 58.4541C79.2337 58.2717 79.2835 58.0713 79.2881 57.8673C79.2799 57.5306 79.1577 57.2065 78.9415 56.9482C78.7252 56.6899 78.4277 56.5126 78.0976 56.4453L70.628 56.4751L68.6196 56.5001L68.6065 66.89C68.6226 67.0907 68.6781 67.2864 68.7698 67.4658C68.8616 67.6451 68.9877 67.8046 69.1411 67.9352C69.2945 68.0657 69.4721 68.1648 69.6638 68.2267C69.8555 68.2886 70.0575 68.3121 70.2583 68.2959C70.468 68.2932 70.675 68.2484 70.8671 68.1644C71.0591 68.0804 71.2325 67.9587 71.3768 67.8066C71.6526 67.4407 72.0138 67.1478 72.4288 66.9534C72.8438 66.7591 73.3 66.6693 73.7577 66.6918C75.5083 66.8168 76.4292 67.7763 76.4559 69.3644C76.4817 69.7197 76.433 70.0766 76.3129 70.412C76.1929 70.7475 76.0041 71.0541 75.7587 71.3124C75.5133 71.5707 75.2166 71.775 74.8878 71.912C74.5589 72.0491 74.205 72.116 73.8488 72.1084C72.9552 72.0645 72.1106 71.6868 71.4821 71.0501C71.2642 70.8478 70.9997 70.7025 70.712 70.6272C70.4244 70.552 70.1226 70.549 69.8335 70.6186C69.5445 70.6882 69.2771 70.8281 69.0552 71.0261C68.8334 71.224 68.6639 71.4738 68.5619 71.7531C68.5747 71.8207 68.5809 71.8895 68.5804 71.9584L68.5 80.7947L92.9292 80.6971L92.6464 56.5048L83.4357 56.459Z" fill="#768A95"/>
<path d="M83.3176 56.553L92.6432 56.4935V54.6333H92.6343L92.5259 32.1828L68.5212 32.0869L68.4783 40.9214C68.4914 41.7274 67.6355 42.3006 66.748 42.3125C66.3097 42.3096 65.8897 42.137 65.576 41.831C64.9587 41.1952 64.1234 40.8171 63.2384 40.7726C62.8844 40.7675 62.5331 40.8363 62.2071 40.9747C61.8811 41.113 61.5876 41.3179 61.3453 41.5761C61.103 41.8344 60.9172 42.1404 60.7999 42.4745C60.6826 42.8087 60.6363 43.1636 60.664 43.5167C60.6902 45.1042 61.5998 46.0643 63.3289 46.1893C63.7825 46.2111 64.2344 46.1208 64.6447 45.9264C65.055 45.7319 65.4111 45.4393 65.6813 45.0744C65.823 44.9227 65.9939 44.8011 66.1838 44.717C66.3736 44.633 66.5785 44.5881 66.7861 44.5851C66.9855 44.57 67.186 44.5945 67.376 44.657C67.5661 44.7195 67.7419 44.819 67.8934 44.9496C68.0449 45.0802 68.1691 45.2394 68.259 45.4181C68.3488 45.5969 68.4026 45.7916 68.417 45.9911L68.6158 56.4732L72.2087 56.4571L77.6379 56.4714C78.0441 56.4581 78.439 56.6067 78.7357 56.8846C79.0324 57.1624 79.2066 57.5467 79.22 57.953C79.192 58.1603 79.1206 58.3594 79.0104 58.5372C78.9002 58.7151 78.7538 58.8677 78.5807 58.9851C78.2509 59.2362 77.9773 59.5535 77.7774 59.9166C77.5775 60.2797 77.4558 60.6805 77.42 61.0935C77.3968 62.4946 78.614 63.4905 80.3617 63.5149C82.1093 63.5393 83.473 62.5405 83.4968 61.1399C83.452 60.7125 83.3206 60.2987 83.1106 59.9237C82.9006 59.5487 82.6164 59.2205 82.2754 58.9589C82.1213 58.8393 81.9968 58.6858 81.9115 58.5103C81.8262 58.3349 81.7825 58.1421 81.7837 57.947C81.7878 57.7532 81.8314 57.5621 81.9118 57.3856C81.9922 57.2091 82.1076 57.0509 82.2511 56.9204C82.3946 56.79 82.5632 56.6902 82.7466 56.627C82.9299 56.5638 83.1242 56.5386 83.3176 56.553Z" fill="#35454D"/>
<g opacity="0.3">
<path d="M68.3987 32.1114C70.0821 31.4174 71.8672 32.8406 73.5505 32.1466C73.7908 32.0148 74.069 31.9694 74.3386 32.018C74.488 32.0852 74.6186 32.1881 74.7187 32.3178C74.8188 32.4475 74.8853 32.5999 74.9124 32.7614C75.0193 33.2021 75.0325 33.6603 74.9513 34.1064C74.8701 34.5524 74.6963 34.9766 74.441 35.3513C73.9218 36.0997 73.1913 36.6765 72.3428 37.0079C71.6783 37.3168 70.9302 37.3968 70.2154 37.2352C68.9934 36.8918 68.3827 33.3799 68.3987 32.1114Z" fill="black"/>
</g>
<path d="M68.0669 31.0029C68.3135 30.8675 68.5127 30.6597 68.6377 30.4077C68.8347 29.872 70.3282 29.597 70.3282 29.597C70.5655 29.4671 70.811 29.353 71.0633 29.2553C71.4395 29.1142 72.2752 29.672 72.2752 29.672C72.5122 29.484 72.8105 29.3905 73.1124 29.4096C73.4143 29.4287 73.6983 29.5591 73.9097 29.7755C74.1247 29.9014 74.3279 30.0465 74.5169 30.2089C74.5647 30.1555 74.6261 30.1162 74.6946 30.0952C74.7631 30.0743 74.8361 30.0724 74.9055 30.0898C75.1374 30.1203 75.3552 30.2184 75.5317 30.3719C75.7081 30.5254 75.8355 30.7275 75.8978 30.9529C76.1316 31.6411 76.2912 32.3523 76.374 33.0743C76.2021 33.8057 75.9313 34.5102 75.5692 35.1684C75.5692 35.1684 74.8895 35.5904 74.4484 35.3976C74.0073 35.2047 74.5079 33.8392 74.5079 33.8392L74.1323 31.994C74.1323 31.994 73.5049 36.0261 73.193 36.5017C72.8811 36.9773 71.8835 36.9071 71.8835 36.9071C70.8942 37.7618 70.4222 37.0166 70.4222 37.0166C70.4222 37.0166 70.3032 37.1481 69.8591 36.9571C69.4151 36.766 68.6377 32.1255 68.6377 32.1255L67.3008 32.2886C67.3071 32.0265 67.381 31.7705 67.5152 31.5453C67.6494 31.3201 67.8394 31.1333 68.0669 31.0029Z" fill="#FFBF9D"/>
<path d="M72.5598 30.9043C72.5395 30.9822 72.5272 31.062 72.523 31.1424C72.5058 31.312 72.4826 31.5293 72.4559 31.7894C72.403 32.3358 72.3371 33.0918 72.2682 33.9269C72.2336 34.6398 72.1569 35.35 72.0383 36.0537C71.9938 36.2646 71.9333 36.4717 71.8572 36.6733C71.8246 36.7459 71.7966 36.8205 71.7734 36.8966C71.7734 36.8966 71.7883 36.8805 71.8085 36.8454C71.8381 36.794 71.8651 36.7412 71.8892 36.687C71.9784 36.4877 72.0488 36.2804 72.0995 36.068C72.2371 35.3639 72.3231 34.6507 72.3567 33.9341C72.425 33.1007 72.4814 32.3424 72.5176 31.7912L72.5562 31.1418C72.5649 31.0629 72.566 30.9834 72.5598 30.9043Z" fill="#FF9A6C"/>
<path d="M70.6134 30.9004C70.5968 30.9797 70.5881 31.0604 70.5872 31.1415C70.5771 31.3135 70.5646 31.5343 70.5492 31.7992C70.5212 32.3552 70.4896 33.123 70.4587 33.9712C70.4277 34.8195 70.4063 35.5879 70.3944 36.1445C70.3902 36.4093 70.3873 36.6308 70.3849 36.8034C70.3803 36.8842 70.3833 36.9653 70.3938 37.0456C70.4102 36.9673 70.419 36.8876 70.42 36.8075C70.4301 36.6355 70.4426 36.4147 70.4575 36.1498C70.4855 35.5938 70.517 34.826 70.5486 33.9772C70.5801 33.1284 70.6009 32.3605 70.6128 31.804C70.617 31.5391 70.6194 31.3177 70.6224 31.145C70.6271 31.0634 70.6241 30.9815 70.6134 30.9004Z" fill="#FF9A6C"/>
<path d="M26.9906 52.8864L14.293 52.4834L12.6406 59.6715L26.2525 60.1626L26.9906 52.8864Z" fill="#FFBF9D"/>
<path d="M8.60938 51.8684C8.61235 51.8934 9.05104 51.8374 9.76176 51.8363C10.6886 51.8443 11.614 51.9081 12.5332 52.0273L15.2963 52.391C15.6534 52.4351 15.9379 52.4666 16.1374 52.4827C16.2403 52.4987 16.3448 52.5025 16.4487 52.494C16.3502 52.4601 16.2481 52.4379 16.1445 52.4279L15.3112 52.2922C14.6064 52.1803 13.6338 52.0184 12.5504 51.8869C11.6257 51.7652 10.693 51.7148 9.76056 51.7363C9.58199 51.7404 9.42009 51.7523 9.27783 51.766C9.13557 51.7797 9.01414 51.7892 8.91533 51.8065C8.81127 51.8151 8.70858 51.8359 8.60938 51.8684Z" fill="#FF9A6C"/>
<path d="M52.8425 43.339C52.7845 43.1441 52.6884 42.9626 52.5597 42.8052C52.4311 42.6477 52.2726 42.5172 52.0932 42.4214C51.9139 42.3256 51.7173 42.2663 51.5149 42.2469C51.3125 42.2276 51.1082 42.2485 50.9139 42.3086C50.7129 42.3633 50.5254 42.4594 50.3636 42.5907C50.2017 42.722 50.0691 42.8856 49.9741 43.0711C49.8139 43.4985 49.5481 43.8784 49.2014 44.1753C48.8546 44.4722 48.4383 44.6763 47.9913 44.7687C46.2943 45.0592 45.1741 44.3068 44.7455 42.705C44.3169 41.1033 45.0485 39.6967 46.5312 39.3027C47.4055 39.1368 48.3101 39.319 49.052 39.8104C49.2365 39.9256 49.4419 40.003 49.6565 40.0382C49.8711 40.0733 50.0905 40.0655 50.302 40.0152C51.1538 39.789 51.833 39.0032 51.6157 38.1878L50.0598 31.8568L49.389 29.2324L25.9961 35.1997L32.0038 59.6414L40.6735 57.6175C41.0815 57.5332 41.4395 57.2908 41.6692 56.9432C41.8988 56.5956 41.9815 56.1712 41.8991 55.7628C41.8513 55.558 41.76 55.3659 41.6313 55.1996C41.5026 55.0332 41.3395 54.8967 41.1532 54.7991C40.7556 54.6239 40.3981 54.3691 40.1028 54.0504C39.8074 53.7317 39.5805 53.3559 39.436 52.9461C39.1032 51.5211 40.0782 50.2408 41.7889 49.8378C43.4997 49.4348 44.9395 50.1467 45.2729 51.5717C45.3247 52.0036 45.2878 52.4416 45.1645 52.8588C45.0412 53.276 44.834 53.6636 44.5556 53.9979C44.432 54.1684 44.3464 54.3634 44.3048 54.5699C44.2632 54.7763 44.2665 54.9893 44.3145 55.1943C44.4003 55.5278 44.5955 55.8228 44.8689 56.0321C45.1423 56.2414 45.478 56.3528 45.8223 56.3485L53.6342 54.358L55.4693 53.8717L52.8425 43.339Z" fill="#35454D"/>
<path d="M23.1094 54.8812L26.5618 50.2426L29.2844 48.2188L29.3123 49.6134C29.3123 49.6134 34.6915 49.0717 35.4713 49.2563C35.9475 49.3699 36.6344 50.7086 35.585 51.008C35.8352 51.1138 36.0582 51.2748 36.2374 51.479C36.4165 51.6833 36.5472 51.9253 36.6195 52.1872C36.7844 53.017 36.3689 53.4074 35.3844 53.7259C35.3844 53.7259 36.4856 54.308 36.2594 55.0307C36.1669 55.261 36.0272 55.4694 35.8494 55.6426C35.6715 55.8157 35.4594 55.9497 35.2266 56.036C35.2266 56.036 35.8177 57.1509 35.2862 57.5646C34.3774 58.1495 33.3863 58.5953 32.3457 58.8872L28.7302 59.6045L26.4713 60.2527L23.1094 54.8812Z" fill="#FFBF9D"/>
<path d="M32.332 51.7034C32.8892 51.7155 33.4449 51.6406 33.9791 51.4814C34.5311 51.4063 35.0681 51.2456 35.5707 51.0052C35.0135 50.993 34.4579 51.0677 33.9237 51.2266C33.3716 51.3021 32.8347 51.4629 32.332 51.7034Z" fill="#FF9A6C"/>
<path d="M32.7422 54.3248C33.6368 54.3188 34.5215 54.1368 35.3458 53.7891C34.4512 53.7954 33.5666 53.9775 32.7422 54.3248Z" fill="#FF9A6C"/>
<path d="M32.9961 56.5191C33.0223 56.5935 33.5145 56.4482 34.1044 56.2976C34.4773 56.2532 34.8437 56.1651 35.1961 56.0351C34.8215 55.9098 34.4158 55.9129 34.0431 56.0441C33.657 56.1027 33.2946 56.2671 32.9961 56.5191Z" fill="#FF9A6C"/>
<path d="M28.6641 49.8579C29.2113 49.8687 29.7577 49.8076 30.2891 49.6764C30.8346 49.6299 31.3715 49.5116 31.8861 49.3246C30.7861 49.2709 29.6875 49.4536 28.6641 49.8603V49.8579Z" fill="#FF9A6C"/>
</g>
</svg>
