<svg width="117" height="75" viewBox="0 0 117 75" fill="none" xmlns="http://www.w3.org/2000/svg">
<path d="M33.5252 30.7354C33.5252 30.9096 32.5519 32.0258 32.9405 33.2679C33.0521 33.6195 34.0084 34.3261 34.0084 34.3261L32.9946 36.0327L38.9557 38.4685L41.9531 32.884L35.9549 31.2709L33.5252 30.7354Z" fill="#FFBE9D"/>
<path d="M37.0435 24.2237C36.7516 24.0299 36.504 23.7816 36.3156 23.4937C36.1273 23.2058 36.0021 22.8843 35.9478 22.5489C35.8934 22.2134 35.911 21.8709 35.9995 21.5422C36.0879 21.2134 36.2454 20.9052 36.4623 20.6362C37.1111 19.9039 38.1993 19.5619 38.6859 18.7199C39.0475 18.1005 38.9968 17.3391 38.8515 16.6455C38.6472 15.9633 38.5281 15.2605 38.4966 14.5517C38.5237 13.8419 38.8886 13.0838 39.5814 12.8321C40.5513 12.4837 41.565 13.2644 42.1057 14.1065C42.6645 14.9969 42.986 16.0046 43.042 17.0412C43.0979 18.0778 42.8867 19.1117 42.4268 20.0523C42.0213 20.8621 41.4366 21.5783 40.9973 22.3687C40.558 23.1591 40.2573 24.0818 40.4904 24.9496" fill="#F5F5F5"/>
<path d="M39.8009 15.3994C39.9945 15.7716 40.1322 16.1681 40.2098 16.577C40.2786 17.0203 40.2534 17.4723 40.1355 17.9061C40.0621 18.159 39.9602 18.4035 39.8314 18.6353C39.6846 18.8782 39.5051 19.1016 39.2974 19.2999C38.8581 19.7031 38.3343 20.0096 38.0032 20.4451C37.7154 20.8232 37.5423 21.2697 37.503 21.7356C37.4756 22.0493 37.5135 22.3651 37.6145 22.6647C37.6435 22.7805 37.6951 22.8899 37.7666 22.9874C37.6383 22.591 37.5912 22.1748 37.6281 21.7614C37.6771 21.3173 37.8524 20.8945 38.1349 20.5387C38.4458 20.1354 38.9595 19.8419 39.4191 19.4224C39.6399 19.2121 39.8287 18.9732 39.98 18.7127C40.1157 18.4685 40.2201 18.2096 40.2909 17.9416C40.4069 17.4883 40.4219 17.0168 40.3349 16.5576C40.2744 16.2491 40.1602 15.9525 39.9969 15.6801C39.9465 15.5778 39.8804 15.4832 39.8009 15.3994Z" fill="#263238"/>
<path d="M41.3976 15.5176C41.5927 15.8884 41.7315 16.2838 41.8099 16.6919C41.8758 17.1355 41.8494 17.5872 41.7322 18.0211C41.6594 18.2741 41.5574 18.5186 41.4281 18.7502C41.2823 18.9947 41.1027 19.2193 40.8941 19.418C40.4582 19.8181 39.931 20.1245 39.5999 20.5633C39.3111 20.9409 39.138 21.3877 39.0997 21.8538C39.0722 22.1664 39.1101 22.4812 39.2112 22.7797C39.2402 22.8954 39.2918 23.0049 39.3633 23.1023C39.2365 22.7057 39.1894 22.2897 39.2248 21.8764C39.276 21.4338 39.4511 21.0126 39.7316 20.6569C40.0425 20.2536 40.5562 19.9568 41.0158 19.5374C41.2366 19.3282 41.4254 19.0903 41.5767 18.8309C41.7124 18.5867 41.8168 18.3278 41.8876 18.0598C42.0055 17.6091 42.024 17.14 41.9417 16.6822C41.8816 16.3736 41.7674 16.077 41.6038 15.8047C41.5531 15.6983 41.4834 15.6011 41.3976 15.5176Z" fill="#263238"/>
<path d="M38.896 5.58782C38.6848 5.66185 38.4946 5.78212 38.3409 5.939C38.1871 6.09588 38.074 6.28499 38.0107 6.49115C37.8861 6.9058 37.9026 7.34752 38.058 7.75259C38.1686 8.09237 38.3742 8.39689 38.6527 8.63333C38.7899 8.75006 38.9505 8.83887 39.1248 8.89434C39.2991 8.94981 39.4835 8.97077 39.6665 8.95595C39.905 8.91433 40.1309 8.82271 40.3278 8.6877C40.5247 8.55269 40.6878 8.37766 40.8054 8.17521C41.0209 7.86269 41.1419 7.49941 41.1551 7.12541C41.1682 6.75141 41.0729 6.38121 40.8797 6.05562C40.4573 5.42974 39.484 5.15552 38.8521 5.57815" fill="#F5F5F5"/>
<path d="M33.6118 23.1641L32.544 32.3038C32.5037 32.645 32.6022 32.9879 32.8192 33.2616C33.0361 33.5354 33.355 33.7192 33.7098 33.7749L39.5459 34.7009C39.9097 34.7583 40.2826 34.6773 40.5846 34.4753C40.8866 34.2732 41.0936 33.9662 41.1612 33.6201L42.8711 24.7997L33.6118 23.1641Z" fill="#455A64"/>
<path d="M33.5115 24.0353C33.5115 24.0353 36.5529 27.1776 36.0392 28.1842C35.7418 28.7681 34.9308 28.7133 34.4678 28.1584C34.0049 27.6035 33.4 26.9324 32.9877 26.4614C32.447 25.8388 32.5248 23.9611 33.5115 24.0353Z" fill="#FFBE9D"/>
<path d="M32.9164 26.2232C32.9164 26.2232 35.684 28.8042 35.2312 29.6559C34.7784 30.5076 33.9639 30.0011 33.5618 29.5204C33.1597 29.0397 32.8859 28.63 32.548 28.2299C32.0682 27.6847 31.9668 25.9103 32.9164 26.2232Z" fill="#FFBE9D"/>
<path d="M32.7052 28.3052C32.7052 28.3052 34.6753 30.3506 34.3306 31.0055C33.9859 31.6604 33.5669 31.5153 33.2628 31.1507C32.9586 30.7861 32.5632 30.3474 32.2929 30.0377C31.9347 29.6215 32.0699 28.1439 32.7052 28.3052Z" fill="#FFBE9D"/>
<path d="M41.9604 32.7873L43.5352 29.2675L39.8551 25.2832C39.8551 25.2832 38.9292 25.8413 39.48 27.0124C40.0308 28.1835 41.4197 29.2708 41.4197 29.2708L41.3183 32.7937L41.9604 32.7873Z" fill="#FFBE9D"/>
<path d="M40.6877 26.0202C40.6877 26.1105 41.421 25.9556 42.4314 26.3621C43.0076 26.5977 43.5079 26.9751 43.8812 27.4558C44.3126 28.0528 44.5176 28.7725 44.4623 29.4958C44.407 30.2192 44.0946 30.9028 43.577 31.4337C43.1343 31.86 42.58 32.1652 41.9718 32.3176C40.9141 32.5757 40.218 32.3176 40.1977 32.4144C40.1977 32.4402 40.343 32.5402 40.6607 32.6209C41.116 32.7309 41.5908 32.7463 42.053 32.6661C42.7537 32.545 43.4021 32.231 43.9183 31.7627C44.5407 31.164 44.9172 30.3719 44.9792 29.5305C45.0412 28.6891 44.7847 27.8544 44.2563 27.1784C43.8167 26.645 43.2236 26.2458 42.5497 26.0298C42.1051 25.8829 41.6321 25.8311 41.1642 25.8782C40.8499 25.9137 40.681 25.9911 40.6877 26.0202Z" fill="#455A64"/>
<path d="M32.7999 26.0938C33.4688 27.0342 34.2304 27.9114 35.0742 28.7134C34.7657 28.2264 34.4081 27.7693 34.0064 27.3487C33.6492 26.8929 33.245 26.4725 32.7999 26.0938Z" fill="#EB996E"/>
<path d="M32.475 28.2002C32.6741 28.6046 32.9349 28.9786 33.2489 29.31C33.5182 29.6782 33.8453 30.0047 34.2188 30.2778C33.9796 29.8974 33.7011 29.5407 33.3874 29.2132C33.119 28.8477 32.8134 28.5083 32.475 28.2002Z" fill="#EB996E"/>
<path d="M34.4181 34.6221C34.8758 34.8743 35.3607 35.0787 35.8645 35.2315C36.3492 35.4341 36.8557 35.5855 37.375 35.6829C36.9182 35.429 36.4331 35.2246 35.9287 35.0735C35.4439 34.8709 34.9374 34.7195 34.4181 34.6221Z" fill="#EB996E"/>
<path d="M39.1516 57.2699C39.1516 57.2699 38.1378 45.8235 38.692 44.3653C39.2462 42.907 40.875 37.4387 40.875 37.4387L32.0685 34.9287C32.0685 34.9287 27.5707 46.2526 26.0264 56.186L39.1516 57.2699Z" fill="#F99D25"/>
<path d="M41.7426 64.8775L52.6065 53.2633L52.7146 67.3778L49.6734 74.8883H82.3327L83.3194 57.338L85.6578 38.5391C85.7975 37.4191 85.5447 36.2864 84.9388 35.3181C84.333 34.3498 83.4082 33.6003 82.3091 33.1869L73.351 29.8252L60.7536 32.0287L55.6849 33.8676C53.5576 34.6402 51.6615 35.8998 50.1634 37.5357L34.91 54.1892" fill="#F99D25"/>
<path d="M53.3711 50.4863C52.7576 50.4776 52.145 50.4366 51.5361 50.3637C50.074 50.1474 48.7125 49.5203 47.625 48.5626C46.5375 47.6048 45.7733 46.3596 45.4297 44.9857C45.3036 44.4125 45.2111 43.833 45.1527 43.25C45.1107 43.4058 45.0948 43.5669 45.1053 43.7275C45.1047 44.1612 45.1523 44.5938 45.2473 45.0179C45.5527 46.4482 46.3218 47.7504 47.4457 48.74C48.5696 49.7295 49.9912 50.3563 51.5091 50.5315C51.9573 50.5873 52.4103 50.5981 52.8608 50.5637C53.0343 50.5665 53.207 50.5403 53.3711 50.4863Z" fill="white"/>
<path d="M52.6373 66.7816C52.563 66.7816 52.4481 61.894 52.3839 55.8642C52.3197 49.8345 52.3298 44.9404 52.4075 44.9404C52.4852 44.9404 52.5968 49.8281 52.661 55.861C52.7252 61.894 52.715 66.7816 52.6373 66.7816Z" fill="#455A64"/>
<path d="M53.6145 70.3669L73.2507 62.8209C74.0298 62.5254 74.7063 62.0271 75.2034 61.3826C75.7004 60.7381 75.9979 59.9733 76.0621 59.1753L77.4847 41.2055C77.4847 41.2055 77.3158 33.5595 82.3169 33.1885L85.1621 34.2563C88.8386 36.1211 89.751 41.2346 89.2475 45.1802C88.5379 50.7872 88.2337 58.7301 87.4464 63.5887C86.7942 67.5666 84.4052 71.0702 80.3266 72.0961L56.426 74.9997L53.6145 70.3669Z" fill="#F99D25"/>
<path d="M77.204 43.9414C77.1711 44.0771 77.1508 44.2153 77.1431 44.3544C77.1127 44.6479 77.0688 45.0415 77.0147 45.5384C76.9167 46.5933 76.7748 48.0741 76.6025 49.8969C76.4302 51.7197 76.2375 53.9361 76.0179 56.3654C75.9638 56.9719 75.9098 57.5978 75.8557 58.2333C75.817 58.8833 75.7324 59.53 75.6023 60.169C75.4677 60.8128 75.1277 61.4011 74.6291 61.8531C74.0884 62.3026 73.4758 62.6664 72.8145 62.9306C67.4079 65.1664 62.4101 67.0118 58.7911 68.3087L54.4895 69.8218L53.3203 70.2315C53.1813 70.2733 53.0467 70.3273 52.9182 70.3928C53.0603 70.3639 53.2002 70.3262 53.3372 70.2799L54.5232 69.9121C55.537 69.5895 57.0306 69.1023 58.8553 68.4764C62.498 67.2085 67.4957 65.4019 72.926 63.1436C73.6132 62.8697 74.249 62.4905 74.8082 62.0209C75.342 61.5333 75.7074 60.9019 75.8557 60.211C75.9855 59.5644 76.069 58.9101 76.1058 58.2527C76.1564 57.6075 76.2105 56.9945 76.2612 56.3847C76.4572 53.9522 76.6363 51.7616 76.785 49.9098C76.9336 48.058 77.0384 46.5998 77.1229 45.5448C77.1533 45.048 77.1803 44.6512 77.1972 44.3576C77.2129 44.2193 77.2151 44.08 77.204 43.9414Z" fill="#455A64"/>
<path d="M80.0586 66.2901C80.01 65.9388 79.8894 65.6001 79.7038 65.2932C79.3004 64.5264 78.7408 63.8441 78.0579 63.2863C77.3749 62.7285 76.5823 62.3063 75.7263 62.0444C75.3779 61.9184 75.0074 61.857 74.6348 61.8638C74.6348 61.9057 75.0403 61.9831 75.6655 62.2122C77.3014 62.8099 78.6714 63.9277 79.5449 65.3771C79.8727 65.9288 80.018 66.3062 80.0586 66.2901Z" fill="#263238"/>
<path d="M76.1992 52.6263C76.1992 52.6263 76.1519 52.6263 76.0742 52.6779L75.7363 52.8521C75.2815 53.0686 74.8131 53.2583 74.3339 53.4199C72.5682 54.0108 70.6744 54.165 68.8293 53.8684C66.0894 53.4034 63.6412 51.9517 61.99 49.8131C60.997 48.5784 60.3724 47.1103 60.1821 45.5642C60.0914 44.7545 60.18 43.9356 60.4423 43.1607C60.7218 42.3683 61.2092 41.6574 61.8582 41.096C62.4945 40.5241 63.2985 40.1516 64.1628 40.0281C64.572 39.9574 64.9927 39.9764 65.3931 40.0837C65.7936 40.191 66.1632 40.3838 66.4741 40.6475C66.6149 40.7767 66.7272 40.9314 66.8043 41.1026C66.8815 41.2738 66.922 41.458 66.9235 41.6444C66.9187 42.0178 66.7857 42.3793 66.545 42.6736C66.044 43.2454 65.3257 43.6039 64.548 43.6705C63.0882 43.8502 61.6047 43.6472 60.2565 43.0833C59.1759 42.6446 58.2103 41.9832 57.4287 41.1467C56.6471 40.3101 56.0688 39.3189 55.7352 38.244C55.4992 37.5119 55.3729 36.7516 55.3601 35.9857C55.3562 35.5019 55.3935 35.0185 55.4716 34.5404C55.502 34.3888 55.5257 34.2662 55.5426 34.1662C55.5595 34.0662 55.5662 34.0403 55.5595 34.0371C55.3509 34.6627 55.2493 35.3163 55.2587 35.9728C55.256 36.75 55.3698 37.5235 55.5967 38.2699C56.1526 40.0713 57.3602 41.6259 59.0044 42.6568C60.6485 43.6878 62.6226 44.1281 64.575 43.8995C65.417 43.8259 66.1944 43.4374 66.7377 42.8187C67.0094 42.4814 67.161 42.0699 67.1702 41.6444C67.1678 41.4259 67.1204 41.21 67.0305 41.0091C66.9406 40.8081 66.8101 40.6261 66.6464 40.4733C66.3083 40.1814 65.9048 39.9672 65.4668 39.847C65.0287 39.7268 64.5676 39.7038 64.1188 39.7797C63.201 39.9086 62.3468 40.3039 61.6723 40.9121C60.99 41.5021 60.478 42.2498 60.1855 43.0833C59.9124 43.8904 59.8203 44.7434 59.9152 45.5868C60.1082 47.1738 60.7482 48.6811 61.767 49.9486C63.1674 51.7723 65.1547 53.1081 67.4253 53.7519C69.6958 54.3956 72.1247 54.3119 74.3407 53.5135C74.9979 53.2961 75.6227 52.9978 76.1992 52.6263Z" fill="white"/>
<path d="M89.0508 47.832C88.9591 47.6885 88.8452 47.559 88.7129 47.4481C88.3907 47.1216 88.0353 46.8265 87.6518 46.5674C86.3645 45.7219 84.8669 45.2145 83.3094 45.0962C82.455 45.0053 81.5911 45.0401 80.7479 45.1995C80.063 45.3343 79.4003 45.5568 78.7777 45.8608C78.359 46.0622 77.9578 46.2952 77.5781 46.5577C77.4307 46.6465 77.2975 46.7551 77.1827 46.8803C77.2097 46.9222 77.7977 46.4964 78.8554 46.0286C80.2368 45.4156 81.7695 45.1811 83.2823 45.3511C84.7978 45.4663 86.2608 45.9337 87.5436 46.7125C88.5338 47.3384 89.0136 47.8675 89.0508 47.832Z" fill="white"/>
<path d="M85.9141 34.9789C85.4342 35.4077 84.9008 35.7783 84.3258 36.0822C83.6921 36.3886 83.0048 36.5811 82.2982 36.6501C81.4374 36.7476 80.5647 36.6327 79.7636 36.3164C78.9626 36.0001 78.2599 35.4929 77.7227 34.8434C77.2726 34.3194 76.9288 33.7198 76.7089 33.0755C76.5248 32.4731 76.4214 31.8508 76.4013 31.2236C76.3508 31.3891 76.328 31.5611 76.3338 31.7334C76.3243 32.2048 76.3904 32.6748 76.5298 33.1271C76.7353 33.8045 77.0799 34.4362 77.5435 34.9853C78.0965 35.6754 78.8305 36.2139 79.6713 36.5464C80.5121 36.879 81.4299 36.9937 82.332 36.8791C83.0647 36.797 83.7732 36.5777 84.417 36.2339C84.8491 36.006 85.2432 35.7178 85.5863 35.3789C85.7178 35.2636 85.8285 35.1285 85.9141 34.9789Z" fill="white"/>
<path d="M68.8047 64.5313C68.8026 64.4121 68.7891 64.2933 68.7641 64.1765C68.6947 63.8415 68.5811 63.5163 68.4262 63.2086C67.7829 62.0871 66.7398 61.223 65.4862 60.7728C63.952 60.1276 61.84 59.9857 59.7144 60.5761C58.6769 60.8696 57.484 61.2213 56.7034 62.1891C56.5049 62.4371 56.3798 62.7313 56.3412 63.0412C56.3025 63.3511 56.3518 63.6651 56.4838 63.9506C56.7883 64.5093 57.2811 64.9537 57.8828 65.2121C58.461 65.487 59.0956 65.6368 59.7414 65.6508C60.3831 65.6825 61.0157 65.4949 61.5257 65.1217C61.7621 64.9302 61.955 64.6947 62.0928 64.4295C62.2305 64.1644 62.31 63.8752 62.3266 63.5796C62.3576 63.03 62.2666 62.4803 62.0596 61.9665C61.2935 60.2083 59.8384 58.8053 58.0045 58.0564C56.7941 57.5353 55.4658 57.3134 54.1419 57.4112C53.6599 57.4451 53.1848 57.5406 52.7294 57.6951C52.7294 57.7273 53.2295 57.566 54.1487 57.508C55.4485 57.4459 56.7447 57.685 57.9267 58.2048C58.7418 58.5585 59.4879 59.0417 60.1334 59.634C60.8719 60.3079 61.4484 61.1269 61.8231 62.0343C62.0188 62.5202 62.1029 63.0406 62.0698 63.5603C62.0552 63.8236 61.9845 64.0814 61.8619 64.3177C61.7393 64.5541 61.5674 64.764 61.3567 64.9346C60.8917 65.2678 60.3185 65.4334 59.738 65.4024C59.1321 65.3856 58.5372 65.2436 57.9943 64.9862C57.4469 64.7527 56.9964 64.3521 56.7136 63.8474C56.6001 63.6014 56.5582 63.3308 56.5921 63.064C56.626 62.7972 56.7345 62.5441 56.9062 62.3311C57.2578 61.9071 57.7078 61.567 58.2207 61.3374C58.7188 61.1083 59.2381 60.9236 59.7718 60.7858C61.8569 60.1986 63.9013 60.3018 65.4085 60.9245C66.6346 61.3485 67.6672 62.1677 68.3282 63.2409C68.5428 63.6503 68.7029 64.0839 68.8047 64.5313Z" fill="white"/>
<path d="M81.8906 71.2986C81.8906 71.2503 81.1404 71.189 80.005 70.8018C78.5229 70.3067 77.1947 69.4642 76.1425 68.3514C75.0904 67.2387 74.3478 65.8914 73.9831 64.4334C73.6958 63.3171 73.706 62.5944 73.6451 62.5977C73.6071 62.7639 73.5968 62.9349 73.6147 63.1042C73.63 63.5652 73.6877 64.024 73.7871 64.4753C74.1135 65.9814 74.8554 67.3769 75.936 68.5176C77.0167 69.6582 78.397 70.5025 79.934 70.9631C80.3939 71.1059 80.8668 71.2075 81.3466 71.2664C81.5255 71.301 81.7086 71.3119 81.8906 71.2986Z" fill="white"/>
<path d="M88.2305 57.3443C88.1555 57.3056 88.0762 57.2753 87.9939 57.254C87.8351 57.2056 87.5985 57.1346 87.291 57.0604C86.4203 56.8381 85.5177 56.751 84.618 56.8023C83.9907 56.8448 83.3757 56.99 82.7999 57.2314C82.1296 57.5061 81.5468 57.9445 81.1103 58.5025C80.6231 59.1321 80.3838 59.9054 80.4344 60.6866C80.4685 61.1017 80.6027 61.5036 80.8264 61.861C81.0533 62.2391 81.4121 62.5292 81.8402 62.6804C82.0649 62.7541 82.306 62.7699 82.5392 62.7263C82.7723 62.6827 82.9893 62.5812 83.1683 62.432C83.4703 62.1122 83.6334 61.6946 83.6245 61.2641C83.6517 60.4959 83.4933 59.732 83.1615 59.0316C82.8869 58.4421 82.4926 57.9104 82.0012 57.4674C81.5099 57.0243 80.9314 56.6788 80.2993 56.4507C79.4469 56.144 78.5249 56.0573 77.6262 56.199C77.3853 56.2379 77.148 56.2951 76.9166 56.37C76.8342 56.3925 76.7557 56.4261 76.6834 56.47C76.6834 56.4926 77.0213 56.37 77.6431 56.2958C78.5207 56.1965 79.4103 56.3074 80.2317 56.6184C81.4457 57.0867 82.4172 57.9933 82.9351 59.1413C83.2446 59.8098 83.3902 60.537 83.3609 61.2673C83.3693 61.6331 83.2343 61.9886 82.9824 62.2642C82.8373 62.3822 82.6626 62.462 82.4753 62.496C82.2881 62.5299 82.0948 62.5168 81.9146 62.4578C81.5407 62.3272 81.2271 62.0746 81.0292 61.7448C80.8248 61.4225 80.7022 61.059 80.671 60.6834C80.6184 59.9598 80.8311 59.2413 81.2725 58.6509C81.684 58.1222 82.2309 57.7034 82.8608 57.4347C83.4131 57.198 84.002 57.0488 84.6045 56.9927C85.4876 56.9287 86.3758 56.9896 87.2403 57.1733C87.8925 57.2669 88.2305 57.3443 88.2305 57.3443Z" fill="white"/>
<g opacity="0.3">
<path d="M59.2655 68.2257C61.3674 67.0933 63.4186 66.2255 65.6152 65.2705C67.8117 64.3156 69.9609 63.0961 71.3971 61.2475C74.1006 57.76 73.7998 52.7272 76.5742 49.2881C76.3917 51.6023 76.2104 53.9155 76.0302 56.2276C75.8646 58.3504 76.2059 60.4474 74.7731 61.8863C73.57 63.1026 71.218 64.0317 69.5554 64.5576C66.2099 65.6093 62.611 67.174 59.2655 68.2257Z" fill="black"/>
</g>
<path d="M29.9237 40.2754C30 40.3307 30.0814 40.3793 30.167 40.4206C30.3326 40.5077 30.5691 40.6496 30.8665 40.8367C31.6996 41.3774 32.4472 42.0293 33.0867 42.7724C34.0347 43.8732 34.7146 45.1614 35.0771 46.5438C35.3121 47.3493 35.3191 48.1998 35.0974 49.0086C34.9694 49.4253 34.7375 49.8061 34.4215 50.1184C34.0965 50.4378 33.6826 50.6617 33.2286 50.7637C32.7747 50.8633 32.2979 50.7892 31.9005 50.5572C31.5129 50.3284 31.2094 49.9902 31.0321 49.5893C30.8476 49.2086 30.7898 48.783 30.8665 48.3699C30.9424 47.9749 31.1188 47.6037 31.3801 47.2891C31.87 46.6957 32.5803 46.3052 33.3638 46.1986C34.0479 46.1053 34.7457 46.1797 35.3914 46.4148C35.9264 46.6056 36.4261 46.8768 36.8715 47.2181C37.21 47.4742 37.5254 47.7569 37.8143 48.0634C38.0542 48.315 38.2266 48.5247 38.3449 48.6634C38.3992 48.7392 38.4603 48.8105 38.5273 48.8764C38.5273 48.8764 38.5273 48.8538 38.4902 48.8151C38.453 48.7764 38.426 48.7183 38.3719 48.6441C38.2638 48.4957 38.0982 48.2827 37.865 48.0214C37.5831 47.7021 37.2709 47.4083 36.9323 47.1439C36.485 46.7869 35.9792 46.5024 35.4353 46.3019C34.7705 46.0542 34.051 45.971 33.3435 46.0599C32.521 46.1678 31.7734 46.5732 31.2551 47.1923C30.9749 47.527 30.7857 47.9227 30.7043 48.344C30.6212 48.7872 30.6814 49.2441 30.8766 49.6539C31.0699 50.0834 31.3966 50.446 31.8127 50.6927C32.2492 50.9453 32.7714 51.0262 33.2692 50.9185C33.7586 50.8079 34.2036 50.5635 34.5499 50.2152C34.8889 49.8843 35.1373 49.4788 35.2731 49.0344C35.5011 48.1986 35.4906 47.3197 35.2427 46.489C34.6098 44.1264 33.0631 42.0803 30.9138 40.7625C30.6809 40.6209 30.4407 40.4906 30.194 40.3722C30.1062 40.3343 30.0159 40.302 29.9237 40.2754Z" fill="white"/>
<path d="M67.1886 74.8931C67.2868 74.8833 67.384 74.8661 67.4793 74.8415L68.3038 74.6738L71.345 74.0995C72.6324 73.8608 74.1699 73.5801 75.8696 73.2413C76.7212 73.0736 77.6099 72.8897 78.5324 72.68C79.4916 72.4841 80.432 72.2121 81.3438 71.867C83.1136 71.1688 84.6188 69.9726 85.659 68.4376C86.4514 67.1673 87.022 65.7824 87.3485 64.3371C87.5849 63.3693 87.743 62.3857 87.8216 61.3948C87.8453 61.0464 87.8622 60.7722 87.8622 60.5883C87.8689 60.4948 87.8689 60.4011 87.8622 60.3076C87.8432 60.4002 87.8319 60.494 87.8284 60.5883C87.8284 60.7722 87.7878 61.0432 87.754 61.3916C87.6464 62.3694 87.4714 63.3393 87.2303 64.2952C86.8894 65.7265 86.3134 67.0974 85.5238 68.3569C84.4945 69.8592 83.014 71.0298 81.2762 71.7154C80.3734 72.0541 79.4434 72.3227 78.4952 72.5187C77.5761 72.7316 76.6874 72.9187 75.8392 73.0897L71.3315 73.9833C70.0474 74.2382 69.0066 74.4479 68.2902 74.6092C67.9321 74.6899 67.655 74.7544 67.4691 74.8092C67.373 74.8283 67.279 74.8564 67.1886 74.8931Z" fill="#455A64"/>
<path d="M53.0189 71.1028L51.8463 70.593L50.0384 68.5509C49.7195 68.1899 49.3056 67.9166 48.8394 67.7589C48.3732 67.6013 47.8714 67.5651 47.3856 67.654L43.1784 68.4154L44.3138 73.7127H53.3906L53.0189 71.1028Z" fill="#FFBE9D"/>
<path d="M48.5352 4.5995C50.316 3.60584 52.7253 4.7963 54.6176 3.9833C55.7598 3.48647 56.4356 2.37022 57.3581 1.56367C58.7402 0.353859 60.9602 -0.291374 62.7647 0.128028C64.5692 0.547431 65.8431 1.15395 66.4817 2.83478C67.7591 1.68949 70.6685 2.90899 71.9357 4.44787C73.2028 5.98675 73.4292 7.79664 73.409 9.74202C73.369 13.1057 72.6377 16.4291 71.2565 19.5238C71.1348 19.7948 70.9185 20.1174 70.6077 20.0561C70.3981 20.0141 70.2697 19.8044 70.1988 19.6141C69.4993 18.001 69.2966 16.2298 69.0296 14.4974C68.7627 12.7649 68.4011 11.0002 67.4414 9.50973C66.4817 8.01924 64.7888 6.84169 62.9539 6.90944C61.6023 6.95783 60.3588 7.66114 59.3619 8.52252C58.3651 9.38391 57.5608 10.4582 56.6383 11.4003C55.7158 12.3423 54.6345 13.2166 53.3335 13.5682C52.0326 13.9199 50.4714 13.6457 49.6165 12.6359C48.7616 11.6261 49.0015 9.86461 50.2281 9.30971C49.6178 9.39119 48.9968 9.26804 48.471 8.96127C47.9451 8.6545 47.547 8.18309 47.3445 7.62741C47.142 7.07174 47.1476 6.4662 47.3604 5.91405C47.5732 5.3619 47.9801 4.89731 48.5115 4.5995H48.5352Z" fill="#263238"/>
<path d="M70.7821 10.8776L73.5834 30.3217C73.6965 31.1054 73.6415 31.9029 73.422 32.6657C73.2024 33.4285 72.8227 34.1408 72.3061 34.7593C71.7894 35.3778 71.1465 35.8896 70.4163 36.2637C69.6862 36.6377 68.884 36.8662 68.0586 36.9353C66.4935 37.0651 64.9362 36.6153 63.7089 35.679C62.4817 34.7427 61.6786 33.3917 61.4659 31.9057C61.2564 30.441 61.0773 29.2216 61.0469 29.0699C61.0469 29.0699 55.7923 29.2861 54.7144 24.4371C54.1906 22.0917 53.5283 17.1815 52.9809 12.7326C52.6988 10.4271 53.3362 8.10466 54.7663 6.22753C56.1965 4.35039 58.3145 3.05617 60.6988 2.60243L61.1922 2.48951C66.5481 1.7862 70.1807 5.73503 70.7821 10.8776Z" fill="#FFBE9D"/>
<path d="M61.0335 28.9997C63.3899 28.5914 65.566 27.5235 67.2852 25.9316C67.2852 25.9316 66.4471 29.7321 61.2734 30.2612L61.0335 28.9997Z" fill="#EB996E"/>
<path d="M55.1479 15.6939C55.1833 15.8756 55.292 16.0368 55.4506 16.1429C55.6092 16.249 55.805 16.2915 55.9961 16.2614C56.0897 16.2503 56.1801 16.2215 56.2621 16.1768C56.344 16.1321 56.4158 16.0723 56.4733 16.0009C56.5308 15.9296 56.5729 15.848 56.5972 15.761C56.6214 15.6739 56.6273 15.5832 56.6145 15.494C56.5791 15.3123 56.4704 15.1511 56.3118 15.045C56.1532 14.9389 55.9574 14.8963 55.7663 14.9264C55.6723 14.9367 55.5814 14.9649 55.499 15.0094C55.4166 15.0538 55.3445 15.1136 55.2868 15.1852C55.2291 15.2568 55.1871 15.3387 55.1632 15.4261C55.1394 15.5135 55.1341 15.6045 55.1479 15.6939Z" fill="#263238"/>
<path d="M54.5848 14.9031C54.693 14.9741 55.1627 14.4807 55.9366 14.3324C56.7104 14.184 57.3694 14.4517 57.4369 14.3324C57.4674 14.284 57.3423 14.1389 57.0551 14.0099C56.6701 13.8503 56.2427 13.8086 55.8318 13.8906C55.4247 13.9676 55.0534 14.165 54.7707 14.4549C54.5781 14.6903 54.5308 14.8709 54.5848 14.9031Z" fill="#263238"/>
<path d="M62.8853 14.4928C62.9215 14.6741 63.0303 14.8348 63.1887 14.9407C63.3471 15.0467 63.5425 15.0896 63.7335 15.0603C63.8276 15.0496 63.9186 15.0211 64.001 14.9763C64.0834 14.9315 64.1555 14.8714 64.2132 14.7996C64.2708 14.7277 64.3128 14.6456 64.3366 14.558C64.3604 14.4704 64.3656 14.3792 64.3519 14.2897C64.3157 14.1086 64.2067 13.9482 64.0482 13.8427C63.8897 13.7373 63.6943 13.6952 63.5037 13.7254C63.4096 13.7356 63.3187 13.7638 63.2364 13.8083C63.154 13.8527 63.0818 13.9125 63.0241 13.9841C62.9665 14.0557 62.9244 14.1376 62.9006 14.225C62.8767 14.3124 62.8715 14.4035 62.8853 14.4928Z" fill="#263238"/>
<path d="M62.2987 13.5768C62.4069 13.651 62.8766 13.1544 63.6505 13.0093C64.4243 12.8642 65.0833 13.1254 65.1509 13.0093C65.1847 12.9609 65.0596 12.8126 64.7724 12.6868C64.3859 12.5284 63.9578 12.4867 63.5457 12.5675C63.1386 12.6445 62.7673 12.842 62.4846 13.1318C62.292 13.364 62.2447 13.5446 62.2987 13.5768Z" fill="#263238"/>
<path d="M60.6171 19.6612C60.1795 19.6185 59.738 19.6272 59.3026 19.687C59.0964 19.687 58.9004 19.687 58.8396 19.5773C58.7788 19.3848 58.7788 19.1795 58.8396 18.987C58.9308 18.4901 59.0288 17.9675 59.1268 17.4223C59.5155 15.1962 59.7554 13.3831 59.6608 13.3702C59.5662 13.3573 59.1742 15.1478 58.7889 17.3706C58.6977 17.9191 58.6098 18.4417 58.5287 18.9418C58.4501 19.1954 58.468 19.4674 58.5794 19.7096C58.6226 19.7716 58.6801 19.8233 58.7474 19.8608C58.8148 19.8982 58.8903 19.9205 58.968 19.9258C59.0811 19.9324 59.1945 19.9259 59.306 19.9064C60.1305 19.7967 60.6239 19.7064 60.6171 19.6612Z" fill="#263238"/>
<path d="M63.0297 19.7369C62.9013 19.7563 63.0703 20.5661 62.462 21.2823C61.8537 21.9985 60.9345 22.0791 60.9514 22.1921C60.9514 22.2469 61.1846 22.3114 61.5698 22.2501C62.0681 22.1607 62.5178 21.9073 62.8405 21.5339C63.1525 21.173 63.3041 20.7098 63.2629 20.2434C63.2223 19.9144 63.0871 19.724 63.0297 19.7369Z" fill="#263238"/>
<path d="M61.476 10.6872C61.5943 10.8775 62.3546 10.6324 63.2975 10.5615C64.2403 10.4905 65.0277 10.5905 65.1121 10.3841C65.1493 10.2874 64.9803 10.1197 64.639 9.98105C64.1892 9.81568 63.7056 9.75063 63.2253 9.79086C62.7451 9.8311 62.2808 9.97556 61.868 10.2132C61.5571 10.4067 61.4219 10.5969 61.476 10.6872Z" fill="#263238"/>
<path d="M54.4118 12.691C54.5841 12.8361 55.0876 12.5556 55.7331 12.4234C56.3785 12.2912 56.953 12.3105 57.0442 12.1009C57.0814 12.0042 56.9598 11.8527 56.686 11.7366C56.3231 11.6068 55.928 11.5822 55.5504 11.6659C55.1728 11.7497 54.8296 11.9381 54.5638 12.2074C54.3712 12.4331 54.334 12.6201 54.4118 12.691Z" fill="#263238"/>
<path d="M71.1227 14.5568C71.2004 14.5052 74.4141 12.9018 74.9987 16.2473C75.5833 19.5929 71.9574 19.4735 71.9202 19.367C71.883 19.2606 71.1227 14.5568 71.1227 14.5568Z" fill="#FFBE9D"/>
<path d="M72.7709 17.9224C72.7709 17.9224 72.8385 17.9515 72.95 17.9805C73.0267 17.9991 73.1065 18.003 73.1849 17.9919C73.2632 17.9808 73.3384 17.955 73.4062 17.916C73.7441 17.7289 73.9672 17.1191 73.8793 16.5126C73.8382 16.2244 73.7296 15.9487 73.5616 15.7061C73.5114 15.6062 73.436 15.5197 73.3423 15.4544C73.2485 15.3891 73.1393 15.347 73.0243 15.3318C72.9503 15.3238 72.8757 15.3411 72.8138 15.3807C72.7519 15.4203 72.7067 15.4796 72.6864 15.548C72.656 15.648 72.6864 15.7125 72.6864 15.7222C72.6864 15.7319 72.6019 15.677 72.6053 15.5351C72.6103 15.4489 72.646 15.3669 72.7067 15.3028C72.7476 15.2602 72.7972 15.226 72.8524 15.2021C72.9075 15.1783 72.9672 15.1653 73.0277 15.1641C73.1764 15.1685 73.3214 15.209 73.4492 15.2819C73.5769 15.3547 73.683 15.4574 73.7576 15.5802C73.9578 15.8465 74.0866 16.1556 74.1327 16.4803C74.2274 17.1578 73.9739 17.845 73.494 18.0644C73.4042 18.1047 73.3061 18.1256 73.2068 18.1256C73.1075 18.1256 73.0094 18.1047 72.9196 18.0644C72.7912 17.9999 72.7574 17.9289 72.7709 17.9224Z" fill="#EB996E"/>
<path d="M51.6877 11.924C52.874 11.9851 54.0585 11.7763 55.1437 11.3146C56.2289 10.853 57.1836 10.1519 57.9293 9.2689C58.9431 8.03005 59.6189 6.40729 61.0687 5.65559C61.5703 5.41988 62.116 5.28167 62.6741 5.249C63.2322 5.21632 63.7915 5.28983 64.3195 5.46525C65.3739 5.82209 66.3401 6.38214 67.1582 7.11059C66.6918 9.76896 67.9286 12.4015 69.135 14.8534C69.2388 15.1365 69.4386 15.3783 69.7028 15.5406C70.1792 15.7664 70.7436 15.4115 71.0274 14.9857C71.4836 14.3017 71.5377 13.4468 71.5208 12.637C71.5104 10.7864 71.1153 8.95624 70.3583 7.25255C69.595 5.54154 68.321 4.0829 66.6952 3.05852C64.6092 1.84147 62.1095 1.44585 59.7237 1.95517C57.3534 2.48018 55.2168 3.70499 53.6173 5.45557C52.835 6.2304 52.2681 7.17975 51.9682 8.21717" fill="#263238"/>
<path d="M47.3134 6.04609C47.3228 6.14474 47.3539 6.24038 47.4046 6.32676C47.543 6.58321 47.7631 6.79108 48.0332 6.92038C48.4661 7.11455 48.9522 7.17325 49.4221 7.08814C49.7136 7.04709 49.9993 6.97458 50.2737 6.87199C50.5899 6.75594 50.8685 6.56231 51.0813 6.31064C51.1994 6.16844 51.282 6.00247 51.323 5.8253C51.364 5.64812 51.3622 5.46437 51.3179 5.28794C51.2519 5.09891 51.1306 4.9319 50.9683 4.80667C50.806 4.68145 50.6095 4.60328 50.4021 4.58141C50.1876 4.54584 49.9674 4.56022 49.76 4.62335C49.5438 4.69226 49.3543 4.8215 49.2159 4.99436C49.077 5.17299 48.9802 5.37827 48.9324 5.59604C48.8846 5.81381 48.8868 6.0389 48.9388 6.25579C49.0442 6.71289 49.3329 7.11243 49.7431 7.36882C50.1625 7.63282 50.6474 7.7864 51.1489 7.81403C52.1941 7.83953 53.2183 7.53065 54.0585 6.93651C54.8897 6.36318 55.6504 5.70191 56.326 4.96532C56.9472 4.28976 57.6253 3.66395 58.3536 3.09414C59.0166 2.58741 59.7979 2.241 60.6312 2.08435C61.3609 1.96676 62.1088 2.00533 62.821 2.19727C63.8567 2.48655 64.797 3.02539 65.5515 3.76196C65.7597 3.95851 65.9571 4.16526 66.1428 4.38138C66.2679 4.52979 66.3355 4.61044 66.3388 4.60721C66.3422 4.60399 66.3388 4.58463 66.3017 4.54269C66.2645 4.50075 66.2307 4.43946 66.1699 4.36203C65.9944 4.13534 65.8036 3.9198 65.5988 3.71679C64.8509 2.95117 63.9042 2.38798 62.8548 2.08435C62.1255 1.88085 61.3579 1.83457 60.6075 1.94885C59.7437 2.10294 58.9319 2.455 58.242 2.97477C57.4999 3.54553 56.8093 4.17469 56.1773 4.85563C55.5108 5.57972 54.7603 6.22912 53.9402 6.79133C53.1311 7.36391 52.1457 7.66352 51.1388 7.64304C50.6681 7.61771 50.2127 7.47536 49.8175 7.23009C49.6304 7.11593 49.4688 6.9677 49.3418 6.79388C49.2149 6.62007 49.125 6.42406 49.0774 6.21707C49.0297 6.02191 49.0264 5.81925 49.0678 5.62278C49.1092 5.42631 49.1943 5.24061 49.3173 5.07824C49.4388 4.93176 49.6002 4.81998 49.7838 4.75512C49.9673 4.69026 50.166 4.67481 50.3581 4.71045C50.5394 4.72861 50.7115 4.79514 50.855 4.90241C50.9984 5.00968 51.1073 5.15335 51.1692 5.31698C51.2088 5.4749 51.2106 5.63933 51.1743 5.79799C51.138 5.95665 51.0646 6.10543 50.9597 6.23321C50.7645 6.47068 50.5068 6.65438 50.2128 6.76552C49.947 6.87068 49.6691 6.9454 49.3849 6.98813C48.931 7.08043 48.4581 7.03415 48.0332 6.85586C47.7708 6.7374 47.5518 6.5463 47.4046 6.30741C47.3691 6.22202 47.3386 6.13477 47.3134 6.04609Z" fill="#455A64"/>
<path d="M73.168 7.1762C72.8465 7.3627 72.507 7.51935 72.1542 7.644C71.7685 7.75225 71.3647 7.7884 70.9647 7.75046C70.4718 7.69964 69.9892 7.5812 69.5318 7.39881C68.7033 7.05581 68.0141 6.46469 67.5685 5.71475C67.3967 5.39518 67.2466 5.06544 67.119 4.72754C67.1167 4.82704 67.1315 4.92623 67.163 5.02112C67.2287 5.28111 67.3274 5.53246 67.457 5.76959C67.8887 6.5688 68.5984 7.19958 69.4643 7.55366C69.9382 7.7425 70.4397 7.86108 70.9512 7.90531C71.372 7.93777 71.7952 7.88726 72.1947 7.75691C72.4603 7.66447 72.7106 7.53628 72.9382 7.37622C73.0257 7.32201 73.1034 7.25444 73.168 7.1762Z" fill="#455A64"/>
<path d="M73.5234 9.61577C73.5234 9.58674 73.1247 9.74804 72.459 9.83838C71.5948 9.96315 70.7114 9.86297 69.902 9.5484C69.0925 9.23383 68.3869 8.71654 67.8597 8.05108C67.4508 7.54134 67.292 7.16711 67.2616 7.18001C67.2775 7.27362 67.3095 7.36408 67.3562 7.44778C67.4682 7.68392 67.6028 7.90964 67.7584 8.12205C68.2783 8.83016 69.0013 9.38 69.8404 9.70561C70.6796 10.0312 71.5994 10.1188 72.4894 9.95774C72.7551 9.91093 73.0154 9.83962 73.2666 9.74482C73.3588 9.71506 73.4455 9.6715 73.5234 9.61577Z" fill="#455A64"/>
<path d="M65.5598 16.2607C65.5795 16.2627 65.5994 16.2589 65.6168 16.2499C65.6341 16.2409 65.6483 16.227 65.6573 16.2102C65.6663 16.1934 65.6697 16.1744 65.6671 16.1556C65.6646 16.1369 65.6562 16.1194 65.6429 16.1053C65.6297 16.0912 65.6124 16.0813 65.5931 16.0769C65.5739 16.0724 65.5537 16.0736 65.5352 16.0803C65.5167 16.087 65.5007 16.0989 65.4895 16.1144C65.4782 16.1299 65.4721 16.1483 65.472 16.1672C65.471 16.1906 65.4797 16.2135 65.4961 16.2309C65.5125 16.2484 65.5353 16.2591 65.5598 16.2607Z" fill="#EB996E"/>
<path d="M64.006 16.214C64.0292 16.2187 64.0535 16.2163 64.0753 16.2073C64.0971 16.1983 64.1155 16.183 64.1278 16.1637C64.1402 16.1443 64.1459 16.1217 64.1443 16.0991C64.1426 16.0764 64.1336 16.0548 64.1186 16.0373C64.1035 16.0197 64.0831 16.0071 64.0602 16.001C64.0373 15.995 64.0129 15.9959 63.9906 16.0036C63.9682 16.0113 63.9489 16.0255 63.9353 16.0441C63.9217 16.0627 63.9146 16.0849 63.9147 16.1076C63.9128 16.1331 63.9212 16.1583 63.9381 16.1781C63.9551 16.1979 63.9794 16.2108 64.006 16.214Z" fill="#EB996E"/>
<path d="M62.9957 16.3846C63.043 16.3846 63.0802 16.3168 63.0734 16.2427C63.0667 16.1685 63.0227 16.1072 62.9754 16.1105C62.9281 16.1137 62.8909 16.1782 62.8977 16.2524C62.9045 16.3265 62.9484 16.3878 62.9957 16.3846Z" fill="#EB996E"/>
<path d="M65.0148 17.2912C65.062 17.2912 65.0957 17.2526 65.089 17.2236C65.0822 17.1947 65.0418 17.1786 64.9912 17.185C64.9406 17.1914 64.9102 17.2268 64.917 17.2558C64.9237 17.2848 64.9676 17.3009 65.0148 17.2912Z" fill="#EB996E"/>
<path d="M63.5736 17.2503C63.5981 17.2464 63.6201 17.2333 63.6346 17.214C63.6491 17.1947 63.6551 17.1708 63.6512 17.1473C63.6501 17.1363 63.6467 17.1256 63.6413 17.1159C63.6358 17.1061 63.6284 17.0975 63.6195 17.0905C63.6106 17.0835 63.6003 17.0782 63.5892 17.075C63.5782 17.0717 63.5666 17.0706 63.555 17.0717C63.5435 17.0727 63.5323 17.0759 63.5221 17.0811C63.5119 17.0863 63.5029 17.0934 63.4955 17.1019C63.4881 17.1104 63.4826 17.1202 63.4792 17.1308C63.4758 17.1413 63.4747 17.1524 63.4758 17.1634C63.4762 17.1752 63.4791 17.1869 63.4842 17.1977C63.4894 17.2084 63.4967 17.2181 63.5058 17.2262C63.5149 17.2343 63.5256 17.2406 63.5372 17.2447C63.5488 17.2488 63.5612 17.2507 63.5736 17.2503Z" fill="#EB996E"/>
<path d="M56.2832 17.7944C56.2347 17.7944 56.1954 17.7526 56.1954 17.7009C56.1954 17.6493 56.2347 17.6074 56.2832 17.6074C56.3318 17.6074 56.3711 17.6493 56.3711 17.7009C56.3711 17.7526 56.3318 17.7944 56.2832 17.7944Z" fill="#EB996E"/>
<path d="M55.2319 17.903C55.2581 17.8967 55.2809 17.8817 55.2963 17.8606C55.3118 17.8395 55.3186 17.8139 55.3158 17.7883C55.3129 17.7628 55.3004 17.7391 55.2807 17.7216C55.2609 17.7042 55.2352 17.6941 55.2083 17.6934C55.1831 17.6995 55.1613 17.7146 55.1475 17.7356C55.1336 17.7566 55.1288 17.7819 55.1339 17.8062C55.1407 17.8643 55.1846 17.9094 55.2319 17.903Z" fill="#EB996E"/>
<path d="M57.1779 17.6579C57.1997 17.6588 57.2211 17.6516 57.2374 17.6378C57.2538 17.624 57.2639 17.6046 57.2656 17.5839C57.2639 17.5631 57.2538 17.5438 57.2374 17.53C57.2211 17.5161 57.1997 17.5089 57.1779 17.5098C57.1561 17.5089 57.1348 17.5161 57.1184 17.53C57.1021 17.5438 57.0919 17.5631 57.0902 17.5839C57.0906 17.5943 57.0933 17.6045 57.098 17.614C57.1026 17.6234 57.1093 17.6319 57.1175 17.6388C57.1257 17.6457 57.1353 17.651 57.1457 17.6542C57.156 17.6575 57.167 17.6588 57.1779 17.6579Z" fill="#EB996E"/>
<path d="M56.6294 18.7634C56.6414 18.7652 56.6536 18.7647 56.6654 18.762C56.6772 18.7592 56.6883 18.7543 56.698 18.7474C56.7078 18.7405 56.7159 18.7318 56.7221 18.7218C56.7283 18.7119 56.7323 18.7008 56.734 18.6894C56.7356 18.6732 56.7323 18.657 56.7245 18.6427C56.7166 18.6283 56.7046 18.6164 56.6898 18.6085C56.675 18.6005 56.6582 18.5968 56.6412 18.5978C56.6243 18.5988 56.608 18.6045 56.5944 18.6141C56.5808 18.6238 56.5704 18.637 56.5645 18.6522C56.5586 18.6673 56.5574 18.6838 56.5611 18.6996C56.5648 18.7154 56.5732 18.7298 56.5854 18.7412C56.5975 18.7525 56.6128 18.7602 56.6294 18.7634Z" fill="#EB996E"/>
<path d="M55.7153 18.7677C55.7252 18.7642 55.7343 18.7588 55.7419 18.7518C55.7495 18.7449 55.7555 18.7365 55.7596 18.7272C55.7637 18.7179 55.7658 18.7079 55.7656 18.6978C55.7655 18.6878 55.7632 18.6778 55.7589 18.6686C55.7534 18.66 55.7461 18.6525 55.7376 18.6466C55.7291 18.6407 55.7194 18.6364 55.7091 18.634C55.6989 18.6316 55.6882 18.6312 55.6778 18.6328C55.6674 18.6343 55.6573 18.6378 55.6483 18.6431C55.6389 18.6467 55.6303 18.6522 55.6232 18.6592C55.6161 18.6662 55.6106 18.6746 55.607 18.6837C55.6034 18.6929 55.6019 18.7026 55.6025 18.7124C55.6031 18.7221 55.6058 18.7316 55.6105 18.7403C55.6152 18.749 55.6217 18.7566 55.6296 18.7628C55.6375 18.7689 55.6467 18.7734 55.6566 18.776C55.6664 18.7786 55.6768 18.7792 55.6869 18.7777C55.697 18.7763 55.7067 18.7729 55.7153 18.7677Z" fill="#EB996E"/>
<path d="M12.0434 53.9258L21.9443 74.8894H65.0586L64.8829 73.8248L49.9437 73.5828L42.4083 54.0193L12.0434 53.9258Z" fill="#455A64"/>
<path d="M31.7764 63.4334C31.551 63.3156 31.3003 63.2485 31.0436 63.2371C30.7868 63.2257 30.5307 63.2704 30.2948 63.3678C30.0589 63.4652 29.8493 63.6127 29.6821 63.799C29.5149 63.9854 29.3944 64.2057 29.3298 64.4432C29.2831 64.6669 29.288 64.8977 29.3441 65.1194C29.4002 65.3412 29.5062 65.5486 29.6548 65.7273C29.8034 65.906 29.9909 66.0517 30.2044 66.1541C30.4179 66.2566 30.6522 66.3135 30.8911 66.3208C31.2323 66.3411 31.5712 66.2548 31.8565 66.0749C32.1418 65.8951 32.3581 65.6315 32.4726 65.3239C32.6618 64.6981 32.4523 63.7657 31.7764 63.4366" fill="#EBEBEB"/>
<path d="M17.7344 31.0649L15.7883 32.1865L15.9178 33.2632L15.1714 33.6943L14.7075 28.9902L15.4185 28.5802L19.3842 31.2638L18.6277 31.7017L17.7344 31.0649ZM17.1732 30.6639L15.4703 29.4713L15.7185 31.5005L17.1732 30.6639Z" fill="white"/>
<path d="M12.2325 35.9519L7.44996 38.7115L4.72378 34.1693L9.50567 31.4129L12.2325 35.9519ZM7.54027 38.3908L11.9037 35.876L9.41938 31.7393L5.05724 34.256L7.54027 38.3908Z" fill="white"/>
<path d="M7.10409 40.2197C6.93938 40.2044 7.13633 37.9044 7.86612 35.1432C8.59592 32.3821 9.55686 30.2462 9.71221 30.2986C9.86756 30.3509 9.18851 32.5466 8.48415 35.2683C7.77979 37.99 7.28153 40.2405 7.10409 40.2197Z" fill="white"/>
<path d="M7.08516 40.2384C7.0548 40.306 6.12899 39.9655 4.96116 39.6363C3.79332 39.3072 2.82546 39.1058 2.83576 39.034C2.84606 38.9622 4.21732 38.9478 5.40774 39.2831C7.50839 40.0944 7.11421 40.1776 7.08516 40.2384Z" fill="white"/>
<path d="M103.788 24.8537C103.661 25.7358 102.887 26.1717 101.532 26.0109L98.924 25.7048L99.6837 20.5645L102.142 20.852C103.399 20.9995 103.992 21.613 103.88 22.4155C103.854 22.6484 103.762 22.871 103.614 23.0575C103.466 23.244 103.268 23.3868 103.042 23.4693C103.31 23.5808 103.529 23.7781 103.664 24.0293C103.799 24.2806 103.843 24.571 103.788 24.8537ZM100.536 21.4217L100.331 22.8428L101.709 23.0033C102.384 23.0827 102.801 22.8908 102.869 22.4213C102.938 21.9517 102.591 21.6627 101.916 21.5834L100.536 21.4217ZM102.822 24.6427C102.895 24.1292 102.53 23.8539 101.795 23.7686L100.223 23.5862L100.007 25.0693L101.581 25.2528C102.315 25.3381 102.746 25.1578 102.822 24.6427Z" fill="white"/>
<path d="M87.4556 24.8889L88.2861 18.7906L94.6542 19.5861L93.8237 25.6844L87.4556 24.8889ZM88.5227 19.0905L87.7644 24.6517L93.5727 25.3756L94.3284 19.8134L88.5227 19.0905Z" fill="white"/>
<path d="M88.205 23.9028C88.1299 23.7546 90.309 22.6298 93.1914 21.6978C96.0738 20.7658 98.5175 20.381 98.5542 20.5421C98.5909 20.7032 96.2455 21.3606 93.4124 22.292C90.5793 23.2234 88.2821 24.0649 88.205 23.9028Z" fill="white"/>
<path d="M88.2025 23.895C88.1252 23.9073 87.9322 22.9311 87.5983 21.7561C87.2643 20.5812 86.9232 19.6475 86.9935 19.6159C87.0638 19.5843 87.8171 20.7388 88.1577 21.9364C88.5608 24.173 88.273 23.8855 88.2025 23.895Z" fill="white"/>
<path d="M110.776 57.4898C111.635 56.487 113.053 56.3826 114.125 57.2192C114.391 57.4117 114.609 57.6581 114.764 57.9409C114.918 58.2238 115.006 58.5363 115.021 58.8564L114.285 58.9063C114.276 58.6887 114.218 58.4759 114.116 58.2824C114.013 58.0889 113.868 57.9192 113.69 57.7849C113.531 57.6487 113.344 57.5452 113.14 57.4805C112.937 57.4158 112.722 57.3912 112.507 57.4084C112.293 57.4255 112.084 57.4839 111.893 57.5801C111.702 57.6763 111.533 57.8083 111.396 57.9682C111.259 58.128 111.157 58.3124 111.097 58.5102C111.036 58.708 111.017 58.9151 111.042 59.1191C111.067 59.3231 111.135 59.5197 111.242 59.6971C111.349 59.8745 111.492 60.029 111.664 60.1513C111.838 60.2918 112.042 60.3938 112.262 60.4502C112.482 60.5066 112.713 60.5161 112.939 60.478L113.029 61.191C112.697 61.2408 112.359 61.2206 112.038 61.1321C111.717 61.0435 111.421 60.8887 111.17 60.6784C110.083 59.8372 109.916 58.4948 110.776 57.4898Z" fill="white"/>
<path d="M104.799 57.4332L100.466 54.0507L104.02 49.9014L108.353 53.2838L104.799 57.4332ZM100.885 54.01L104.758 57.0334L107.934 53.3245L104.061 50.3011L100.885 54.01Z" fill="white"/>
<path d="M98.7695 53.5338C98.7343 53.3387 101.65 52.7276 105.313 52.5616C108.976 52.3957 111.94 52.7235 111.926 52.9214C111.912 53.1192 108.967 53.1376 105.361 53.3184C101.756 53.4992 98.8021 53.7456 98.7695 53.5338Z" fill="white"/>
<path d="M98.7492 53.5443C98.6554 53.534 98.7729 52.3446 98.7967 50.8808C98.8204 49.417 98.7516 48.2298 98.844 48.2155C98.9364 48.2012 99.4054 49.774 99.3815 51.266C99.067 53.9789 98.8341 53.5556 98.7492 53.5443Z" fill="white"/>
</svg>
