<svg width="116" height="81" viewBox="0 0 116 81" fill="none" xmlns="http://www.w3.org/2000/svg">
<mask id="mask0_2475_22277" style="mask-type:luminance" maskUnits="userSpaceOnUse" x="0" y="0" width="116" height="81">
<path d="M115.312 0H0V81H115.312V0Z" fill="white"/>
</mask>
<g mask="url(#mask0_2475_22277)">
<mask id="mask1_2475_22277" style="mask-type:luminance" maskUnits="userSpaceOnUse" x="-14" y="-16" width="128" height="127">
<path d="M-13.3203 -15.5381H113.929V110.197H-13.3203V-15.5381Z" fill="white"/>
</mask>
<g mask="url(#mask1_2475_22277)">
<path d="M101.63 148.506L18.4167 147.948L18.3851 147.946L18.3862 147.911L18.4084 144.962L19.2725 25.8386L19.2932 22.9364L19.2958 22.8551L19.3642 22.8546L86.1421 23.3015L86.2372 23.3545L91.5138 26.322L102.437 32.4635L101.65 145.519L101.63 148.506Z" fill="#F3F8FA"/>
<path d="M101.631 148.505L18.367 147.986L18.3354 147.985L18.3365 147.949L19.2043 22.8491L19.2068 22.7678L19.2752 22.7673L86.1352 23.2452L86.1468 23.2456L86.1551 23.2491L102.45 32.418L102.472 32.429L102.471 32.4548L101.648 145.515L101.631 148.505ZM101.631 148.505L101.654 145.521L102.4 32.4584L102.422 32.4984L86.1205 23.3456L86.1403 23.3495L19.2784 22.9322L19.3493 22.8497L18.3991 147.95L18.3693 147.912L101.631 148.505Z" fill="#263238"/>
<path d="M19.3304 22.8452L19.3278 22.9266L19.3949 22.8439L19.3304 22.8452ZM18.3845 147.931L18.3834 147.967L18.4143 147.968L18.3845 147.931ZM18.4384 144.983L19.3746 25.8295L19.3987 22.9268L19.3278 22.9266L19.3036 25.8306L18.4075 144.982L18.3845 147.931L18.4155 147.932L18.4384 144.983ZM86.1497 23.2676L19.3987 22.8447L19.3961 22.9261L86.2447 23.3205L86.1497 23.2676ZM18.4155 147.932L18.4143 147.968L101.594 148.496L18.4155 147.932Z" fill="#263238"/>
<path d="M88.1986 23.2808L93.2286 26.431L28.9509 26.0614L22.7919 26.0337L19.8224 26.0181L19.7531 26.0192L19.7794 23.0109L19.7821 22.9261L19.8514 22.925L88.1022 23.2265L88.1986 23.2808Z" fill="#455A64"/>
<path d="M66.9928 34.819L27.1484 34.3672L26.9908 83.3442L66.8351 83.796L66.9928 34.819Z" fill="#BDC8D1"/>
<path d="M90.1281 34.3124L72.6328 34.124L72.6291 35.2259L90.1244 35.4143L90.1281 34.3124Z" fill="#455A64"/>
<path d="M72.0074 40.6266C74.2223 40.5895 76.4398 40.575 78.657 40.567L85.3045 40.5719L91.9531 40.6384C94.1691 40.6676 96.3849 40.7028 98.5998 40.7639C96.3847 40.8045 94.1674 40.8155 91.9527 40.8236L85.3053 40.8163L78.6565 40.754C76.4381 40.7229 74.2223 40.6877 72.0074 40.6266Z" fill="#A6A6A6"/>
<path d="M71.9995 44.3795C74.2145 44.3424 76.432 44.3279 78.646 44.3198L85.2935 44.3247L91.9421 44.3912C94.1581 44.4204 96.3732 44.4556 98.5882 44.5167C96.3732 44.5538 94.1557 44.5683 91.9385 44.5763L85.2911 44.569L78.643 44.5067C76.4303 44.4758 74.2145 44.4407 71.9995 44.3795Z" fill="#A6A6A6"/>
<path d="M71.8472 48.1373C74.0622 48.1002 76.2796 48.0857 78.4936 48.0776L85.1411 48.0825L91.7898 48.149C94.0057 48.1782 96.2209 48.2134 98.4358 48.2745C96.2208 48.3116 94.0034 48.3261 91.7894 48.3342L85.142 48.3269L78.4938 48.2646C76.2779 48.2336 74.0621 48.1985 71.8472 48.1373Z" fill="#A6A6A6"/>
<path d="M71.7516 51.4717C73.1061 51.4358 74.459 51.4298 75.8126 51.4233C77.1662 51.4168 78.5222 51.4334 79.8753 51.4404C81.2272 51.4632 82.5859 51.4769 83.9355 51.5126C85.2851 51.5483 86.643 51.5849 87.9973 51.6508C86.6428 51.6867 85.2897 51.6962 83.9363 51.6992C82.5828 51.7022 81.2267 51.6898 79.8743 51.6822C78.5217 51.6593 77.1656 51.6457 75.8134 51.6099C74.4613 51.5741 73.106 51.5341 71.7516 51.4717Z" fill="#A6A6A6"/>
<path d="M71.605 58.3268C73.82 58.2897 76.0374 58.2752 78.2514 58.2671L84.8989 58.272L91.5476 58.3384C93.7629 58.3677 95.9787 58.4028 98.1936 58.464C95.9785 58.5046 93.7612 58.5155 91.5472 58.5236L84.8998 58.5164L78.2516 58.4541C76.0357 58.4231 73.8199 58.3879 71.605 58.3268Z" fill="#A6A6A6"/>
<path d="M71.5269 62.0777C73.7419 62.0407 75.9593 62.0262 78.1733 62.0181L84.8208 62.023L91.4695 62.0894C93.6854 62.1187 95.9006 62.1538 98.1155 62.215C95.9005 62.252 93.6831 62.2665 91.4659 62.2745L84.8185 62.2673L78.1703 62.205C75.9576 62.1741 73.7418 62.1389 71.5269 62.0777Z" fill="#A6A6A6"/>
<path d="M71.4488 65.2965C73.6637 65.2594 75.8812 65.2449 78.0984 65.2369L84.7459 65.2418L91.3945 65.3083C93.6105 65.3375 95.8263 65.3727 98.0412 65.4339C95.8261 65.4745 93.6088 65.4854 91.3916 65.4934L84.7442 65.4861L78.0954 65.4238C75.8795 65.3928 73.6637 65.3576 71.4488 65.2965Z" fill="#A6A6A6"/>
<path d="M71.2964 69.0494C73.5114 69.0123 75.7288 68.9979 77.9428 68.9898L84.5903 68.9946L91.2345 69.0609C93.4511 69.0902 95.6669 69.1254 97.8818 69.1865C95.6661 69.2271 93.4494 69.2381 91.2348 69.2462L84.5874 69.2389L77.9392 69.1766C75.7265 69.1457 73.5113 69.1106 71.2964 69.0494Z" fill="#A6A6A6"/>
<path d="M71.2828 72.3848C72.6374 72.3489 73.9903 72.343 75.3438 72.3365C76.6974 72.33 78.0534 72.3465 79.4065 72.3535C80.7585 72.3764 82.1171 72.39 83.4667 72.4258C84.8163 72.4615 86.1742 72.4981 87.5286 72.564C86.174 72.5999 84.821 72.6094 83.4675 72.6123C82.1141 72.6153 80.758 72.6029 79.4055 72.5953C78.0529 72.5725 76.6968 72.5589 75.3447 72.5231C73.9925 72.4872 72.6372 72.4507 71.2828 72.3848Z" fill="#A6A6A6"/>
<path d="M87.668 22.959L102.231 31.9279L95.9853 35.3481L87.668 22.959Z" fill="#DBDBDB"/>
<path d="M65.3822 27.9283C65.3754 27.8915 65.3717 27.8543 65.371 27.817C65.3663 27.7354 65.3608 27.6259 65.3516 27.4906C65.3381 27.1946 65.3178 26.773 65.2907 26.2341C65.2697 25.6844 65.2405 25.0179 65.2088 24.2447C65.204 23.8324 65.1743 23.4204 65.12 23.0111C65.0873 22.7923 65.0153 22.5806 64.9073 22.3859C64.7939 22.1846 64.6161 22.0252 64.4016 21.9322C64.1654 21.8446 63.9104 21.8188 63.6619 21.8575C63.4134 21.8962 63.18 21.998 62.985 22.1528C62.5683 22.5098 62.2782 22.9875 62.1562 23.5178C61.8735 24.7011 61.8079 25.9258 61.9623 27.1349C62.0229 27.7744 62.0907 28.4361 62.1825 29.105C62.257 29.7845 62.4434 30.4486 62.7344 31.0713C63.0459 31.7089 63.5749 32.2209 64.2293 32.5184C64.5597 32.6654 64.9234 32.724 65.283 32.6882C65.6465 32.6463 65.9903 32.5066 66.2764 32.2846C66.8465 31.8259 67.2332 31.1849 67.3693 30.4727C67.4961 29.7753 67.5379 29.0649 67.4938 28.3566C67.454 26.9505 67.4156 25.5965 67.3811 24.3037C67.3624 23.6586 67.3452 23.0292 67.3294 22.4152C67.3138 21.8026 67.3031 21.2082 67.2382 20.6418C67.1903 20.0938 67.0661 19.5542 66.8689 19.0382C66.6838 18.5648 66.3942 18.1367 66.0211 17.7847C65.3566 17.1931 64.499 16.8539 63.605 16.8289C62.9311 16.7889 62.2642 16.9663 61.7063 17.3341C61.3619 17.5785 61.0885 17.9065 60.9127 18.2863C60.7958 18.5485 60.7625 18.6958 60.7537 18.6925C60.7823 18.548 60.8271 18.4072 60.8874 18.2727C61.0541 17.8802 61.326 17.5398 61.6746 17.2875C62.2389 16.8994 62.921 16.7086 63.6121 16.7452C64.5309 16.7621 65.415 17.1039 66.1014 17.7076C66.4878 18.0687 66.7888 18.5083 66.9826 18.9951C67.1875 19.5203 67.3168 20.0703 67.3668 20.6293C67.4328 21.2058 67.4472 21.8019 67.4662 22.4135C67.4851 23.0252 67.5051 23.6547 67.5238 24.3C67.5644 25.5901 67.6051 26.9475 67.6481 28.3539C67.6954 29.0739 67.6534 29.7961 67.5232 30.5049C67.3797 31.2519 66.9737 31.9241 66.3755 32.405C66.0665 32.644 65.695 32.7934 65.3027 32.8365C64.916 32.8755 64.5249 32.8124 64.1698 32.6538C63.4848 32.3395 62.9317 31.8012 62.6062 31.132C62.3086 30.4944 62.1179 29.8146 62.0414 29.119C61.9508 28.4445 61.886 27.7862 61.8259 27.1404C61.6728 25.9145 61.7449 24.6733 62.0387 23.4756C62.1711 22.9201 62.4816 22.4221 62.9248 22.0542C63.1366 21.8884 63.3895 21.7804 63.6583 21.7409C63.9271 21.7015 64.2023 21.732 64.4564 21.8294C64.6904 21.9342 64.8841 22.1101 65.0085 22.3309C65.1213 22.5369 65.1964 22.7604 65.2305 22.9912C65.282 23.4051 65.3068 23.8215 65.3046 24.2381C65.3272 25.0111 65.3439 25.679 65.3592 26.2282C65.3744 26.7774 65.3806 27.1895 65.3877 27.4856C65.3875 27.6244 65.3905 27.7325 65.392 27.8138C65.3907 27.8521 65.3875 27.8903 65.3822 27.9283Z" fill="#263238" stroke="#263238" stroke-width="0.640625"/>
<path d="M60.3543 68.2005L58.3983 65.8896L35.037 70.1261C35.037 70.1261 32.9499 79.8289 33.0295 80.4685C33.0256 81.2807 32.9537 82.0906 32.8145 82.89L64.5212 83.3426C64.5186 83.3369 65.5931 75.0119 60.3543 68.2005Z" fill="#263238"/>
<path d="M40.9015 75.102C40.8652 75.1885 40.815 75.2687 40.7527 75.3396C40.6446 75.4843 40.4857 75.6885 40.2698 75.9297C40.0174 76.2154 39.7319 76.4714 39.4189 76.6928C39.0277 76.9604 38.5858 77.1498 38.118 77.2502C37.2791 77.432 36.4139 77.4784 35.5566 77.3876C35.2984 77.3632 35.0417 77.3248 34.7877 77.2724C34.6915 77.2636 34.5977 77.2376 34.5107 77.1959C34.5159 77.1704 34.9169 77.2298 35.5634 77.2692C36.407 77.3229 37.2528 77.2609 38.0762 77.0852C38.5243 76.9899 38.9493 76.8135 39.3294 76.5651C39.6368 76.3547 39.9214 76.1144 40.1789 75.8478C40.6263 75.3927 40.8776 75.0841 40.9015 75.102Z" fill="#455A64"/>
<path d="M47.7432 83.1761C47.7061 83.0749 47.6847 82.9691 47.6798 82.862C47.6503 82.6582 47.6124 82.3622 47.5765 81.9994C47.5028 81.2668 47.4265 80.2523 47.3963 79.1327C47.3662 78.0132 47.3868 76.9969 47.4233 76.2625C47.4417 75.8971 47.4631 75.5997 47.4806 75.397C47.48 75.2892 47.4963 75.1821 47.5288 75.0794C47.5608 75.4745 47.5668 75.8711 47.5468 76.2667C47.5464 76.9982 47.5399 78.0109 47.5709 79.1281C47.6019 80.2452 47.6586 81.2543 47.7009 81.986C47.7417 82.3816 47.7558 82.7791 47.7432 83.1761Z" fill="#455A64"/>
<path d="M49.9493 82.8515C49.9022 82.851 49.8514 81.1595 49.835 79.0729C49.8186 76.9862 49.8439 75.2965 49.8941 75.2979C49.9443 75.2993 49.992 76.9899 50.0067 79.074C50.0215 81.158 49.9964 82.8526 49.9493 82.8515Z" fill="#455A64"/>
<path d="M62.0182 72.2956C62.0272 72.306 61.9441 72.3883 61.7842 72.5311C61.6243 72.6738 61.3958 72.8749 61.0928 73.1077C60.7394 73.3856 60.3588 73.629 59.9563 73.8346C59.4582 74.0903 58.9115 74.2457 58.3486 74.2916C57.7805 74.3306 57.2109 74.2166 56.7017 73.962C56.2928 73.7565 55.9146 73.4971 55.5776 73.1911C55.35 72.9895 55.1348 72.7749 54.9332 72.5485C54.8526 72.4713 54.7831 72.384 54.7263 72.2889C54.7479 72.2685 55.0698 72.6151 55.6563 73.1019C55.9943 73.3882 56.3688 73.6304 56.7704 73.8225C57.2574 74.0561 57.7979 74.1602 58.3368 74.1243C58.8774 74.0795 59.4032 73.9342 59.8858 73.6962C60.2833 73.5006 60.6623 73.2716 61.0187 73.0119C61.6294 72.5695 62.0001 72.2753 62.0182 72.2956Z" fill="#455A64"/>
<path d="M63.1923 78.7128C63.0939 78.7741 62.9878 78.823 62.8766 78.8582L61.9984 79.2101C61.257 79.5121 60.2431 79.9453 59.1484 80.4777C58.0538 81.0101 57.0909 81.5441 56.4009 81.9422C56.0816 82.1291 55.8108 82.2853 55.5855 82.4159C55.4897 82.4825 55.385 82.536 55.2742 82.5751C55.3549 82.4924 55.4463 82.4204 55.5462 82.3609C55.7285 82.2324 55.9981 82.0537 56.3333 81.8392C57.2167 81.2876 58.1299 80.7822 59.0689 80.3253C60.0069 79.8672 60.9692 79.4576 61.952 79.0982C62.3302 78.9615 62.6393 78.8584 62.8523 78.7931C62.9612 78.7513 63.0756 78.7243 63.1923 78.7128Z" fill="#455A64"/>
<path d="M42.6764 74.2467C42.6528 74.2513 42.5869 74.0827 42.5042 73.7962C42.3958 73.4247 42.3299 73.0429 42.3077 72.6579C42.2844 72.2678 42.3408 71.8776 42.4735 71.5099C42.5809 71.2306 42.6942 71.0816 42.7133 71.0925C42.552 71.598 42.4738 72.1258 42.4817 72.6564C42.5073 73.0315 42.5557 73.4049 42.6266 73.7748C42.6699 73.9286 42.6867 74.088 42.6764 74.2467Z" fill="#455A64"/>
<path d="M44.0376 74.4437C43.9696 74.2928 43.9281 74.1322 43.9146 73.9684C43.8366 73.5804 43.7975 73.1862 43.7979 72.7915C43.8022 72.5705 43.8322 72.3509 43.8875 72.137C43.9387 71.9624 44.0138 71.7955 44.1109 71.6407C44.1903 71.4916 44.3097 71.3662 44.4565 71.2778C44.3862 71.4225 44.3071 71.563 44.2195 71.6985C44.0521 72.0413 43.9673 72.4171 43.9713 72.7978C43.9629 73.2456 44.0181 73.6552 44.0355 73.9566C44.0659 74.1178 44.0666 74.2828 44.0376 74.4437Z" fill="#455A64"/>
<path d="M52.5239 74.3906C52.56 73.587 52.4571 72.7818 52.2194 72.0087C51.926 71.2537 51.5074 70.5499 50.9805 69.9258C51.1891 70.0598 51.3713 70.2296 51.5182 70.4268C51.8992 70.8813 52.1925 71.3992 52.3835 71.9549C52.5763 72.5101 52.6634 73.0941 52.6407 73.6777C52.6454 73.9207 52.6058 74.1621 52.5239 74.3906Z" fill="#455A64"/>
<path d="M54.0854 74.003C53.9993 73.2658 53.8577 72.5352 53.662 71.8172C53.4058 71.1161 53.0984 70.4334 52.7422 69.7744C52.9084 69.9275 53.0472 70.1067 53.1525 70.3045C53.4386 70.7626 53.6651 71.2533 53.8266 71.7652C53.9912 72.2775 54.0912 72.8068 54.1243 73.3415C54.1456 73.563 54.1324 73.786 54.0854 74.003Z" fill="#455A64"/>
<path d="M48.3756 72.3886C48.367 72.3811 48.4396 72.3071 48.6136 72.2453C48.8665 72.1638 49.1426 72.1786 49.3871 72.2869C49.5595 72.3607 49.7095 72.4776 49.8217 72.6258C49.9466 72.8026 50.0091 73.014 49.9997 73.2274C49.9895 73.4617 49.9073 73.6868 49.7638 73.8731C49.6864 73.975 49.589 74.0604 49.477 74.1246C49.3651 74.1887 49.2409 74.2302 49.1118 74.2467C48.8628 74.2735 48.6108 74.2182 48.3955 74.0897C48.1803 73.9612 48.0141 73.7666 47.9232 73.5368C47.8589 73.3341 47.8573 73.118 47.9188 72.9158C47.9592 72.7367 48.0496 72.5726 48.18 72.4417C48.3792 72.268 48.6382 72.174 48.9065 72.1781C48.9554 72.1754 49.0045 72.1822 49.0508 72.1981C49.0972 72.214 49.1401 72.2387 49.1768 72.2707C49.0887 72.2502 48.9983 72.2409 48.9079 72.2431C48.6654 72.2625 48.438 72.3627 48.2635 72.5269C48.1579 72.6479 48.0864 72.7939 48.0561 72.9508C48.0074 73.1262 48.0134 73.3124 48.0734 73.4856C48.1573 73.6771 48.3016 73.8379 48.4851 73.9441C48.6685 74.0503 48.8813 74.0964 49.092 74.0756C49.3008 74.0394 49.4897 73.9341 49.6271 73.7771C49.7646 73.6202 49.8422 73.4212 49.847 73.2135C49.859 73.0333 49.8109 72.8535 49.7099 72.7011C49.6171 72.5683 49.4899 72.462 49.3416 72.3932C49.1223 72.2855 48.8726 72.2546 48.6346 72.3055C48.4659 72.3483 48.382 72.4019 48.3756 72.3886Z" fill="#455A64"/>
<path d="M30.7157 39.3392C30.516 39.5385 24.944 42.3503 23.9704 44.4003C22.9969 46.4503 23.5402 55.2075 23.6354 56.7236C23.7305 58.2398 26.2519 64.1492 26.2519 64.1492C26.2519 64.1492 25.4151 66.5269 26.1157 68.1025C26.5729 69.079 27.3116 69.9059 28.2404 70.4811L33.7993 68.1169L31.7318 53.2426L30.7157 39.3392Z" fill="#F99D25"/>
<path d="M29.9916 54.7048C30.1601 54.5088 30.374 54.3922 30.5104 54.2461C30.6468 54.1 30.9236 54.0534 31.0419 54.2165C31.1749 54.4034 30.9929 54.6425 30.8212 54.7951C31.356 54.8661 31.8175 54.1897 32.3232 54.3776C32.3999 54.4185 32.4675 54.474 32.522 54.5409C32.5765 54.6077 32.6168 54.6846 32.6404 54.7668C32.664 54.8489 32.6705 54.9348 32.6595 55.0191C32.6485 55.1035 32.6202 55.1847 32.5763 55.2578C32.3848 55.547 32.1032 55.7676 31.7727 55.8873C31.4429 56.0034 31.1403 56.1823 30.8823 56.4137C30.7589 56.5446 30.6675 56.7537 30.7792 56.8992C30.9636 57.146 31.4684 56.9198 31.6278 57.1831C31.7368 57.3612 31.5683 57.5723 31.4146 57.7102C30.8527 58.216 30.2878 58.7215 29.726 59.2267C29.5894 59.3738 29.4147 59.4821 29.2201 59.5402C29.1224 59.5671 29.0175 59.5564 28.9268 59.5103C28.8361 59.4642 28.7664 59.3861 28.7319 59.292C28.7253 59.1946 28.7505 59.0981 28.8038 59.0162C28.8571 58.9344 28.9357 58.8716 29.0284 58.8368C29.215 58.7717 29.3962 58.6929 29.5705 58.6012C29.6561 58.5517 29.7185 58.4713 29.7444 58.3771C29.7703 58.2828 29.7577 58.182 29.7093 58.096C29.5535 57.907 29.2459 58.0248 29.0363 58.1564C28.3936 58.564 27.7533 58.9714 27.1152 59.3786C26.9831 59.4813 26.8245 59.5463 26.6565 59.5665C26.5725 59.5736 26.4886 59.5485 26.4223 59.4966C26.3561 59.4447 26.3127 59.3699 26.3011 59.2878C26.3098 59.2018 26.3443 59.1204 26.4003 59.054C26.7789 58.5225 27.2737 58.081 27.8492 57.761C28.0763 57.6583 28.2845 57.5199 28.4655 57.3512C28.5555 57.266 28.6154 57.1548 28.6368 57.0336C28.6582 56.9123 28.6399 56.7872 28.5846 56.676C28.2022 56.9709 27.7856 57.2208 27.3433 57.4207C27.1852 57.4938 26.9659 57.5419 26.8653 57.4035C26.7648 57.2651 26.8966 57.07 27.0278 56.9489C27.7116 56.2893 28.3953 55.6308 29.0789 54.9736C29.1539 54.8789 29.2477 54.8001 29.3548 54.742C29.4619 54.6839 29.5801 54.6477 29.7022 54.6354L29.9916 54.7048Z" fill="white"/>
<path d="M35.3002 34.863L33.605 37.3752L29.4496 40.0782C28.5872 43.8692 28.2439 47.7606 28.4285 51.6503C28.4285 51.6503 32.8444 67.2692 32.9298 67.941C33.0856 69.189 35.2965 70.4289 35.2965 70.4289C35.2965 70.4289 43.9637 71.2922 46.9799 71.1416C49.996 70.9909 57.58 67.1953 58.3114 66.6626C59.0429 66.1298 60.0687 63.3638 60.0687 63.3638L55.9937 48.3382L56.5598 38.0797L48.7995 35.3715L46.2806 33.0842L35.3002 34.863Z" fill="#F99D25"/>
<path d="M42.5017 47.6461C42.5056 47.6479 42.5223 47.6076 42.5487 47.5258C42.5799 47.432 42.6182 47.3149 42.6662 47.1704C42.7683 46.8587 42.9168 46.4055 43.1207 45.837C43.6757 44.2834 44.3382 42.7687 45.1033 41.3036L44.9599 41.2972C45.5048 42.6763 46.1152 44.2249 46.7565 45.8578C46.813 46.0027 46.8687 46.144 46.9208 46.2769L47.0493 46.5985L47.087 46.2544L47.9513 38.2881C48.0511 37.2839 48.1368 36.4701 48.1931 35.8889C48.2167 35.6189 48.235 35.4026 48.2502 35.235C48.2613 35.1602 48.2638 35.0843 48.2578 35.009C48.2347 35.0823 48.2202 35.1579 48.2146 35.2343C48.1906 35.3979 48.162 35.6148 48.1245 35.8826C48.0519 36.4658 47.9518 37.2797 47.8285 38.2769C47.5941 40.3191 47.2726 43.1247 46.9147 46.2371L47.0783 46.2163C47.0262 46.0833 46.9694 45.9392 46.914 45.7972C46.2661 44.166 45.6501 42.6201 45.1021 41.2414L45.0402 41.0817L44.9645 41.2329C44.2045 42.7077 43.5588 44.2367 43.0329 45.8067C42.8418 46.3816 42.7056 46.8399 42.6191 47.1564C42.5821 47.304 42.5488 47.4225 42.5245 47.5171C42.5115 47.559 42.5038 47.6023 42.5017 47.6461Z" fill="#263238"/>
<g opacity="0.3">
<path d="M48.216 35.0788C48.5825 39.5977 48.246 44.1483 47.218 48.5733C45.8695 47.5681 44.9244 46.1264 44.5476 44.5C44.2037 45.5657 43.5392 46.5045 42.6425 47.1914C43.1819 45.1555 43.9711 43.1909 44.9925 41.3413C44.9925 41.3413 47.0193 46.4536 46.9645 46.3223C47.4058 42.5425 47.8233 38.8301 48.216 35.0788Z" fill="black"/>
</g>
<path d="M56.6673 47.5334C56.8359 47.3368 57.0497 47.2208 57.1862 47.0741C57.3226 46.9274 57.5993 46.882 57.7177 47.0445C57.8508 47.2314 57.6687 47.4705 57.497 47.6231C58.0318 47.6947 58.4933 47.0183 58.999 47.2062C59.0757 47.2471 59.1433 47.3026 59.1978 47.3695C59.2523 47.4363 59.2926 47.5131 59.3162 47.5953C59.3398 47.6775 59.3463 47.7634 59.3353 47.8477C59.3243 47.9321 59.296 48.0133 59.2521 48.0863C59.0606 48.3756 58.7789 48.5962 58.4485 48.7159C58.1187 48.8321 57.8161 49.0109 57.558 49.2423C57.4347 49.3738 57.3433 49.5823 57.455 49.7278C57.6389 49.9739 58.1442 49.7484 58.3036 50.0117C58.4126 50.1898 58.2441 50.4009 58.0904 50.5388C57.5285 51.0446 56.9636 51.5501 56.4018 52.0553C56.2652 52.2024 56.0905 52.3107 55.8959 52.3689C55.7982 52.3955 55.6934 52.3846 55.6028 52.3385C55.5122 52.2925 55.4425 52.2146 55.4077 52.1206C55.4011 52.0233 55.4263 51.9267 55.4796 51.8449C55.5329 51.763 55.6115 51.7002 55.7042 51.6655C55.8908 51.6004 56.072 51.5216 56.2463 51.4298C56.3321 51.3804 56.3945 51.3001 56.4204 51.2058C56.4463 51.1114 56.4337 51.0106 56.3851 50.9246C56.2293 50.7356 55.9216 50.8534 55.7121 50.985C55.0714 51.3956 54.4297 51.8043 53.7893 52.2126C53.6572 52.3151 53.4985 52.3801 53.3306 52.4005C53.246 52.407 53.1618 52.381 53.0958 52.328C53.0298 52.275 52.9872 52.1992 52.9769 52.1165C52.9857 52.0304 53.0201 51.9491 53.0761 51.8826C53.4542 51.3503 53.9489 50.9079 54.5245 50.5872C54.7516 50.4845 54.9598 50.3461 55.1409 50.1774C55.2308 50.0921 55.2906 49.9809 55.312 49.8597C55.3334 49.7385 55.3152 49.6134 55.26 49.5022C54.8776 49.797 54.461 50.0469 54.0187 50.2469C53.8605 50.32 53.6413 50.3681 53.5407 50.2297C53.4402 50.0913 53.572 49.8962 53.7032 49.7751C54.387 49.1154 55.0706 48.457 55.7542 47.7997C55.8292 47.705 55.9231 47.6263 56.0302 47.5682C56.1373 47.5101 56.2554 47.4738 56.3776 47.4616L56.6673 47.5334Z" fill="white"/>
<path d="M56.3352 37.9709C56.3352 37.9709 60.6156 39.8627 61.5466 42.5523C62.4775 45.2418 65.8595 57.8734 65.3965 60.0834C64.9335 62.2935 63.9705 64.8279 61.967 64.7609C59.9634 64.6939 57.8374 62.501 57.8374 62.501L56.2857 59.4894L56.6349 56.513L55.275 48.3843L56.3352 37.9709Z" fill="#F99D25"/>
<path d="M35.4398 36.6463C35.4415 36.6629 42.5088 47.8061 42.5088 47.8061L44.5936 37.8539L45.1036 33.7791L35.9651 35.741L35.4398 36.6463Z" fill="#915D42"/>
<path d="M28.3867 51.7256C28.4199 51.7872 28.4447 51.8526 28.4607 51.9203C28.505 52.0673 28.5651 52.2572 28.6385 52.4878C28.7897 52.9791 28.9982 53.7009 29.2487 54.5901C29.7565 56.3679 30.3819 58.8434 31.0963 61.5649C31.4534 62.9268 31.8075 64.221 32.1322 65.3981C32.2983 65.9869 32.4442 66.5484 32.6096 67.063C32.7583 67.5408 32.9539 68.0038 33.1938 68.4456C33.5454 69.0834 34.0319 69.6417 34.6206 70.083C35.0436 70.3904 35.3084 70.5185 35.2971 70.5339C35.2298 70.5117 35.1654 70.482 35.1051 70.4453C34.9248 70.3524 34.7505 70.2488 34.5832 70.135C33.9671 69.7057 33.4565 69.1472 33.0894 68.5012C32.8397 68.0549 32.6345 67.5865 32.4766 67.1026C32.3046 66.5844 32.1525 66.0224 31.9825 65.4362C31.6495 64.2614 31.2904 62.9668 30.9296 61.6045C30.2325 58.8852 29.5989 56.4248 29.1335 54.6179C28.9026 53.7409 28.7137 53.0233 28.5772 52.5053C28.5173 52.2693 28.4706 52.077 28.432 51.9275C28.4092 51.862 28.394 51.7943 28.3867 51.7256Z" fill="#263238"/>
<path d="M42.4295 48.1629C42.4261 48.1656 42.3992 48.131 42.3519 48.0587C42.2968 47.976 42.2284 47.8726 42.1435 47.7453C41.9617 47.4702 41.6972 47.0703 41.3484 46.573C40.3975 45.2135 39.3529 43.9185 38.2222 42.6971L38.358 42.6548C38.1983 44.1218 38.0204 45.7685 37.835 47.5043C37.819 47.6583 37.8027 47.8085 37.7877 47.9498L37.7491 48.2922L37.6203 47.9697L34.6613 40.5021C34.2995 39.5599 34.0027 38.7978 33.7905 38.2486C33.6958 37.9942 33.6202 37.7919 33.5609 37.6329C33.5298 37.5632 33.5068 37.4905 33.4922 37.416C33.5343 37.4809 33.5686 37.5502 33.5947 37.6226C33.6614 37.7744 33.7469 37.9764 33.8545 38.2253C34.0802 38.7697 34.3939 39.5297 34.779 40.4607C35.5499 42.3718 36.6087 44.9975 37.7842 47.91L37.6204 47.9308C37.6354 47.7896 37.652 47.6363 37.6677 47.4854C37.8599 45.7496 38.0439 44.104 38.2067 42.6374L38.2216 42.467L38.3352 42.5939C39.4639 43.826 40.4966 45.139 41.4241 46.5216C41.7623 47.0277 42.0161 47.4363 42.1841 47.7199C42.2593 47.853 42.323 47.9589 42.3724 48.0442C42.3964 48.0813 42.4156 48.1212 42.4295 48.1629Z" fill="#263238"/>
<path d="M54.524 57.2089C54.5539 57.2438 51.675 59.7723 48.0948 62.8546C44.5146 65.9368 41.581 68.4064 41.5503 68.3732C41.5195 68.3401 44.3991 65.8116 47.9831 62.7279C51.5672 59.6442 54.4934 57.174 54.524 57.2089Z" fill="#263238"/>
<path d="M48.4384 70.7596C48.3606 70.4195 48.3042 70.0753 48.2696 69.7289C48.1737 69.0907 48.019 68.211 47.7874 67.2579C47.5558 66.3049 47.2937 65.4477 47.0894 64.8357C46.9612 64.5088 46.8531 64.175 46.7656 63.8359C46.9445 64.1412 47.0909 64.4634 47.2026 64.7972C47.5078 65.5888 47.7593 66.3986 47.9554 67.2214C48.1535 68.0437 48.2976 68.8771 48.3868 69.7163C48.4403 70.0618 48.4576 70.4114 48.4384 70.7596Z" fill="#263238"/>
<path d="M27.8802 51.1312C27.1508 50.657 26.453 50.1376 25.7911 49.5761C25.0938 49.0554 24.4316 48.491 23.8086 47.8867C24.5382 48.3615 25.2362 48.8815 25.8982 49.4437C26.596 49.9629 27.2581 50.5267 27.8802 51.1312Z" fill="#263238"/>
<path d="M61.9362 64.77C61.8975 64.7739 61.8584 64.7736 61.8197 64.7692C61.7275 64.7608 61.6153 64.7536 61.4795 64.7449C61.2971 64.7299 61.1163 64.6982 60.9396 64.6502C60.6988 64.5959 60.4627 64.5223 60.2339 64.4303C59.6224 64.1696 59.071 63.7894 58.6139 63.3133C58.0313 62.6975 57.5908 61.9671 57.3227 61.1724L57.3235 61.1627C57.1173 59.912 56.8885 58.5223 56.6458 57.0607C56.2028 54.2778 55.7978 51.7605 55.5043 49.9111C55.3677 49.0104 55.2571 48.2739 55.1792 47.7412L55.0993 47.1504C55.0857 47.0815 55.0799 47.0114 55.082 46.9414C55.1071 47.0068 55.1241 47.0747 55.1329 47.1438C55.1631 47.2956 55.2003 47.4906 55.2461 47.7314C55.341 48.2621 55.4685 48.997 55.6247 49.8952C55.9309 51.7422 56.3497 54.2577 56.8136 57.0364C57.0492 58.501 57.2744 59.8897 57.4744 61.1399L57.4721 61.13C57.7272 61.9045 58.1484 62.6184 58.7075 63.2238C59.1459 63.6944 59.6767 64.0738 60.2677 64.3391C60.8037 64.551 61.3643 64.6958 61.9362 64.77Z" fill="#263238"/>
<path d="M29.9791 62.2319C29.7607 62.2706 29.5402 62.2977 29.3186 62.3133C28.7965 62.3917 28.2937 62.5599 27.8336 62.8103C27.3751 63.0628 26.9654 63.3911 26.6225 63.7809C26.4923 63.9568 26.3528 64.1259 26.2045 64.2875C26.2697 64.0755 26.3792 63.8794 26.5261 63.7115C26.8537 63.2824 27.2701 62.9259 27.7487 62.6648C28.2273 62.4038 28.7576 62.2441 29.3055 62.1958C29.5295 62.1607 29.7592 62.173 29.9791 62.2319Z" fill="#263238"/>
<path d="M30.0639 61.8659C29.5664 62.0966 29.0313 62.2425 28.4817 62.2972C27.9411 62.4046 27.3849 62.4217 26.8367 62.3477C26.834 62.2994 27.5651 62.2659 28.4531 62.1323C29.341 61.9987 30.0481 61.8194 30.0639 61.8659Z" fill="#263238"/>
<path d="M30.6166 43.8539C30.7851 43.6579 30.999 43.5413 31.1354 43.3952C31.2718 43.2491 31.5486 43.2032 31.6669 43.3657C31.8 43.5526 31.6179 43.7916 31.4462 43.9443C31.9811 44.0152 32.4426 43.3388 32.9483 43.5267C33.0249 43.5676 33.0926 43.6231 33.1471 43.69C33.2016 43.7568 33.2418 43.8337 33.2655 43.9158C33.2891 43.998 33.2956 44.0839 33.2846 44.1682C33.2736 44.2526 33.2453 44.3338 33.2014 44.4069C33.0098 44.6961 32.7282 44.9167 32.3977 45.0364C32.0677 45.1525 31.7649 45.3313 31.5067 45.5628C31.3834 45.6937 31.2919 45.9027 31.4037 46.0483C31.5881 46.2945 32.0928 46.0688 32.2523 46.3322C32.3613 46.5102 32.1927 46.7214 32.039 46.8592C31.4772 47.365 30.9123 47.87 30.3505 48.3758C30.2139 48.5229 30.0392 48.6312 29.8446 48.6893C29.7469 48.7152 29.6424 48.704 29.552 48.658C29.4616 48.612 29.3917 48.5346 29.3564 48.4411C29.3498 48.3437 29.3749 48.2471 29.4282 48.1653C29.4815 48.0835 29.5602 48.0206 29.6528 47.9859C29.8394 47.9208 30.0206 47.8421 30.195 47.7503C30.3563 47.6387 30.4591 47.3991 30.3335 47.2486C30.1777 47.0597 29.87 47.1775 29.6604 47.3091C29.0213 47.7168 28.3784 48.1248 27.7387 48.5313C27.6067 48.634 27.448 48.699 27.28 48.7192C27.1966 48.726 27.1133 48.7012 27.0473 48.6498C26.9814 48.5984 26.9378 48.5244 26.9257 48.443C26.9344 48.357 26.9689 48.2756 27.0248 48.2092C27.4032 47.6768 27.8981 47.2344 28.4739 46.9138C28.701 46.8111 28.9092 46.6727 29.0903 46.504C29.1802 46.4187 29.2402 46.3076 29.2615 46.1863C29.2829 46.0651 29.2647 45.94 29.2094 45.8288C28.8269 46.1236 28.4104 46.3735 27.9681 46.5735C27.8099 46.6466 27.5907 46.6947 27.4901 46.5563C27.3895 46.4179 27.5214 46.2228 27.6525 46.1017C28.3363 45.442 29.02 44.7836 29.7036 44.1263C29.7786 44.0316 29.8724 43.9528 29.9795 43.8947C30.0866 43.8366 30.2048 43.8004 30.327 43.7882L30.6166 43.8539Z" fill="white"/>
<path d="M43.9564 49.4201C44.125 49.2235 44.3388 49.1075 44.4752 48.9608C44.6117 48.8141 44.8884 48.7687 45.0068 48.9312C45.1398 49.1182 44.9577 49.3572 44.7861 49.5099C45.3208 49.5814 45.7824 48.905 46.2881 49.0929C46.3647 49.1338 46.4323 49.1893 46.4868 49.2562C46.5413 49.323 46.5816 49.3999 46.6052 49.482C46.6289 49.5642 46.6354 49.6501 46.6244 49.7344C46.6134 49.8188 46.5851 49.9 46.5412 49.9731C46.3496 50.2623 46.068 50.4829 45.7375 50.6026C45.4075 50.7187 45.1047 50.8975 44.8465 51.129C44.7232 51.2599 44.6317 51.4689 44.7434 51.6145C44.9279 51.8607 45.4326 51.635 45.5921 51.8984C45.7011 52.0764 45.5325 52.2876 45.3788 52.4254C44.817 52.9312 44.2521 53.4362 43.6903 53.942C43.5537 54.0891 43.379 54.1974 43.1844 54.2555C43.0866 54.2824 42.9818 54.2717 42.8911 54.2256C42.8004 54.1795 42.7307 54.1014 42.6962 54.0073C42.6895 53.9099 42.7147 53.8133 42.768 53.7315C42.8213 53.6497 42.9 53.5868 42.9926 53.5521C43.1792 53.487 43.3604 53.4083 43.5347 53.3165C43.6205 53.2671 43.6829 53.1867 43.7089 53.0924C43.7348 52.9981 43.7221 52.8973 43.6736 52.8112C43.5177 52.6223 43.2101 52.7401 43.0005 52.8717C42.3605 53.2823 41.7188 53.6911 41.0784 54.0993C40.9462 54.2019 40.7876 54.2668 40.6197 54.2872C40.5351 54.2937 40.4509 54.2677 40.3849 54.2147C40.3189 54.1617 40.2763 54.0859 40.266 54.0032C40.2747 53.9171 40.3092 53.8358 40.3651 53.7693C40.7437 53.2379 41.2385 52.7963 41.814 52.4764C42.0411 52.3737 42.2493 52.2353 42.4304 52.0666C42.5203 51.9813 42.5803 51.8701 42.6016 51.7489C42.623 51.6277 42.6047 51.5026 42.5494 51.3913C42.167 51.6862 41.7505 51.9361 41.3081 52.1361C41.15 52.2092 40.9307 52.2573 40.8302 52.1189C40.7296 51.9805 40.8615 51.7854 40.9926 51.6643C41.6764 51.0046 42.3601 50.3462 43.0437 49.6889C43.1187 49.5942 43.2125 49.5154 43.3196 49.4573C43.4267 49.3992 43.5449 49.363 43.667 49.3508L43.9564 49.4201Z" fill="white"/>
<path d="M37.6009 61.8108C37.7695 61.6142 37.9833 61.4982 38.1197 61.3515C38.2562 61.2048 38.5329 61.1595 38.6513 61.322C38.7843 61.5089 38.6022 61.748 38.4306 61.9006C38.9653 61.9721 39.4269 61.2958 39.9326 61.4837C40.0092 61.5245 40.0768 61.5801 40.1313 61.6469C40.1858 61.7138 40.2261 61.7906 40.2497 61.8728C40.2734 61.955 40.2799 62.0409 40.2688 62.1252C40.2578 62.2096 40.2295 62.2907 40.1856 62.3638C39.9941 62.653 39.7125 62.8737 39.382 62.9934C39.0522 63.1095 38.7496 63.2884 38.4915 63.5198C38.3682 63.6507 38.2768 63.8597 38.3885 64.0052C38.5724 64.2514 39.0777 64.0258 39.2371 64.2892C39.3461 64.4672 39.1775 64.6784 39.0239 64.8162C38.462 65.322 37.8971 65.8275 37.3353 66.3327C37.1987 66.4798 37.024 66.5881 36.8294 66.6462C36.7316 66.6721 36.6272 66.6609 36.5368 66.6149C36.4464 66.569 36.3765 66.4915 36.3412 66.398C36.3346 66.3006 36.3597 66.2041 36.413 66.1222C36.4663 66.0404 36.545 65.9776 36.6376 65.9428C36.8242 65.8777 37.0054 65.799 37.1798 65.7072C37.2654 65.6577 37.3278 65.5774 37.3537 65.4831C37.3796 65.3888 37.367 65.288 37.3186 65.202C37.1628 65.013 36.8551 65.1308 36.6455 65.2624C36.0029 65.67 35.3625 66.0774 34.7245 66.4846C34.5924 66.5873 34.4337 66.6523 34.2658 66.6725C34.1817 66.6795 34.0978 66.6545 34.0316 66.6026C33.9654 66.5506 33.9219 66.4758 33.9104 66.3938C33.9191 66.3077 33.9536 66.2264 34.0095 66.1599C34.3877 65.6277 34.8824 65.1853 35.458 64.8645C35.6852 64.7619 35.8933 64.6235 36.0744 64.4548C36.1644 64.3695 36.2243 64.2583 36.2457 64.1371C36.2671 64.0159 36.2488 63.8908 36.1935 63.7795C35.8111 64.0744 35.3945 64.3243 34.9522 64.5242C34.794 64.5973 34.5748 64.6455 34.4742 64.507C34.3737 64.3686 34.5055 64.1735 34.6367 64.0525C35.3205 63.3928 36.0042 62.7344 36.6878 62.0771C36.7628 61.9824 36.8566 61.9036 36.9637 61.8455C37.0708 61.7874 37.189 61.7512 37.3111 61.739L37.6009 61.8108Z" fill="white"/>
<path d="M53.2963 62.0329C53.4648 61.8369 53.6787 61.7203 53.8151 61.5742C53.9515 61.4281 54.2283 61.3815 54.3466 61.5446C54.4797 61.7315 54.2976 61.9706 54.1259 62.1232C54.6607 62.1942 55.1223 61.5178 55.6273 61.7056C55.704 61.7465 55.7716 61.802 55.8261 61.8689C55.8806 61.9358 55.9209 62.0126 55.9445 62.0948C55.9681 62.1769 55.9747 62.2628 55.9636 62.3472C55.9526 62.4315 55.9243 62.5127 55.8804 62.5858C55.6889 62.875 55.4073 63.0956 55.0768 63.2154C54.747 63.3315 54.4444 63.5104 54.1864 63.7418C54.0631 63.8727 53.9716 64.0817 54.0833 64.2272C54.2678 64.4734 54.7725 64.2478 54.9319 64.5112C55.0409 64.6892 54.8724 64.9004 54.7187 65.0382C54.1569 65.544 53.592 66.0495 53.0302 66.5547C52.8935 66.7019 52.7189 66.8101 52.5243 66.8683C52.4265 66.8952 52.3216 66.8845 52.2309 66.8384C52.1403 66.7923 52.0706 66.7142 52.0361 66.6201C52.0294 66.5227 52.0546 66.4261 52.1079 66.3443C52.1612 66.2625 52.2399 66.1996 52.3325 66.1649C52.5191 66.0998 52.7003 66.0211 52.8746 65.9293C52.9603 65.8798 53.0226 65.7993 53.0484 65.705C53.0742 65.6107 53.0615 65.5099 53.0128 65.424C52.857 65.235 52.5494 65.3528 52.3398 65.4844C51.7004 65.8951 51.0587 66.3038 50.4183 66.712C50.2862 66.8148 50.1275 66.8798 49.9596 66.9C49.875 66.9065 49.7908 66.8805 49.7248 66.8275C49.6588 66.7745 49.6161 66.6987 49.6059 66.616C49.6145 66.5299 49.649 66.4485 49.705 66.3821C50.0832 65.8498 50.5779 65.4074 51.1535 65.0867C51.3806 64.984 51.5888 64.8456 51.7698 64.6769C51.8597 64.5916 51.9196 64.4804 51.941 64.3592C51.9623 64.238 51.9441 64.1129 51.8889 64.0017C51.5065 64.2965 51.0899 64.5464 50.6476 64.7464C50.4895 64.8195 50.2702 64.8676 50.1697 64.7292C50.0691 64.5908 50.2009 64.3957 50.3321 64.2746C51.0159 63.6149 51.6996 62.9565 52.3832 62.2992C52.4581 62.2045 52.552 62.1257 52.6591 62.0676C52.7662 62.0095 52.8843 61.9733 53.0065 61.9611L53.2963 62.0329Z" fill="white"/>
<path d="M47.2358 63.2233C47.2287 63.2257 47.2028 63.1784 47.1578 63.083C47.1048 62.9711 47.0392 62.8324 46.9603 62.6658C46.7913 62.3036 46.5599 61.7774 46.2802 61.1154C45.7262 59.7998 45.0137 57.9611 44.3335 55.8946C43.6533 53.8281 43.1404 51.9295 42.8068 50.5469C42.6386 49.8567 42.5133 49.2939 42.4333 48.9038C42.3985 48.7254 42.3711 48.5768 42.3446 48.4545C42.3325 48.4027 42.3256 48.3499 42.3242 48.2969C42.3495 48.3446 42.3679 48.3954 42.3788 48.4479C42.4118 48.5677 42.4494 48.7136 42.4975 48.8902C42.6058 49.2993 42.7489 49.8503 42.9215 50.5183C43.2841 51.8902 43.8194 53.7823 44.4968 55.8449C45.1742 57.9075 45.8666 59.7481 46.3898 61.0736C46.6474 61.7166 46.8592 62.2452 47.0153 62.6422C47.0807 62.8137 47.1384 62.9577 47.182 63.0694C47.2241 63.1699 47.2404 63.2201 47.2358 63.2233Z" fill="#263238"/>
<path d="M65.3685 59.8162C65.3512 60.0577 64.1729 60.4559 63.9283 60.4112L63.6498 60.2985C63.4497 60.4626 63.2184 60.5474 63.0597 60.6703C62.9009 60.7933 62.6186 60.7987 62.5314 60.6194C62.4294 60.4158 62.649 60.2048 62.8413 60.0806C62.3246 59.9299 61.758 60.5293 61.2904 60.267C61.2215 60.2146 61.1638 60.1494 61.1208 60.0751C61.0778 60.0008 61.0504 59.919 61.0402 59.8344C61.03 59.7499 61.0372 59.6643 61.0613 59.5829C61.0855 59.5014 61.1261 59.4257 61.1808 59.3602C61.4148 59.102 61.7294 58.9269 62.0765 58.8617C62.4213 58.7972 62.7488 58.6662 63.0403 58.4763C63.1186 58.43 63.1788 58.3595 63.2116 58.2758C63.2443 58.192 63.2479 58.0998 63.2216 58.0133C63.0757 57.7413 62.5438 57.8869 62.4255 57.6046C62.3453 57.415 62.5435 57.23 62.7213 57.1167C63.3615 56.7032 64.2341 56.1248 64.8683 55.7096C65.1366 57.0657 65.3038 58.4382 65.3685 59.8162Z" fill="white"/>
<g opacity="0.3">
<path d="M41.6626 68.2065C46.771 66.085 51.0601 62.4529 53.935 57.814L41.6626 68.2065Z" fill="black"/>
</g>
<g opacity="0.3">
<path d="M26.1958 64.2831C27.2908 62.4136 29.1676 62.0445 30.945 62.2329C30.9711 62.1324 30.9581 62.0256 30.9087 61.9329C30.8594 61.8403 30.777 61.7684 30.6773 61.7309C30.4764 61.6631 30.2616 61.6468 30.0536 61.6836C29.1781 61.7263 28.3204 61.9293 27.5249 62.2818C27.1575 62.4706 26.8461 62.7478 26.6198 63.0876C26.3934 63.4274 26.2594 63.8188 26.2304 64.2251" fill="black"/>
</g>
<g opacity="0.3">
<path d="M33.5273 37.4756C34.3777 41.9291 35.9173 46.237 38.0929 50.2501C39.1305 48.9417 39.6612 47.3131 39.5923 45.6488C40.2098 46.59 41.1034 47.3283 42.1543 47.7656C41.0887 45.9369 39.8007 44.2397 38.3186 42.7116C38.3186 42.7116 37.7194 48.1543 37.7374 48.0138C36.3022 44.4757 34.9098 40.998 33.5273 37.4756Z" fill="black"/>
</g>
<path d="M56.0804 44.4504L54.1298 40.7928L54.2632 37.3816L55.3406 35.136C55.3406 35.136 56.0564 35.035 56.1026 35.8634C56.0925 36.4825 55.9515 37.0916 55.6883 37.6525L56.0283 39.3415C56.0283 39.3415 56.1716 39.5328 56.3807 38.8607C56.5899 38.1885 56.7608 33.0803 56.7869 32.7289C56.813 32.3776 56.9139 31.5496 57.4372 31.6747C57.9606 31.7998 58.0718 32.5008 58.0451 32.8521C58.0184 33.2034 58.1146 36.6481 58.1146 36.6481C58.1146 36.6481 58.2123 36.965 58.3426 36.9347C58.4729 36.9045 58.5448 33.2636 58.5669 32.6879C58.589 32.1121 58.5682 30.8385 59.2542 30.8973C59.9403 30.9561 59.8861 31.5935 59.8669 32.2961C59.8478 32.9988 59.9629 36.9548 59.9629 36.9548C59.9629 36.9548 60.0478 37.209 60.171 36.8889C60.2941 36.5688 60.7813 32.3231 60.8742 32.1306C60.9672 31.9381 61.3883 31.7131 61.6604 32.221C61.9326 32.7289 61.7617 33.8459 61.5496 35.8291C61.3582 37.6127 61.2388 38.3513 61.4385 38.5088C61.6383 38.6662 62.502 37.6378 62.502 37.6378C62.502 37.6378 63.6384 35.366 64.4266 35.5204C65.2148 35.6749 64.6287 36.2296 64.4455 36.7647C64.2905 37.2183 62.6685 39.8592 62.6366 39.8825C62.6047 39.9058 60.8221 44.7031 60.8221 44.7031L63.3533 50.5998C63.8035 51.6263 63.9126 52.7624 63.6651 53.8467C63.5366 54.5526 63.1936 55.2024 62.6806 55.7117C62.1676 56.221 61.5084 56.5663 60.7886 56.7026C60.2511 56.8196 59.6884 56.7747 59.1744 56.5738C58.6604 56.3728 58.2191 56.0253 57.9083 55.5766C57.4022 54.9216 57.0965 54.1407 57.0271 53.3256C56.8225 51.1203 56.0804 44.4504 56.0804 44.4504Z" fill="#915D42"/>
<path d="M58.5916 42.1771C58.5623 42.1714 58.6165 41.9173 58.5782 41.5086C58.5244 40.9806 58.3108 40.4786 57.9649 40.067C57.6915 39.731 57.3093 39.4962 56.8826 39.4021C56.6169 39.3453 56.3404 39.3805 56.1004 39.5016L56.0692 39.5182L56.0589 39.4857C56.0203 39.3912 56.0077 39.3415 56.0156 39.3355C56.0236 39.3296 56.0613 39.3755 56.1137 39.461L56.0683 39.4471C56.1871 39.3625 56.3223 39.3023 56.466 39.2701C56.6096 39.2379 56.7587 39.2344 56.9044 39.2597C57.3728 39.3406 57.7962 39.5873 58.0936 39.9526C58.4641 40.3883 58.676 40.9314 58.6953 41.495C58.7213 41.728 58.6856 41.9629 58.5916 42.1771Z" fill="#77574A"/>
<path d="M60.6908 39.7303C60.7172 39.7716 60.3941 39.9983 60.0671 40.3466C59.8877 40.5768 59.6938 40.7957 59.4866 41.0021C59.552 40.7043 59.711 40.435 59.9414 40.232C60.1315 39.9924 60.3933 39.8171 60.6908 39.7303Z" fill="#77574A"/>
<path d="M27.7384 67.9238C27.6531 69.3636 28.1032 70.7889 29.0052 71.9358C29.6711 72.7799 30.3817 73.5892 31.134 74.3605L36.5595 77.3459C37.1084 77.422 37.6668 77.3786 38.1948 77.2187C38.7227 77.0588 39.2073 76.7865 39.6141 76.421C40.1227 76.0598 40.5537 75.604 40.8828 75.0793C41.599 75.4904 42.3698 75.8011 43.1726 76.0023C44.2896 76.054 44.1784 75.2683 44.1784 75.2683C44.1784 75.2683 40.6277 72.9259 39.8095 72.0708C38.9913 71.2156 36.4884 70.4768 34.6617 70.5452L33.6342 70.2498L33.3723 68.8369C33.3723 68.8369 31.5822 65.67 29.6222 66.5476C27.6621 67.4251 27.7384 67.9238 27.7384 67.9238Z" fill="#915D42"/>
<path d="M39.0907 8.41611C39.1208 8.18393 39.1977 7.96028 39.3169 7.75826C39.436 7.55624 39.5951 7.37992 39.7846 7.23963C39.9742 7.09934 40.1904 6.99789 40.4208 6.94124C40.6511 6.88459 40.8909 6.87387 41.126 6.9097C41.4133 6.40406 41.8881 6.02818 42.4515 5.86026C43.0149 5.69235 43.6236 5.74533 44.1509 6.00818C44.6428 6.27704 45.0124 6.72038 45.4909 7.00916C45.9515 7.287 46.4885 7.40777 46.9735 7.6391C47.2253 7.73458 47.4495 7.88976 47.6262 8.09082C47.803 8.29189 47.9269 8.53261 47.9867 8.79156C47.9926 9.08696 47.9031 9.37603 47.7312 9.6171C47.5593 9.85817 47.3139 10.0388 47.0303 10.133C46.4586 10.3099 45.8538 10.3616 45.2582 10.2844C45.3807 10.3716 45.4672 10.4994 45.5015 10.6442C45.5358 10.789 45.5156 10.9408 45.4446 11.0714C45.2904 11.3279 45.0473 11.5205 44.7598 11.6139C44.2918 11.7891 43.7831 11.8336 43.2896 11.7424C42.7961 11.6512 42.3368 11.4278 41.9623 11.0968L40.8425 10.2465C40.6058 10.2404 40.3723 10.1881 40.1556 10.0925C39.939 9.99697 39.7435 9.86008 39.5806 9.68981C39.4176 9.51954 39.2904 9.31927 39.2063 9.10063C39.1222 8.88198 39.0829 8.64931 39.0907 8.41611Z" fill="#151C1F"/>
<path d="M41.8827 12.1189C41.9932 12.2124 42.1344 12.2629 42.2796 12.2609C42.4248 12.2589 42.5639 12.2044 42.6705 12.1079C42.7722 12.006 42.8436 11.8785 42.8768 11.7392C42.9101 11.5998 42.904 11.454 42.8592 11.3174C42.7639 11.0439 42.5741 10.8117 42.3232 10.6613C42.0742 10.5125 41.8048 10.4 41.5234 10.3275C41.0959 10.1911 40.6533 10.1065 40.2056 10.0756C40.0466 10.0616 39.8866 10.0817 39.7367 10.1347C39.6623 10.1616 39.5966 10.2076 39.5465 10.2679C39.4963 10.3283 39.4635 10.4008 39.4515 10.478C39.4343 10.6969 39.6301 10.8723 39.8097 11.0029C40.4818 11.4932 41.1977 11.9223 41.9483 12.2848" fill="#FFB55E"/>
<path d="M42.5104 12.0578C43.566 10.8951 46.2021 11.0603 46.8347 11.8182C47.3001 11.599 47.8343 11.5655 48.3263 11.7248C48.8183 11.884 49.2302 12.2238 49.4764 12.6734L52.2844 13.2658C52.7725 13.3281 53.2374 13.5106 53.6363 13.7964C53.8303 13.9454 53.9627 14.1589 54.0086 14.3966C54.0545 14.6343 54.0107 14.8799 53.8855 15.087C54.1192 15.1683 54.3297 15.3043 54.4988 15.4834C54.6678 15.6625 54.7904 15.8792 54.8558 16.1149C54.9211 16.3506 54.9274 16.598 54.8741 16.836C54.8208 17.0739 54.7094 17.2951 54.5496 17.4804C54.6452 17.5881 54.7176 17.7137 54.7624 17.8497C54.8072 17.9856 54.8234 18.1289 54.8101 18.2709C54.7969 18.4129 54.7543 18.5506 54.6852 18.6755C54.616 18.8004 54.5216 18.91 54.4078 18.9974C55.1927 19.9114 55.8141 20.9501 56.245 22.0686C56.4685 22.5208 56.5233 23.0355 56.3995 23.5217C56.3621 23.6384 56.2996 23.7456 56.2163 23.836C56.1329 23.9264 56.0307 23.998 55.9165 24.0457C55.8023 24.0935 55.6789 24.1163 55.5547 24.1127C55.4304 24.1091 55.3083 24.0791 55.1966 24.0248C55.3357 24.2161 55.4164 24.4424 55.429 24.677C55.4416 24.9115 55.3857 25.1442 55.2678 25.3475C55.7411 25.358 55.8911 26.0793 55.5692 26.4209C55.3864 26.5691 55.1745 26.6784 54.9466 26.7421C54.7187 26.8058 54.4797 26.8225 54.2444 26.7911C53.7715 26.7269 53.291 26.8101 52.8701 27.0291C52.8747 27.0865 52.891 27.1424 52.9182 27.1935C52.9454 27.2446 52.9827 27.2897 53.0281 27.3262C53.4311 27.6224 53.7038 28.0597 53.7895 28.5472C53.8753 29.0348 53.7674 29.535 53.4884 29.9441C53.4328 30.0214 53.3815 30.0945 53.3344 30.1604C52.9483 30.5674 52.4832 30.8938 51.9664 31.1205C50.9 31.6772 50.2607 31.573 49.0655 31.7493C49.3997 32.5093 47.4728 34.2019 45.2321 32.5544C41.2662 33.6964 37.1502 34.2652 33.0122 34.2432C32.3573 34.2479 31.5671 34.1638 31.2721 33.5855C31.0016 33.6371 30.722 33.62 30.4592 33.5359C30.1965 33.4518 29.9593 33.3034 29.77 33.1047C29.3955 32.7039 29.0937 32.2427 28.8779 31.7414C28.3096 31.5818 27.8044 31.2529 27.4315 30.7998C27.0586 30.3468 26.8365 29.7919 26.7955 29.2112C26.4086 28.9136 26.0882 28.5403 25.8546 28.115C25.6209 27.6898 25.4791 27.2218 25.4382 26.7407C25.1686 26.6468 24.9213 26.499 24.7118 26.3067C24.5023 26.1144 24.3351 25.8818 24.2207 25.6233C24.1064 25.3648 24.0473 25.0861 24.0471 24.8047C24.047 24.5233 24.1059 24.2452 24.22 23.9879C24.4455 22.6499 24.8936 21.3589 25.5461 20.1671C24.7919 20.01 24.4994 19.014 24.8043 18.3158C25.1794 17.6509 25.745 17.1104 26.4308 16.7615C25.8703 16.9123 25.3729 16.2136 25.5015 15.6595C25.6953 15.1132 26.1013 14.6662 26.6305 14.4166C27.3581 13.9809 28.1367 13.6335 28.9496 13.3818C29.2071 12.4051 30.4604 11.289 31.383 10.8517C35.0971 9.08444 37.7137 8.6322 42.5104 12.0578Z" fill="#151C1F"/>
<path d="M45.3554 17.9776C45.4046 17.2017 45.5346 16.4328 44.756 16.3128L36.8318 13.9201C34.277 13.529 32.4391 16.5788 32.1678 19.1231C31.8698 21.9494 31.611 25.414 31.858 27.5455C31.9875 28.7615 32.4608 29.9184 33.2233 30.8828C33.9858 31.8472 35.0065 32.5798 36.1676 32.9961C36.1676 32.9918 36.0764 35.5943 36.0764 35.5943C36.4105 37.5973 38.3858 39.47 39.2067 40.2751C42.0068 39.7647 45.1141 34.0493 45.1141 34.0493L45.3554 17.9776Z" fill="#915D42"/>
<path d="M36.1523 33.0055C38.0139 32.7875 39.8111 32.2089 41.4404 31.3029C41.4404 31.3029 40.4487 33.975 36.1178 34.2892L36.1523 33.0055Z" fill="#6F4439"/>
<path d="M33.1474 18.9566C33.2467 19.0936 33.6618 18.9756 34.156 18.9927C34.6477 18.9942 35.0616 19.1254 35.1645 18.9915C35.2092 18.9254 35.1504 18.791 34.9724 18.6568C34.7359 18.4913 34.4529 18.4018 34.1629 18.401C33.8733 18.3925 33.5887 18.4724 33.3486 18.6298C33.1671 18.7592 33.1041 18.8885 33.1474 18.9566Z" fill="#263238"/>
<path d="M30.2418 21.1486C30.2568 20.4757 30.5078 19.8302 30.9521 19.3221C31.2303 19.0834 31.4958 18.8307 31.7475 18.5649C32.2311 17.9407 32.1611 17.0659 32.3676 16.3057C32.5041 15.8143 32.7574 15.3628 33.1065 14.9884C33.4556 14.6141 33.8905 14.3277 34.3751 14.153C35.1817 13.8719 36.0966 13.9122 36.8532 13.5183C37.4131 13.2281 37.8375 12.7199 38.4129 12.4606C39.5348 11.957 40.8389 12.532 41.9015 13.1596C42.1149 13.9925 41.5831 14.7105 41.0691 15.3982C40.81 15.7423 40.478 16.0264 40.0961 16.2308C39.7142 16.4353 39.2915 16.5552 38.857 16.5824C38.1822 16.6204 37.3989 16.4673 36.9272 16.9401C36.4311 17.4365 36.6243 18.3141 36.2173 18.8835C35.6343 19.6988 34.3064 19.3823 33.4329 19.8843C32.7591 20.2717 32.4767 21.068 32.1375 21.7617C31.7984 22.4554 31.2145 23.1793 30.434 23.1443C30.2941 22.4879 30.2297 21.8184 30.2418 21.1486Z" fill="#151C1F"/>
<path d="M40.2461 14.6422C42.2157 14.6202 44.1732 14.976 46.0103 15.6899C46.5755 15.8577 47.0731 16.1989 47.4307 16.6641C47.6715 17.1183 47.7765 17.6304 47.7333 18.14C47.6067 19.8728 47.176 21.5688 46.4603 23.1521L44.4509 24.3362C42.9023 23.9679 43.607 21.325 43.6793 20.0006C43.1399 19.755 42.6801 19.3652 42.3521 18.8753C42.0241 18.3855 41.841 17.8152 41.8236 17.2294C41.3817 16.942 41.0105 16.5601 40.7374 16.1122C40.4642 15.6642 40.2963 15.1618 40.2461 14.6422Z" fill="#151C1F"/>
<path d="M44.485 23.7699C44.5449 22.8594 45.673 22.6857 46.4672 23.1598C46.9023 23.4206 47.2303 23.9309 47.1773 24.8972C47.032 27.4756 44.4462 26.7857 44.4436 26.7124C44.4435 26.6663 44.4163 24.8357 44.485 23.7699Z" fill="#915D42"/>
<path d="M45.2805 25.7821C45.2915 25.7755 45.3252 25.8156 45.3993 25.8559C45.5043 25.9077 45.6251 25.9176 45.7367 25.8836C45.9112 25.7883 46.0564 25.6481 46.1573 25.4777C46.2582 25.3072 46.311 25.1128 46.3103 24.9146C46.3299 24.6942 46.2997 24.4718 46.2217 24.264C46.2012 24.1823 46.1615 24.1066 46.1057 24.0431C46.0499 23.9797 45.9798 23.9302 45.901 23.899C45.8498 23.8818 45.7943 23.8831 45.744 23.9024C45.6938 23.9218 45.6522 23.9581 45.6263 24.0049C45.5886 24.0758 45.6022 24.1268 45.587 24.131C45.5717 24.1352 45.5331 24.0847 45.5596 23.978C45.5775 23.9152 45.6169 23.8606 45.671 23.8237C45.7458 23.7748 45.8369 23.7567 45.9251 23.7735C46.0308 23.8009 46.1277 23.8548 46.2067 23.9299C46.2856 24.005 46.344 24.0989 46.3761 24.2025C46.4747 24.4325 46.5144 24.6827 46.4918 24.9309C46.492 25.1616 46.4237 25.3868 46.2953 25.5783C46.1669 25.7698 45.9842 25.9191 45.7701 26.0075C45.699 26.0236 45.6252 26.0236 45.554 26.0073C45.4828 25.991 45.4162 25.9589 45.3591 25.9134C45.2856 25.8446 45.2744 25.787 45.2805 25.7821Z" fill="#6F4439"/>
<path d="M45.5837 26.8642L45.5906 26.8976C45.5971 26.9319 45.6094 26.9649 45.627 26.9953C45.6935 27.1168 45.8006 27.2119 45.9299 27.2642C46.1337 27.3524 46.3535 27.3983 46.5755 27.3989C46.7156 27.4031 46.8556 27.3946 46.994 27.3734C47.1526 27.353 47.3067 27.3078 47.4507 27.2396L47.4195 27.2237C47.4559 27.4425 47.5489 27.6486 47.6893 27.8219C47.8298 27.9952 48.013 28.1298 48.2211 28.2128C48.4292 28.2957 48.6551 28.3241 48.8769 28.2952C49.0987 28.2663 49.3088 28.181 49.4869 28.0478L49.4421 28.041C49.4813 28.0994 49.5319 28.1496 49.5908 28.1886C49.6497 28.2276 49.7159 28.2547 49.7853 28.2681C49.927 28.2979 50.0742 28.2862 50.2087 28.2342C50.3487 28.1824 50.4677 28.087 50.548 27.9624C50.6271 27.8344 50.6722 27.6886 50.6792 27.5384C50.6894 27.228 50.5887 26.9233 50.3949 26.6778C50.1933 26.428 49.9613 26.2037 49.7042 26.0101L49.7001 26.0707C49.8085 26.0035 49.9012 25.9144 49.9723 25.8092C50.0434 25.704 50.0912 25.5851 50.1126 25.4602C50.1637 25.2059 50.1376 24.9419 50.0376 24.7015C49.9279 24.4598 49.773 24.2406 49.5811 24.0556C49.3878 23.8699 49.1826 23.6967 48.9668 23.5372L48.9713 23.5979C49.0644 23.498 49.1352 23.3799 49.1792 23.2511C49.2232 23.1222 49.2393 22.9855 49.2266 22.8498C49.2066 22.5711 49.1037 22.3039 48.9309 22.082C48.5782 21.6977 48.1435 21.3958 47.6587 21.1985L47.679 21.2428C47.7457 20.9744 47.7456 20.6936 47.6787 20.4244C47.6118 20.1553 47.4801 19.9058 47.2949 19.6973C47.1096 19.4888 46.8764 19.3275 46.6151 19.2271C46.3537 19.1268 46.0721 19.0905 45.7942 19.1212L45.8348 19.1656C45.8766 18.9436 45.8662 18.7149 45.8046 18.4969C45.7431 18.279 45.6318 18.0776 45.4795 17.9083C45.3452 17.7451 45.1769 17.6125 44.9862 17.5194C44.7956 17.4263 44.587 17.375 44.375 17.369L44.4088 17.4025C44.4019 17.1828 44.3449 16.9672 44.2419 16.7719C44.1389 16.5766 43.9927 16.4067 43.8143 16.2748C43.6622 16.153 43.4868 16.0631 43.2987 16.0107C43.1107 15.9582 42.914 15.9442 42.7208 15.9696L42.7503 15.994C42.7342 15.7593 42.6603 15.5318 42.5352 15.3313C42.4313 15.1519 42.2974 14.9911 42.1392 14.8559C41.8926 14.6329 41.5781 14.4977 41.2459 14.4719L41.1484 14.465C41.1172 14.4649 41.0872 14.469 41.0565 14.4714C41.0008 14.4779 40.9395 14.4777 40.8905 14.4885C40.8063 14.5054 40.7235 14.528 40.6425 14.5562C40.5819 14.5845 40.533 14.6026 40.4968 14.6182C40.4805 14.624 40.4647 14.6313 40.4497 14.6399C40.4497 14.6399 40.4681 14.6357 40.5011 14.6249C40.5342 14.6141 40.5862 14.5943 40.6493 14.5696C40.7304 14.5433 40.8136 14.5233 40.8979 14.5097C40.9469 14.4977 41.0008 14.4997 41.0621 14.4938C41.0915 14.4939 41.1234 14.4898 41.1516 14.4898C41.1797 14.4899 41.2129 14.4943 41.2478 14.4992C41.5711 14.5305 41.8756 14.6658 42.1148 14.8844C42.268 15.0187 42.3978 15.177 42.4991 15.353C42.6183 15.5466 42.6873 15.7661 42.7 15.992L42.7001 16.0211L42.7289 16.0169C42.9143 15.9937 43.1027 16.0082 43.2827 16.0594C43.4627 16.1106 43.6305 16.1974 43.7758 16.3147C43.946 16.4416 44.0852 16.6047 44.183 16.7919C44.2808 16.979 44.3348 17.1854 44.3407 17.3956L44.3408 17.429L44.3745 17.4291C44.5764 17.4364 44.7746 17.4867 44.9557 17.5763C45.1367 17.666 45.2964 17.793 45.4239 17.9487C45.5683 18.1099 45.6738 18.3014 45.7323 18.5086C45.7907 18.7158 45.8006 18.9332 45.7612 19.1441L45.7503 19.195L45.8018 19.1885C46.0675 19.1591 46.3369 19.1939 46.5868 19.29C46.8367 19.3861 47.0597 19.5405 47.2366 19.7402C47.4135 19.9398 47.5391 20.1786 47.6026 20.4362C47.6661 20.6937 47.6656 20.9623 47.6011 21.2189L47.5945 21.2498L47.6233 21.2632C48.0973 21.4556 48.5226 21.7497 48.8685 22.1242C49.0323 22.3327 49.1296 22.5844 49.1481 22.8472C49.1605 22.972 49.146 23.0979 49.1058 23.2166C49.0656 23.3352 49.0005 23.444 48.9147 23.5358L48.8836 23.5667L48.9192 23.5935C49.3613 23.8762 49.7239 24.2654 49.9727 24.7243C50.0667 24.9512 50.0924 25.1998 50.0464 25.4399C50.0267 25.5546 49.983 25.6638 49.918 25.7605C49.8531 25.8572 49.7684 25.9393 49.6693 26.0015L49.6246 26.028L49.6651 26.0615C49.9164 26.2505 50.1434 26.4693 50.3411 26.7128C50.5268 26.945 50.6244 27.234 50.6167 27.5291C50.6177 27.6659 50.5777 27.7997 50.5016 27.9134C50.4256 28.0272 50.3169 28.1158 50.1895 28.1681C50.0728 28.2212 49.9411 28.2338 49.8159 28.2037C49.6906 28.1736 49.5789 28.1027 49.499 28.0023L49.4812 27.9756L49.4543 27.9955C49.2681 28.133 49.0469 28.2167 48.815 28.2374C48.5831 28.2581 48.3496 28.215 48.1401 28.1129C47.9672 28.0233 47.817 27.8959 47.701 27.7405C47.585 27.5851 47.5063 27.4057 47.4709 27.216L47.4665 27.1869L47.4396 27.2001C47.2998 27.2676 47.1503 27.3136 46.9963 27.3365C46.8604 27.359 46.7226 27.3689 46.5846 27.3662C46.3664 27.369 46.1497 27.327 45.9482 27.243C45.8219 27.1937 45.7154 27.1045 45.6454 26.9893C45.6213 26.9493 45.6007 26.9075 45.5837 26.8642Z" fill="#455A64"/>
<path d="M55.5306 24.1119C55.5688 24.0639 55.6018 24.0121 55.629 23.9573C55.7093 23.7988 55.7562 23.6259 55.7669 23.4487C55.7871 23.1639 55.7115 22.8799 55.5517 22.6407C55.444 22.4818 55.3041 22.3466 55.1409 22.2437C54.9776 22.1408 54.7946 22.0724 54.6035 22.0429L54.6263 22.0739C54.7118 21.6363 54.6264 21.1821 54.387 20.8022C54.2574 20.5889 54.0824 20.4058 53.8741 20.2657C53.6472 20.1324 53.408 20.0206 53.1599 19.9319C53.0365 19.8813 52.9213 19.813 52.818 19.7293C52.7148 19.6431 52.6332 19.5345 52.5796 19.4121C52.4623 19.1642 52.4258 18.8718 52.2765 18.6062C52.1198 18.3343 51.8843 18.1144 51.6005 17.9748C51.3166 17.8353 50.9974 17.7825 50.6839 17.8232L50.7288 17.8675C50.7728 17.5548 50.7435 17.2359 50.6429 16.9354C50.5424 16.6348 50.3734 16.3606 50.1489 16.1339C49.9244 15.9071 49.6505 15.7339 49.3481 15.6275C49.0458 15.5211 48.7231 15.4844 48.405 15.5202L48.4475 15.5621C48.4805 15.2008 48.4052 14.8373 48.2308 14.5166C48.0563 14.196 47.7906 13.9324 47.4664 13.7586C47.1705 13.6109 46.8409 13.5423 46.5107 13.5596C46.1804 13.5769 45.8611 13.6795 45.5846 13.8571L45.6295 13.8603C45.3669 13.6149 45.0539 13.4282 44.7121 13.3129C44.4097 13.2018 44.0946 13.1287 43.7741 13.0952C43.2559 13.037 42.7318 13.0698 42.2263 13.1923C41.9015 13.2676 41.5912 13.3936 41.3072 13.5654C41.2328 13.611 41.1617 13.6618 41.0947 13.7173C41.0703 13.736 41.0472 13.7561 41.0255 13.7776C41.0298 13.7843 41.1241 13.7047 41.3165 13.586C41.6022 13.4216 41.9126 13.3024 42.2362 13.2329C42.7382 13.1163 43.2577 13.0886 43.7706 13.1509C44.0857 13.185 44.3954 13.2588 44.692 13.3703C45.0239 13.486 45.3268 13.671 45.5799 13.9128L45.6002 13.9328L45.6229 13.9172C45.8894 13.7475 46.1967 13.65 46.5143 13.6343C46.8319 13.6185 47.1486 13.6852 47.4328 13.8275C47.7427 13.9951 47.9965 14.2483 48.1629 14.5558C48.3293 14.8633 48.4009 15.2116 48.3689 15.5576L48.3647 15.606L48.4138 15.5995C48.7199 15.565 49.0304 15.6003 49.3213 15.7026C49.6122 15.8049 49.8758 15.9715 50.0919 16.1896C50.3079 16.4078 50.4706 16.6716 50.5674 16.9607C50.6642 17.2499 50.6925 17.5567 50.6502 17.8576L50.6436 17.9084L50.6952 17.8995C50.9931 17.8611 51.2964 17.9111 51.5663 18.0432C51.8363 18.1753 52.0607 18.3835 52.211 18.6411C52.351 18.8891 52.3899 19.1791 52.514 19.4403C52.5736 19.5715 52.662 19.6882 52.7728 19.7818C52.8825 19.8679 53.0035 19.9389 53.1325 19.9929C53.3775 20.079 53.6138 20.1879 53.8381 20.3182C54.0393 20.4527 54.209 20.6282 54.3355 20.8329C54.5691 21.1998 54.6551 21.6389 54.5765 22.0634L54.5723 22.0901L54.5993 22.0944C54.7842 22.1214 54.9617 22.186 55.1205 22.284C55.2792 22.3819 55.4158 22.5112 55.5217 22.6636C55.6799 22.8946 55.7578 23.1698 55.7436 23.4474C55.7361 23.6216 55.695 23.7926 55.6223 23.9512C55.5667 24.0576 55.5288 24.1095 55.5306 24.1119Z" fill="#455A64"/>
<path d="M30.53 24.78C30.5465 24.7476 30.5557 24.7122 30.5572 24.6759C30.5587 24.6397 30.5524 24.6035 30.5387 24.5698C30.5083 24.4864 30.4555 24.4127 30.3859 24.3567C30.2906 24.2816 30.1805 24.227 30.0628 24.1964C29.9191 24.1601 29.7814 24.1029 29.6545 24.0267C29.5134 23.9235 29.4099 23.778 29.3595 23.6121C29.2988 23.4214 29.2759 23.2212 29.2922 23.0224C29.3008 22.8098 29.3333 22.5839 29.3326 22.3428C29.279 21.8242 29.1663 21.3129 28.9965 20.8187C28.9265 20.5409 28.9136 20.2525 28.9585 19.9704C28.9789 19.8227 29.0316 19.6813 29.1129 19.556C29.1942 19.4307 29.3022 19.3245 29.4294 19.2448C29.7197 19.1069 30.0267 19.006 30.3431 18.9446C30.51 18.8993 30.6681 18.8273 30.8111 18.7315C30.9542 18.6263 31.0672 18.4865 31.1394 18.3253C31.2662 17.9981 31.3578 17.6585 31.4126 17.312C31.448 17.1406 31.5096 16.9758 31.5952 16.823C31.683 16.6737 31.8182 16.5574 31.9801 16.4921C32.2155 16.4307 32.458 16.3986 32.7018 16.3967C32.8286 16.3868 32.9529 16.3565 33.0696 16.3069C33.1861 16.2538 33.2857 16.1703 33.3578 16.0655C33.4792 15.8605 33.5707 15.6395 33.6295 15.4089C33.6955 15.1945 33.8065 14.9965 33.9554 14.8277C34.0969 14.6664 34.2707 14.5358 34.4661 14.4443C34.6614 14.3527 34.874 14.302 35.0905 14.2955C35.4971 14.2853 35.8933 14.4281 36.1988 14.695L36.2327 14.726L36.2528 14.6843C36.3997 14.3686 36.6132 14.0879 36.8791 13.8609C37.145 13.6338 37.4572 13.4656 37.7948 13.3675C38.0777 13.2892 38.3735 13.265 38.6662 13.2962C38.9154 13.3192 39.1586 13.3866 39.3839 13.4952C39.701 13.6494 39.9665 13.891 40.1482 14.1906C40.1975 14.2684 40.2412 14.3495 40.279 14.4333C40.2925 14.46 40.3018 14.48 40.3104 14.4976C40.3191 14.5152 40.3215 14.5201 40.3215 14.5176C40.3215 14.5152 40.3215 14.5085 40.3147 14.4952C40.3079 14.4818 40.2987 14.4552 40.2875 14.4285C40.2538 14.3424 40.2125 14.2594 40.1642 14.1803C39.9861 13.872 39.7202 13.6219 39.3997 13.4613C39.1716 13.3478 38.9246 13.2765 38.671 13.2508C38.3717 13.2153 38.0687 13.2377 37.7787 13.3166C37.4313 13.4145 37.1096 13.5849 36.8351 13.8163C36.5607 14.0477 36.3399 14.3347 36.1877 14.658L36.2416 14.6473C35.9235 14.3676 35.5106 14.2168 35.086 14.2252C34.8591 14.2311 34.636 14.2834 34.4311 14.3788C34.2261 14.4743 34.0436 14.6107 33.8952 14.7796C33.7393 14.9549 33.623 15.1611 33.554 15.3845C33.4978 15.6083 33.4094 15.8229 33.2914 16.0216C33.2213 16.1127 33.131 16.1868 33.0275 16.2382C32.9239 16.2897 32.8098 16.3171 32.6936 16.3185C32.4428 16.3207 32.1936 16.3541 31.9517 16.4181C31.7737 16.489 31.6249 16.6164 31.5288 16.7804C31.4392 16.9398 31.3754 17.1121 31.3395 17.2911C31.2865 17.6334 31.1966 17.9689 31.0712 18.2918C31.0041 18.4418 30.8988 18.5719 30.7656 18.6695C30.6305 18.7612 30.4805 18.8296 30.322 18.8718C29.9996 18.9366 29.6871 19.0422 29.3924 19.1859C29.2526 19.269 29.1358 19.385 29.0523 19.5235C28.9721 19.6576 28.9179 19.8054 28.8922 19.9593C28.8477 20.2507 28.8636 20.5484 28.9389 20.8342C29.1089 21.3243 29.2244 21.8309 29.2835 22.345C29.2842 22.5795 29.2554 22.8054 29.2474 23.0223C29.233 23.227 29.2588 23.4328 29.3233 23.6283C29.3794 23.8011 29.4899 23.952 29.6386 24.0588C29.7695 24.1345 29.9108 24.1908 30.058 24.226C30.1727 24.2536 30.2804 24.3045 30.3743 24.3754C30.4418 24.429 30.4943 24.4986 30.527 24.5776C30.5533 24.6425 30.5544 24.7146 30.53 24.78Z" fill="#455A64"/>
<path d="M25.4446 20.7586C25.456 20.7439 25.4651 20.7277 25.4715 20.7103C25.4892 20.6753 25.5136 20.6264 25.5429 20.5666C25.604 20.4343 25.6968 20.249 25.8109 20.008C25.9251 19.7671 26.0606 19.4645 26.2482 19.1361C26.4451 18.7541 26.7474 18.4349 27.1206 18.2147C27.3315 18.1029 27.5757 18.028 27.8198 17.9229C27.9466 17.8693 28.0663 17.8006 28.176 17.7184C28.2909 17.6296 28.3822 17.5148 28.4422 17.3836C28.5643 17.1166 28.5683 16.8137 28.6664 16.5376C28.7118 16.3984 28.799 16.2762 28.9166 16.1871C29.0447 16.1015 29.1861 16.037 29.3354 15.996C29.4949 15.9532 29.6496 15.8951 29.7973 15.8226C29.9516 15.7418 30.0761 15.6153 30.1531 15.4608C30.2728 15.1398 30.3474 14.8039 30.375 14.4625C30.3994 14.2952 30.4576 14.1346 30.5463 13.9902C30.5939 13.9207 30.655 13.8612 30.7261 13.8152C30.7972 13.7691 30.8769 13.7374 30.9606 13.7217C31.3037 13.652 31.6743 13.7722 32.0555 13.7141C32.247 13.6815 32.4228 13.5899 32.5577 13.4525C32.6822 13.318 32.791 13.17 32.8819 13.0114C32.9696 12.8589 33.0651 12.7108 33.168 12.5678C33.2652 12.4298 33.3971 12.319 33.5509 12.246C33.8718 12.1428 34.2189 12.1471 34.5383 12.258C34.8588 12.3591 35.1976 12.3888 35.5303 12.345C35.8393 12.269 36.1316 12.1387 36.3932 11.9606C36.6351 11.7967 36.8928 11.6565 37.1627 11.542C37.6633 11.3783 38.2026 11.3631 38.7137 11.4982C39.137 11.6055 39.5305 11.8062 39.8643 12.0852C40.1138 12.2979 40.3282 12.5477 40.4995 12.8254C40.6054 13.0024 40.6967 13.1875 40.7724 13.3789C40.7972 13.4394 40.8176 13.4915 40.8343 13.5272C40.8509 13.5629 40.8571 13.5781 40.8571 13.5781C40.8525 13.5595 40.8458 13.5414 40.8373 13.5242C40.8237 13.4867 40.8056 13.4358 40.7829 13.3717C40.7143 13.1757 40.6266 12.9867 40.5209 12.8073C40.3515 12.5238 40.138 12.268 39.8881 12.0495C39.5512 11.763 39.1532 11.5551 38.724 11.4414C38.2022 11.2985 37.6499 11.3114 37.1373 11.4784C36.8636 11.5938 36.6018 11.7348 36.3556 11.8994C36.1002 12.0718 35.8155 12.1981 35.5147 12.2724C35.193 12.3103 34.8664 12.2792 34.5572 12.1813C34.3897 12.1385 34.2192 12.1085 34.0472 12.0915C33.8672 12.075 33.6861 12.1025 33.52 12.1716C33.3541 12.2502 33.2116 12.3692 33.1058 12.5174C33.0006 12.6621 32.9037 12.8124 32.8154 12.9677C32.7289 13.1222 32.6237 13.2659 32.5022 13.3955C32.3792 13.5218 32.2184 13.606 32.043 13.636C31.6864 13.6954 31.3182 13.5734 30.9432 13.6461C30.7547 13.6823 30.5889 13.7905 30.4817 13.947C30.3871 14.1002 30.3249 14.2707 30.2988 14.4484C30.2716 14.7825 30.1994 15.1113 30.0842 15.4262C30.0136 15.5676 29.9003 15.6838 29.7597 15.759C29.6156 15.8279 29.4655 15.8843 29.3113 15.9276C29.1544 15.9702 29.006 16.0385 28.8722 16.1295C28.7438 16.2271 28.6487 16.3609 28.5994 16.5133C28.4989 16.8044 28.4955 17.1049 28.3819 17.3544C28.2597 17.5922 28.0499 17.7749 27.7951 17.8654C27.5553 17.9705 27.3111 18.0454 27.0935 18.1657C26.7137 18.3916 26.4074 18.7192 26.21 19.1106C26.0224 19.4457 25.8956 19.7483 25.7827 19.991C25.6697 20.2338 25.5886 20.4216 25.5282 20.5538C25.5013 20.6142 25.4794 20.6644 25.4635 20.7018C25.4542 20.7196 25.4479 20.7388 25.4446 20.7586Z" fill="#455A64"/>
<path d="M28.1987 18.0986C28.1835 18.0932 28.1676 18.0901 28.1516 18.0894C28.1033 18.0868 28.0554 18.0974 28.0129 18.1199C27.9355 18.1684 27.8715 18.2352 27.8266 18.3143C27.7817 18.3935 27.7573 18.4826 27.7556 18.5736C27.7559 18.7042 27.775 18.8342 27.8123 18.9597C27.8565 19.1052 27.8795 19.2561 27.8808 19.4078C27.8623 19.5797 27.7996 19.7437 27.6987 19.8842C27.5989 20.0416 27.4697 20.1942 27.3681 20.3802C27.308 20.4761 27.271 20.5846 27.26 20.6972C27.249 20.8099 27.2642 20.9237 27.3045 21.0299C27.3877 21.2498 27.5502 21.4341 27.6279 21.6583C27.6967 21.8955 27.6713 22.1493 27.5571 22.3674C27.4575 22.602 27.3139 22.8321 27.2131 23.0946C27.1592 23.2274 27.1318 23.3695 27.1324 23.513C27.1354 23.6609 27.1693 23.8067 27.232 23.9411C27.3749 24.2011 27.5409 24.4479 27.728 24.6787C27.9198 24.9086 28.0187 25.2008 28.0054 25.4981C27.9356 25.7998 27.8299 26.092 27.6906 26.3685C27.6301 26.5194 27.598 26.6801 27.5959 26.8428C27.6001 27.0047 27.6424 27.1636 27.7195 27.3068C27.8779 27.5708 28.0667 27.8158 28.2821 28.0366C28.4848 28.2472 28.6408 28.4974 28.7402 28.771C28.8128 29.0453 28.9039 29.3146 29.0127 29.5771C29.0752 29.7041 29.1655 29.8157 29.2771 29.9037C29.3882 29.9834 29.5126 30.0431 29.6444 30.0802C29.767 30.1154 29.8873 30.1587 30.0042 30.2099C30.1137 30.2642 30.2153 30.3331 30.3061 30.4147C30.4727 30.5801 30.6171 30.7661 30.7356 30.9682C30.8547 31.1615 30.9665 31.3505 31.0923 31.519C31.3161 31.8321 31.6354 32.0657 32.0026 32.185C32.2761 32.2761 32.5664 32.3049 32.852 32.2694C33.032 32.2487 33.2071 32.1981 33.37 32.1199C33.4263 32.0924 33.4807 32.0614 33.5329 32.0269C33.3195 32.1379 33.0873 32.2094 32.8476 32.2379C32.5671 32.2682 32.2829 32.2356 32.0159 32.1425C31.6602 32.0228 31.3523 31.7924 31.1381 31.4858C31.0154 31.3191 30.9072 31.1301 30.7881 30.9349C30.6697 30.7266 30.5233 30.5351 30.3531 30.3657C30.2576 30.2789 30.1506 30.2054 30.0352 30.1475C29.9154 30.096 29.7928 30.0512 29.668 30.0135C29.5439 29.9777 29.4267 29.9211 29.3215 29.8462C29.2179 29.765 29.1349 29.6608 29.0792 29.5421C28.9733 29.2823 28.8846 29.0161 28.8135 28.7451C28.7106 28.4638 28.5509 28.2061 28.3443 27.9876C28.1336 27.7698 27.9483 27.529 27.7921 27.27C27.7208 27.137 27.6815 26.9896 27.6772 26.8394C27.6798 26.6864 27.7105 26.5354 27.7677 26.3937C27.9087 26.1114 28.0152 25.8133 28.0849 25.5056C28.1026 25.3471 28.0811 25.1865 28.0225 25.0376C27.9643 24.8948 27.8881 24.7597 27.7958 24.6358C27.6099 24.4094 27.4443 24.1672 27.301 23.9122C27.2423 23.7875 27.2101 23.6523 27.2064 23.5151C27.2073 23.3797 27.2335 23.2459 27.2835 23.1203C27.3751 22.8663 27.5187 22.6386 27.6232 22.3961C27.7422 22.1617 27.7662 21.8904 27.6902 21.6378C27.6027 21.3967 27.4389 21.2141 27.3601 21.0076C27.3224 20.9092 27.3078 20.8037 27.3176 20.6992C27.3274 20.5946 27.3612 20.4938 27.4165 20.4046C27.5144 20.2228 27.6412 20.0727 27.7416 19.9134C27.8444 19.765 27.9071 19.5926 27.9236 19.4127C27.9225 19.2571 27.8988 19.1023 27.8532 18.9532C27.8136 18.832 27.7927 18.7057 27.791 18.5786C27.791 18.491 27.8122 18.4048 27.8529 18.3273C27.8935 18.2498 27.9524 18.1833 28.0245 18.1333C28.0783 18.1065 28.1384 18.0945 28.1987 18.0986Z" fill="#455A64"/>
<path d="M47.107 26.4592C47.2488 26.5124 47.3808 26.5883 47.4978 26.6839C47.8271 26.9428 48.053 27.3085 48.1351 27.7155C48.1964 27.996 48.1903 28.2864 48.1172 28.5634C48.0294 28.8792 47.8666 29.1694 47.6423 29.41C47.397 29.6796 47.0847 29.8815 46.7359 29.996C46.359 30.1186 45.9528 30.1258 45.5703 30.0168C45.1882 29.9109 44.8429 29.7022 44.5729 29.4142C44.323 29.1424 44.1576 28.8056 44.0966 28.4443C44.0445 28.1416 44.0633 27.8315 44.1515 27.5379C44.2396 27.2443 44.3949 26.9749 44.6053 26.7504C44.776 26.5878 44.9774 26.4598 45.1981 26.3736C45.3625 26.3055 45.5362 26.2613 45.7137 26.2425C45.8257 26.2305 45.9389 26.2345 46.0499 26.2544C46.0889 26.261 46.1267 26.2729 46.1623 26.2898C46.0164 26.263 45.8672 26.2597 45.7206 26.28C45.5485 26.3043 45.3811 26.353 45.2234 26.4245C45.0118 26.5123 44.8195 26.6394 44.657 26.799C44.4585 27.0171 44.3132 27.2773 44.2321 27.5598C44.1509 27.8423 44.136 28.1396 44.1885 28.4294C44.2499 28.7709 44.4087 29.0885 44.6463 29.3448C44.9039 29.6193 45.2339 29.8173 45.5989 29.9164C45.9612 30.0198 46.346 30.0131 46.7031 29.8972C47.0356 29.7885 47.3338 29.5975 47.5697 29.3425C47.7861 29.1134 47.945 28.8372 48.0337 28.5359C48.1065 28.272 48.1164 27.9946 48.0627 27.7255C47.9886 27.3313 47.7805 26.9732 47.4727 26.7104C47.255 26.5299 47.1003 26.4701 47.107 26.4592Z" fill="#E0E0E0"/>
<path d="M36.0239 25.7007C35.706 25.585 35.3749 25.5092 35.0385 25.4751C34.8833 25.4515 34.7366 25.4135 34.7149 25.3066C34.7079 25.1463 34.7501 24.9879 34.8358 24.8524L35.3475 23.6941C35.8197 22.7149 36.2115 21.6991 36.5193 20.6565C35.9701 21.5955 35.4979 22.5772 35.1072 23.5921C34.9348 23.9994 34.7706 24.3881 34.6144 24.7583C34.5077 24.9412 34.4698 25.156 34.5074 25.3648C34.5275 25.4203 34.56 25.4707 34.6024 25.512C34.6449 25.5533 34.6961 25.5846 34.7524 25.6035C34.8378 25.631 34.9263 25.6475 35.0158 25.6528C35.3478 25.7117 35.6857 25.7284 36.0215 25.7026" fill="#263238"/>
<path d="M38.6476 18.9215C38.7034 19.0878 39.3209 19.0397 40.0379 19.1586C40.7578 19.2636 41.3294 19.4977 41.4329 19.3559C41.4757 19.2874 41.3843 19.13 41.1558 18.9596C40.8523 18.7469 40.5017 18.608 40.1333 18.5545C39.7662 18.4931 39.3899 18.5184 39.0358 18.6283C38.7663 18.7202 38.6271 18.8426 38.6476 18.9215Z" fill="#263238"/>
<path d="M37.962 26.6007C37.9245 26.5152 37.8553 26.4469 37.7687 26.41C37.6821 26.373 37.5846 26.3701 37.4963 26.4019L35.8074 27.0091L35.6192 27.0763C35.7018 27.4166 35.8286 27.7453 35.9962 28.0541C36.0732 28.1869 36.1785 28.3016 36.305 28.3902C36.4314 28.4787 36.5757 28.539 36.7279 28.5668C36.9782 28.5847 37.2274 28.5242 37.4399 28.3939C37.6175 28.3141 37.7758 28.198 37.9044 28.0533C38.033 27.9087 38.129 27.7387 38.1862 27.5544C38.1922 27.2236 38.1152 26.8959 37.962 26.6007Z" fill="#6F4439"/>
<path d="M38.6506 23.1259C38.6433 23.2762 38.6957 23.4237 38.7966 23.5371C38.8975 23.6505 39.039 23.7208 39.1909 23.7332C39.2651 23.7426 39.3404 23.7373 39.4122 23.7175C39.4841 23.6978 39.5512 23.664 39.6095 23.6181C39.6678 23.5723 39.7161 23.5154 39.7517 23.4507C39.7873 23.386 39.8093 23.3148 39.8165 23.2414C39.8238 23.0912 39.7715 22.9438 39.6707 22.8304C39.57 22.7171 39.4287 22.6466 39.2768 22.6341C39.2026 22.6247 39.1273 22.63 39.0554 22.6498C38.9835 22.6696 38.9164 22.7033 38.858 22.7492C38.7997 22.795 38.7513 22.8519 38.7156 22.9166C38.68 22.9813 38.6579 23.0525 38.6506 23.1259Z" fill="#263238"/>
<path d="M33.1935 23.1259C33.1863 23.2762 33.2387 23.4237 33.3396 23.5371C33.4405 23.6505 33.5819 23.7208 33.7339 23.7332C33.8081 23.7426 33.8833 23.7373 33.9552 23.7175C34.0271 23.6978 34.0942 23.664 34.1525 23.6181C34.2108 23.5723 34.2591 23.5154 34.2947 23.4507C34.3302 23.386 34.3523 23.3148 34.3595 23.2414C34.3668 23.0912 34.3145 22.9438 34.2137 22.8304C34.1129 22.7171 33.9716 22.6466 33.8198 22.6341C33.7456 22.6247 33.6703 22.63 33.5984 22.6498C33.5264 22.6696 33.4593 22.7033 33.401 22.7492C33.3426 22.795 33.2942 22.8519 33.2586 22.9166C33.223 22.9813 33.2009 23.0525 33.1935 23.1259Z" fill="#263238"/>
<path d="M32.7884 20.8407C32.8445 20.9271 33.2923 20.6301 33.8683 20.6945C34.4442 20.7498 34.8263 21.1336 34.8986 21.0591C34.9335 21.0267 34.884 20.8783 34.7182 20.703C34.5029 20.483 34.2154 20.3447 33.9069 20.3128C33.5984 20.2808 33.289 20.3574 33.0339 20.5287C32.8377 20.6649 32.76 20.8015 32.7884 20.8407Z" fill="#263238"/>
<path d="M38.3012 21.3069C38.3801 21.3955 38.8726 21.0218 39.5654 21.0292C40.258 21.027 40.7631 21.4056 40.8391 21.3174C40.8765 21.2784 40.7973 21.1188 40.5768 20.9474C40.2839 20.7286 39.9262 20.6095 39.5586 20.6083C39.1938 20.6053 38.8391 20.7217 38.5509 20.939C38.3363 21.1086 38.2624 21.2671 38.3006 21.3069" fill="#263238"/>
<path d="M36.3401 28.3568C36.3352 28.3623 36.3881 28.4291 36.5245 28.4931C36.7236 28.5739 36.9427 28.5925 37.1522 28.5464C37.4642 28.4845 37.751 28.3353 37.9785 28.1164C38.1181 27.9825 38.2156 27.8116 38.2593 27.6241C38.3005 27.4251 38.294 27.2191 38.2405 27.0225C38.1911 26.8321 38.1193 26.6479 38.0267 26.4736C38.004 26.4209 37.9704 26.3734 37.928 26.3343C37.8856 26.2951 37.8354 26.2652 37.7806 26.2464C37.6753 26.2306 37.5679 26.2485 37.4741 26.2975L36.6364 26.627C36.3722 26.7156 36.1189 26.8327 35.881 26.9761C36.1561 26.9289 36.425 26.8518 36.6827 26.7465L37.5358 26.4504C37.7074 26.38 37.7878 26.3906 37.868 26.5543C37.9519 26.7167 38.0176 26.8875 38.0639 27.0638C38.117 27.2244 38.1258 27.3958 38.0897 27.5603C38.0535 27.7249 37.9735 27.8768 37.858 28.0003C37.6558 28.2033 37.4021 28.349 37.123 28.4222C36.9356 28.4742 36.7372 28.4759 36.5482 28.4271C36.4168 28.3886 36.3498 28.3429 36.3401 28.3568Z" fill="#263238"/>
</g>
</g>
</svg>
