<svg width="70" height="67" viewBox="0 0 70 67" fill="none" xmlns="http://www.w3.org/2000/svg">
<g filter="url(#filter0_d_3_29539)">
<path d="M35.9871 50.9191L42.8441 49.0702C42.8441 49.0702 41.3731 44.721 40.231 41.5796C39.5763 39.7056 38.3146 38.1038 36.646 37.0283C36.2896 36.7742 35.8766 36.6107 35.4429 36.5518C33.8214 36.3356 29.3848 35.7538 27.1834 35.5695C24.4575 35.3421 18.7755 36.8404 18.7755 36.8404C18.7755 36.8404 13.788 39.6067 12.1074 40.7215C11.6954 40.9949 11.3805 41.3917 11.2078 41.8551C10.8977 42.6916 10.5019 44.1288 10.0273 45.9862L8.7301 51.077L14.5767 50.8975C15.7554 54.475 16.8457 57.6887 16.8457 57.6887L15.7864 64.2684C15.7864 64.2684 23.7761 67.4643 25.8205 67.2368C27.8649 67.0093 37.116 63.4366 37.116 63.4366C37.116 63.4366 36.0567 52.9974 36.0567 52.6966C36.0632 52.5809 36.0275 51.8233 35.9871 50.9191Z" fill="#B61D2D"/>
<g opacity="0.3">
<path d="M29.244 43.9621C29.0145 43.7002 28.7237 43.4992 28.3977 43.3768C28.0717 43.2545 27.7205 43.2147 27.3753 43.2609C26.6848 43.3617 26.0297 43.6313 25.4682 44.0457C23.7572 45.3475 22.3443 46.9999 21.3239 48.8922C19.3827 52.0814 17.7516 55.4493 16.453 58.9498L16.4981 59.8446C17.9513 59.6566 18.8997 58.4347 19.5314 57.1121C20.163 55.7896 20.4328 54.3261 20.9911 52.9697C22.074 50.3668 24.1427 48.2981 26.7456 47.2153C27.1783 47.2716 27.6182 47.2242 28.0291 47.0771C28.4399 46.9301 28.8099 46.6875 29.1086 46.3693C29.3961 46.0405 29.5655 45.625 29.59 45.189C29.6146 44.7529 29.4928 44.3211 29.244 43.9621Z" fill="black"/>
</g>
<path d="M36.0545 52.0568C36.0225 52.0568 35.827 50.161 35.6202 47.8157C35.4134 45.4705 35.2715 43.5681 35.3034 43.5634C35.3354 43.5587 35.5309 45.4593 35.7377 47.8045C35.9445 50.1497 36.0864 52.0521 36.0545 52.0568Z" fill="#263238"/>
<path d="M13.021 43.5634C13.0601 43.658 13.0888 43.7567 13.1065 43.8576C13.1582 44.0709 13.2212 44.3435 13.3002 44.6697C13.4581 45.3577 13.6667 46.309 13.8914 47.3589C14.116 48.4088 14.3116 49.3648 14.4488 50.0575C14.5118 50.3856 14.5635 50.6619 14.6039 50.8781C14.6282 50.9776 14.6417 51.0794 14.6443 51.1817C14.6052 51.087 14.5766 50.9884 14.5588 50.8875C14.5071 50.6742 14.4441 50.4016 14.3708 50.0754C14.2129 49.3873 14.0042 48.4361 13.7796 47.3834C13.5549 46.3306 13.3594 45.3775 13.2222 44.6847C13.1592 44.3567 13.1075 44.0794 13.0671 43.8641C13.0403 43.766 13.0248 43.665 13.021 43.5634Z" fill="#263238"/>
<path d="M35.0079 36.6324C35.0417 36.6418 34.8434 37.4013 34.709 38.3592C34.5746 39.317 34.5445 40.1 34.5088 40.1C34.4783 39.9294 34.4707 39.7555 34.4862 39.583C34.4966 39.1674 34.5318 38.7527 34.5915 38.3413C34.6499 37.9293 34.7334 37.5212 34.8415 37.1194C34.8746 36.9502 34.9306 36.7864 35.0079 36.6324Z" fill="#263238"/>
<path d="M35.9878 50.9216C35.9267 50.9395 37.7305 57.1395 37.7305 57.1395L32.4301 56.708L29.9006 59.8108L38.9365 63.1392C38.9365 63.1392 44.534 60.6427 44.534 60.4134C44.534 60.184 42.5215 49.1602 42.5215 49.1602L35.9878 50.9216Z" fill="#FFC09D"/>
<path d="M32.0884 51.639C32.14 51.6375 32.1908 51.6254 32.2375 51.6034C32.2843 51.5814 32.326 51.55 32.3601 51.5111C32.401 51.4652 32.4323 51.4115 32.452 51.3532C32.4717 51.2949 32.4795 51.2332 32.4747 51.1718C32.463 51.089 32.4277 51.0113 32.3731 50.9479C32.3184 50.8846 32.2467 50.8383 32.1664 50.8146C32.0673 50.7796 31.9607 50.7711 31.8573 50.7901C31.7539 50.809 31.6573 50.8548 31.5771 50.9227C31.4845 51 31.4095 51.0961 31.3571 51.2047C31.3289 51.2625 31.3057 51.3225 31.2876 51.3842C31.2716 51.4472 31.2518 51.5168 31.2782 51.5572C31.2972 51.5784 31.3221 51.5935 31.3496 51.6007C31.3772 51.6078 31.4063 51.6068 31.4332 51.5976C31.4964 51.5791 31.5518 51.5405 31.5912 51.4876C31.6328 51.4304 31.6602 51.364 31.6712 51.2941C31.6821 51.2241 31.6763 51.1526 31.6541 51.0853C31.6198 51.0152 31.5718 50.9526 31.513 50.9013C31.4541 50.8499 31.3856 50.8108 31.3114 50.7863C31.2373 50.7618 31.159 50.7523 31.0811 50.7585C31.0032 50.7647 30.9274 50.7863 30.858 50.8221C30.7002 50.8936 30.5622 51.0023 30.4557 51.1389C30.4016 51.204 30.3664 51.2827 30.3542 51.3664C30.3487 51.4026 30.3569 51.4395 30.3772 51.47C30.3976 51.5004 30.4286 51.5221 30.4642 51.5309C30.5046 51.5358 30.5457 51.5315 30.5842 51.5183C30.6228 51.5051 30.6579 51.4834 30.6869 51.4547C30.7476 51.3923 30.7843 51.3104 30.7903 51.2235C30.795 51.1305 30.7758 51.0379 30.7345 50.9545C30.6932 50.871 30.6312 50.7996 30.5544 50.747C30.4706 50.6962 30.3772 50.6635 30.2801 50.651C30.1829 50.6386 30.0843 50.6466 29.9904 50.6746C29.8921 50.6962 29.8 50.74 29.7213 50.8027C29.6426 50.8655 29.5794 50.9454 29.5364 51.0365C29.5145 51.0789 29.502 51.1255 29.4998 51.1732C29.4975 51.2209 29.5055 51.2685 29.5233 51.3128C29.544 51.3537 29.5764 51.3875 29.6164 51.41C29.6564 51.4324 29.7022 51.4424 29.7479 51.4388C29.7964 51.4362 29.8436 51.4227 29.8861 51.3992C29.9286 51.3758 29.9652 51.343 29.9932 51.3034C30.0186 51.2614 30.0343 51.2143 30.039 51.1655C30.0437 51.1167 30.0374 51.0675 30.0205 51.0214C29.9841 50.9215 29.9155 50.8365 29.8255 50.7798C29.7354 50.7231 29.6291 50.698 29.5233 50.7084C29.295 50.7269 29.0811 50.827 28.9207 50.9904C28.8322 51.0674 28.7535 51.1552 28.6867 51.2517C28.6539 51.292 28.6309 51.3394 28.6196 51.3902C28.6084 51.441 28.6091 51.4936 28.6218 51.544C28.6332 51.5643 28.6485 51.5821 28.667 51.5962C28.6854 51.6103 28.7066 51.6206 28.7291 51.6262C28.7517 51.6318 28.7751 51.6328 28.7981 51.629C28.821 51.6252 28.8429 51.6168 28.8625 51.6042C28.9078 51.5782 28.9449 51.5398 28.9692 51.4936C28.9935 51.4473 29.0041 51.395 28.9997 51.3429C28.992 51.2255 28.9558 51.1118 28.8942 51.0115C28.8326 50.9113 28.7475 50.8276 28.6463 50.7676C28.5442 50.7037 28.4282 50.6651 28.3082 50.6553C28.1881 50.6455 28.0675 50.6647 27.9563 50.7112C27.8434 50.755 27.7434 50.8268 27.6659 50.9199C27.628 50.9629 27.5992 51.0131 27.5815 51.0676C27.5637 51.1221 27.5572 51.1796 27.5625 51.2367C27.5851 51.4641 27.9582 51.5083 28.0795 51.3194C28.1096 51.2694 28.1295 51.214 28.138 51.1563C28.1465 51.0986 28.1434 51.0398 28.129 50.9833C28.1146 50.9268 28.089 50.8737 28.0539 50.8272C28.0188 50.7806 27.9748 50.7415 27.9244 50.7122C27.8177 50.6517 27.6984 50.6167 27.5759 50.61C27.4535 50.6034 27.3311 50.6251 27.2185 50.6736C27.1009 50.7188 26.9879 50.7751 26.881 50.8419C26.7759 50.9006 26.6853 50.9822 26.616 51.0806C26.5849 51.1244 26.5665 51.176 26.5628 51.2295C26.5592 51.2831 26.5704 51.3366 26.5953 51.3842C26.6045 51.4062 26.6183 51.426 26.6359 51.4421C26.6535 51.4582 26.6744 51.4703 26.6971 51.4775C26.7198 51.4847 26.7438 51.487 26.7674 51.484C26.7911 51.481 26.8138 51.473 26.834 51.4604C26.8781 51.4331 26.9131 51.3933 26.9347 51.3462C26.9563 51.299 26.9634 51.2465 26.9553 51.1953C26.9399 51.083 26.8922 50.9775 26.8181 50.8917C26.7456 50.8041 26.6528 50.7356 26.5478 50.6922C26.4427 50.6488 26.3287 50.6318 26.2155 50.6426C26.1054 50.6542 25.9997 50.6924 25.9077 50.754C25.8156 50.8155 25.74 50.8986 25.6873 50.996C25.6632 51.0405 25.6489 51.0896 25.6453 51.14C25.6417 51.1904 25.649 51.241 25.6666 51.2884C25.6882 51.3298 25.7228 51.363 25.7651 51.3829C25.8073 51.4027 25.855 51.4082 25.9006 51.3983C25.9488 51.3924 25.9946 51.3742 26.0336 51.3453C26.0726 51.3165 26.1036 51.2781 26.1234 51.2339C26.1416 51.1874 26.1504 51.1378 26.1493 51.088C26.1482 51.0381 26.1371 50.989 26.1168 50.9434C26.0726 50.8499 26.0055 50.769 25.9217 50.7084C25.8379 50.6478 25.7401 50.6093 25.6375 50.5966C25.4335 50.5526 25.2219 50.5587 25.0208 50.6144C24.9274 50.6357 24.8414 50.6819 24.7721 50.7481C24.7027 50.8143 24.6526 50.898 24.627 50.9904C24.6071 51.078 24.6179 51.1698 24.6576 51.2504C24.6973 51.331 24.7635 51.3955 24.8451 51.4331C24.9288 51.4475 25.0148 51.4288 25.085 51.3809C25.1552 51.333 25.204 51.2597 25.2211 51.1765C25.2378 51.0918 25.2339 51.0042 25.2097 50.9213C25.1855 50.8383 25.1417 50.7624 25.0819 50.6999C24.9684 50.5711 24.8177 50.4808 24.6505 50.4415C24.494 50.4029 24.3305 50.403 24.1741 50.4418C24.0177 50.4806 23.8731 50.557 23.7528 50.6642C23.6436 50.7625 23.5674 50.8922 23.5348 51.0355C23.5191 51.0999 23.5215 51.1672 23.5417 51.2303C23.562 51.2933 23.5993 51.3495 23.6494 51.3927C23.6954 51.4316 23.7541 51.4521 23.8143 51.4504C23.8745 51.4487 23.932 51.4248 23.9756 51.3833C24.0188 51.3446 24.0515 51.2956 24.0707 51.2409C24.0899 51.1862 24.095 51.1275 24.0856 51.0703C24.0674 50.9667 24.0252 50.8688 23.9623 50.7844C23.8995 50.7 23.8178 50.6315 23.7237 50.5843C23.5733 50.5026 23.399 50.4763 23.2312 50.5101C23.1087 50.536 22.9945 50.5915 22.8984 50.6717C22.8196 50.7406 22.7526 50.8219 22.7001 50.9124C22.7083 50.8863 22.7196 50.8614 22.7339 50.8381C22.7723 50.7674 22.8225 50.7038 22.8824 50.6501C22.9795 50.5625 23.0972 50.5007 23.2246 50.4706C23.401 50.4311 23.5857 50.4551 23.7463 50.5383C23.849 50.5878 23.9386 50.6608 24.0079 50.7515C24.0771 50.8421 24.124 50.9478 24.1448 51.06C24.1559 51.1267 24.1501 51.1952 24.1281 51.2592C24.1062 51.3232 24.0686 51.3807 24.0188 51.4265C23.964 51.479 23.8918 51.5095 23.816 51.5125C23.7402 51.5154 23.6659 51.4905 23.6071 51.4425C23.5463 51.3919 23.5006 51.3254 23.4752 51.2504C23.4498 51.1754 23.4457 51.0949 23.4633 51.0177C23.498 50.8583 23.5814 50.7138 23.7021 50.6041C23.831 50.4857 23.9872 50.4009 24.1567 50.3573C24.3263 50.3137 24.5039 50.3126 24.674 50.3541C24.8595 50.3967 25.0274 50.4951 25.1553 50.636C25.2263 50.7096 25.2782 50.7995 25.3064 50.8979C25.3346 50.9962 25.3382 51.1 25.3169 51.2C25.2878 51.3047 25.2254 51.397 25.1393 51.4632C25.0937 51.4976 25.0409 51.5211 24.9849 51.532C24.9289 51.5429 24.8711 51.5409 24.8159 51.5262C24.7609 51.5084 24.7105 51.4789 24.6681 51.4396C24.6257 51.4003 24.5925 51.3522 24.5706 51.2987C24.5229 51.1954 24.5072 51.0802 24.5255 50.9678C24.5533 50.8563 24.6113 50.7545 24.693 50.6736C24.7747 50.5928 24.8771 50.5358 24.9889 50.5091C25.2068 50.4454 25.4373 50.4377 25.6591 50.4866C25.779 50.5032 25.8928 50.5496 25.9902 50.6215C26.0875 50.6934 26.1653 50.7886 26.2165 50.8983C26.2682 51.0178 26.2706 51.153 26.223 51.2743C26.1952 51.3359 26.1521 51.3895 26.0978 51.4299C26.0436 51.4704 25.9799 51.4964 25.9129 51.5055C25.8434 51.5193 25.7713 51.51 25.7075 51.4791C25.6438 51.4482 25.5918 51.3975 25.5594 51.3344C25.5331 51.2715 25.5211 51.2036 25.5242 51.1355C25.5273 51.0674 25.5454 51.0008 25.5773 50.9406C25.6382 50.8249 25.7266 50.7261 25.8348 50.6528C25.9431 50.5795 26.0677 50.534 26.1977 50.5204C26.3302 50.507 26.4639 50.5264 26.5871 50.5771C26.7102 50.6278 26.8189 50.7081 26.9036 50.8109C26.9942 50.9143 27.0516 51.0428 27.0681 51.1793C27.0784 51.2536 27.067 51.3293 27.0351 51.3973C27.0032 51.4652 26.9523 51.5224 26.8885 51.5619C26.8542 51.5827 26.8157 51.5958 26.7759 51.6005C26.736 51.6052 26.6956 51.6013 26.6573 51.5892C26.6198 51.5763 26.5852 51.5562 26.5555 51.5299C26.5258 51.5036 26.5016 51.4717 26.4844 51.436C26.4493 51.3696 26.4331 51.295 26.4374 51.2201C26.4417 51.1453 26.4664 51.073 26.5088 51.0111C26.5894 50.8986 26.6928 50.8044 26.8124 50.7347C26.926 50.6629 27.0466 50.6027 27.1724 50.5552C27.3027 50.4999 27.444 50.4756 27.5853 50.4843C27.7265 50.4929 27.8639 50.5342 27.9864 50.605C28.0507 50.6436 28.1067 50.6946 28.1511 50.755C28.1954 50.8155 28.2273 50.8841 28.2448 50.9571C28.2623 51.03 28.2651 51.1056 28.253 51.1796C28.2409 51.2536 28.2142 51.3245 28.1744 51.388C28.1275 51.4507 28.0644 51.4993 27.9918 51.5287C27.9192 51.558 27.84 51.5669 27.7627 51.5544C27.6845 51.5445 27.611 51.5118 27.5512 51.4604C27.4904 51.4066 27.45 51.3336 27.4365 51.2536C27.4279 51.1789 27.435 51.1032 27.4575 51.0315C27.4801 50.9598 27.5174 50.8935 27.5672 50.8372C27.658 50.7283 27.7746 50.6439 27.9065 50.5919C28.0356 50.5379 28.1758 50.5158 28.3152 50.5276C28.4547 50.5394 28.5892 50.5846 28.7074 50.6595C28.8257 50.7307 28.9249 50.8297 28.9962 50.948C29.0674 51.0663 29.1087 51.2003 29.1162 51.3382C29.1204 51.4124 29.1033 51.4863 29.067 51.5512C29.0308 51.6162 28.9767 51.6694 28.9113 51.7048C28.8425 51.7393 28.764 51.7495 28.6886 51.7339C28.6493 51.7244 28.6128 51.7061 28.5817 51.6804C28.5506 51.6546 28.5257 51.6222 28.509 51.5854C28.4876 51.5169 28.4831 51.4442 28.4961 51.3737C28.509 51.3031 28.5389 51.2367 28.5833 51.1803C28.6569 51.0761 28.7431 50.9814 28.8399 50.8983C29.0211 50.7157 29.262 50.6046 29.5186 50.5853C29.6489 50.5788 29.7783 50.6115 29.8898 50.6793C30.0011 50.749 30.0845 50.8554 30.1258 50.9801C30.148 51.0429 30.1557 51.1099 30.1484 51.1762C30.1411 51.2424 30.1189 51.3062 30.0835 51.3626C30.046 51.4172 29.9965 51.4625 29.9388 51.4951C29.8812 51.5277 29.8168 51.5467 29.7507 51.5506C29.6836 51.5551 29.6166 51.5397 29.5583 51.5062C29.4999 51.4728 29.4527 51.4228 29.4227 51.3626C29.398 51.3039 29.3864 51.2406 29.3887 51.177C29.391 51.1133 29.407 51.051 29.4358 50.9942C29.4858 50.8887 29.5591 50.7959 29.6504 50.7231C29.7416 50.6503 29.8483 50.5993 29.9622 50.574C30.0706 50.5425 30.1845 50.5346 30.2962 50.5508C30.4079 50.5671 30.5149 50.607 30.6099 50.668C30.7009 50.731 30.7742 50.8165 30.8226 50.9161C30.871 51.0157 30.8929 51.1261 30.8862 51.2367C30.8853 51.2926 30.8728 51.3478 30.8494 51.3986C30.8261 51.4495 30.7923 51.4949 30.7504 51.532C30.7084 51.569 30.6593 51.5969 30.6059 51.6139C30.5526 51.6309 30.4963 51.6365 30.4407 51.6305C30.3829 51.6166 30.3323 51.5819 30.2987 51.5329C30.265 51.484 30.2506 51.4243 30.2583 51.3654C30.2724 51.2634 30.3154 51.1674 30.3824 51.0891C30.4985 50.9409 30.6493 50.8234 30.8213 50.747C30.9013 50.7071 30.9884 50.6837 31.0776 50.6781C31.1667 50.6725 31.2561 50.6848 31.3404 50.7144C31.4246 50.7439 31.5022 50.7901 31.5683 50.8501C31.6345 50.9101 31.688 50.9827 31.7256 51.0637C31.7511 51.1427 31.7572 51.2266 31.7435 51.3084C31.7298 51.3902 31.6965 51.4675 31.6466 51.5337C31.597 51.5995 31.5264 51.6463 31.4464 51.6662C31.4053 51.6786 31.3615 51.6783 31.3206 51.6654C31.2797 51.6525 31.2436 51.6276 31.2171 51.5939C31.2019 51.5579 31.194 51.5192 31.194 51.4801C31.194 51.4411 31.2019 51.4024 31.2171 51.3664C31.236 51.3013 31.2615 51.2383 31.2932 51.1784C31.3512 51.0627 31.4332 50.9608 31.5338 50.8795C31.6216 50.8064 31.7273 50.7581 31.8399 50.7394C31.9526 50.7208 32.0682 50.7324 32.1749 50.7733C32.2623 50.8014 32.3397 50.8542 32.3979 50.9252C32.4561 50.9962 32.4925 51.0825 32.5029 51.1737C32.507 51.2398 32.4971 51.3061 32.4738 51.3682C32.4504 51.4302 32.4142 51.4866 32.3676 51.5337C32.334 51.5738 32.2907 51.6046 32.2418 51.623C32.1929 51.6415 32.1401 51.647 32.0884 51.639Z" fill="#263238"/>
<path d="M22.6588 50.9901L19.5645 62.6842L29.403 62.9943L32.4974 51.4441L22.6588 50.9901Z" fill="#C4CCD2"/>
<path d="M22.6582 50.9901L22.2643 51.0258L19.1427 61.8288L19.6127 62.4783L22.6582 50.9901Z" fill="#E0E0E0"/>
<path d="M29.1714 53.9708H32.3672C32.5175 53.9684 32.6651 54.011 32.791 54.0933C32.9168 54.1756 33.0151 54.2936 33.0731 54.4323C33.2034 54.7219 33.2676 55.0369 33.2611 55.3544C33.3953 55.5436 33.4706 55.7683 33.4773 56.0002C33.5095 56.5838 33.5095 57.1687 33.4773 57.7523C33.4454 57.8463 33.1089 57.9403 33.1089 57.9403C33.228 58.213 33.2391 58.5207 33.1399 58.8013C33.049 59.0068 32.8848 59.171 32.6793 59.2618C32.6793 59.2618 32.2497 60.245 31.8183 60.3682C31.4727 60.4314 31.1186 60.4314 30.773 60.3682C30.5568 60.3682 27.0846 58.587 27.0846 58.587V58.1865C27.0846 58.1865 25.8542 58.3106 25.8251 57.6329C25.796 56.9552 26.6231 56.9966 26.6231 56.9966H28.4965C28.4965 56.9966 26.4389 57.0802 26.2547 56.7719C26.0704 56.4636 25.8251 55.7267 26.4549 55.6045C27.0846 55.4823 29.9271 55.4804 29.9271 55.4804L31.479 55.737H31.7243L31.5363 55.0536C31.5363 55.0536 29.9064 55.0536 29.6658 55.0198C29.4251 54.986 28.9646 54.9258 28.9646 54.4981C28.9646 54.0704 29.1714 53.9708 29.1714 53.9708Z" fill="#FFC09D"/>
<path d="M30.9674 57.1821C30.7708 57.2171 30.571 57.2306 30.3715 57.2225C30.003 57.2291 29.4926 57.2225 28.9296 57.1821C28.3665 57.1417 27.859 57.0881 27.4952 57.0355C27.2957 57.0179 27.0988 56.9788 26.9077 56.9189C27.1068 56.9101 27.3063 56.9198 27.5037 56.9481C27.8702 56.9791 28.3759 57.0223 28.9361 57.0581C29.4964 57.0938 30.0039 57.1163 30.3705 57.1342C30.5706 57.1302 30.7705 57.1463 30.9674 57.1821Z" fill="#654742"/>
<path d="M30.6775 58.9067C30.4998 58.9224 30.3209 58.917 30.1445 58.8907C29.8184 58.8616 29.3663 58.8099 28.8737 58.729C28.3812 58.6482 27.9337 58.558 27.617 58.4818C27.4413 58.4516 27.2699 58.4002 27.1066 58.3286C27.284 58.3316 27.4605 58.3543 27.633 58.3963L28.8925 58.6078C29.3625 58.6802 29.7827 58.7469 30.1539 58.8061C30.3315 58.8214 30.5069 58.8551 30.6775 58.9067Z" fill="#654742"/>
<path d="M33.3546 56.4899C33.3546 56.4899 33.4016 56.503 33.4674 56.5575C33.5624 56.6397 33.6346 56.7449 33.677 56.863C33.746 57.0456 33.7413 57.2479 33.6639 57.427C33.6146 57.5425 33.5392 57.6451 33.4436 57.7266C33.348 57.8081 33.2349 57.8665 33.1131 57.897L33.1488 57.8096C33.2215 57.9322 33.2674 58.069 33.2834 58.2107C33.2994 58.3524 33.2852 58.4959 33.2417 58.6317C33.1982 58.7676 33.1263 58.8926 33.0309 58.9986C32.9355 59.1046 32.8187 59.1892 32.6882 59.2468L32.7239 59.2064C32.6149 59.6218 32.3725 59.99 32.034 60.2544C31.9385 60.3294 31.8344 60.3925 31.7238 60.4424C31.6852 60.4637 31.6433 60.478 31.5997 60.4847C31.5903 60.4687 31.7595 60.3907 31.9889 60.1943C32.2954 59.9248 32.5132 59.569 32.6139 59.1735L32.6205 59.1443L32.6497 59.133C32.7627 59.0804 32.8637 59.005 32.9462 58.9115C33.0287 58.818 33.0911 58.7085 33.1293 58.5898C33.1675 58.4711 33.1808 58.3458 33.1683 58.2217C33.1558 58.0976 33.1178 57.9775 33.0567 57.8688L33.0115 57.7992L33.0924 57.7814C33.1976 57.7561 33.2959 57.7077 33.38 57.6395C33.4641 57.5714 33.5318 57.4853 33.5783 57.3875C33.6521 57.2297 33.6641 57.05 33.6122 56.8837C33.5548 56.7359 33.4671 56.6017 33.3546 56.4899Z" fill="#654742"/>
<path d="M17.358 20.6207C17.9518 19.8238 18.727 19.1801 19.6194 18.7429C20.0669 18.5295 20.5591 18.4263 21.0546 18.442C21.5502 18.4576 22.0348 18.5916 22.468 18.8329C23.1212 19.2452 23.5944 19.9471 24.3176 20.179C25.3246 20.496 26.3331 19.7702 27.3657 19.5558C27.5786 19.5133 27.8349 19.5051 27.9681 19.6743C28.0133 19.7562 28.0406 19.8468 28.0481 19.9401C28.0551 20.0333 28.0422 20.127 28.0101 20.2149L27.6274 22.0605C27.8677 22.1058 28.1151 22.096 28.351 22.0318C28.5869 21.9676 28.8051 21.8506 28.9892 21.6898C29.2114 22.795 29.0358 23.9432 28.4934 24.9314C28.5365 24.8945 28.5869 24.867 28.6413 24.8506C28.6957 24.8343 28.7529 24.8296 28.8093 24.8367C28.8656 24.8438 28.9198 24.8626 28.9685 24.892C29.0171 24.9213 29.0591 24.9605 29.0916 25.007C29.2151 25.2022 29.2681 25.4336 29.2421 25.663C29.2251 26.3687 29.0569 27.0626 28.7489 27.6978C28.4408 28.3329 28.0001 28.8946 27.4564 29.3449C26.9128 29.7952 26.2788 30.1236 25.5974 30.3079C24.9159 30.4922 24.2029 30.5282 23.5064 30.4135" fill="#1B2024"/>
<path d="M18.3375 20.7008C17.6972 20.4996 17.0085 20.5145 16.3775 20.7432C15.7464 20.972 15.2082 21.4019 14.8455 21.9667C14.4395 22.8024 14.1879 23.7046 14.1028 24.6299C14.058 25.0916 13.9206 25.5395 13.6989 25.9469C13.4772 26.3544 13.1757 26.713 12.8124 27.0014C12.182 27.4082 11.3478 27.4512 10.7811 27.9407C10.4964 28.229 10.2974 28.5907 10.2063 28.9856C10.1152 29.3804 10.1356 29.7928 10.2652 30.1767C10.5362 30.9445 10.951 31.6536 11.4875 32.266C11.3464 32.5066 11.1586 32.7166 10.9352 32.8836C10.7117 33.0506 10.4572 33.1714 10.1865 33.2387C10.5821 33.7052 11.1203 34.0286 11.718 34.1588C12.1009 34.1938 12.4757 34.2902 12.8279 34.4444C13.1414 34.6634 13.383 34.9705 13.522 35.3268C13.6177 35.5249 13.7568 35.699 13.9289 35.8361C14.101 35.9732 14.3017 36.0699 14.5162 36.1189C14.7307 36.168 14.9535 36.1681 15.1681 36.1194C15.3827 36.0707 15.5836 35.9743 15.7559 35.8374C16.1251 35.5431 16.464 35.2126 16.7675 34.8509C16.7254 35.0845 16.774 35.3253 16.9034 35.5244C17.0328 35.7234 17.2332 35.8656 17.4638 35.9219C17.7099 35.7892 17.9204 35.5992 18.0777 35.368C18.2351 35.1368 18.3345 34.8713 18.3677 34.5936" fill="#1B2024"/>
<path d="M25.8208 41.286L27.7948 37.3053L27.1828 35.5644C28.0024 35.1365 28.646 34.4349 29.0018 33.5815C29.3577 32.7282 29.4032 31.7772 29.1304 30.8938C28.6426 29.3804 27.3831 26.3444 26.2119 23.61C25.6046 22.1919 24.4854 21.0545 23.0773 20.4245C21.6691 19.7944 20.0753 19.7179 18.6132 20.2102L18.3115 20.3117C15.1269 21.5938 14.437 25.0115 15.8065 28.1623L19.8098 39.8601L25.8208 41.286Z" fill="#FFC09D"/>
<path d="M26.3091 26.5178C26.3515 26.6406 26.3444 26.775 26.2893 26.8926C26.2342 27.0102 26.1354 27.1017 26.0139 27.1476C25.9554 27.1726 25.8925 27.1856 25.8288 27.1858C25.7652 27.1861 25.7021 27.1737 25.6434 27.1493C25.5846 27.1248 25.5313 27.0889 25.4867 27.0436C25.442 26.9983 25.4068 26.9445 25.3832 26.8854C25.3405 26.7625 25.3475 26.6278 25.4026 26.51C25.4578 26.3922 25.5567 26.3006 25.6784 26.2546C25.737 26.2295 25.8 26.2164 25.8637 26.2161C25.9275 26.2157 25.9906 26.2281 26.0495 26.2526C26.1084 26.277 26.1618 26.313 26.2065 26.3584C26.2512 26.4038 26.2864 26.4577 26.31 26.5169" fill="#263238"/>
<path d="M26.0221 25.5668C25.9845 25.6486 25.5371 25.5039 25.0286 25.6759C24.52 25.8479 24.2334 26.2276 24.1572 26.1844C24.1206 26.1656 24.1431 26.0349 24.2653 25.862C24.4342 25.6355 24.6689 25.4668 24.9374 25.3789C25.2018 25.2892 25.4878 25.2859 25.7542 25.3695C25.9516 25.4371 26.0418 25.5292 26.0221 25.5668Z" fill="#263238"/>
<path d="M21.6304 28.0743C21.673 28.197 21.666 28.3315 21.6109 28.4492C21.5558 28.5668 21.4568 28.6583 21.3352 28.704C21.2767 28.7291 21.2137 28.7422 21.1501 28.7426C21.0864 28.7429 21.0233 28.7305 20.9645 28.706C20.9057 28.6816 20.8524 28.6456 20.8078 28.6002C20.7631 28.5548 20.728 28.501 20.7045 28.4418C20.6618 28.3189 20.6688 28.1842 20.7239 28.0664C20.7791 27.9486 20.878 27.857 20.9997 27.8111C21.0582 27.7861 21.1211 27.7731 21.1848 27.7728C21.2484 27.7725 21.3115 27.785 21.3702 27.8094C21.429 27.8339 21.4823 27.8698 21.5269 27.9151C21.5716 27.9604 21.6068 28.0152 21.6304 28.0743Z" fill="#263238"/>
<path d="M21.0798 27.0741C21.0507 27.1587 20.5901 27.0637 20.1042 27.2903C19.6182 27.5168 19.3729 27.9257 19.293 27.8899C19.2544 27.8758 19.262 27.7424 19.3663 27.5572C19.5093 27.3134 19.7244 27.12 19.982 27.0036C20.2355 26.887 20.5196 26.8541 20.7931 26.9096C20.9952 26.9556 21.0958 27.0383 21.0808 27.0778" fill="#263238"/>
<path d="M24.1782 30.6857C24.4182 30.5116 24.679 30.3682 24.9546 30.259C25.0797 30.2016 25.1943 30.1349 25.1868 30.039C25.1528 29.901 25.0773 29.7767 24.9706 29.6828L24.2534 28.818C23.6151 28.0999 23.0354 27.3317 22.5201 26.5208C23.2157 27.1871 23.8563 27.9085 24.4358 28.678L25.1389 29.5493C25.2732 29.6798 25.3571 29.8536 25.3757 30.04C25.3723 30.092 25.3571 30.1426 25.3312 30.1879C25.3053 30.2332 25.2694 30.2719 25.2263 30.3013C25.1608 30.345 25.0901 30.3804 25.0157 30.4066C24.7496 30.5356 24.4682 30.6303 24.1782 30.6885" fill="#263238"/>
<path d="M20.3894 25.3004C20.3894 25.4555 19.8555 25.5607 19.2831 25.8333C18.7106 26.1059 18.282 26.4312 18.1617 26.3334C18.1062 26.2864 18.1466 26.1275 18.2961 25.9283C18.5007 25.6768 18.76 25.4753 19.0541 25.339C19.3482 25.2027 19.6695 25.1352 19.9937 25.1415C20.2428 25.1556 20.3894 25.228 20.3894 25.3004Z" fill="#263238"/>
<path d="M25.4167 24.1989C25.3659 24.3446 24.9749 24.3427 24.5519 24.4809C24.1243 24.6021 23.8 24.8202 23.6768 24.7272C23.6214 24.6811 23.6383 24.5457 23.7577 24.3841C23.923 24.1825 24.1445 24.0347 24.394 23.9592C24.6435 23.8837 24.9098 23.8841 25.1592 23.9601C25.3471 24.0288 25.4411 24.1312 25.4167 24.2008" fill="#263238"/>
<mask id="mask0_3_29539" style="mask-type:luminance" maskUnits="userSpaceOnUse" x="23" y="31" width="3" height="2">
<path d="M25.199 31.2513H23.0841V32.384H25.199V31.2513Z" fill="white"/>
</mask>
<g mask="url(#mask0_3_29539)">
<path d="M23.114 31.251C23.1958 31.2181 23.3829 31.7727 23.9901 32.003C24.5973 32.2333 25.1669 31.9823 25.197 32.0585C25.2167 32.0904 25.103 32.2107 24.8548 32.301C24.5316 32.415 24.1784 32.4114 23.8575 32.2906C23.5495 32.1743 23.2987 31.9427 23.1582 31.6449C23.0595 31.4202 23.0755 31.2623 23.114 31.251Z" fill="#263238"/>
</g>
<path d="M27.1783 35.5698C25.7458 36.0812 24.1936 36.1548 22.7191 35.7813C23.3447 36.3685 24.1403 36.7422 24.9917 36.8489C25.843 36.9557 26.7062 36.7899 27.4575 36.3754L27.1783 35.5698Z" fill="#654742"/>
<path d="M16.8392 30.3921C16.7781 30.3921 14.4799 30.4795 15.2676 32.5916C15.345 32.8644 15.4898 33.1134 15.6885 33.3156C15.8872 33.5179 16.1336 33.667 16.405 33.7491C16.6764 33.8313 16.9642 33.8439 17.2417 33.7859C17.5193 33.7278 17.7778 33.6009 17.9935 33.4169C17.9719 33.353 16.8392 30.3921 16.8392 30.3921Z" fill="#FFC09D"/>
<path d="M17.053 32.8607C17.0418 32.8607 17.0258 32.9011 16.9741 32.9547C16.9004 33.0242 16.8028 33.0629 16.7015 33.0628C16.4477 33.0628 16.1281 32.7808 15.9777 32.4048C15.9042 32.2264 15.8721 32.0335 15.8837 31.8409C15.8791 31.7677 15.8923 31.6946 15.922 31.6276C15.9518 31.5607 15.9974 31.5019 16.0548 31.4564C16.0929 31.4297 16.1391 31.4172 16.1854 31.4209C16.2318 31.4247 16.2754 31.4446 16.3086 31.4771C16.3584 31.5269 16.3603 31.5711 16.3735 31.5711C16.3866 31.5711 16.4045 31.5194 16.3556 31.4386C16.3241 31.3908 16.2774 31.355 16.2231 31.337C16.1863 31.3259 16.1477 31.3222 16.1094 31.3261C16.0712 31.3299 16.0341 31.3413 16.0003 31.3596C15.9199 31.4089 15.8535 31.478 15.8075 31.5603C15.7614 31.6426 15.7372 31.7353 15.7371 31.8296C15.715 32.0462 15.7473 32.2649 15.8311 32.4659C15.8907 32.658 16.0057 32.8281 16.1618 32.9549C16.3178 33.0817 16.5079 33.1594 16.7081 33.1784C16.771 33.1738 16.832 33.155 16.8865 33.1235C16.941 33.0919 16.9877 33.0483 17.023 32.9961C17.0681 32.9143 17.0615 32.8626 17.053 32.8607Z" fill="#654742"/>
<path d="M17.3017 22.8538C17.874 22.5955 18.5189 22.5467 19.1235 22.7159L19.5125 22.8254L24.9803 22.3072C26.0925 21.4017 25.0306 20.4621 23.8241 20.3413C22.413 20.1936 20.7234 19.5949 19.3247 19.8589C18.4104 20.0673 17.5533 20.4749 16.8147 21.0527C16.0761 21.6304 15.4741 22.3641 15.0516 23.2013C14.8211 23.7826 14.7065 24.4033 14.7143 25.0286C14.8733 26.5054 15.2208 27.9557 15.7482 29.3442C15.9861 29.7531 16.2997 30.1129 16.6723 30.4043C17.1398 30.3067 17.244 29.8996 17.0801 29.459L16.6372 27.6803C17.0342 27.2203 17.2702 26.6434 17.3095 26.037C17.3482 25.4355 17.186 24.8381 16.8484 24.3387C16.7533 24.221 16.6887 24.0818 16.6602 23.9332C16.6312 23.7846 16.6388 23.6312 16.6824 23.4863C16.7272 23.3396 16.8068 23.206 16.9142 23.0966C17.0223 22.986 17.1551 22.9028 17.3017 22.8538Z" fill="#1B2024"/>
<path d="M18.3631 22.6035C18.5224 22.2686 18.7963 22.0019 19.1352 21.8515C19.4742 21.7012 19.8557 21.6771 20.2109 21.7838C20.8177 22.0701 21.3531 22.4881 21.7781 23.0072C21.9927 23.264 22.2563 23.4754 22.5535 23.6292C22.8507 23.783 23.1756 23.8761 23.5091 23.903C24.1773 23.8822 24.8845 23.349 25.5381 23.5827C25.8086 23.7264 26.0716 23.884 26.3258 24.0548C26.5458 24.1442 26.7831 24.1825 27.02 24.1668C27.2568 24.1511 27.4871 24.0819 27.6932 23.9642C28.1023 23.7279 28.4734 23.4313 28.7941 23.0843C27.4674 22.958 26.1944 22.4975 25.0939 21.7458C23.9991 20.9958 22.7518 20.4978 21.4415 20.2876C20.7835 20.1999 20.1152 20.3371 19.545 20.6771C18.9749 21.0171 18.5364 21.5398 18.3009 22.1604" fill="#1B2024"/>
<path d="M13.2851 34.2618C13.3513 34.2661 13.4178 34.2621 13.483 34.2497C13.6644 34.2132 13.8253 34.1095 13.9334 33.9593C14.0166 33.8415 14.0698 33.7052 14.0882 33.5622C14.1064 33.4193 14.0892 33.2741 14.0381 33.1394C13.8998 32.7747 13.6622 32.456 13.3521 32.2193C12.9681 31.9216 12.6226 31.5773 12.3236 31.1943C12.1478 30.9674 12.0224 30.7058 11.9556 30.4267C11.8888 30.1476 11.8822 29.8575 11.9362 29.5757C12.0145 29.2688 12.1874 28.9943 12.4303 28.7911C12.6768 28.5897 12.9556 28.4314 13.2549 28.3231C13.8747 28.1456 14.4663 27.8813 15.012 27.5382C15.2598 27.3414 15.4345 27.0673 15.5085 26.7597C15.5697 26.4528 15.5652 26.1364 15.4953 25.8313C15.3782 25.2227 15.0988 24.6665 14.9758 24.0836C14.9077 23.8016 14.8845 23.5105 14.9071 23.2213C14.9317 22.9401 15.0336 22.6712 15.2015 22.4444C15.3585 22.2501 15.5525 22.0891 15.7724 21.9707C15.9923 21.8522 16.2335 21.7788 16.4821 21.7547C16.8861 21.71 17.2949 21.7576 17.6779 21.894C17.9625 21.9925 18.2383 22.1151 18.5021 22.2605C18.7181 22.376 18.8825 22.4819 18.991 22.5496C19.0488 22.5826 19.1037 22.6205 19.1553 22.6626C19.0929 22.6417 19.033 22.6139 18.9768 22.5797C18.8474 22.5103 18.6812 22.4253 18.4725 22.3201C18.2106 22.182 17.9376 22.0661 17.6563 21.9737C17.2857 21.8535 16.8931 21.8166 16.5065 21.8654C16.2755 21.8907 16.0517 21.9613 15.848 22.0732C15.6443 22.1851 15.4646 22.3361 15.3193 22.5175C15.1792 22.7431 15.0896 22.9964 15.0566 23.26C15.0236 23.5235 15.048 23.7911 15.1282 24.0444C15.2523 24.6025 15.5347 25.1585 15.66 25.7972C15.7394 26.1269 15.7466 26.4699 15.6809 26.8026C15.5999 27.1461 15.4053 27.4522 15.1287 27.6715C14.5707 28.0276 13.9631 28.2994 13.3256 28.478C13.0407 28.5794 12.7748 28.728 12.5391 28.9174C12.321 29.0992 12.1649 29.3444 12.0926 29.6189C12.0418 29.8806 12.0465 30.1501 12.1066 30.4098C12.1666 30.6695 12.2806 30.9137 12.4411 31.1265C12.7303 31.5049 13.0647 31.8464 13.437 32.1435C13.755 32.3995 13.9951 32.7392 14.1304 33.1245C14.181 33.2725 14.1945 33.4307 14.1695 33.5851C14.1446 33.7397 14.0821 33.8857 13.9875 34.0104C13.8662 34.1658 13.6883 34.2669 13.4928 34.2914C13.4222 34.2986 13.3509 34.2884 13.2851 34.2618Z" fill="#353E46"/>
<path d="M26.765 20.7786C26.7536 20.8108 26.7375 20.8412 26.7173 20.8688C26.6622 20.9529 26.5987 21.0312 26.5278 21.1025C26.2674 21.3645 25.945 21.5565 25.5905 21.6606C25.0634 21.8287 24.4942 21.8077 23.981 21.6013C23.6801 21.4688 23.4102 21.275 23.1885 21.0324C22.9665 20.7813 22.728 20.5455 22.4744 20.3264C22.2206 20.1385 21.9236 20.0176 21.6108 19.9748C21.298 19.9319 20.9794 19.9686 20.6845 20.0814C20.4432 20.1719 20.2249 20.3142 20.0447 20.4984C19.8646 20.6826 19.7272 20.9041 19.6421 21.1473C19.5233 21.4832 19.4945 21.8444 19.5584 22.1949C19.6075 22.4417 19.6694 22.5698 19.6554 22.5754C19.6415 22.581 19.6424 22.5432 19.6003 22.4892C19.5509 22.397 19.5115 22.2997 19.4831 22.199C19.3934 21.8401 19.407 21.4631 19.5222 21.1116C19.6059 20.8465 19.7481 20.6035 19.9384 20.4008C20.1287 20.1981 20.3622 20.0408 20.6215 19.9406C20.9398 19.817 21.2843 19.7767 21.6226 19.8235C21.9608 19.8703 22.2815 20.0026 22.5543 20.2079C22.8138 20.4299 23.0567 20.6706 23.2812 20.928C23.4876 21.1544 23.7384 21.3361 24.0179 21.4617C24.5093 21.6695 25.0572 21.7022 25.5699 21.5544C25.9117 21.4636 26.2276 21.2943 26.4924 21.06C26.6751 20.8899 26.7506 20.7682 26.765 20.7786Z" fill="#353E46"/>
<path d="M12.7237 26.0691C12.7313 26.0302 12.7343 25.9905 12.7327 25.9509C12.7327 25.8426 12.6907 25.7385 12.6154 25.6607C12.5595 25.5979 12.4853 25.5543 12.4033 25.5358C12.3213 25.5173 12.2356 25.5249 12.1581 25.5575C12.0586 25.607 11.9766 25.6856 11.9228 25.7828C11.869 25.8801 11.8461 25.9913 11.857 26.1019C11.8813 26.2347 11.9436 26.3575 12.0361 26.4557C12.1287 26.554 12.2476 26.6233 12.3787 26.6555C12.5348 26.6894 12.6964 26.6902 12.8528 26.6579C13.0093 26.6255 13.1573 26.5608 13.2873 26.4679C13.5886 26.2713 13.8193 25.9838 13.9461 25.6471C14.0622 25.275 14.0928 24.8815 14.0355 24.4959C13.9805 24.0908 13.9877 23.6797 14.057 23.2768C14.1316 22.9004 14.2719 22.54 14.4713 22.2121C14.7548 21.7494 15.1542 21.3686 15.6299 21.1076C16.1057 20.8466 16.6414 20.7143 17.184 20.7238C17.302 20.7264 17.4196 20.7375 17.536 20.757C17.6122 20.7698 17.6531 20.7807 17.6503 20.7889C17.6475 20.7971 17.4829 20.7785 17.1862 20.7868C16.7649 20.8039 16.351 20.9023 15.9671 21.0766C15.3972 21.3332 14.9212 21.7608 14.6051 22.3C14.4172 22.613 14.286 22.9567 14.2175 23.3153C14.1533 23.7047 14.1469 24.1015 14.1985 24.4929C14.2592 24.9026 14.2256 25.3207 14.1005 25.7156C13.9587 26.0824 13.7031 26.3942 13.3712 26.6053C13.2234 26.7078 13.0556 26.7779 12.8788 26.8108C12.702 26.8438 12.5203 26.839 12.3455 26.7967C12.1904 26.7566 12.0503 26.6721 11.9425 26.5536C11.8346 26.4352 11.7637 26.2878 11.7384 26.1296C11.7285 25.9968 11.7596 25.8641 11.8276 25.7496C11.8956 25.6351 11.9971 25.5443 12.1184 25.4894C12.2237 25.4434 12.3424 25.4388 12.4509 25.4767C12.535 25.5072 12.6101 25.5585 12.6692 25.6257C12.711 25.6709 12.743 25.7244 12.763 25.7826C12.7831 25.8408 12.7907 25.9026 12.7856 25.964C12.7611 26.0539 12.7323 26.0828 12.7237 26.0691Z" fill="#353E46"/>
<path d="M9.43962 51.0565C9.43962 51.0565 8.0701 56.0129 7.76837 57.2227C7.46664 58.4324 7.46946 61.2438 8.15093 62.0757C8.8324 62.9075 11.1015 63.4358 11.1015 63.4358C11.1015 63.4358 15.5447 61.2654 17.0589 58.6185C18.5732 55.9716 22.71 48.7687 22.71 48.7687L21.3987 45.1724L14.5107 51.7521L14.5831 50.8977L9.43962 51.0565Z" fill="#FFC09D"/>
<path d="M23.8289 33.834C23.9437 33.7759 24.0769 33.7658 24.1992 33.8058C24.3215 33.8458 24.4229 33.9327 24.4812 34.0474L28.446 41.943L27.4271 42.3951L23.6108 34.475C23.5562 34.3609 23.5484 34.2299 23.5891 34.11C23.6299 33.9902 23.716 33.8911 23.8289 33.834Z" fill="#263238"/>
<path d="M21.1753 45.4022L24.8816 41.5793H28.4346L30.7103 44.5872C30.7103 44.5872 29.6312 44.7893 29.2467 44.2112L28.7448 43.4959C28.7448 43.4959 29.2467 44.5957 28.976 45.138C28.976 45.138 28.4431 46.3929 28.3575 46.5282C28.2983 46.6693 28.1877 46.7827 28.0481 46.8453C27.9085 46.908 27.7503 46.9153 27.6056 46.8657C27.1422 46.7895 26.4231 46.4117 26.4992 46.1419C26.5232 46.0633 26.5685 45.9929 26.63 45.9385C26.6916 45.884 26.767 45.8477 26.848 45.8336L25.7661 45.6785C25.2982 46.5663 24.7109 47.3857 24.0205 48.1139C23.616 48.3971 23.1728 48.6205 22.7046 48.7776L21.1753 45.4022Z" fill="#FFC09D"/>
<path d="M14.6448 51.6389C14.6542 51.6568 14.3459 51.8006 13.8731 52.075C13.2601 52.4343 12.6839 52.853 12.153 53.3252C11.6241 53.7999 11.1428 54.325 10.7158 54.893C10.3877 55.3292 10.212 55.6196 10.1941 55.6102C10.22 55.5349 10.2554 55.4632 10.2994 55.3969C10.3736 55.2615 10.4874 55.0726 10.6481 54.8461C11.473 53.6628 12.5636 52.6893 13.8327 52.0036C14.0233 51.8997 14.2191 51.8056 14.4192 51.7216C14.491 51.6854 14.5667 51.6576 14.6448 51.6389Z" fill="#654742"/>
<path d="M25.6979 42.6895C25.8678 42.6404 26.0429 42.6111 26.2195 42.602C26.5438 42.5616 26.9884 42.5165 27.4838 42.4714C27.6086 42.4557 27.735 42.4557 27.8598 42.4714C27.9798 42.4897 28.0938 42.5361 28.1925 42.6067C28.3545 42.7236 28.4839 42.8799 28.5685 43.0607C28.6547 43.2169 28.7111 43.3878 28.7349 43.5646C28.7142 43.574 28.6493 43.3766 28.4961 43.0946C28.4095 42.9334 28.2854 42.7954 28.1342 42.6923C28.0468 42.6346 27.9476 42.597 27.8438 42.5823C27.7279 42.5689 27.6109 42.5689 27.4951 42.5823C27.0007 42.6274 26.5551 42.6584 26.229 42.6763C26.0528 42.6984 25.8749 42.7028 25.6979 42.6895Z" fill="#654742"/>
<path d="M28.5267 46.3285C28.506 46.3285 28.5427 46.0587 28.5173 45.6292C28.504 45.3779 28.4695 45.1282 28.4139 44.8828C28.3998 44.7354 28.3553 44.5925 28.2833 44.4631C28.2114 44.3337 28.1134 44.2206 27.9956 44.1309C27.8587 44.058 27.7117 44.0057 27.5595 43.9758L27.1205 43.8771C26.8747 43.8217 26.6253 43.7834 26.3742 43.7624C26.1425 43.7542 25.9105 43.7601 25.6796 43.7803C25.7356 43.7482 25.7977 43.7283 25.8619 43.722C26.0322 43.6889 26.2055 43.6747 26.3789 43.6797C26.6352 43.689 26.8903 43.7204 27.1412 43.7737C27.2831 43.8009 27.4317 43.832 27.5839 43.8677C27.7484 43.8978 27.9071 43.954 28.0539 44.034C28.2025 44.1253 28.3189 44.2607 28.3867 44.4213C28.4465 44.5636 28.4903 44.7121 28.5173 44.864C28.5674 45.1158 28.5945 45.3716 28.5981 45.6282C28.601 45.8011 28.5906 45.9739 28.5671 46.1452C28.5641 46.2081 28.5505 46.2701 28.5267 46.3285Z" fill="#654742"/>
<path d="M27.2408 45.0436C27.2937 45.2771 27.3127 45.5171 27.2972 45.7561V45.8256L27.2248 45.8125C27.1855 45.8052 27.1455 45.8014 27.1055 45.8012C26.9198 45.8058 26.7435 45.8835 26.6148 46.0174C26.5161 46.1208 26.4823 46.211 26.4644 46.2054C26.4466 46.1997 26.455 46.0973 26.5518 45.9629C26.6164 45.8767 26.6999 45.8065 26.7959 45.7576C26.8919 45.7087 26.9978 45.6825 27.1055 45.6809C27.1538 45.6815 27.202 45.6868 27.2493 45.6969L27.1797 45.7533C27.1658 45.515 27.1864 45.276 27.2408 45.0436Z" fill="#654742"/>
<path d="M27.2445 45.1656C27.0039 45.1757 26.763 45.1644 26.5245 45.1318C26.2837 45.1381 26.0428 45.124 25.8044 45.0895C26.0374 45.0077 26.2864 44.9823 26.531 45.0152C26.7773 45.0093 27.0215 45.0608 27.2445 45.1656Z" fill="#654742"/>
<path d="M25.8626 44.9799C25.8734 45.2376 25.8184 45.4937 25.7028 45.7243C25.6207 45.969 25.4766 46.1883 25.2845 46.3607C25.2572 46.34 25.4377 46.0571 25.5947 45.6792C25.7517 45.3013 25.8287 44.9723 25.8626 44.9799Z" fill="#654742"/>
<path d="M18.1756 65.3145C18.1756 65.3145 13.4711 61.143 11.4079 61.1787C9.34468 61.2144 2.57227 60.7651 5.41001 70.1468C8.27501 79.6075 13.3997 94.0745 13.5397 93.5519L22.3622 89.6745L18.78 76.2181C18.78 76.2181 30.8068 76.3534 33.1276 76.047C35.4483 75.7406 39.7928 72.6848 39.7928 72.6848L39.1029 89.6877L48.323 89.1754C48.323 89.1754 49.6183 68.752 49.9895 64.5531C50.3129 60.8986 46.2071 56.7975 42.0196 57.7215C39.2824 58.3268 29.505 65.2299 29.505 65.2299L18.1756 65.3145Z" fill="#0A1124"/>
<path d="M40.1084 63.6461C40.119 63.7946 40.1152 63.9439 40.0971 64.0917C40.0812 64.4065 40.0614 64.8136 40.0342 65.3014C39.9872 66.325 39.9533 67.7368 39.9289 69.3C39.9045 70.8632 39.8753 72.2778 39.8208 73.3033C39.7964 73.8165 39.7644 74.2301 39.7371 74.5158C39.7317 74.6649 39.7123 74.8131 39.6789 74.9586C39.6648 74.8104 39.6648 74.6612 39.6789 74.513C39.6883 74.1981 39.6995 73.7911 39.7127 73.3005C39.7287 72.2477 39.7513 70.8491 39.7757 69.3C39.8001 67.7509 39.85 66.3222 39.9261 65.2995C39.9618 64.7891 40.0022 64.3755 40.0389 64.0898C40.0506 63.9403 40.0738 63.792 40.1084 63.6461Z" fill="#455A64"/>
<path d="M27.1875 75.052C27.1716 75.052 27.1537 74.8208 27.0823 74.4044C26.9827 73.8182 26.8207 73.2444 26.5991 72.6927C26.2716 71.8748 25.8219 71.1113 25.2653 70.4283C24.5812 69.5941 23.7437 68.8985 22.7979 68.3792C20.7986 67.2212 19.0381 66.0858 17.8105 65.1975C17.1967 64.7548 16.7136 64.3741 16.394 64.0958C16.2323 63.9605 16.112 63.8458 16.0321 63.7697C15.9522 63.6935 15.9108 63.6503 15.9155 63.6456C15.9202 63.6409 16.1035 63.7894 16.4325 64.0507C16.7615 64.312 17.2531 64.6786 17.8744 65.1101C19.1161 65.9711 20.8823 67.0915 22.8778 68.2467C23.8415 68.7722 24.6913 69.4837 25.3781 70.34C25.9369 71.0381 26.3837 71.8188 26.7025 72.6542C26.9181 73.2155 27.0661 73.8005 27.1434 74.3969C27.1791 74.6065 27.1772 74.7729 27.1885 74.8828C27.1942 74.9391 27.1938 74.9958 27.1875 75.052Z" fill="#455A64"/>
<path d="M30.4397 65.0911C30.4011 65.2269 30.3498 65.3587 30.2865 65.4849C30.1765 65.7321 30.028 66.0968 29.8569 66.5489C28.9635 68.9143 28.5481 71.4335 28.635 73.9605C28.651 74.4437 28.6754 74.8356 28.6998 75.1054C28.7202 75.2454 28.7262 75.3872 28.7177 75.5284C28.6774 75.3926 28.651 75.2531 28.6387 75.112C28.5955 74.8422 28.5551 74.454 28.5241 73.9652C28.3763 71.42 28.7956 68.8738 29.7516 66.5104C29.9396 66.0601 30.1004 65.7011 30.2282 65.4605C30.287 65.331 30.3578 65.2073 30.4397 65.0911Z" fill="#455A64"/>
<path d="M12.754 63.8688C12.799 63.8928 12.8418 63.9208 12.8819 63.9524L13.2353 64.209C13.3114 64.2654 13.397 64.3284 13.4891 64.397C13.5812 64.4656 13.6686 64.5568 13.7711 64.6471C14.0049 64.846 14.2248 65.0608 14.429 65.29C14.5437 65.4153 14.6628 65.5479 14.7862 65.6876C14.9009 65.8342 15.0156 65.9893 15.135 66.1482C15.1961 66.229 15.2562 66.3099 15.3173 66.3935C15.3784 66.4772 15.4301 66.5693 15.4856 66.6586C15.5984 66.8409 15.7196 67.0233 15.8315 67.2225C16.3012 68.0769 16.6968 68.97 17.0139 69.892C17.3627 70.8677 17.623 71.8218 17.8599 72.6847C18.0968 73.5475 18.2988 74.3258 18.4737 74.9847C18.6485 75.6437 18.798 76.1672 18.9051 76.53C18.955 76.703 18.9926 76.843 19.0245 76.9502C19.0418 76.9982 19.0531 77.048 19.0583 77.0987C19.0344 77.0536 19.0155 77.006 19.002 76.9568C18.9662 76.8515 18.9211 76.7143 18.8628 76.5432C18.7416 76.1832 18.5865 75.6568 18.3928 75.0073L17.7565 72.7138C17.5159 71.8528 17.2508 70.9016 16.9039 69.9296C16.5892 69.0133 16.1981 68.1251 15.7346 67.2742C15.6247 67.0806 15.5053 66.8983 15.3953 66.7169C15.3389 66.6229 15.2872 66.5373 15.2289 66.4518C15.1707 66.3662 15.1096 66.2873 15.0494 66.2093C14.93 66.0495 14.8201 65.8925 14.7073 65.7487C14.5945 65.6049 14.4685 65.477 14.3585 65.3511C14.1589 65.1221 13.9457 64.9052 13.7203 64.7016C13.6216 64.6076 13.5323 64.5192 13.4458 64.445C13.3594 64.3707 13.2748 64.3106 13.1986 64.2495C13.0567 64.1367 12.9448 64.0445 12.8593 63.9778C12.8215 63.9442 12.7863 63.9078 12.754 63.8688Z" fill="#455A64"/>
<path d="M18.0802 65.2307C19.758 66.3389 21.606 66.6002 23.5827 66.9781C24.7079 67.2796 25.8887 67.3095 27.0277 67.0655C29.4133 66.3614 31.719 63.6478 33.2521 62.6777L26.8538 64.2992L18.0802 65.2307Z" fill="#B61D2D"/>
<path d="M53.3418 96.914H51.0638V1.49504C51.0709 1.19664 51.1961 0.913241 51.4119 0.707019C51.6276 0.500797 51.9164 0.388598 52.2148 0.395038C52.5132 0.388863 52.8018 0.50115 53.0175 0.707317C53.2332 0.913483 53.3585 1.19673 53.3658 1.49504V96.912L53.3418 96.914Z" fill="#455A64"/>
<path d="M50.9918 9.427H30.9238V16.5H50.9918V9.427Z" fill="#263238"/>
<path d="M73.4578 1.85107H53.3898V8.92407H73.4578V1.85107Z" fill="#263238"/>
<path d="M53.3888 21.3181L64.5888 22.7571V12.8311L53.3888 14.2701V21.3181Z" fill="#263238"/>
<path d="M62.3318 17.9861L59.8618 15.2531V16.453L54.6829 16.6451V19.2341L59.8618 19.4981V20.673L62.3318 17.9861Z" fill="#A1B4B7"/>
<path d="M70.3878 4.87202L66.5758 2.66602V3.64902H56.5298V6.11802H66.5758V7.07702L70.3878 4.87202Z" fill="#A1B4B7"/>
<path d="M34.1368 13.023L37.9488 10.817V11.776H47.9948V14.245H37.9488V15.204L34.1368 13.023Z" fill="#A1B4B7"/>
</g>
<defs>
<filter id="filter0_d_3_29539" x="0.725586" y="0.394775" width="76.7322" height="109.608" filterUnits="userSpaceOnUse" color-interpolation-filters="sRGB">
<feFlood flood-opacity="0" result="BackgroundImageFix"/>
<feColorMatrix in="SourceAlpha" type="matrix" values="0 0 0 0 0 0 0 0 0 0 0 0 0 0 0 0 0 0 127 0" result="hardAlpha"/>
<feOffset dy="4"/>
<feGaussianBlur stdDeviation="2"/>
<feComposite in2="hardAlpha" operator="out"/>
<feColorMatrix type="matrix" values="0 0 0 0 0 0 0 0 0 0 0 0 0 0 0 0 0 0 0.25 0"/>
<feBlend mode="normal" in2="BackgroundImageFix" result="effect1_dropShadow_3_29539"/>
<feBlend mode="normal" in="SourceGraphic" in2="effect1_dropShadow_3_29539" result="shape"/>
</filter>
</defs>
</svg>
