<svg width="136" height="100" viewBox="0 0 136 100" fill="none" xmlns="http://www.w3.org/2000/svg">
<mask id="mask0_1634_240598" style="mask-type:alpha" maskUnits="userSpaceOnUse" x="0" y="0" width="136" height="100">
<path d="M0 16C0 7.16345 7.16344 0 16 0H136V100H16C7.16344 100 0 92.8366 0 84V16Z" fill="#D9D9D9"/>
</mask>
<g mask="url(#mask0_1634_240598)">
<path d="M0 16C0 7.16345 7.16344 0 16 0H136V100H16C7.16344 100 0 92.8366 0 84V16Z" fill="#E0F4F9"/>
<path d="M10.0699 51.5996L18.1465 54.4197L16.1104 55.5847L10.4646 58.7644L8.64844 59.7914L10.0699 51.5996Z" fill="#FFD06C"/>
<path d="M45.2381 95.3126L50.2694 93.0639L39.3175 74.6655L34.3836 78.993L25.7 63.9836L20.9235 67.1732L13.1517 53.3584L10.2988 54.548L19.7868 73.173L25.1754 68.5746L33.3544 85.3252L38.2433 80.0988L45.2381 95.3126Z" fill="#FFD06C"/>
<path d="M115.722 18.75L107.615 23.006L109.964 23.9222L116.459 26.4049L118.55 27.2078L115.722 18.75Z" fill="#FFD06C"/>
<path d="M85.5025 70.5954L79.8066 69.0043L88.4453 47.7859L94.3734 51.5961L101.153 34.3282L106.729 36.9587L112.737 21.0996L115.955 21.9099L108.903 43.1407L102.45 39.1113L96.4844 58.1476L90.4588 53.3743L85.5025 70.5954Z" fill="#FFD06C"/>
<path d="M47.7271 123.541H54.2148V98.7932H47.7271V123.541Z" fill="#FFAC34"/>
<path d="M34.649 123.544H41.1367L41.1367 92.6617H34.649V123.544Z" fill="#FFAC34"/>
<path d="M132.89 60.416L121.4 63.8981L124.191 65.6326L131.92 70.3748L134.405 71.9071L132.89 60.416Z" fill="#FFC44C"/>
<path d="M81.0395 119.367L74.1152 115.955L90.5383 90.9297L97.2075 97.2326L110.251 76.8018L116.763 81.5128L128.463 62.6973L132.397 64.5096L118.009 89.9341L110.722 83.2266L98.2778 106.113L91.7296 98.5601L81.0395 119.367Z" fill="#FFC44C"/>
<path d="M95.8379 116.253C94.744 114.198 93.1223 112.466 91.1365 111.23C89.1508 109.995 86.8711 109.3 84.5276 109.216C87.3613 106.108 87.9199 101.3 86.2848 97.438C84.6497 93.5756 81.0513 90.6937 77.011 89.4528C72.9706 88.2119 68.5533 88.502 64.5374 89.7858C65.0065 86.7669 61.9559 83.7506 58.908 84.2206C59.5146 83.8093 59.9433 83.1874 60.1091 82.478C60.2749 81.7686 60.1658 81.0234 59.8034 80.3898C59.4409 79.7563 58.8516 79.2806 58.152 79.0569C57.4524 78.8332 56.6935 78.8778 56.0255 79.1819L56.2072 57.0312H42.9201L43.0991 79.1711C42.4266 78.8371 41.6503 78.7716 40.9305 78.9883C40.2108 79.205 39.6025 79.6872 39.2315 80.3354C38.8604 80.9836 38.7549 81.7482 38.9367 82.4713C39.1185 83.1943 39.5738 83.8206 40.2085 84.2206C37.1606 83.7506 34.11 86.7669 34.5764 89.7858C30.5523 88.502 26.1323 88.2092 22.1028 89.4528C18.0733 90.6964 14.4478 93.573 12.8208 97.438C11.1938 101.303 11.7362 106.108 14.5807 109.216C12.2368 109.3 9.95687 109.995 7.97068 111.23C5.98449 112.466 4.36229 114.198 3.26767 116.253C2.03116 118.649 1.91185 122.186 4.3198 123.438H94.7858C97.191 122.186 97.0771 118.649 95.8379 116.253Z" fill="#FFEAB6"/>
<path d="M34.1016 24.8789L49.8614 4.6875L65.0057 24.8789H59.0961V57.8125H40.7492V24.9154L34.1016 24.8789Z" fill="#FFC44C"/>
<path opacity="0.4" d="M28.9439 42.0988C29.0927 41.0354 27.5654 40.1527 26.4156 40.0613C25.8676 40.0187 25.3003 40.1017 24.7804 39.923C23.6564 39.5359 23.2077 38.1046 22.1097 37.6473C21.2899 37.307 20.3472 37.6111 19.5512 38.0046C18.7551 38.3981 17.9699 38.8958 17.0832 38.9532C16.3109 39 15.4718 38.7192 14.7944 39.0914C14.2917 39.3679 14.0286 39.9422 13.5626 40.2782C13.0966 40.6143 12.5163 40.6781 11.9533 40.7036C11.3902 40.7291 10.8056 40.7397 10.2922 40.9716C9.77875 41.2034 9.35593 41.7372 9.46164 42.2839L28.9439 42.0988Z" fill="white"/>
<path opacity="0.4" d="M80.2701 12.3882C80.4578 11.0376 78.527 9.92737 77.073 9.81252C76.3805 9.75722 75.6622 9.86143 75.0064 9.63599C73.5847 9.14681 73.0174 7.33684 71.6302 6.76046C70.5926 6.33508 69.3996 6.71367 68.3943 7.21135C67.3891 7.70904 66.3967 8.3386 65.2685 8.40666C64.2912 8.46833 63.2299 8.11102 62.3756 8.58319C61.7284 8.93199 61.4048 9.64662 60.818 10.072C60.2313 10.4974 59.4956 10.5782 58.7816 10.6165C58.0675 10.6548 57.3319 10.6611 56.6826 10.9546C56.0332 11.2482 55.4982 11.9245 55.632 12.6157L80.2701 12.3882Z" fill="white"/>
<path d="M91.5564 42.8467C91.5564 42.8467 101.278 63.3812 93.9608 82.5084C86.6435 101.636 59.7663 129.052 56.7861 130.514C56.7861 130.514 63.6807 119.833 51.0921 119.92C38.5034 120.008 32.1815 116.985 30.8277 112.634C29.4739 108.282 36.9536 94.2282 30.0742 90.8521C23.1949 87.476 14.8331 88.4876 9.21875 83.8039C9.21875 83.8039 22.3128 82.7289 31.9794 81.7565C42.1269 80.7358 72.6214 59.7967 75.084 44.3928" fill="#0BA1D7"/>
<g opacity="0.4">
<path d="M91.5564 42.8467C91.5564 42.8467 101.278 63.3812 93.9608 82.5084C86.6435 101.636 59.7663 129.052 56.7861 130.514C56.7861 130.514 63.6807 119.833 51.0921 119.92C38.5034 120.008 32.1815 116.985 30.8277 112.634C29.4739 108.282 36.9536 94.2282 30.0742 90.8521C23.1949 87.476 14.8331 88.4876 9.21875 83.8039C9.21875 83.8039 22.3128 82.7289 31.9794 81.7565C42.1269 80.7358 72.6214 59.7967 75.084 44.3928" fill="#1B232E"/>
</g>
<path d="M56.1816 78.2051C56.1279 78.2517 56.0705 78.2941 56.01 78.3319L55.4985 78.6731C55.0575 78.9751 54.4051 79.3798 53.5903 79.8811C51.9609 80.8655 49.6545 82.1489 47.0234 83.3931C44.7762 84.455 42.4761 85.4045 40.1318 86.2377C39.2313 86.5548 38.4993 86.7994 37.9878 86.9534L37.3997 87.1315C37.3324 87.1561 37.2625 87.1733 37.1914 87.1829C37.254 87.1497 37.3196 87.1224 37.3874 87.1013L37.9663 86.896C38.4717 86.7239 39.1915 86.4642 40.092 86.132C41.8808 85.4737 44.325 84.4923 46.956 83.2511C49.5871 82.01 51.8873 80.7447 53.5321 79.7844C54.353 79.3073 55.0146 78.9087 55.4648 78.6309L55.9917 78.3138C56.0508 78.2709 56.1145 78.2345 56.1816 78.2051Z" fill="#465159"/>
<path d="M64.4553 89.5898C64.3894 89.6484 64.3198 89.7029 64.247 89.7529L63.6344 90.1938C63.0984 90.5713 62.3327 91.1269 61.3954 91.8245C59.5148 93.2136 56.9634 95.1945 54.2619 97.5198C51.5604 99.845 49.2264 102.074 47.5755 103.722C46.7516 104.547 46.09 105.232 45.6366 105.691L45.1129 106.229C45.0525 106.293 44.988 106.354 44.9199 106.41C44.9718 106.339 45.028 106.272 45.0884 106.208L45.5907 105.649C46.0318 105.166 46.6811 104.48 47.4958 103.647C49.1253 101.974 51.4532 99.7212 54.1547 97.402C56.8562 95.0828 59.429 93.1018 61.328 91.7339C62.2745 91.0484 63.0525 90.5079 63.5977 90.1425L64.2103 89.7257C64.2864 89.6713 64.3686 89.6257 64.4553 89.5898Z" fill="#465159"/>
<path d="M63.3382 92.9533C63.3124 92.9951 63.2815 93.0336 63.2463 93.0681L62.9614 93.3701C62.7103 93.6328 62.3488 94.0042 61.8771 94.4542C60.9583 95.3601 59.6412 96.568 58.1312 97.8514C56.6212 99.1348 55.203 100.219 54.1494 100.986C53.6256 101.366 53.1968 101.671 52.8966 101.874L52.5505 102.106C52.511 102.136 52.4677 102.16 52.4219 102.179C52.4219 102.179 52.4586 102.139 52.5321 102.079L52.8599 101.825L54.085 100.895C55.1111 100.11 56.517 99.005 58.0209 97.7306C59.5248 96.4563 60.8511 95.2574 61.7944 94.3757L62.9093 93.3278L63.2156 93.0439C63.2953 92.9805 63.332 92.9503 63.3382 92.9533Z" fill="#465159"/>
<path d="M68.4597 86.8691L58.7227 146.15L67.6664 146.682L81.468 86.8691H68.4597Z" fill="#0BA1D7"/>
<path d="M81.6289 84.2843L86.1222 146.682H94.5361V80.6152L81.6289 84.2843Z" fill="#0BA1D7"/>
<path d="M91.4907 142.78C91.4447 142.78 90.7678 130.426 89.9745 115.182C89.1812 99.9383 88.5717 87.5753 88.6177 87.5723C88.6636 87.5692 89.3405 99.9262 90.1338 115.173C90.9271 130.42 91.5336 142.78 91.4907 142.78Z" fill="#465159"/>
<path d="M73.7597 88.2646C73.7597 88.2646 73.7597 88.313 73.7444 88.4066C73.7291 88.5002 73.7107 88.6391 73.6862 88.8143C73.6311 89.1796 73.5484 89.7051 73.4442 90.3785C73.2329 91.7374 72.9143 93.7002 72.507 96.1161C71.6953 100.966 70.513 107.658 69.0796 115.026C67.6461 122.394 66.2249 129.041 65.159 133.845C64.6261 136.246 64.1819 138.188 63.8695 139.525C63.7133 140.19 63.5908 140.709 63.505 141.068L63.407 141.467C63.3825 141.558 63.3672 141.603 63.3672 141.603C63.3672 141.603 63.3672 141.555 63.3917 141.464C63.4162 141.373 63.4376 141.232 63.4744 141.059C63.551 140.7 63.6643 140.181 63.8083 139.513C64.1145 138.16 64.525 136.219 65.0487 133.821C66.0871 129.014 67.4991 122.364 68.9233 114.996C70.3476 107.627 71.5483 100.969 72.3967 96.107C72.8133 93.6912 73.1502 91.7314 73.383 90.3694C73.4994 89.696 73.5913 89.1615 73.6556 88.8082C73.6862 88.6361 73.7107 88.5062 73.7291 88.4036C73.7475 88.3009 73.7597 88.2646 73.7597 88.2646Z" fill="#465159"/>
<g opacity="0.3">
<path d="M67.9883 89.7531L68.1812 88.5754L81.2355 87.8477L80.7423 89.9947L67.9883 89.7531Z" fill="#1B232E"/>
</g>
<g opacity="0.3">
<path d="M81.9995 89.9942L81.6289 87.8381L94.5361 87.21L94.533 90.2599L81.9995 89.9942Z" fill="#1B232E"/>
</g>
<path d="M69.2988 43.043L78.411 41.0439L86.0684 41.355L92.7456 43.4477L88.9475 62.2247L74.4109 63.496L69.2988 43.043Z" fill="#465159"/>
<path d="M77.0264 41.3555L67.4395 43.4482L72.2329 68.763C72.2329 68.763 67.9448 79.0302 67.4395 88.5757L81.63 87.8389C81.63 87.8389 82.6071 75.2585 82.2732 70.4148C81.9394 65.5711 81.7158 57.0976 81.7158 57.0976L77.0264 41.3555Z" fill="#0BA1D7"/>
<path d="M49.6125 55.8807C49.6125 55.8807 52.8654 52.6284 56.2591 50.8799C58.7615 49.5905 63.6622 47.9719 65.6102 45.8943C66.3225 45.1566 66.9398 44.335 67.448 43.4482L69.7115 55.3703L60.0908 56.8802C60.0908 56.8802 61.5212 57.6503 60.6299 58.1999L66.6577 65.1453L62.5258 72.8277C62.5258 72.8277 49.0551 61.3857 49.6125 55.8807Z" fill="#0BA1D7"/>
<path d="M86.0675 41.3555C87.2326 41.4989 88.384 41.7352 89.5103 42.0621C91.5502 42.7264 94.999 43.4482 94.999 43.4482L90.0983 69.0951C90.0983 69.0951 96.7602 77.2123 94.999 87.1444C94.999 87.1444 85.7949 87.86 81.6293 87.8389L81.5742 56.6325C81.5742 56.6325 85.0629 52.2538 85.5101 47.9597C85.9573 43.6656 86.0675 41.3555 86.0675 41.3555Z" fill="#0BA1D7"/>
<path d="M94.9988 43.4482C94.9988 43.4482 100.491 49.056 103.514 51.1728C106.537 53.2897 110.341 56.4574 110.341 58.1425C110.28 59.1969 110.062 60.2367 109.695 61.2287C109.483 61.8517 109.173 62.4377 108.776 62.9651C107.388 64.7769 103.713 69.5059 101.284 71.7496L95.158 65.3869L100.978 59.0454C100.978 59.0454 93.1671 55.8686 92.7812 55.0049C92.3953 54.1413 94.9988 43.4482 94.9988 43.4482Z" fill="#0BA1D7"/>
<path d="M81.5156 60.0136C81.4647 59.9769 81.4175 59.9354 81.3747 59.8898L80.9919 59.5123L79.586 58.087L74.8201 53.1799L74.7925 53.1497V53.1074L75.4235 50.4983C75.5184 50.1087 75.6103 49.7252 75.7022 49.3447L75.7788 49.4414H72.6484L72.6791 49.3447C73.4203 47.1312 74.0543 45.2348 74.5168 43.8759C74.7435 43.2146 74.9242 42.6861 75.0559 42.3056C75.1172 42.1335 75.1662 42.0037 75.206 41.8919C75.2202 41.8427 75.2397 41.7951 75.2642 41.75C75.2562 41.8003 75.2439 41.8498 75.2274 41.898C75.1968 42.0067 75.1539 42.1456 75.1018 42.3207L74.6118 43.894C74.1677 45.259 73.552 47.1614 72.8353 49.381L72.7648 49.2843H75.8002H75.9013L75.8798 49.381C75.7879 49.7615 75.693 50.145 75.6011 50.5345C75.3806 51.4405 75.1692 52.3102 74.9671 53.1436L74.9456 53.0742L79.6717 58.0206L81.0439 59.4791L81.4084 59.8777C81.4483 59.9197 81.4842 59.9652 81.5156 60.0136Z" fill="#465159"/>
<path d="M81.6297 87.8386C81.5868 87.8386 81.5286 80.7995 81.501 72.1176C81.4735 63.4358 81.4857 56.3936 81.5286 56.3906C81.5715 56.3876 81.6297 63.4297 81.6603 72.1176C81.691 80.8055 81.6756 87.8386 81.6297 87.8386Z" fill="#465159"/>
<path d="M87.5368 41.584C87.5571 41.6387 87.5715 41.6954 87.5796 41.7531C87.6011 41.8799 87.6317 42.0551 87.6715 42.2483C87.7481 42.6983 87.8553 43.3234 87.9778 44.0995L89.0131 50.4199L89.0284 50.5225H88.9243L87.2335 50.2991L87.3162 50.1873L87.6623 50.8819C87.8951 51.3499 88.1248 51.812 88.3454 52.2498L88.3668 52.2951L88.3362 52.3314L83.8827 57.8153L82.5472 59.4369L82.1797 59.8718C82.1412 59.9246 82.0959 59.9723 82.0449 60.0137C82.0786 59.9577 82.1165 59.9042 82.1583 59.8536L82.5013 59.4037L83.8 57.7519L88.2198 52.2196V52.3042C88.0023 51.8663 87.7726 51.3983 87.5368 50.9362L87.1692 50.2356L87.1018 50.1028L87.2519 50.1209L88.9426 50.3504L88.8569 50.438C88.4648 47.9104 88.1218 45.703 87.8767 44.0964C87.7634 43.3173 87.6715 42.6892 87.6041 42.2393C87.5776 42.038 87.5562 41.8719 87.5398 41.741C87.5344 41.6888 87.5334 41.6363 87.5368 41.584Z" fill="#465159"/>
<path d="M80.2961 77.6375C79.9714 77.248 79.3374 77.0336 79.0311 77.4261C78.8763 77.5515 78.764 77.7204 78.7093 77.9104C78.6546 78.1003 78.66 78.3022 78.7248 78.4891C78.7772 78.6031 78.8521 78.7056 78.9452 78.7906C79.0383 78.8756 79.1477 78.9415 79.267 78.9842C79.3863 79.027 79.513 79.0458 79.6398 79.0396C79.7665 79.0334 79.8907 79.0023 80.0051 78.9481C80.1162 78.8851 80.2128 78.8 80.2885 78.6981C80.3643 78.5962 80.4176 78.4797 80.445 78.3563C80.4724 78.2329 80.4733 78.1052 80.4476 77.9814C80.422 77.8576 80.3704 77.7405 80.2961 77.6375Z" fill="#465159"/>
<path d="M80.4689 69.4867C80.1442 69.0942 79.5102 68.8677 79.2039 69.2754C79.0498 69.4012 78.938 69.5702 78.8834 69.7599C78.8287 69.9497 78.8336 70.1514 78.8976 70.3383C78.9496 70.4526 79.0244 70.5554 79.1175 70.6406C79.2105 70.7259 79.32 70.7919 79.4394 70.8347C79.5587 70.8775 79.6856 70.8962 79.8125 70.8898C79.9393 70.8834 80.0636 70.8519 80.1779 70.7973C80.289 70.7344 80.3856 70.6492 80.4613 70.5473C80.5371 70.4454 80.5903 70.329 80.6177 70.2055C80.6452 70.0821 80.6461 69.9544 80.6204 69.8306C80.5948 69.7068 80.5432 69.5897 80.4689 69.4867Z" fill="#465159"/>
<path d="M102.342 68.8133C102.018 68.4237 101.384 68.2093 101.077 68.6019C100.923 68.7275 100.811 68.8965 100.756 69.0863C100.702 69.2762 100.707 69.478 100.771 69.6649C100.823 69.7791 100.898 69.8819 100.991 69.9672C101.084 70.0524 101.194 70.1184 101.313 70.1612C101.432 70.204 101.559 70.2228 101.686 70.2164C101.813 70.2099 101.937 70.1785 102.051 70.1239C102.163 70.0609 102.259 69.9758 102.335 69.8738C102.411 69.7719 102.464 69.6555 102.491 69.5321C102.519 69.4087 102.52 69.281 102.494 69.1572C102.468 69.0334 102.417 68.9162 102.342 68.8133Z" fill="#465159"/>
<path d="M62.4557 69.5629C62.1311 69.1703 61.497 68.9439 61.1908 69.3515C61.0363 69.4771 60.9243 69.6461 60.8696 69.8359C60.8149 70.0258 60.8201 70.2276 60.8845 70.4145C60.9365 70.5287 61.0112 70.6315 61.1043 70.7168C61.1973 70.8021 61.3068 70.868 61.4262 70.9108C61.5456 70.9536 61.6725 70.9724 61.7993 70.966C61.9262 70.9596 62.0505 70.9281 62.1648 70.8735C62.2759 70.8105 62.3724 70.7254 62.4482 70.6235C62.5239 70.5216 62.5772 70.4051 62.6046 70.2817C62.632 70.1583 62.6329 70.0306 62.6073 69.9068C62.5816 69.783 62.53 69.6659 62.4557 69.5629Z" fill="#465159"/>
<path d="M60.7064 58.3112C59.9403 57.9605 59.1225 57.7322 58.2837 57.6348C57.4412 57.5899 56.5968 57.6755 55.7812 57.8884C55.9987 57.7625 56.2356 57.6727 56.4827 57.6227C57.6755 57.3217 58.9366 57.4282 60.0602 57.9247C60.2961 58.0169 60.5145 58.1475 60.7064 58.3112Z" fill="#465159"/>
<path d="M55.7812 56.879C55.9681 56.757 56.1755 56.669 56.3938 56.6193C56.9174 56.4646 57.4615 56.3882 58.008 56.3928C58.5556 56.3976 59.0995 56.482 59.6222 56.6434C59.8394 56.7008 60.0461 56.7915 60.2347 56.9122C59.5074 56.7056 58.758 56.584 58.0019 56.5498C57.2509 56.5702 56.5052 56.6807 55.7812 56.879Z" fill="#465159"/>
<path d="M69.9873 56.9097C69.9316 56.7449 69.8876 56.5764 69.8556 56.4054L69.5493 55.0224C69.2614 53.8356 68.8755 52.2381 68.4497 50.4716C68.024 48.705 67.6809 47.0713 67.491 45.8845C67.393 45.2806 67.3256 44.8125 67.292 44.4803C67.2635 44.3087 67.2502 44.1349 67.2521 43.9609C67.2982 44.1284 67.332 44.299 67.3532 44.4713C67.4053 44.8004 67.491 45.2776 67.6013 45.8664C67.8188 47.0441 68.1771 48.6597 68.606 50.4353C69.0348 52.211 69.4176 53.8265 69.6596 55.0012C69.7821 55.5871 69.874 56.0642 69.9261 56.3934C69.9606 56.5636 69.9811 56.7363 69.9873 56.9097Z" fill="#465159"/>
<path d="M94.6593 44.0273C94.6526 44.2061 94.63 44.3839 94.5919 44.5588C94.5337 44.9242 94.4541 45.4074 94.356 45.9962C94.1508 47.2313 93.8752 48.8982 93.5719 50.7373C93.2687 52.5763 92.9594 54.2614 92.7388 55.4693C92.6224 56.0732 92.5244 56.5624 92.4509 56.9007C92.4232 57.0771 92.3802 57.2509 92.3223 57.4201C92.3285 57.2389 92.3469 57.0583 92.3774 56.8795C92.4387 56.5141 92.5183 56.031 92.6132 55.4421C92.8185 54.204 93.0972 52.5401 93.4004 50.7011C93.7036 48.862 94.013 47.177 94.2335 45.966C94.3499 45.3621 94.4479 44.8759 94.5184 44.5377C94.5537 44.3646 94.6007 44.1941 94.6593 44.0273Z" fill="#465159"/>
<path d="M105.106 55.9315C105.106 55.9586 104.766 55.9315 104.227 55.9586C103.527 55.9647 102.848 56.2018 102.3 56.6321C101.8 57.1158 101.43 57.7146 101.222 58.3745C101.137 58.652 101.034 58.9243 100.916 59.1898C100.95 58.8992 101.018 58.6135 101.118 58.3382C101.303 57.6435 101.677 57.0117 102.199 56.5113C102.506 56.2508 102.87 56.0646 103.262 55.9677C103.577 55.8877 103.902 55.8472 104.227 55.8469C104.444 55.8448 104.661 55.8569 104.876 55.8832C104.955 55.8845 105.033 55.9009 105.106 55.9315Z" fill="#465159"/>
<path d="M106.568 57.3418C106.568 57.369 106.231 57.3418 105.692 57.378C104.284 57.4587 102.922 57.9057 101.746 58.6735C101.293 58.9755 101.039 59.1809 101.021 59.1597C101.002 59.1386 101.07 59.0903 101.18 58.9876C101.338 58.8412 101.506 58.705 101.682 58.5799C102.849 57.7471 104.248 57.2885 105.688 57.2663C105.904 57.2628 106.12 57.2729 106.335 57.2965C106.415 57.2972 106.493 57.3125 106.568 57.3418Z" fill="#465159"/>
<path d="M74.5268 69.4874C74.1714 69.3998 73.8249 69.2805 73.4915 69.131C73.1408 69.0294 72.8004 68.8959 72.4746 68.7324C72.8452 68.7457 73.2095 68.8309 73.5466 68.9831C73.903 69.0879 74.2358 69.2591 74.5268 69.4874Z" fill="#465159"/>
<path d="M74.9176 66.4521C74.9421 66.4884 74.2253 66.9716 73.4198 67.6601C72.6142 68.3486 72.02 68.9706 71.9863 68.9374C72.3582 68.4102 72.806 67.9392 73.3156 67.5393C73.7923 67.1009 74.3321 66.7346 74.9176 66.4521Z" fill="#465159"/>
<path d="M94.998 87.1428C94.998 87.1881 88.8323 87.5415 81.2148 87.937C73.5973 88.3326 67.4316 88.6195 67.4316 88.5742C67.4316 88.5289 73.5973 88.1756 81.2148 87.78C88.8323 87.3844 94.9949 87.1006 94.998 87.1428Z" fill="#465159"/>
<g opacity="0.3">
<path d="M100.683 58.8815C100.49 58.2981 100.491 57.6693 100.685 57.0862C100.879 56.5032 101.256 55.996 101.761 55.6383C101.969 55.4713 102.236 55.3921 102.503 55.4179C102.567 55.4271 102.629 55.4499 102.685 55.4845C102.74 55.5192 102.787 55.565 102.823 55.619C102.859 55.6729 102.883 55.7337 102.893 55.7975C102.903 55.8612 102.9 55.9263 102.882 55.9886C102.793 56.13 102.663 56.2423 102.509 56.3117C102.043 56.6254 101.692 57.077 101.504 57.6012C101.318 58.1215 101.19 58.6602 101.121 59.2077" fill="#1B232E"/>
</g>
<g opacity="0.3">
<path d="M72.7539 49.3571C72.809 49.5201 73.9056 49.644 74.1138 50.0909C74.2749 50.5589 74.2749 51.0663 74.1138 51.5343C73.9551 52.0012 73.8795 52.4916 73.8903 52.9838C73.9821 53.8596 74.7111 54.5209 75.3911 55.0977C77.2901 56.6951 79.6026 58.4194 81.517 60.0199C79.8201 58.0269 77.6087 55.9734 75.7403 54.1615C75.4445 53.9137 75.2081 53.6043 75.048 53.2556C74.9374 52.7822 74.9672 52.2875 75.1338 51.8303C75.2931 51.2122 75.4544 50.5932 75.6177 49.9731C75.6576 49.8131 75.7525 49.5443 75.774 49.4567C75.5474 49.4177 75.3178 49.3985 75.0879 49.3994C74.3112 49.3411 73.5314 49.335 72.7539 49.3812" fill="#1B232E"/>
</g>
<path d="M62.2031 70.2907C62.2251 70.2044 62.258 70.1212 62.3011 70.0431C62.3746 69.8891 62.488 69.6686 62.635 69.3999C63.026 68.703 63.4661 68.034 63.9521 67.3978C64.4356 66.7575 64.9648 66.1521 65.5356 65.5859C65.7561 65.3715 65.9399 65.2024 66.0716 65.0907C66.2033 64.9789 66.2768 64.9216 66.286 64.9306C66.0773 65.1871 65.8544 65.4321 65.6183 65.6644C65.2017 66.1113 64.6443 66.7425 64.0868 67.4763C63.5294 68.2101 63.0607 68.9228 62.7422 69.4391C62.58 69.7334 62.4 70.0178 62.2031 70.2907Z" fill="#465159"/>
<path d="M64.474 62.8096C64.4924 62.8307 64.1402 63.1659 63.6133 63.7457C62.2369 65.2578 61.1224 66.983 60.3146 68.8521C60.0083 69.5678 59.8429 70.0238 59.8184 70.0178C59.8345 69.9046 59.8622 69.7933 59.9011 69.6856C59.9623 69.4742 60.0665 69.1753 60.2074 68.8099C60.9651 66.9021 62.0928 65.1584 63.5276 63.6762C63.8032 63.3924 64.0329 63.175 64.2014 63.03C64.2847 62.9478 64.376 62.874 64.474 62.8096Z" fill="#465159"/>
<path d="M103.951 68.9164C103.86 68.8435 103.778 68.7604 103.706 68.6688L103.072 67.9742C102.533 67.3914 101.771 66.5972 100.907 65.7456C100.043 64.894 99.2345 64.1451 98.6403 63.6167L97.9328 62.9916C97.8398 62.921 97.7556 62.8399 97.6816 62.75C97.7867 62.8017 97.8845 62.8667 97.9726 62.9433C98.1533 63.0761 98.4076 63.2754 98.7138 63.5321C99.3264 64.0425 100.15 64.7823 101.017 65.646C101.884 66.5096 102.637 67.3068 103.161 67.9138C103.422 68.2158 103.624 68.4664 103.774 68.6416C103.843 68.7262 103.903 68.8184 103.951 68.9164Z" fill="#465159"/>
<path d="M65.7847 66.748L67.7909 67.814L72.2414 69.0582C72.2414 69.0582 71.3225 75.0615 70.7436 75.5749C70.1647 76.0882 63.6621 70.6949 63.6621 70.6949L65.7847 66.748Z" fill="#EABDA4"/>
<path d="M96.1235 66.3887L94.6748 67.4999L90.5 69.4598C90.5 69.4598 92.4297 75.2245 93.079 75.6352C93.7283 76.0459 99.2355 69.6621 99.2355 69.6621L96.1235 66.3887Z" fill="#EABDA4"/>
<path d="M75.571 23.0576C75.5128 24.6037 73.4269 25.5399 73.4514 27.086C73.4514 27.7473 73.8803 28.3452 73.963 29.0036C74.0732 29.8884 73.5709 30.7218 73.3841 31.5945C73.0043 33.4064 74.064 35.2907 75.6384 36.2752C77.2127 37.2596 79.1852 37.4469 81.0322 37.1992" fill="#465159"/>
<path d="M88.1835 22.6895C88.1222 23.5199 88.6766 24.2597 89.2371 24.8818C89.7976 25.5039 90.4194 26.1531 90.5389 26.9836C90.7533 28.4421 89.3137 29.795 89.6047 31.2415C89.764 32.0145 90.4072 32.6366 90.5236 33.4187C90.64 34.2008 90.2173 34.9286 89.7149 35.4903C89.2126 36.052 88.6154 35.9795 88.1651 36.6016C87.6412 37.2997 86.9757 37.8828 86.211 38.3138C84.5876 39.1925 82.6396 37.9242 81.8555 37.7098" fill="#465159"/>
<path d="M75.2545 23.9639C75.2331 23.212 75.9376 22.6292 76.6482 22.3544C77.3588 22.0796 78.149 21.9769 78.7922 21.5542C79.3527 21.1827 79.7295 20.6029 80.2042 20.1288C80.7894 19.5444 81.5215 19.1238 82.3257 18.9099C83.1299 18.6961 83.9773 18.6967 84.7812 18.9117C85.5851 19.1268 86.3166 19.5485 86.9009 20.1338C87.4852 20.719 87.9013 21.4468 88.1066 22.2427C88.3792 23.3117 88.1924 24.58 87.3347 25.2896C86.3423 26.117 84.8691 25.9328 83.5949 25.6762C82.3207 25.4195 80.8689 25.1719 79.8183 25.9087C79.1781 26.3556 78.8106 27.0773 78.4185 27.7477C78.0265 28.4181 77.5333 29.1006 76.7921 29.3512C76.0509 29.6019 75.0463 29.17 75.0156 28.397" fill="#465159"/>
<path d="M78.2628 24.1117C77.9447 24.1457 77.6512 24.2961 77.4402 24.5332C77.2292 24.7703 77.1161 25.0768 77.1234 25.3921L77.886 42.3844C77.9167 44.3895 80.8938 45.5189 83.0746 45.4676C85.2738 45.4193 85.3473 44.3533 85.3718 42.4478C85.4178 39.2559 85.4147 38.0601 85.4178 38.0782C85.4208 38.0963 88.1959 37.6162 88.7656 34.0377C89.0474 32.2561 88.9493 29.339 88.7931 26.9533C88.6522 24.8093 87.2035 22.1791 85.0349 22.4086L78.2628 24.1117Z" fill="#EABDA4"/>
<path d="M87.641 29.0005C87.6427 29.1199 87.5968 29.2352 87.5131 29.3216C87.4295 29.408 87.3149 29.4586 87.1938 29.4626C87.1347 29.4675 87.0752 29.4607 87.0189 29.4426C86.9625 29.4245 86.9103 29.3955 86.8655 29.3572C86.8207 29.3189 86.7841 29.2722 86.7579 29.2198C86.7317 29.1673 86.7164 29.1102 86.7129 29.0519C86.7113 28.9306 86.7584 28.8137 86.8439 28.7266C86.9294 28.6394 87.0464 28.5892 87.1693 28.5868C87.2279 28.5831 87.2866 28.591 87.3422 28.6098C87.3977 28.6287 87.4488 28.6582 87.4927 28.6967C87.5366 28.7351 87.5722 28.7818 87.5977 28.834C87.6232 28.8861 87.6379 28.9427 87.641 29.0005Z" fill="#465159"/>
<path d="M88.158 28.4754C88.0998 28.5327 87.7445 28.2761 87.2391 28.2791C86.7337 28.2821 86.3723 28.5297 86.3202 28.4693C86.2681 28.4089 86.3508 28.3334 86.5132 28.2187C86.7285 28.0699 86.9853 27.9907 87.2483 27.9922C87.5086 27.9919 87.7625 28.0722 87.9742 28.2217C88.1335 28.3395 88.1855 28.4482 88.158 28.4754Z" fill="#465159"/>
<path d="M82.7816 29.0012C82.7833 29.1206 82.7374 29.2359 82.6538 29.3223C82.5701 29.4087 82.4555 29.4593 82.3344 29.4632C82.2753 29.4682 82.2159 29.4614 82.1595 29.4433C82.1031 29.4252 82.0509 29.3962 82.0061 29.3579C81.9613 29.3196 81.9247 29.2729 81.8985 29.2204C81.8723 29.168 81.857 29.1109 81.8536 29.0525C81.8519 28.9328 81.8977 28.8172 81.9812 28.7303C82.0648 28.6435 82.1794 28.5922 82.3007 28.5875C82.3601 28.5826 82.4198 28.5894 82.4764 28.6077C82.533 28.626 82.5852 28.6553 82.6301 28.6939C82.675 28.7325 82.7115 28.7796 82.7375 28.8324C82.7635 28.8852 82.7786 28.9426 82.7816 29.0012Z" fill="#465159"/>
<path d="M83.231 28.5779C83.1728 28.6353 82.8206 28.3816 82.3121 28.3816C81.8037 28.3816 81.4423 28.6323 81.3933 28.5719C81.3443 28.5115 81.4239 28.439 81.5832 28.3212C81.7996 28.1727 82.0577 28.0946 82.3213 28.0977C82.5816 28.0953 82.8358 28.1746 83.0472 28.3242C83.2065 28.442 83.2586 28.5507 83.231 28.5779Z" fill="#465159"/>
<path d="M85.0573 32.2353C85.3219 32.1541 85.5954 32.1044 85.872 32.0873C86.0006 32.0873 86.1201 32.0511 86.1415 31.9635C86.1519 31.833 86.122 31.7025 86.0558 31.5891C85.9333 31.2871 85.8077 30.967 85.676 30.6318C85.1461 29.2639 84.7571 28.1435 84.8214 28.1224C84.8857 28.1012 85.3513 29.1914 85.8781 30.5563C86.0037 30.8945 86.1262 31.2146 86.2426 31.5226C86.3234 31.6748 86.3473 31.8501 86.31 32.0179C86.2923 32.063 86.2639 32.1033 86.2271 32.1354C86.1903 32.1675 86.1463 32.1903 86.0987 32.2021C86.0288 32.2212 85.9567 32.2314 85.8843 32.2323C85.6097 32.2665 85.332 32.2675 85.0573 32.2353Z" fill="#465159"/>
<path d="M85.4186 38.0789C83.7095 38.1079 82.0258 37.6688 80.5547 36.8105C80.5945 36.8105 81.8932 39.2988 85.3696 38.9244L85.4186 38.0789Z" fill="#B18181"/>
<path d="M84.8478 33.4249C84.7514 33.3081 84.627 33.2169 84.4858 33.1594C84.3446 33.1019 84.1911 33.08 84.0392 33.0958C83.9287 33.1064 83.8214 33.1386 83.7236 33.1905C83.6259 33.2423 83.5395 33.3128 83.4695 33.3977C83.3988 33.4814 83.3572 33.5851 83.3505 33.6938C83.3439 33.8024 83.3727 33.9103 83.4327 34.0017C83.5137 34.0893 83.619 34.1515 83.7356 34.1804C83.8521 34.2094 83.9748 34.204 84.0882 34.1648C84.3227 34.0762 84.5371 33.9428 84.7192 33.7722C84.7752 33.7321 84.823 33.6819 84.8601 33.6242C84.8786 33.5976 84.8886 33.566 84.8886 33.5336C84.8886 33.5013 84.8786 33.4697 84.8601 33.443" fill="#FD8E29"/>
<path d="M83.5841 32.5791C83.6668 32.5791 83.6698 33.1106 84.1354 33.4851C84.601 33.8595 85.1799 33.7871 85.1829 33.8777C85.186 33.9682 85.0543 33.9833 84.8123 33.9894C84.4932 33.9944 84.1827 33.8874 83.9363 33.6874C83.6988 33.4972 83.546 33.2231 83.5106 32.9234C83.4952 32.7211 83.5473 32.5761 83.5841 32.5791Z" fill="#465159"/>
<path d="M83.4542 27.7113C83.4052 27.8472 82.9059 27.7838 82.3178 27.8533C81.7298 27.9227 81.255 28.0858 81.1784 27.965C81.1417 27.9076 81.2244 27.7808 81.4173 27.663C81.6718 27.5017 81.9606 27.4003 82.2613 27.3668C82.5619 27.3333 82.8664 27.3685 83.151 27.4697C83.3684 27.5422 83.4756 27.6479 83.4542 27.7113Z" fill="#465159"/>
<path d="M87.9665 27.0442C87.8807 27.159 87.5346 27.0442 87.1211 27.0442C86.7076 27.0442 86.3523 27.1197 86.2727 27.005C86.2359 26.9476 86.2911 26.8328 86.4442 26.7271C86.6501 26.5992 86.89 26.5345 87.1333 26.5415C87.3766 26.5485 87.6123 26.6268 87.8103 26.7664C87.9573 26.8751 88.0063 26.9838 87.9665 27.0442Z" fill="#465159"/>
<path d="M76.7298 36.0822C77.7284 36.2815 77.8172 35.7802 78.5676 35.0977C78.9373 34.7525 79.2206 34.3273 79.395 33.8556C79.5693 33.3839 79.63 32.8787 79.5722 32.3799C79.4589 31.5012 78.978 30.6073 79.2874 29.7739C79.6948 28.6747 81.2599 28.3364 81.6734 27.2403C81.9154 26.6001 81.6979 25.8542 81.9797 25.2291C82.2615 24.604 82.8649 24.305 83.4744 24.0876C84.0839 23.8702 84.7394 23.7192 85.254 23.3266C85.7685 22.9341 86.084 22.1912 85.7532 21.6416C83.0428 21.9618 80.3807 22.5995 77.8233 23.541C77.2322 23.7585 76.5981 24.0212 76.2612 24.5406C75.9243 25.06 75.9059 25.7998 75.9396 26.4581C76.0907 29.6792 76.2418 32.8923 76.3929 36.0973" fill="#465159"/>
<path d="M74.4433 28.7955C74.3863 28.2001 74.1336 27.6395 73.7238 27.1987C73.3139 26.7579 72.7693 26.4611 72.1727 26.3535C71.5761 26.2458 70.9602 26.3331 70.4185 26.6022C69.8769 26.8713 69.4392 27.3074 69.172 27.8442C68.6697 28.8559 68.8443 30.0849 69.3159 31.1116C69.8734 32.3195 71.0189 33.4429 72.3789 33.3825C73.6561 33.3251 74.6822 32.2229 75.0497 31.015C75.4173 29.8071 75.2703 28.5176 75.1171 27.2675" fill="#465159"/>
<path d="M73.7328 33.6838C73.656 33.6276 73.5914 33.5567 73.5429 33.4754C73.4004 33.2595 73.3083 33.015 73.2733 32.7597C73.2199 32.3831 73.2312 32.0002 73.307 31.6273C73.3805 31.2076 73.5245 30.7667 73.6133 30.2986C73.7294 29.8664 73.7564 29.4156 73.693 28.9729C73.6195 28.5743 73.4265 28.2361 73.3438 27.922C73.2623 27.6747 73.2549 27.4094 73.3223 27.158C73.3805 26.9799 73.4571 26.9074 73.4632 26.9134C73.4694 26.9195 73.4173 27.004 73.3836 27.1731C73.3435 27.4134 73.3668 27.6599 73.451 27.8888C73.6006 28.2333 73.7295 28.5862 73.8369 28.9457C73.9129 29.4073 73.89 29.8795 73.7695 30.3318C73.6623 30.8089 73.5153 31.2378 73.4357 31.6545C73.3566 32.0123 73.3339 32.38 73.3683 32.7446C73.4199 33.0799 73.5442 33.4002 73.7328 33.6838Z" fill="#728897"/>
<path d="M73.6935 29.3998C73.55 29.6172 73.3597 29.8008 73.136 29.9373C72.6132 30.3006 71.9916 30.5006 71.3521 30.5113C70.7125 30.5221 70.0845 30.3432 69.5493 29.9977C69.3224 29.8689 69.1269 29.6927 68.9766 29.4813C68.9949 29.4602 69.2032 29.6716 69.6106 29.9041C70.1378 30.2091 70.7401 30.3649 71.3513 30.3542C71.9625 30.3436 72.5588 30.1669 73.0748 29.8437C73.4607 29.587 73.6628 29.3666 73.6935 29.3998Z" fill="#728897"/>
<path d="M73.4996 29.9458C73.4363 30.1512 73.3322 30.3421 73.1934 30.5075C72.8824 30.9274 72.4895 31.2819 72.0377 31.55C71.5859 31.8181 71.0842 31.9944 70.5623 32.0687C70.3491 32.1116 70.1292 32.1116 69.916 32.0687C70.123 32.0192 70.3326 31.9808 70.5439 31.954C71.042 31.8516 71.5193 31.6679 71.9559 31.4104C72.3905 31.1508 72.7786 30.8223 73.1045 30.438C73.3526 30.1451 73.4782 29.9337 73.4996 29.9458Z" fill="#728897"/>
<path d="M74.4157 34.881C74.4157 34.881 74.4004 34.881 74.3759 34.8387C74.3385 34.793 74.3047 34.7446 74.2748 34.6938C74.1579 34.5012 74.077 34.2895 74.0359 34.0687C73.9675 33.717 73.9875 33.3541 74.0941 33.0118C74.2317 32.551 74.5314 32.1537 74.9395 31.8914C75.3683 31.5894 75.9288 31.3841 76.2872 30.907C76.3768 30.7879 76.4405 30.6519 76.4742 30.5074C76.508 30.363 76.511 30.2132 76.4832 30.0675C76.4139 29.7488 76.3112 29.4382 76.1769 29.1404C76.0345 28.8002 75.9651 28.4346 75.973 28.0667C75.9809 27.6987 76.066 27.3363 76.2229 27.0024C76.3873 26.6438 76.6413 26.3321 76.961 26.0965C77.2941 25.8675 77.6733 25.712 78.0729 25.6405C78.4649 25.5529 78.857 25.5016 79.2215 25.3929C79.5776 25.2983 79.9047 25.1189 80.174 24.8704C80.4171 24.6128 80.5649 24.282 80.5937 23.9313C80.6264 23.5817 80.6827 23.2347 80.7621 22.8925C80.9231 22.2491 81.2625 21.6625 81.7423 21.1984C82.1634 20.7996 82.6975 20.5363 83.2737 20.4434C83.6919 20.3734 84.1217 20.4213 84.5135 20.5816C84.9053 20.7419 85.2432 21.008 85.4882 21.3494C85.6184 21.5322 85.7139 21.7369 85.77 21.9533C85.7926 22.0279 85.805 22.1051 85.8068 22.1828C85.7375 21.8948 85.6116 21.6229 85.4362 21.3826C85.2263 21.1061 84.9522 20.8834 84.6367 20.7333C84.2175 20.5365 83.7461 20.4742 83.289 20.5552C82.7357 20.649 82.2242 20.9059 81.8219 21.292C81.3703 21.745 81.0526 22.3109 80.903 22.9287C80.8252 23.2701 80.7699 23.6161 80.7376 23.9645C80.7046 24.347 80.5441 24.708 80.2813 24.9912C79.99 25.2581 79.6365 25.45 79.2521 25.5499C78.8723 25.6646 78.4772 25.716 78.0943 25.8035C77.7158 25.8712 77.3559 26.0163 77.0376 26.2293C76.74 26.4489 76.503 26.7386 76.3485 27.0719C76.2001 27.3873 76.1192 27.7294 76.1108 28.0769C76.1024 28.4245 76.1666 28.7701 76.2994 29.0921C76.4362 29.3994 76.5389 29.7203 76.6057 30.0494C76.6355 30.2129 76.6307 30.3806 76.5917 30.5422C76.5527 30.7038 76.4803 30.8557 76.3791 30.9885C75.9809 31.5019 75.4051 31.7012 74.9885 31.9881C74.5958 32.2319 74.3038 32.6055 74.1646 33.042C74.0543 33.3697 74.0259 33.7188 74.0819 34.0596C74.1393 34.3518 74.2526 34.6306 74.4157 34.881Z" fill="#728897"/>
<path d="M74.6574 24.891C74.6303 24.8395 74.6147 24.7829 74.6115 24.725C74.599 24.558 74.642 24.3916 74.734 24.2508C74.877 24.0234 75.0924 23.8492 75.3466 23.7556C75.6839 23.6497 76.0444 23.6382 76.388 23.7224C76.7678 23.7949 77.1629 23.9428 77.5948 24.0244C77.8158 24.0852 78.0474 24.0986 78.2741 24.0637C78.5007 24.0288 78.7172 23.9464 78.9088 23.822C79.2947 23.5201 79.4877 23.0309 79.6837 22.5356C79.8829 22.0038 80.1661 21.5065 80.523 21.062C81.2172 20.1905 82.1878 19.5738 83.2796 19.3105C83.7576 19.1992 84.2567 19.2117 84.7284 19.3467C85.1368 19.4751 85.5 19.7148 85.7759 20.0383C86.0087 20.3041 86.1492 20.6363 86.1771 20.9865C86.2022 21.2479 86.1612 21.5115 86.0577 21.7535C85.9959 21.9063 85.9031 22.045 85.7851 22.1612C85.7472 22.2052 85.7016 22.242 85.6503 22.2699C85.7998 22.1139 85.9183 21.9315 85.9995 21.7324C86.0877 21.4971 86.1181 21.2446 86.0883 20.9955C86.0542 20.6664 85.9148 20.3565 85.6901 20.1107C85.4179 19.8133 85.0667 19.5968 84.6763 19.4856C84.2248 19.3649 83.7499 19.3577 83.2949 19.4645C82.2442 19.7312 81.3119 20.3319 80.6424 21.1737C80.2937 21.6 80.0156 22.078 79.8185 22.59C79.6163 23.0852 79.4172 23.6137 78.9854 23.9368C78.777 24.0908 78.5283 24.183 78.2686 24.2025C78.0307 24.2204 77.7913 24.2041 77.558 24.1542C77.1109 24.0606 76.7219 23.9066 76.3543 23.8311C76.0306 23.7427 75.6887 23.7427 75.365 23.8311C75.1267 23.9133 74.9216 24.069 74.78 24.275C74.6879 24.4041 74.6387 24.5581 74.6391 24.7159C74.6452 24.8337 74.6666 24.888 74.6574 24.891Z" fill="#728897"/>
</g>
</svg>
