<svg width="136" height="100" viewBox="0 0 136 100" fill="none" xmlns="http://www.w3.org/2000/svg">
<mask id="mask0_1634_240304" style="mask-type:alpha" maskUnits="userSpaceOnUse" x="0" y="0" width="136" height="100">
<path d="M0 16C0 7.16345 7.16344 0 16 0H136V100H16C7.16344 100 0 92.8366 0 84V16Z" fill="#D9D9D9"/>
</mask>
<g mask="url(#mask0_1634_240304)">
<path d="M0 16C0 7.16345 7.16344 0 16 0H136V100H16C7.16344 100 0 92.8366 0 84V16Z" fill="#E6F6EB"/>
<g opacity="0.5">
<path d="M93.7675 50.2605H93.7637L93.7789 50.2681L93.7675 50.2605Z" fill="#C2E9CD"/>
<path d="M93.7266 50.2472L93.7577 50.2588L93.7421 50.2394L93.7266 50.2472Z" fill="#C2E9CD"/>
<path d="M93.6982 50.212L93.6699 50.2322L93.7224 50.2484L93.6982 50.212Z" fill="#C2E9CD"/>
<path d="M93.6543 50.1901L93.666 50.1862L93.6543 50.1823V50.1901Z" fill="#C2E9CD"/>
<path d="M93.6699 50.1189L93.666 50.1228L93.6738 50.1306L93.6699 50.1189Z" fill="#C2E9CD"/>
<path d="M93.7676 50.2269L93.7559 50.2308L93.7637 50.2387L93.7676 50.2269Z" fill="#C2E9CD"/>
<path d="M93.6274 50.198L93.6314 50.1657L93.4941 50.0729L93.6031 50.2021L93.6274 50.198Z" fill="#C2E9CD"/>
<path d="M93.6407 50.171L93.6289 50.1985L93.6525 50.1907L93.6407 50.171Z" fill="#C2E9CD"/>
<path d="M93.757 50.212H93.7383L93.7458 50.2233L93.757 50.212Z" fill="#C2E9CD"/>
<path d="M93.7344 50.2346L93.7266 50.2307V50.2425L93.7344 50.2346Z" fill="#C2E9CD"/>
<path d="M109.258 -40.812L101.42 4.91275L101.607 4.94526L93.8496 49.7436L113.76 8.87044L113.849 8.91514L133.788 -32.1246C126.031 -36.092 117.783 -39.0133 109.258 -40.812Z" fill="#C2E9CD"/>
<path d="M171.824 2.62606C167.179 -4.72067 161.576 -11.4163 155.164 -17.2843L124.608 16.2545L124.689 16.3276L93.8281 50.1428L171.824 2.62606Z" fill="#C2E9CD"/>
<path d="M55.8119 24.425L93.4019 50.024L93.2394 49.9712L93.601 50.215H93.6254H93.6579L93.6863 50.1947L93.7107 50.2312H93.6579L93.6782 50.2637H93.7066H93.7554H93.7757H93.7432L93.8895 50.3938L93.7798 50.2597L131.593 75.9928C131.573 76.0213 131.557 76.0497 131.536 76.0741L173.478 104.688C177.116 98.5139 180.067 91.96 182.279 85.1435C182.909 83.1971 183.466 81.2467 183.97 79.2963L137.355 64.2254L137.331 64.2985L93.796 50.2719V50.2516V50.215H94.0073L93.8164 50.2678H94.2227L94.0358 50.2069L187.001 52.5108C186.775 43.636 185.34 34.8336 182.734 26.3469L94.0195 50.2109L93.8732 50.1622L93.9586 50.1093L93.8204 50.1459L93.9383 49.9265L93.8001 50.0768V50.1378L93.7351 50.1581V50.1134H93.6985L93.7229 50.0565V49.8859L93.6863 50.089V50.1093L93.6172 50.02L93.6457 50.089L93.4994 50.0403L32.273 -24.7292C24.6305 -19.2888 17.8113 -12.7762 12.0254 -5.39181L55.8119 24.425ZM93.6335 50.2231V50.2556H93.6091L93.4994 50.1256L93.6335 50.2231Z" fill="#C2E9CD"/>
<path d="M75.7705 7.95255L93.6492 50.0488L88.3669 4.60435L82.8489 -42.7295C73.8753 -42.1477 65.0247 -40.3319 56.5469 -37.3334L75.7705 7.95255Z" fill="#C2E9CD"/>
<path d="M122.751 85.7409L122.715 85.7734L93.8164 50.463L111.663 92.5023L111.573 92.5389L132.772 142.644C141.265 138.416 149.099 132.978 156.03 126.5L122.751 85.7409Z" fill="#C2E9CD"/>
<path d="M93.7227 50.3491L93.7148 50.3413L93.7187 50.353L93.7227 50.3491Z" fill="#C2E9CD"/>
<path d="M93.6454 50.236L93.6374 50.2441L93.6212 50.2279L93.6172 50.2643L93.6212 50.2602V50.2643H93.6495L93.6414 50.2481L93.6535 50.24L93.6616 50.2441V50.236L93.6697 50.232L93.6253 50.2158L93.6454 50.236Z" fill="#C2E9CD"/>
<path d="M93.5972 50.2608L93.6175 50.2202L93.6094 50.212L93.4062 50.2567L93.5972 50.2608Z" fill="#C2E9CD"/>
<path d="M93.4514 50.3612L49.4089 62.2099C49.4089 62.1571 49.3804 62.1043 49.3642 62.0474L-6.33203 76.9598C-4.10054 86.6051 -0.426566 95.8586 4.56585 104.408L62.0052 69.5117L93.4514 50.3612Z" fill="#C2E9CD"/>
<path d="M47.8679 49.0698L93.5927 50.2075L-2.09492 19.3749C-2.79788 21.179 -3.4602 23.0116 -4.06158 24.8807C-6.44534 32.2624 -7.94569 39.9005 -8.53125 47.6354L47.8882 49.0941L47.8679 49.0698Z" fill="#C2E9CD"/>
<path d="M93.4674 50.5327L23.2285 127.488C30.6018 134.192 38.9615 139.723 48.0149 143.888L93.4674 50.5327Z" fill="#C2E9CD"/>
<path d="M93.7533 50.2792L93.7383 50.2829L93.7458 50.2979L93.7533 50.2792Z" fill="#C2E9CD"/>
<path d="M93.6993 50.5973L76.166 152.083C85.8877 153.393 95.7517 153.221 105.422 151.575L93.6993 50.5973Z" fill="#C2E9CD"/>
<path d="M93.5961 50.3902L93.5352 50.7315L93.6814 50.4309L93.6692 50.309L93.5961 50.3902Z" fill="#C2E9CD"/>
<path d="M93.7335 50.2878H93.7266L93.7335 50.2948V50.2878Z" fill="#C2E9CD"/>
<path d="M5.23084 9.89563L5.58841 10.5539L6.25073 10.9115L5.58841 11.2731L5.23084 11.9314L4.8692 11.2731L4.21094 10.9115L4.8692 10.5539L5.23084 9.89563Z" fill="#C2E9CD"/>
<path d="M113.506 13.7635L114.185 15.011L115.432 15.6936L114.185 16.3763L113.506 17.6197L112.824 16.3763L111.576 15.6936L112.824 15.011L113.506 13.7635Z" fill="#49C472"/>
<path d="M136.752 62.9736L137.435 64.217L138.678 64.8997L137.435 65.5823L136.752 66.8297L136.07 65.5823L134.822 64.8997L136.07 64.217L136.752 62.9736Z" fill="#49C472"/>
<path d="M23.1539 61.8191L23.6131 62.6643L24.4583 63.1234L23.6131 63.5866L23.1539 64.4318L22.6907 63.5866L21.8496 63.1234L22.6907 62.6643L23.1539 61.8191Z" fill="#49C472"/>
<path d="M135.81 14.1252L136.273 14.9704L137.119 15.4296L136.273 15.8928L135.81 16.7339L135.351 15.8928L134.506 15.4296L135.351 14.9704L135.81 14.1252Z" fill="#49C472"/>
<path d="M48.9283 32.1553L49.1639 32.5901L49.5987 32.8298L49.1639 33.0655L48.9283 33.5002L48.6926 33.0655L48.2578 32.8298L48.6926 32.5901L48.9283 32.1553Z" fill="#49C472"/>
</g>
<path d="M88.7324 36.8418C88.7324 36.8418 90.5727 19.9031 94.534 18.0211C98.4953 16.139 103.998 14.8962 105.498 17.4236C107.35 20.6374 108.592 24.1662 109.16 27.8318C109.758 31.8827 109.423 38.0786 109.423 38.0786L104.9 37.5768C104.9 37.5768 105.115 20.6918 103.741 18.2003C102.367 15.7088 95.4063 17.7104 94.6475 20.7217C93.8887 23.733 92.2217 37.2183 92.2217 37.2183L88.7324 36.8418Z" fill="#0BA1D7"/>
<path d="M73.0013 60.7231C73.2104 53.7385 73.8677 38.3354 74.1664 31.5659C74.205 30.6772 74.5862 29.838 75.2301 29.2242C75.8739 28.6104 76.7304 28.2698 77.6199 28.2737L119.163 28.5067C120.055 28.511 120.911 28.8617 121.55 29.4848C122.189 30.1079 122.56 30.9547 122.587 31.8467L123.411 60.526C123.424 60.9844 123.345 61.4407 123.179 61.8682C123.013 62.2956 122.763 62.6856 122.444 63.0151C122.125 63.3446 121.743 63.6071 121.321 63.787C120.9 63.967 120.446 64.0608 119.988 64.063L76.4548 64.2602C75.9937 64.262 75.5369 64.1711 75.1116 63.9929C74.6863 63.8147 74.3012 63.5529 73.9791 63.223C73.6569 62.893 73.4044 62.5017 73.2364 62.0723C73.0685 61.6428 72.9885 61.184 73.0013 60.7231Z" fill="#0BA1D7"/>
<path d="M95.2211 38.9312L81.3535 38.3516L81.4133 31.1101L95.2868 31.2296L95.2211 38.9312Z" fill="#F5F5F5"/>
<path d="M93.7582 33.632C92.037 33.7349 90.3112 33.7349 88.59 33.632C86.8648 33.6354 85.141 33.5357 83.4277 33.3333C85.149 33.232 86.8747 33.232 88.596 33.3333C90.3212 33.3276 92.0452 33.4273 93.7582 33.632Z" fill="#263238"/>
<path d="M93.8189 35.5116C92.0958 35.6164 90.3678 35.6164 88.6447 35.5116C86.9193 35.5147 85.1954 35.413 83.4824 35.2069C85.2056 35.1041 86.9334 35.1041 88.6566 35.2069C90.3819 35.2057 92.1057 35.3075 93.8189 35.5116Z" fill="#263238"/>
<path d="M93.8735 37.3891C92.1523 37.492 90.4264 37.492 88.7052 37.3891C86.98 37.3928 85.2562 37.2931 83.543 37.0903C85.2642 36.9891 86.9899 36.9891 88.7112 37.0903C90.4364 37.0849 92.1604 37.1847 93.8735 37.3891Z" fill="#263238"/>
<path d="M113.296 39.0609C109.323 39.2043 104.459 39.0609 99.2969 38.9295L99.4223 31.1084L113.296 31.2279V39.0609Z" fill="#F5F5F5"/>
<path d="M111.772 33.6337C110.049 33.7365 108.321 33.7365 106.598 33.6337C104.873 33.6368 103.149 33.5371 101.436 33.3349C103.159 33.2337 104.887 33.2337 106.61 33.3349C108.335 33.3298 110.059 33.4296 111.772 33.6337Z" fill="#263238"/>
<path d="M111.827 35.5104C110.105 35.6153 108.38 35.6153 106.658 35.5104C104.933 35.5141 103.209 35.4124 101.496 35.2057C103.217 35.1028 104.943 35.1028 106.664 35.2057C108.39 35.2042 110.113 35.306 111.827 35.5104Z" fill="#263238"/>
<path d="M111.881 37.389C110.16 37.492 108.434 37.492 106.713 37.389C104.988 37.3922 103.264 37.2924 101.551 37.0903C103.274 36.9891 105.002 36.9891 106.725 37.0903C108.448 37.0847 110.17 37.1845 111.881 37.389Z" fill="#263238"/>
<path d="M107.047 39.1317L89.7383 38.8329L89.816 29.799L107.125 29.9483L107.047 39.1317Z" fill="#E0E0E0"/>
<path d="M105.214 32.9485C105.214 33.0381 102.328 33.0261 98.7671 32.9485C95.206 32.8708 92.3262 32.6975 92.3262 32.6139C92.3262 32.5302 95.218 32.5362 98.779 32.6139C102.34 32.6915 105.22 32.8648 105.214 32.9485Z" fill="#263238"/>
<path d="M105.284 35.2951C105.284 35.3788 102.392 35.3668 98.8374 35.2951C95.2823 35.2234 92.3965 35.0442 92.3965 34.9605C92.3965 34.8769 95.2883 34.8829 98.8434 34.9605C102.398 35.0382 105.284 35.2055 105.284 35.2951Z" fill="#263238"/>
<path d="M105.356 37.6364C105.356 37.72 102.465 37.7081 98.9096 37.6364C95.3546 37.5647 92.4628 37.3854 92.4688 37.2958C92.4747 37.2062 95.3546 37.2241 98.9156 37.3257C102.477 37.4272 105.356 37.5527 105.356 37.6364Z" fill="#263238"/>
<path d="M119.7 39.0391C119.7 39.0391 119.7 39.1406 119.7 39.3438C119.7 39.5469 119.7 39.8755 119.7 40.2699C119.7 41.1004 119.7 42.3073 119.7 43.8548C119.7 46.9976 119.658 51.5205 119.629 57.107C119.629 57.4535 119.629 57.812 119.629 58.1705C119.655 58.5522 119.572 58.9336 119.39 59.2699C119.193 59.6131 118.894 59.8867 118.535 60.0526C118.168 60.2031 117.771 60.2625 117.376 60.2259H112.626H102.146H90.561H84.4367H81.3059H80.5113C80.2372 60.2393 79.9626 60.2213 79.6927 60.1721C79.283 60.0778 78.9158 59.8511 78.648 59.5271C78.3801 59.203 78.2265 58.7998 78.2109 58.3796C78.2109 58.1287 78.2109 57.9136 78.2109 57.6866C78.2109 57.2325 78.2109 56.7784 78.2109 56.3243C78.2109 55.4161 78.2528 54.5319 78.2707 53.6237C78.3065 51.8352 78.3424 50.0746 78.3782 48.3419C78.4559 44.8705 78.5276 41.5126 78.5933 38.3042V38.1548H78.7427C90.6924 38.8777 100.915 39.0749 108.163 39.1048C111.79 39.1048 114.663 39.1048 116.635 39.1048H118.906H119.503C119.567 39.098 119.631 39.098 119.694 39.1048H119.491H118.894L116.647 39.1705C114.675 39.2183 111.802 39.2661 108.175 39.2781C100.927 39.2781 90.6804 39.1466 78.7367 38.4416L78.8921 38.2982C78.8264 41.5067 78.7606 44.8705 78.6949 48.3359C78.659 50.0686 78.6232 51.8292 78.5874 53.6177C78.5874 54.5139 78.5455 55.4101 78.5276 56.3183C78.5276 56.7724 78.5276 57.2265 78.5276 57.6806C78.4643 58.1096 78.5116 58.5476 78.665 58.9532C78.7685 59.1727 78.9199 59.3661 79.1081 59.5191C79.2963 59.6722 79.5165 59.781 79.7524 59.8375C80.003 59.8796 80.2576 59.8936 80.5113 59.8793H81.2999H84.4308H90.555L102.14 59.9212L112.62 59.963H117.37C117.729 59.9999 118.092 59.9507 118.428 59.8196C118.745 59.6758 119.008 59.4353 119.18 59.1325C119.343 58.8304 119.42 58.4893 119.402 58.1466C119.402 57.7881 119.402 57.4356 119.402 57.0891C119.485 51.5265 119.551 47.0274 119.593 43.8966C119.623 42.3432 119.647 41.1243 119.658 40.3117C119.658 39.9054 119.658 39.5947 119.658 39.3677C119.658 39.1406 119.7 39.0391 119.7 39.0391Z" fill="#263238"/>
<path d="M107.77 57.4665C107.77 57.4665 108.027 57.4665 108.499 57.3709C109.179 57.2155 109.801 56.8693 110.291 56.373C110.67 55.9741 110.956 55.4973 111.13 54.9761C111.305 54.4549 111.363 53.9019 111.301 53.3558C111.301 52.0473 111.301 50.5655 111.301 48.9284C111.301 48.1039 111.301 47.2435 111.301 46.3532C111.378 45.4442 111.114 44.539 110.56 43.8139C110.265 43.4341 109.892 43.1211 109.467 42.8956C109.041 42.6701 108.573 42.5371 108.093 42.5054C107.083 42.4756 106.013 42.5054 104.932 42.4696L90.8194 42.362C89.928 42.3536 89.0683 42.6925 88.4226 43.307C87.7768 43.9216 87.3957 44.7634 87.36 45.6542V47.4466C87.36 48.6416 87.36 49.7888 87.3241 50.924C87.3241 51.4896 87.3241 52.0512 87.3241 52.6089C87.294 53.1482 87.294 53.6888 87.3241 54.2281C87.3941 54.7329 87.5758 55.2158 87.8559 55.6416C88.136 56.0675 88.5075 56.4255 88.9433 56.6897C89.3587 56.9488 89.8257 57.114 90.3116 57.1737C90.7776 57.2215 91.2855 57.1737 91.7634 57.2155L97.1408 57.2812L104.908 57.3947L107.017 57.4425H107.567H107.752C107.691 57.4506 107.628 57.4506 107.567 57.4425H107.017H104.932H97.1647H91.7873C91.2974 57.4425 90.8254 57.4426 90.2996 57.4067C89.7759 57.346 89.272 57.1706 88.8238 56.8929C88.3524 56.6089 87.9501 56.2235 87.6462 55.7646C87.3423 55.3058 87.1446 54.7849 87.0672 54.24C87.0226 53.6855 87.0106 53.1289 87.0314 52.5731C87.0314 52.0174 87.0314 51.4558 87.0314 50.8881C87.0314 49.7529 87.0314 48.5938 87.0612 47.4168V45.6243C87.0825 44.9904 87.2678 44.3728 87.599 43.8318C87.9381 43.2803 88.4138 42.8256 88.98 42.5116C89.5463 42.1976 90.1839 42.0349 90.8314 42.0394L104.938 42.1768C106.025 42.1768 107.071 42.1768 108.117 42.2246C108.634 42.2613 109.138 42.407 109.595 42.652C110.052 42.8971 110.452 43.236 110.769 43.6466C111.355 44.4191 111.632 45.3818 111.546 46.3473C111.546 47.2435 111.546 48.1039 111.51 48.9224C111.51 50.5595 111.468 52.0413 111.451 53.3498C111.451 53.6724 111.451 53.9891 111.415 54.2998C111.376 54.5939 111.304 54.8826 111.2 55.1602C111.012 55.6459 110.723 56.086 110.351 56.4507C109.84 56.9555 109.188 57.2948 108.481 57.4246C108.247 57.4714 108.008 57.4854 107.77 57.4665Z" fill="#263238"/>
<g opacity="0.3">
<path d="M79.4961 59.9615C91.8957 63.6974 105.117 63.7244 117.532 60.0392L79.4961 59.9615Z" fill="black"/>
</g>
<path d="M103.308 44.0098L97.8949 43.9625C97.268 43.9571 96.7553 44.4609 96.7499 45.0878L96.7454 45.6016C96.7399 46.2286 97.2437 46.7412 97.8706 46.7467L103.284 46.7939C103.911 46.7994 104.423 46.2956 104.429 45.6687L104.433 45.1549C104.439 44.5279 103.935 44.0153 103.308 44.0098Z" fill="#E0E0E0"/>
<path d="M48.2063 102.74C48.2063 102.74 55.6194 152.152 54.5588 154.535C53.4981 156.919 18.7534 195.108 18.7534 195.108L5.96289 186.629C5.96289 186.629 36.2883 148.422 36.0602 147.527C35.8321 146.632 24.5698 98.7659 24.5698 98.7659L48.2063 102.74Z" fill="#49C472"/>
<path d="M20.343 98.0934L19.8925 99.9239C18.5747 105.328 19.3917 111.033 22.1735 115.851L42.3258 150.818C43.7581 153.293 44.8005 155.974 45.4165 158.767L54.5404 199.14H68.5854C68.5854 199.978 64.953 165.878 63.1282 154.553C61.7596 145.999 50.3263 119.5 44.7893 106.978L48.2107 102.758L42.246 101.777L20.343 98.0934Z" fill="#49C472"/>
<path d="M29.588 47.655C28.3531 47.8224 27.0962 47.6241 25.9727 47.0848C25.4165 46.813 24.9454 46.3939 24.6106 45.8731C24.2758 45.3524 24.0902 44.7498 24.0738 44.1309C24.0738 43.4067 24.4102 42.6939 24.2905 41.9811C24.1707 41.2683 23.6404 40.6981 23.2983 40.0594C22.8917 39.244 22.7764 38.314 22.9714 37.424C23.1664 36.534 23.6601 35.7375 24.3703 35.1667C25.1173 34.5965 26.081 34.3 26.6969 33.5986C27.4382 32.7717 27.558 31.5742 28.0085 30.5592C28.343 29.8281 28.8517 29.19 29.4899 28.7009C30.1281 28.2119 30.8764 27.8866 31.6694 27.7536C32.5476 27.6168 33.46 27.7137 34.2982 27.4343C34.9906 27.1351 35.6436 26.7521 36.2427 26.2938C38.2266 25.0114 40.6346 24.5588 42.9488 25.0336C43.9627 25.2126 44.9044 25.6776 45.6631 26.3736C46.4786 27.1834 47.5278 28.0843 47.8243 29.1678C48.1722 30.4794 47.7445 32.1217 47.3966 33.4275C47.0488 34.7334 45.9939 35.9309 44.6481 36.0905" fill="#465159"/>
<path d="M29.3066 57.7429L40.0158 57.8912C40.1982 56.6595 40.586 51.8466 40.586 51.8466C40.586 51.8466 45.0738 51.5786 45.5414 47.1593C46.009 42.7399 46.2029 32.5212 46.2029 32.5212C43.7915 31.2027 41.0716 30.5525 38.3246 30.6377C35.5776 30.7229 32.9033 31.5405 30.5783 33.0059L29.8769 33.4507L29.3066 57.7429Z" fill="#FFBE9D"/>
<path d="M40.918 44.2793C41.2461 44.1873 41.5869 44.1488 41.9273 44.1652C42.087 44.1652 42.2124 44.1367 42.2352 44.0512C42.2516 43.8934 42.226 43.7341 42.1611 43.5893L41.7961 42.3063C41.4418 41.2154 41.1954 40.0923 41.0605 38.9532C41.5249 40.0024 41.8841 41.095 42.1326 42.215C42.2523 42.6598 42.3607 43.0818 42.469 43.5038C42.5475 43.7192 42.5475 43.9555 42.469 44.1709C42.4403 44.2302 42.3979 44.2817 42.3453 44.3213C42.2928 44.361 42.2316 44.3876 42.1668 44.399C42.0761 44.4127 41.9838 44.4127 41.8931 44.399C41.5636 44.4159 41.2336 44.3753 40.918 44.2793Z" fill="#263238"/>
<path d="M40.576 51.7839C38.5307 51.6314 36.5773 50.8731 34.9648 49.6056C34.9648 49.6056 36.0312 52.913 40.4791 52.9301L40.576 51.7839Z" fill="#EB996E"/>
<path d="M29.9116 38.0981C29.8204 38.0581 26.8836 37.5791 27.0604 41.0747C27.2372 44.5703 30.6985 43.2473 30.7042 43.1447C30.7099 43.042 29.9116 38.0981 29.9116 38.0981Z" fill="#FFBE9D"/>
<path d="M29.5869 41.9701C29.5869 41.9701 29.5242 42.0157 29.4272 42.067C29.2849 42.1354 29.122 42.1477 28.971 42.1012C28.7392 41.9681 28.5466 41.7762 28.4125 41.545C28.2783 41.3138 28.2074 41.0513 28.2069 40.784C28.1841 40.4832 28.2289 40.1812 28.3381 39.9001C28.3663 39.7905 28.4203 39.6893 28.4957 39.605C28.5712 39.5206 28.6657 39.4556 28.7715 39.4154C28.8409 39.3943 28.9154 39.3975 28.9828 39.4245C29.0502 39.4514 29.1064 39.5005 29.1421 39.5636C29.1934 39.6606 29.1421 39.729 29.1934 39.7347C29.2447 39.7404 29.2619 39.672 29.2276 39.5294C29.2042 39.444 29.1518 39.3695 29.0794 39.3184C29.0317 39.2831 28.977 39.2583 28.9191 39.2455C28.8611 39.2327 28.8011 39.2323 28.7429 39.2443C28.6003 39.2777 28.4688 39.348 28.3618 39.448C28.2547 39.5481 28.1758 39.6745 28.1328 39.8146C27.9974 40.1248 27.9406 40.4636 27.9674 40.8011C27.9633 41.1129 28.0522 41.4189 28.2228 41.68C28.3935 41.941 28.6381 42.1453 28.9254 42.2666C29.0232 42.2928 29.1258 42.2957 29.2248 42.2748C29.3239 42.254 29.4167 42.2102 29.4957 42.1468C29.5869 42.0556 29.5869 41.9758 29.5869 41.9701Z" fill="#EB996E"/>
<path d="M36.948 38.0123C36.8967 37.9496 36.9822 37.7842 37.2103 37.6074C37.5137 37.3922 37.8712 37.2658 38.2424 37.2425C38.6136 37.2133 38.9855 37.2905 39.3145 37.4649C39.5654 37.6074 39.668 37.7614 39.6281 37.8241C39.5426 37.9724 38.978 37.7785 38.2824 37.8241C37.5867 37.8697 37.0506 38.1434 36.948 38.0123Z" fill="#263238"/>
<path d="M43.1463 38.0463C43.112 37.8923 43.591 37.6642 44.2183 37.6699C44.8456 37.6756 45.3246 37.898 45.2961 38.0577C45.2676 38.2173 44.7886 38.263 44.2183 38.263C43.6481 38.263 43.1748 38.2116 43.1463 38.0463Z" fill="#263238"/>
<path d="M28.8008 34.5221C28.9719 35.5942 29.1391 36.6681 29.3026 37.744C29.3311 38.2564 29.5074 38.7495 29.8101 39.1639C30.3804 39.7969 31.4182 39.7341 32.1481 39.3179C33.2144 38.6963 33.8018 37.5045 34.2523 36.3526C34.7028 35.2007 35.1019 33.9861 35.963 33.1079C36.5821 33.7563 37.3901 34.1925 38.2719 34.3543C39.1536 34.5161 40.0638 34.3952 40.8728 34.0089C41.5856 33.6554 42.1786 33.0965 42.8629 32.686C43.1899 32.4547 43.5655 32.3015 43.961 32.2382C44.3564 32.175 44.7611 32.2033 45.1439 32.321C45.5487 32.4921 45.9137 32.8228 46.3471 32.8C46.5133 32.7859 46.673 32.7292 46.8109 32.6353C46.9488 32.5414 47.0601 32.4135 47.134 32.264C47.2762 31.96 47.3257 31.6208 47.2766 31.2889C47.134 30.0571 46.1361 29.0763 44.9956 28.5289C43.4046 27.7477 41.5742 27.6393 39.795 27.6336C38.108 27.5837 36.4215 27.7505 34.7769 28.1297C33.1254 28.5184 31.6233 29.3805 30.4545 30.6103C29.8787 31.2302 29.4503 31.9723 29.2015 32.781C28.9527 33.5897 28.8898 34.4441 29.0175 35.2805" fill="#465159"/>
<path d="M42.7418 30.9872C42.9752 32.1222 43.5765 33.1485 44.4526 33.9068C44.8475 34.3004 45.3729 34.5357 45.9295 34.5683C46.3765 34.515 46.7882 34.2989 47.0859 33.9612C47.3836 33.6236 47.5464 33.188 47.5433 32.7378C47.5033 31.8304 47.1129 30.9739 46.4541 30.3485C45.8915 29.6824 45.092 29.2612 44.2245 29.1738C43.7943 29.1532 43.3722 29.2956 43.0424 29.5725C42.7126 29.8495 42.4994 30.2406 42.4453 30.6679" fill="#465159"/>
<path d="M37.5703 39.6663C37.5703 39.8175 37.6304 39.9626 37.7373 40.0695C37.8443 40.1765 37.9893 40.2365 38.1406 40.2365C38.2124 40.2412 38.2843 40.2313 38.3522 40.2075C38.4201 40.1837 38.4826 40.1465 38.5358 40.0981C38.589 40.0497 38.6319 39.991 38.662 39.9257C38.692 39.8603 38.7086 39.7895 38.7108 39.7176C38.7108 39.5664 38.6507 39.4213 38.5438 39.3144C38.4368 39.2075 38.2918 39.1474 38.1406 39.1474C38.0686 39.1419 37.9962 39.1512 37.928 39.1747C37.8597 39.1982 37.797 39.2354 37.7436 39.284C37.6902 39.3325 37.6473 39.3915 37.6175 39.4573C37.5877 39.523 37.5717 39.5941 37.5703 39.6663Z" fill="#263238"/>
<path d="M36.6691 39.0501C36.7432 39.1243 37.1595 38.7992 37.764 38.7878C38.3684 38.7764 38.8132 39.0729 38.8759 38.9931C38.9386 38.9133 38.836 38.8335 38.6364 38.6966C38.3748 38.5226 38.0661 38.4331 37.752 38.4402C37.4379 38.4474 37.1335 38.5508 36.8801 38.7365C36.6976 38.8905 36.6349 39.0501 36.6691 39.0501Z" fill="#263238"/>
<path d="M43.7637 39.6493C43.7637 39.8005 43.8238 39.9456 43.9307 40.0525C44.0376 40.1595 44.1827 40.2195 44.3339 40.2195C44.4059 40.225 44.4782 40.2157 44.5465 40.1922C44.6147 40.1687 44.6775 40.1315 44.7309 40.083C44.7842 40.0344 44.8271 39.9754 44.8569 39.9097C44.8867 39.8439 44.9028 39.7728 44.9042 39.7006C44.9042 39.5494 44.8441 39.4043 44.7371 39.2974C44.6302 39.1905 44.4851 39.1304 44.3339 39.1304C44.1912 39.1298 44.0534 39.1828 43.9478 39.2789C43.8422 39.3749 43.7765 39.5071 43.7637 39.6493Z" fill="#263238"/>
<path d="M42.9659 39.1475C43.0343 39.2216 43.4563 38.8966 44.0607 38.8852C44.6652 38.8738 45.11 39.1703 45.2012 39.0962C45.2924 39.022 45.1613 38.9308 44.9617 38.7939C44.6992 38.6187 44.3889 38.529 44.0734 38.5371C43.7579 38.5453 43.4527 38.6509 43.1996 38.8396C42.9944 38.9821 42.9316 39.119 42.9659 39.1475Z" fill="#263238"/>
<path d="M40.7757 46.0697C40.7757 46.1096 40.6275 46.178 40.3537 46.1609C39.9974 46.1346 39.6638 45.9759 39.4185 45.7161C39.1706 45.4573 39.0264 45.1163 39.0137 44.7581C39.0137 44.4901 39.0878 44.3361 39.122 44.3418C39.1562 44.3475 39.122 44.9976 39.6295 45.5108C40.137 46.024 40.7814 45.9898 40.7757 46.0697Z" fill="#263238"/>
<path d="M42.794 68.9139L51.6955 65.9373C51.6955 65.9373 57.8883 80.5981 59.485 80.7635C68.318 81.5676 77.7726 78.6422 81.0857 77.4846C81.4221 77.1026 81.8099 76.6521 82.2262 76.0932C82.591 75.6155 82.8724 75.0795 83.0587 74.508C83.3136 73.8045 83.4728 73.0699 83.532 72.324C83.5134 72.1788 83.5411 72.0315 83.6111 71.903C83.6811 71.7744 83.7898 71.6712 83.9218 71.6081C84.0538 71.5449 84.2024 71.525 84.3464 71.5511C84.4904 71.5773 84.6224 71.6482 84.7238 71.7537C85.1059 72.2498 85.2028 74.143 84.3304 76.1788C83.4579 78.2145 86.5429 76.5951 87.6777 76.0248C88.8124 75.4546 92.4107 73.8579 92.8612 74.0689C93.5226 74.3768 93.3173 75.1409 92.1712 75.6827C91.025 76.2244 87.6948 78.1005 88.0255 78.6821C88.3562 79.2638 94.0929 76.2814 94.0929 76.2814C94.0929 76.2814 95.2333 75.4432 95.6211 76.1046C96.351 77.3022 90.0099 80.0222 89.4055 80.2674C88.9778 80.4385 89.3143 81.0886 89.759 80.8776C90.2038 80.6666 95.4158 77.7698 96.1686 78.9844C96.7388 79.9139 90.9794 81.2653 90.238 82.4685C89.4967 83.6717 94.5034 80.9973 95.0224 81.8983C95.2105 82.2404 95.3075 82.5199 92.2054 83.609C89.935 84.322 87.6279 84.9121 85.2941 85.3768C85.2941 85.3768 53.3606 99.667 47.6582 85.8786C41.8018 71.8963 42.794 68.9139 42.794 68.9139Z" fill="#EB996E"/>
<path d="M54.6777 70.767C51.1137 62.4244 46.4491 59.1569 43.9857 57.948C43.1226 57.5292 42.1839 57.2887 41.2257 57.2409L40.9292 55.8039L29.1252 54.7433L28.8344 56.5681L27.1236 56.4711C27.1236 56.4711 16.9505 57.4918 16.9277 69.2787C16.9277 74.7929 19.8987 80.1589 20.9479 82.7877C21.6037 88.2848 19.2372 98.2583 19.3113 100.688L48.2397 102.74L49.4257 84.6695L49.1577 82.9588L58.6808 80.0392L54.6777 70.767Z" fill="#F99D25"/>
<path d="M110.33 37.5299C107.139 33.5866 102.849 30.6757 98.0015 29.1651C93.1537 27.6544 87.966 27.6119 83.0941 29.0429C78.2221 30.4738 73.8846 33.314 70.6297 37.2045C67.3749 41.095 65.3487 45.8611 64.8075 50.9005C64.3707 54.9974 64.9308 59.139 66.4402 62.9738C67.9497 66.8086 70.3639 70.2233 73.478 72.9282L51 99.2563L54.2242 102L76.8808 75.4502C80.1341 77.4549 83.797 78.7046 87.5992 79.107C88.5224 79.2058 89.4504 79.2552 90.3789 79.2548C95.2207 79.2387 99.9595 77.8584 104.05 75.2727C108.14 72.687 111.415 69.0011 113.499 64.6394C115.582 60.2776 116.389 55.4174 115.826 50.6183C115.263 45.8191 113.353 41.2762 110.317 37.5125L110.33 37.5299ZM111.663 55.8965C111.135 60.8177 108.914 65.404 105.378 68.874C101.842 72.3441 97.2092 74.4831 92.2698 74.9268C87.3304 75.3705 82.3896 74.0913 78.2894 71.3072C74.1891 68.523 71.1829 64.4062 69.7831 59.6582C68.3833 54.9102 68.6765 49.8247 70.6126 45.2682C72.5488 40.7117 76.0081 36.9661 80.4013 34.6696C84.7944 32.373 89.8496 31.6677 94.7054 32.6737C99.5613 33.6797 103.917 36.3348 107.032 40.1866C108.806 42.3696 110.129 44.8821 110.924 47.5786C111.719 50.2752 111.97 53.1024 111.663 55.8965Z" fill="#343C41"/>
<path d="M77 66C76.9445 65.9438 76.8954 65.8793 76.8537 65.8082C76.7637 65.6744 76.6249 65.4825 76.4787 65.2193C76.0227 64.4842 75.6103 63.712 75.2447 62.9086C74.0228 60.2537 73.2804 57.3244 73.0654 54.3085C72.8503 51.2927 73.1672 48.2566 73.9958 45.3948C74.2409 44.531 74.5367 43.6888 74.8809 42.8744C74.9972 42.5799 75.106 42.3658 75.1772 42.2186C75.2062 42.1389 75.2454 42.0652 75.2935 42C75.2719 42.083 75.2443 42.1636 75.211 42.2409C75.1547 42.397 75.0572 42.6156 74.9485 42.91C74.6336 43.737 74.3581 44.5845 74.1233 45.4483C73.3386 48.2992 73.0445 51.3088 73.2584 54.2978C73.4723 57.2868 74.19 60.194 75.3685 62.8461C75.7201 63.6502 76.1108 64.4292 76.5387 65.1792C76.685 65.4513 76.8125 65.6253 76.8912 65.7903C76.9333 65.8557 76.9698 65.9259 77 66Z" fill="#263238"/>
<path d="M77.9961 39.0137C78.0352 39.0953 77.7745 39.4759 77.5137 40.0128C77.253 40.5497 77.0792 41.0323 77.0184 40.9983C76.9575 40.9643 77.0444 40.373 77.3312 39.7953C77.618 39.2176 77.9657 38.9321 77.9961 39.0137Z" fill="#263238"/>
<path d="M46.7852 64.4657C46.8769 64.7214 46.9456 64.9847 46.9904 65.2526C47.1045 65.7601 47.2527 66.5014 47.4295 67.4252C47.7717 69.2614 48.1879 71.8161 48.57 74.6502C48.9521 77.4843 49.1402 80.0618 49.2486 81.9265C49.3056 82.8617 49.3398 83.6372 49.3512 84.139C49.3783 84.4101 49.3783 84.6833 49.3512 84.9544C49.293 84.69 49.2586 84.4209 49.2486 84.1504C49.1973 83.5802 49.1288 82.8331 49.049 81.9436C48.8836 80.0846 48.6327 77.5128 48.2849 74.6844C47.937 71.856 47.5493 69.307 47.2585 67.4595C47.1216 66.5813 47.0075 65.8457 46.9163 65.2697C46.8439 65.0072 46.8 64.7376 46.7852 64.4657Z" fill="#263238"/>
<path d="M62.5189 92.4762C62.5189 92.4762 30.5854 106.795 24.883 93.0065C19.0324 78.9615 20.0246 75.9791 20.0246 75.9791L28.926 73.0024C28.926 73.0024 35.1246 87.6633 36.7155 87.8287C45.5543 88.6384 55.0088 85.7074 58.3219 84.5498C58.6584 84.1735 59.0404 83.7173 59.4624 83.1641C59.8844 82.611 60.2151 82.0237 60.6029 81.5275C61.4469 80.4726 62.114 80.2958 62.4847 79.8796C63.3629 78.8816 64.1954 79.6115 63.7848 80.1476C63.3743 80.6836 62.4562 81.231 61.5837 83.2725C60.7113 85.3139 63.8191 84.3046 65.0508 83.9853C66.408 83.626 68.9569 82.6338 68.9569 82.6338C69.0196 83.2326 68.3411 84.4358 67.1949 84.9775C66.5739 85.2798 65.936 85.5464 65.2846 85.7758C65.2846 85.7758 67.6397 85.485 67.7024 86.0267C67.7651 86.5685 67.0067 90.5373 64.4976 91.7292L62.5189 92.4762Z" fill="#FFBE9D"/>
<path d="M26.833 60.229L32.5696 77.5472L20.0244 82.5083C20.0244 82.5083 13.478 65.498 21.7693 61.3353L26.833 60.229Z" fill="#F99D25"/>
<path d="M33.4023 76.8742C33.4023 76.8742 33.3339 76.8286 33.2313 76.7146C33.0891 76.5361 32.9631 76.3452 32.8549 76.1443C32.5058 75.4035 32.203 74.6417 31.9482 73.8634C31.2468 71.9246 30.2945 69.233 29.2624 66.2621L27.8197 62.0651C27.3749 60.7764 27.027 59.5788 26.3713 58.809C26.127 58.4964 25.8158 58.2425 25.4606 58.0659C25.1054 57.8892 24.7151 57.7944 24.3184 57.7883C24.0255 57.8074 23.7381 57.8768 23.4688 57.9936C23.4688 57.9936 23.5258 57.9308 23.6626 57.8567C23.8641 57.7509 24.0856 57.6887 24.3127 57.6742C24.7348 57.6552 25.1554 57.7356 25.5407 57.909C25.926 58.0823 26.2652 58.3437 26.5309 58.6722C27.2494 59.4762 27.6201 60.7022 28.0763 61.9739C28.5325 63.2455 29.0229 64.6768 29.5418 66.1651C30.5796 69.1361 31.4977 71.8675 32.1478 73.7949C32.4786 74.7758 32.7181 75.5798 32.9576 76.0759C33.1971 76.572 33.4251 76.8571 33.4023 76.8742Z" fill="#263238"/>
<path d="M33.1343 77.1997C32.9901 77.3187 32.831 77.4184 32.661 77.4962C32.3473 77.673 31.8855 77.9125 31.3095 78.1976C30.169 78.7679 28.5438 79.5092 26.7476 80.2448C24.9513 80.9804 23.2463 81.5678 22.0203 81.9555C21.4101 82.1494 20.8798 82.2977 20.5605 82.3889C20.3768 82.4549 20.1849 82.4952 19.9902 82.5087C20.6187 82.2157 21.2665 81.9661 21.9291 81.7616C23.138 81.3225 24.7803 80.7067 26.6107 79.9768C28.4412 79.2469 30.0322 78.5341 31.2183 78.0095C31.8396 77.7002 32.4795 77.4298 33.1343 77.1997Z" fill="#263238"/>
<path d="M22.0775 81.8697C21.5592 81.0928 21.2131 80.214 21.0625 79.2922C21.3623 79.6546 21.5819 80.0763 21.7069 80.5297C21.9272 80.9438 22.0537 81.4013 22.0775 81.8697Z" fill="#263238"/>
<path d="M24.7278 80.8485C24.6537 80.8884 24.3115 80.3866 24.0606 79.708C23.8624 79.297 23.7834 78.8386 23.8326 78.385C24.0657 78.7642 24.237 79.178 24.3401 79.611C24.53 80.002 24.6607 80.419 24.7278 80.8485Z" fill="#263238"/>
<path d="M27.5063 79.6454C27.1601 79.3241 26.9128 78.9107 26.7935 78.4536C26.5854 78.0274 26.5023 77.5509 26.554 77.0793C26.7848 77.4752 26.9595 77.9013 27.0729 78.3453C27.2758 78.757 27.4216 79.1944 27.5063 79.6454Z" fill="#263238"/>
<path d="M30.4763 78.4484C30.2014 78.049 30.0076 77.5995 29.9061 77.1254C29.7166 76.6799 29.6178 76.2011 29.6152 75.7169C29.8963 76.1107 30.0907 76.5597 30.1855 77.0342C30.3803 77.48 30.4793 77.9618 30.4763 78.4484Z" fill="#263238"/>
<path d="M58.9093 79.8566C57.3347 80.5222 55.7219 81.0934 54.0794 81.5673C52.4673 82.132 50.8242 82.6042 49.1582 82.9815C50.7338 82.3185 52.3465 81.7473 53.9881 81.2708C55.5997 80.7042 57.2428 80.232 58.9093 79.8566Z" fill="#263238"/>
<path d="M51.2561 81.87C51.1762 81.9042 50.9253 81.4822 50.6858 80.9348C50.4463 80.3874 50.3266 79.9141 50.4007 79.8799C50.4748 79.8457 50.7258 80.2676 50.971 80.8208C51.2162 81.3739 51.3416 81.8187 51.2561 81.87Z" fill="#263238"/>
<path d="M53.7189 81.3165C53.6447 81.3165 53.3767 80.8489 53.1942 80.176C53.0375 79.7814 52.9941 79.3508 53.0688 78.9329C53.1543 78.9329 53.3026 79.4518 53.4794 80.0733C53.639 80.4683 53.7204 80.8905 53.7189 81.3165Z" fill="#263238"/>
<path d="M56.3883 80.4722C56.0317 79.7095 55.8617 78.873 55.8922 78.0316C56.112 78.3939 56.2465 78.8015 56.2856 79.2234C56.4155 79.6262 56.4507 80.0536 56.3883 80.4722Z" fill="#263238"/>
<path d="M30.2828 56.4083C30.1973 56.4083 30.1573 56.089 30.1802 55.7012C30.203 55.3134 30.2999 55.0112 30.3797 55.0169C30.4596 55.0226 30.5052 55.342 30.4767 55.724C30.4482 56.1061 30.3626 56.414 30.2828 56.4083Z" fill="#263238"/>
<path d="M32.8829 56.5622C32.7974 56.5622 32.7233 56.2542 32.7062 55.8722C32.6891 55.4901 32.7461 55.1708 32.8259 55.1708C32.9057 55.1708 32.9856 55.473 33.0027 55.8608C33.0198 56.2485 32.9628 56.5565 32.8829 56.5622Z" fill="#263238"/>
<path d="M34.8906 56.9101C34.8108 56.9101 34.748 56.5851 34.748 56.1859C34.748 55.7867 34.8222 55.4674 34.902 55.4674C34.9818 55.4674 35.0503 55.7924 35.0446 56.1859C35.0389 56.5794 34.9761 56.9101 34.8906 56.9101Z" fill="#263238"/>
<path d="M37.6051 57.2064C37.531 57.2064 37.3656 56.8586 37.3542 56.3682C37.3428 55.8778 37.4796 55.5014 37.5538 55.5185C37.6279 55.5356 37.6336 55.9063 37.6507 56.3568C37.6678 56.8072 37.6906 57.1836 37.6051 57.2064Z" fill="#263238"/>
<path d="M39.8509 57.2068C39.7654 57.2068 39.6571 56.8475 39.6 56.3799C39.543 55.9123 39.5658 55.5246 39.6457 55.5189C39.7255 55.5132 39.8395 55.8781 39.8966 56.3457C39.9536 56.8133 39.9251 57.1954 39.8509 57.2068Z" fill="#263238"/>
</g>
</svg>
