<svg width="136" height="100" viewBox="0 0 136 100" fill="none" xmlns="http://www.w3.org/2000/svg">
<mask id="mask0_1634_240456" style="mask-type:alpha" maskUnits="userSpaceOnUse" x="0" y="0" width="136" height="100">
<path d="M0 16C0 7.16345 7.16344 0 16 0H136V100H16C7.16344 100 0 92.8366 0 84V16Z" fill="#D9D9D9"/>
</mask>
<g mask="url(#mask0_1634_240456)">
<mask id="mask1_1634_240456" style="mask-type:alpha" maskUnits="userSpaceOnUse" x="-8" y="-1" width="153" height="101">
<rect x="-7.72656" y="-0.378906" width="151.807" height="100.378" fill="#D9D9D9"/>
</mask>
<g mask="url(#mask1_1634_240456)">
<rect x="-7.72656" y="-0.378906" width="151.807" height="100.378" fill="#FFF4DE"/>
<path d="M150.181 38.823C147.619 36.0285 143.173 33.6331 137.805 33.1958C132.282 32.7472 126.866 34.4024 122.534 36.4591C118.182 38.5159 114.464 41.0322 111.555 43.8896C109.861 45.5627 108.13 47.505 104.943 48.05C101.942 48.5614 98.7877 47.6014 96.3688 46.4396C93.9499 45.2779 91.7762 43.8604 88.8596 43.1988C81.2626 41.474 72.7874 45.6098 64.8977 44.4166C58.1021 43.3894 54.8489 39.0339 50.6259 35.7481C43.651 30.3384 31.531 27.2119 20.1209 28.3468C8.71076 29.4817 0.0269272 41.2363 -1.54297 47.9491L154.748 47.9177C153.767 44.7957 152.753 41.6153 150.181 38.823Z" fill="#BFE5CF"/>
<path d="M47.5066 14.3472C47.5919 13.7144 46.7102 13.195 46.0462 13.1406C45.7293 13.1535 45.4119 13.1261 45.1018 13.0589C44.4534 12.8321 44.2044 11.9816 43.5606 11.7117C43.0872 11.5098 42.5421 11.689 42.0845 11.9226C41.6268 12.1562 41.1714 12.4511 40.6577 12.4828C40.209 12.5123 39.7267 12.3445 39.3364 12.5645C39.047 12.73 38.8877 13.068 38.6252 13.2676C38.3474 13.4442 38.0246 13.5349 37.6965 13.5284C37.3704 13.5203 37.0456 13.5734 36.7386 13.6849C36.5863 13.7449 36.4573 13.8531 36.3708 13.9933C36.2843 14.1335 36.2449 14.2982 36.2585 14.4628L47.5066 14.3472Z" fill="#F0F4F7"/>
<path d="M77.3151 20.3648C77.4003 19.732 76.5187 19.2126 75.8546 19.1581C75.5377 19.1711 75.2204 19.1437 74.9102 19.0765C74.2619 18.8497 74.0128 17.9991 73.369 17.7292C72.8957 17.5274 72.3505 17.7066 71.8929 17.9402C71.4352 18.1738 70.9798 18.4686 70.4661 18.5027C70.0174 18.5299 69.5351 18.3643 69.147 18.5843C68.8554 18.7476 68.6983 19.0856 68.4359 19.2874C68.1561 19.4608 67.8329 19.549 67.5049 19.5414C67.1786 19.533 66.8536 19.5868 66.547 19.7002C66.3951 19.7601 66.2664 19.868 66.1799 20.0077C66.0934 20.1474 66.0538 20.3116 66.0669 20.4759L77.3151 20.3648Z" fill="#F0F4F7"/>
<path d="M126.191 19.9921C126.346 18.858 124.757 17.9168 123.562 17.8192C122.992 17.7739 122.402 17.8623 121.861 17.6718C120.692 17.259 120.226 15.7326 119.084 15.2449C118.231 14.8821 117.251 15.2064 116.423 15.626C115.595 16.0456 114.779 16.5763 113.857 16.6376C113.054 16.6875 112.181 16.3881 111.477 16.785C110.954 17.0798 110.68 17.6922 110.196 18.0506C109.711 18.4089 109.108 18.477 108.522 18.5042C107.937 18.5314 107.329 18.5428 106.795 18.79C106.261 19.0372 105.821 19.6065 105.931 20.1894L126.191 19.9921Z" fill="white"/>
<path d="M80.0764 8.7018C80.2715 7.26156 78.2637 6.07762 76.7517 5.95514C76.0316 5.89617 75.2846 6.00731 74.6026 5.76689C73.1242 5.24523 72.5342 3.31508 71.0917 2.70043C70.0127 2.24681 68.7721 2.65053 67.7267 3.18126C66.6813 3.712 65.6494 4.38335 64.4761 4.45593C63.4599 4.52171 62.3561 4.14067 61.4678 4.64418C60.7948 5.01615 60.4583 5.77823 59.8481 6.23185C59.2379 6.68547 58.4729 6.77165 57.7304 6.81248C56.9878 6.8533 56.2228 6.86011 55.5476 7.17311C54.8723 7.4861 54.316 8.20736 54.4551 8.94449L80.0764 8.7018Z" fill="white"/>
<path d="M-1.22461 74.4L-0.142309 67.7839L61.6067 70.4762C62.9454 70.5351 64.2678 70.2538 65.3079 69.6891C66.3479 69.1243 67.0284 68.318 67.2122 67.4324L71.2385 48.0039H85.2369L91.2917 67.8747C91.5431 68.7017 92.2303 69.4416 93.2291 69.9603C94.2279 70.4791 95.4723 70.7425 96.7372 70.703L154.746 68.9339V75.8787L103.813 81.6624C102.622 81.7411 101.468 81.9794 100.419 82.3631C99.3696 82.7467 98.4478 83.2677 97.7086 83.8949C96.9694 84.522 96.4282 85.2422 96.1174 86.0123C95.8066 86.7823 95.7326 87.5863 95.9 88.3759L98.2824 99.6937H62.3793L63.8325 89.3308C64.1015 87.4167 63.2684 85.5061 61.502 83.9861C59.7356 82.4661 57.1681 81.4506 54.3199 81.1453L-1.22461 74.4Z" fill="#B1E2F1"/>
<path d="M130.076 99.6581C130.083 99.7009 129.704 99.7398 128.991 99.7748C128.278 99.8097 127.226 99.8408 125.871 99.868C123.161 99.9225 119.239 99.9613 114.393 99.9847C104.702 100.035 91.3134 100.031 76.5279 99.9885C61.7375 99.9186 48.3487 99.8564 38.6556 99.8097C33.8116 99.7709 29.8921 99.7398 27.1799 99.7203C25.8275 99.7048 24.775 99.6931 24.0595 99.6854C23.7054 99.6776 23.4325 99.6737 23.2481 99.6698C23.0661 99.6659 22.9727 99.6581 22.9727 99.6581C22.9727 99.6581 23.0661 99.6504 23.2481 99.6504C23.4325 99.6504 23.7054 99.6504 24.0595 99.6465C24.775 99.6465 25.8275 99.6465 27.1799 99.6465C29.8921 99.6543 33.8116 99.662 38.6556 99.6737C48.3487 99.7048 61.7375 99.7475 76.5279 99.7942C91.3134 99.8175 104.7 99.8369 114.393 99.8486C119.237 99.8253 123.156 99.8059 125.869 99.7942C127.223 99.7786 128.276 99.7592 128.989 99.7398C129.345 99.7281 129.618 99.7165 129.8 99.7048C129.982 99.6931 130.076 99.6776 130.073 99.662L130.076 99.6581Z" fill="#465159"/>
<path d="M80.9079 65.911H77.5215L78.3247 56.2217L79.795 56.2239L80.9079 65.911Z" fill="#F0F4F7"/>
<path d="M82.1264 88.2736H77.5215L78.3417 76.2754L80.8603 76.2799L82.1264 88.2736Z" fill="#F0F4F7"/>
<path d="M102.883 76.768L102.557 74.8923L120.5 73.8467L120.986 75.0919L102.883 76.768Z" fill="#F0F4F7"/>
<path d="M56.6343 75.6492L56.961 73.7734L39.0179 72.7256L38.5312 73.973L56.6343 75.6492Z" fill="#F0F4F7"/>
<path d="M16.8778 72.7263L17.1364 71.2294L-0.462871 69.7324L-0.6875 71.1001L16.8778 72.7263Z" fill="#F0F4F7"/>
<path d="M105.492 66.4181H103.562V7.2663C103.563 7.00764 103.664 6.75957 103.845 6.57667C104.026 6.39377 104.271 6.29102 104.527 6.29102C104.783 6.29161 105.028 6.39456 105.209 6.57733C105.389 6.7601 105.491 7.00782 105.492 7.2663V66.4181Z" fill="#465159"/>
<path d="M95.3809 31.1966L100.727 30.6953L113.942 37.8874L113.058 39.5454L111.392 39.5386L112.502 40.5933L111.293 42.8636L98.1626 35.7191L95.3809 31.1966Z" fill="#52BCE0"/>
<path opacity="0.3" d="M95.3809 31.1966L100.727 30.6953L113.942 37.8874L113.058 39.5454L111.392 39.5386L112.502 40.5933L111.293 42.8636L98.1626 35.7191L95.3809 31.1966Z" fill="#1B232E"/>
<path d="M95.217 30.5099L98.9903 30.156C99.415 30.1158 99.8419 30.2034 100.217 30.4078L112.856 37.2846L111.973 38.9449H110.306L111.416 39.9996L110.207 42.2676L97.586 35.3999C97.2536 35.2185 96.9737 34.9527 96.7739 34.6287L94.7885 31.3899C94.7368 31.3066 94.707 31.2114 94.7019 31.1132C94.6969 31.015 94.7168 30.9171 94.7598 30.8289C94.8027 30.7407 94.8673 30.6651 94.9473 30.6092C95.0273 30.5534 95.1202 30.5192 95.217 30.5099Z" fill="#52BCE0"/>
<g opacity="0.2">
<path d="M109.663 41.9865C109.617 41.792 109.541 41.6061 109.438 41.4353C109.122 40.9938 108.721 40.6212 108.258 40.3398C106.796 39.3046 105.235 38.4202 103.599 37.6998C102.641 37.2756 101.699 36.9445 100.851 36.6179C100.094 36.3401 99.3528 36.0183 98.6322 35.654C98.1466 35.4062 97.6841 35.1147 97.2503 34.783C97.0955 34.6673 96.9856 34.5562 96.9071 34.4995C96.8657 34.4676 96.8281 34.4311 96.7949 34.3906C96.7949 34.3906 96.9654 34.5222 97.2772 34.7444C97.7179 35.0612 98.1839 35.3404 98.6704 35.5791C99.3925 35.932 100.133 36.2447 100.889 36.5158C101.737 36.8356 102.684 37.1645 103.646 37.5909C105.29 38.3145 106.853 39.2132 108.308 40.2718C108.773 40.5625 109.171 40.9489 109.479 41.4058C109.556 41.5355 109.61 41.6774 109.64 41.8254C109.65 41.8633 109.656 41.902 109.658 41.9411C109.663 41.9729 109.665 41.9865 109.663 41.9865Z" fill="#1B232E"/>
<path d="M95.6643 30.5391C95.6059 30.7814 95.5997 31.0336 95.6464 31.2785C95.7043 31.5641 95.8204 31.8345 95.9874 32.0723C96.2139 32.3834 96.4827 32.6606 96.786 32.8956C97.5726 33.5204 98.3967 34.0954 99.2537 34.6171C100.221 35.2113 101.318 35.8056 102.482 36.4066L108.445 39.4867C109.196 39.8836 109.811 40.2034 110.239 40.4325L110.726 40.6956C110.783 40.7246 110.839 40.7572 110.892 40.7931C110.831 40.7731 110.772 40.7473 110.715 40.716L110.219 40.4733L108.4 39.5661L102.433 36.5041C101.268 35.9008 100.169 35.3021 99.2021 34.6897C98.3423 34.1616 97.5179 33.5767 96.7344 32.9387C96.4278 32.6963 96.1579 32.4097 95.9335 32.0882C95.766 31.8417 95.6528 31.5617 95.6015 31.2671C95.5677 31.0812 95.5677 30.8906 95.6015 30.7046C95.6176 30.6477 95.6386 30.5923 95.6643 30.5391Z" fill="#1B232E"/>
<path d="M100.859 33.009C100.817 32.9588 100.779 32.9049 100.747 32.848C100.644 32.6905 100.532 32.539 100.413 32.3944C99.9727 31.8731 99.4262 31.4545 98.8108 31.1673C98.6099 31.0698 98.3993 30.9938 98.1827 30.9405C97.9536 30.8819 97.7124 30.8929 97.4895 30.9723C97.3732 31.0124 97.2687 31.0813 97.1856 31.1729C97.1025 31.2644 97.0434 31.3756 97.0139 31.4962C96.9898 31.765 97.0702 32.0327 97.2382 32.2424C97.8843 33.1837 98.9095 33.9503 100.045 34.6012C100.33 34.7645 100.614 34.9256 100.897 35.0707C101.166 35.2216 101.465 35.3085 101.772 35.3248C101.916 35.332 102.06 35.3057 102.192 35.2479C102.324 35.1901 102.441 35.1023 102.535 34.9914C102.697 34.7605 102.763 34.4747 102.719 34.1952C102.675 33.9242 102.581 33.664 102.441 33.4286C102.308 33.2018 102.162 32.975 102.021 32.7641C101.755 32.3763 101.455 32.0142 101.124 31.6822C100.639 31.2031 100.083 30.8043 99.4749 30.5005C99.2505 30.3939 99.089 30.3191 98.9701 30.2737C98.9103 30.2508 98.8519 30.2243 98.7951 30.1943C98.8579 30.2079 98.9195 30.2268 98.9791 30.251C99.1546 30.3121 99.3269 30.3825 99.4951 30.462C100.117 30.7525 100.686 31.1457 101.18 31.6255C101.521 31.9564 101.831 32.3194 102.104 32.7097C102.248 32.9206 102.396 33.1406 102.533 33.3901C102.68 33.6357 102.781 33.9073 102.829 34.1907C102.878 34.5005 102.804 34.8174 102.625 35.073C102.521 35.1976 102.39 35.2965 102.243 35.3622C102.096 35.4278 101.935 35.4585 101.774 35.4518C101.448 35.4385 101.129 35.3484 100.843 35.1887C100.554 35.0412 100.271 34.8802 99.9841 34.7169C98.8422 34.0637 97.8036 33.2857 97.1485 32.3173C96.9693 32.0817 96.8888 31.7844 96.9242 31.4894C96.9578 31.3525 97.0249 31.2263 97.1194 31.1225C97.2139 31.0186 97.3327 30.9405 97.4648 30.8952C97.7063 30.8111 97.9669 30.8008 98.2141 30.8657C98.4355 30.9176 98.6506 30.9937 98.8557 31.0925C99.6522 31.4648 100.321 32.0679 100.778 32.8253C100.809 32.8849 100.836 32.9462 100.859 33.009Z" fill="#1B232E"/>
<path d="M112.474 38.0397C112.474 38.051 112.293 37.9625 111.949 37.8922C111.46 37.8136 110.961 37.8136 110.471 37.8922C109.85 37.9625 109.125 38.1576 108.27 38.1667C107.826 38.169 107.385 38.0922 106.967 37.9399C106.521 37.7757 106.1 37.5465 105.72 37.2594C104.994 36.6986 104.378 36.0064 103.903 35.2182C103.516 34.5792 103.169 33.9173 102.862 33.2358C102.59 32.6597 102.368 32.1971 102.202 31.875L102.014 31.5121C101.988 31.4717 101.968 31.4283 101.953 31.3828C101.984 31.4193 102.011 31.4588 102.034 31.5008C102.085 31.5801 102.155 31.6981 102.243 31.8523C102.42 32.163 102.655 32.6212 102.936 33.1927C103.251 33.8654 103.604 34.5197 103.992 35.1524C104.466 35.925 105.074 36.6043 105.787 37.1574C106.498 37.7147 107.368 38.0256 108.268 38.0442C109.094 38.0442 109.838 37.8582 110.46 37.797C110.958 37.7278 111.464 37.7446 111.956 37.8469C112.089 37.8774 112.219 37.9191 112.344 37.9716C112.391 37.9883 112.434 38.0111 112.474 38.0397Z" fill="#1B232E"/>
<path d="M107.847 35.7559C107.801 35.7434 107.756 35.7267 107.712 35.7061C107.627 35.6698 107.504 35.6131 107.344 35.5314C107.185 35.4498 106.999 35.3454 106.786 35.2093C106.678 35.1428 106.566 35.0672 106.449 34.9825C106.314 34.9041 106.199 34.7946 106.113 34.6627C106.086 34.6201 106.075 34.5698 106.079 34.5197C106.084 34.4696 106.106 34.4226 106.14 34.386C106.179 34.3553 106.224 34.3347 106.273 34.326C106.321 34.3173 106.371 34.3208 106.418 34.3361C106.593 34.3838 106.757 34.4427 106.934 34.504C107.284 34.6287 107.654 34.7784 108.033 34.9576C108.43 35.143 108.816 35.3505 109.191 35.579C109.406 35.6885 109.592 35.8497 109.731 36.0485C109.77 36.1053 109.795 36.1702 109.805 36.2382C109.815 36.3062 109.809 36.3756 109.788 36.4412C109.768 36.5067 109.733 36.5667 109.686 36.6165C109.639 36.6664 109.582 36.7048 109.518 36.729C109.284 36.8114 109.035 36.8393 108.789 36.8106C108.556 36.7991 108.324 36.7688 108.096 36.7199C107.663 36.6317 107.245 36.4828 106.853 36.2776C106.298 35.9876 105.805 35.5879 105.405 35.1021C105.005 34.6163 104.706 34.0543 104.525 33.4493C104.484 33.3184 104.452 33.1851 104.428 33.0501C104.417 33.0034 104.41 32.9554 104.41 32.9072C104.421 32.9072 104.457 33.1 104.569 33.4357C104.727 33.9088 104.954 34.3553 105.242 34.7603C105.675 35.3586 106.242 35.8451 106.896 36.1801C107.28 36.3778 107.689 36.5213 108.112 36.6065C108.334 36.6524 108.559 36.6812 108.785 36.6927C109.012 36.7206 109.242 36.6958 109.458 36.6201C109.507 36.6002 109.551 36.5695 109.587 36.5303C109.623 36.4911 109.65 36.4443 109.666 36.3933C109.68 36.344 109.683 36.2923 109.675 36.2417C109.667 36.1911 109.648 36.143 109.619 36.1007C109.49 35.9179 109.319 35.7693 109.121 35.6675C108.751 35.4408 108.369 35.2334 107.977 35.046C107.602 34.8669 107.237 34.7149 106.891 34.5924C106.719 34.5289 106.546 34.4654 106.389 34.4223C106.356 34.4098 106.32 34.4053 106.285 34.4092C106.25 34.4132 106.216 34.4254 106.187 34.445C106.165 34.4683 106.152 34.4982 106.15 34.5299C106.148 34.5617 106.156 34.5933 106.173 34.6196C106.252 34.7417 106.358 34.8434 106.483 34.9168C106.595 35.0029 106.707 35.0778 106.808 35.1436C107.017 35.2819 107.203 35.3931 107.356 35.4792C107.508 35.5654 107.629 35.6312 107.712 35.6743C107.761 35.6953 107.806 35.7228 107.847 35.7559Z" fill="#1B232E"/>
</g>
<path d="M116.324 25.6618L116.295 25.6369L112.515 23.3688L97.5427 22.3096L97.4126 24.1875L98.8259 25.0948L97.3318 25.3874L97.1523 27.9594L111.178 28.9505C111.728 28.9894 112.278 28.8823 112.775 28.6398L115.55 27.279C116.133 26.9954 116.324 26.3377 116.324 25.6618Z" fill="#52BCE0"/>
<path opacity="0.3" d="M116.324 25.6618L116.295 25.6369L112.515 23.3688L97.5427 22.3096L97.4126 24.1875L98.8259 25.0948L97.3318 25.3874L97.1523 27.9594L111.178 28.9505C111.728 28.9894 112.278 28.8823 112.775 28.6398L115.55 27.279C115.808 27.102 116.016 26.8593 116.152 26.5754C116.288 26.2915 116.347 25.9764 116.324 25.6618Z" fill="#1B232E"/>
<path d="M116.101 25.3586L113.099 23.0202C112.762 22.7554 112.354 22.5975 111.928 22.5666L97.6091 21.5527L97.479 23.433L98.8923 24.3266L97.3982 24.6192L97.2188 27.1912L111.518 28.205C111.895 28.2315 112.272 28.158 112.613 27.9918L116.002 26.3339C116.089 26.2906 116.164 26.2257 116.219 26.1452C116.275 26.0647 116.309 25.9714 116.319 25.8739C116.329 25.7764 116.314 25.6779 116.276 25.5878C116.238 25.4977 116.178 25.4188 116.101 25.3586Z" fill="#52BCE0"/>
<g opacity="0.2">
<path d="M97.8145 27.2576C97.8145 27.2576 97.8145 27.2439 97.8369 27.2235C97.8597 27.1919 97.8853 27.1623 97.9132 27.1351C98.018 27.0278 98.1392 26.9382 98.2721 26.8697C98.7736 26.6458 99.3167 26.5329 99.8649 26.5386C101.654 26.4275 103.45 26.5119 105.222 26.7903C106.261 26.9491 107.241 27.1827 108.12 27.371C108.903 27.55 109.694 27.6856 110.492 27.7769C111.029 27.8369 111.57 27.8528 112.109 27.8246C112.49 27.8042 112.701 27.7724 112.704 27.786C112.654 27.801 112.603 27.8109 112.551 27.8155C112.403 27.842 112.253 27.8602 112.102 27.8699C111.561 27.92 111.015 27.92 110.474 27.8699C109.672 27.7886 108.876 27.6606 108.089 27.4866C107.192 27.3029 106.227 27.0738 105.195 26.9151C103.431 26.6419 101.644 26.5469 99.8604 26.6316C99.3231 26.6203 98.7891 26.7182 98.29 26.9196C98.1151 27.0065 97.9546 27.1206 97.8145 27.2576Z" fill="#1B232E"/>
<path d="M115.701 25.1346C115.691 25.199 115.675 25.2622 115.651 25.3229C115.584 25.4991 115.485 25.6613 115.36 25.8015C115.159 26.0214 114.915 26.1967 114.644 26.3163C114.286 26.4658 113.908 26.5621 113.522 26.6021C112.523 26.7186 111.516 26.7671 110.51 26.7473C109.377 26.7336 108.132 26.6475 106.828 26.5204L100.163 25.8695L98.1443 25.6563L97.5947 25.5928C97.5312 25.5884 97.4681 25.5785 97.4062 25.5633C97.4697 25.5573 97.5335 25.5573 97.5969 25.5633L98.1488 25.6041L100.168 25.7788L106.837 26.3957C108.138 26.5159 109.379 26.6044 110.51 26.6225C111.511 26.648 112.513 26.6086 113.509 26.5046C113.893 26.47 114.271 26.3807 114.631 26.2392C114.897 26.1291 115.138 25.9637 115.337 25.7538C115.5 25.5754 115.624 25.3644 115.701 25.1346Z" fill="#1B232E"/>
<path d="M110 24.415C110.054 24.3788 110.11 24.3462 110.168 24.3174C110.335 24.2356 110.507 24.1636 110.682 24.102C111.331 23.8806 112.021 23.8085 112.701 23.891C112.93 23.9161 113.155 23.9655 113.374 24.0384C113.617 24.1165 113.833 24.2657 113.993 24.4671C114.081 24.5771 114.14 24.7077 114.164 24.8469C114.189 24.986 114.179 25.1292 114.134 25.2632C114.006 25.531 113.779 25.7371 113.502 25.837C112.434 26.2907 111.146 26.3973 109.834 26.3315C109.504 26.3156 109.181 26.2997 108.86 26.268C108.535 26.2488 108.219 26.1541 107.936 25.9913C107.796 25.9102 107.677 25.7976 107.587 25.6623C107.497 25.527 107.439 25.3726 107.418 25.2111C107.401 24.8981 107.507 24.5912 107.712 24.356C107.901 24.1417 108.13 23.9662 108.385 23.8389C108.625 23.7118 108.865 23.612 109.1 23.5032C109.535 23.3216 109.986 23.1818 110.446 23.0859C111.117 22.9462 111.806 22.9216 112.485 23.0133C112.67 23.036 112.852 23.0693 113.033 23.1131C113.097 23.1249 113.16 23.1423 113.221 23.1652C113.156 23.1593 113.092 23.1495 113.028 23.1357C112.905 23.1131 112.719 23.0836 112.481 23.0586C111.806 22.9868 111.125 23.0236 110.462 23.1675C110.006 23.2684 109.56 23.4111 109.129 23.5939C108.905 23.696 108.658 23.8048 108.423 23.9296C108.181 24.0531 107.964 24.2216 107.783 24.4263C107.598 24.639 107.502 24.9166 107.516 25.1997C107.537 25.3443 107.59 25.4821 107.672 25.6025C107.753 25.7229 107.861 25.8226 107.988 25.8937C108.255 26.0459 108.554 26.1343 108.86 26.1523C109.176 26.1818 109.502 26.1977 109.829 26.2135C111.133 26.2793 112.405 26.1841 113.446 25.7372C113.698 25.6503 113.906 25.4672 114.027 25.2269C114.066 25.1091 114.076 24.983 114.054 24.8605C114.033 24.7379 113.981 24.6229 113.903 24.5261C113.757 24.3384 113.558 24.1988 113.333 24.1246C113.123 24.0506 112.906 24.0004 112.685 23.9749C112.013 23.8843 111.329 23.9424 110.682 24.145C110.457 24.2176 110.282 24.2925 110.166 24.3401C110.112 24.3694 110.057 24.3944 110 24.415Z" fill="#1B232E"/>
<path d="M97.5254 22.4007C97.5729 22.3991 97.6204 22.4037 97.6667 22.4143C97.8012 22.4369 97.9333 22.4718 98.0615 22.5186C98.5313 22.6975 98.9675 22.956 99.3515 23.283C99.8517 23.6754 100.377 24.2288 101.074 24.6779C101.845 25.1481 102.745 25.3549 103.641 25.2676C104.54 25.188 105.417 24.9428 106.23 24.544C106.892 24.2186 107.536 23.8559 108.159 23.4576C108.697 23.1265 109.139 22.8656 109.451 22.7001C109.608 22.6162 109.731 22.5549 109.814 22.5164C109.856 22.4921 109.901 22.473 109.947 22.4597C109.909 22.4899 109.869 22.5157 109.826 22.5368L109.473 22.7409C109.168 22.9178 108.735 23.1945 108.204 23.5302C107.584 23.9394 106.941 24.3105 106.277 24.6416C105.457 25.0515 104.569 25.3038 103.659 25.3855C103.186 25.4219 102.71 25.3875 102.248 25.2834C101.815 25.1863 101.403 25.0128 101.03 24.7708C100.318 24.3172 99.8001 23.7457 99.3111 23.3488C98.9374 23.0203 98.514 22.7546 98.0571 22.5617C97.8829 22.4982 97.7054 22.4445 97.5254 22.4007Z" fill="#1B232E"/>
<path d="M102.64 22.9681C102.687 22.9636 102.734 22.9636 102.781 22.9681C102.873 22.9681 103.005 22.9885 103.185 22.9976C103.364 23.0067 103.575 23.0135 103.824 23.0089C103.95 23.0089 104.082 23.0089 104.224 22.9908C104.367 22.9936 104.51 22.9642 104.641 22.9046C104.67 22.8922 104.694 22.8701 104.708 22.842C104.723 22.8139 104.728 22.7816 104.722 22.7504C104.708 22.6914 104.641 22.6483 104.565 22.6211C104.408 22.5735 104.228 22.5349 104.051 22.4941C103.69 22.4147 103.302 22.3467 102.889 22.2945C102.476 22.2423 102.043 22.2128 101.592 22.2038C101.372 22.1811 101.149 22.2138 100.944 22.299C100.897 22.3203 100.855 22.3516 100.822 22.3907C100.788 22.4299 100.763 22.476 100.749 22.5258C100.737 22.5768 100.736 22.6298 100.747 22.6811C100.757 22.7324 100.779 22.7808 100.809 22.823C100.953 23.0031 101.134 23.1481 101.341 23.2471C101.539 23.3611 101.746 23.4589 101.96 23.5397C102.362 23.696 102.783 23.7967 103.212 23.8391C103.942 23.908 104.678 23.8023 105.361 23.5306C105.821 23.3463 106.251 23.0924 106.635 22.7776C106.909 22.5508 107.041 22.4102 107.048 22.417C107.055 22.4238 107.021 22.4578 106.958 22.5281C106.871 22.6334 106.777 22.7334 106.678 22.8275C106.206 23.2418 105.656 23.5558 105.061 23.7506C104.467 23.9455 103.839 24.0172 103.216 23.9615C102.776 23.9221 102.344 23.8222 101.931 23.6644C101.712 23.5819 101.501 23.4818 101.298 23.365C101.075 23.2611 100.879 23.1058 100.726 22.9114C100.686 22.8554 100.659 22.7914 100.646 22.7237C100.632 22.6559 100.634 22.5861 100.65 22.519C100.669 22.4537 100.701 22.3934 100.746 22.3421C100.79 22.2907 100.844 22.2498 100.906 22.2219C101.127 22.1284 101.369 22.0918 101.608 22.1153C102.045 22.1244 102.482 22.1577 102.916 22.2151C103.331 22.2695 103.723 22.3421 104.085 22.426C104.268 22.4691 104.437 22.5077 104.609 22.5621C104.657 22.5749 104.701 22.5991 104.737 22.6326C104.774 22.6662 104.801 22.7081 104.818 22.7549C104.828 22.8042 104.822 22.8555 104.8 22.9006C104.778 22.9458 104.742 22.9823 104.697 23.0044C104.556 23.068 104.403 23.0983 104.248 23.0929C104.105 23.0929 103.97 23.0929 103.844 23.0929C103.593 23.0929 103.378 23.077 103.203 23.0611C103.028 23.0452 102.891 23.0271 102.799 23.0112C102.744 23.0049 102.69 22.9904 102.64 22.9681Z" fill="#1B232E"/>
</g>
<path d="M94.9219 15.5401L99.4983 18.3797L114.495 17.8354L114.43 15.9528L112.931 15.2112L114.387 14.7621L114.295 12.1855L99.3951 12.7254L94.9219 15.5401Z" fill="#52BCE0"/>
<path opacity="0.3" d="M94.9219 15.5401L99.4983 18.3797L114.495 17.8354L114.43 15.9528L112.931 15.2112L114.387 14.7621L114.295 12.1855L99.3951 12.7254L94.9219 15.5401Z" fill="#1B232E"/>
<path d="M94.4739 16.0841L97.7043 18.0868C98.0677 18.3132 98.4893 18.4253 98.9157 18.4089L113.26 17.8895L113.192 16.007L111.694 15.2676L113.15 14.814L113.06 12.2374L98.7363 12.7591C98.358 12.7725 97.9898 12.8858 97.6684 13.088L94.4717 15.0998C94.3888 15.1518 94.3204 15.2243 94.273 15.3106C94.2257 15.3969 94.2009 15.4939 94.2012 15.5926C94.2014 15.6912 94.2266 15.7882 94.2743 15.8742C94.322 15.9602 94.3908 16.0325 94.4739 16.0841Z" fill="#52BCE0"/>
<g opacity="0.2">
<path d="M112.452 12.2451C112.447 12.2583 112.441 12.2706 112.432 12.2814C112.413 12.315 112.391 12.3468 112.367 12.3767C112.273 12.4946 112.162 12.5971 112.037 12.6806C111.561 12.955 111.034 13.125 110.489 13.1796C108.721 13.4803 106.925 13.5883 105.134 13.5016C104.084 13.454 103.093 13.3247 102.191 13.2317C101.394 13.1364 100.593 13.0842 99.7906 13.0752C99.2505 13.0725 98.711 13.1142 98.1776 13.2C97.8007 13.2612 97.5943 13.3157 97.5898 13.302C97.6383 13.2842 97.6878 13.2691 97.7379 13.2567C97.8366 13.2317 97.9802 13.1886 98.1686 13.1546C98.7034 13.0512 99.2462 12.9966 99.7906 12.9913C100.596 12.9862 101.401 13.0278 102.202 13.1161C103.1 13.2045 104.096 13.3293 105.139 13.3769C106.923 13.4611 108.711 13.3646 110.476 13.0888C111.013 13.0428 111.535 12.8886 112.012 12.6352C112.177 12.5279 112.325 12.3965 112.452 12.2451Z" fill="#1B232E"/>
<path d="M94.8867 16.2666C94.8883 16.2014 94.8981 16.1366 94.9159 16.0738C94.9643 15.8917 95.0456 15.7202 95.1559 15.568C95.3316 15.3269 95.5556 15.126 95.8132 14.9783C96.1563 14.7907 96.5242 14.654 96.9057 14.5723C97.8872 14.3556 98.8816 14.2041 99.8827 14.1187C101.004 14.0121 102.261 13.9645 103.568 13.9441L110.267 13.8692H112.297H112.849C112.913 13.8639 112.978 13.8639 113.042 13.8692C112.978 13.8798 112.914 13.8851 112.849 13.8851L112.297 13.901L110.278 13.9441L103.582 14.0416C102.274 14.062 101.031 14.1051 99.9051 14.2072C98.9028 14.296 97.9071 14.4483 96.9237 14.6631C96.548 14.7389 96.1847 14.868 95.8446 15.0464C95.5912 15.1846 95.3689 15.3746 95.1918 15.6043C95.0448 15.8007 94.9408 16.0265 94.8867 16.2666Z" fill="#1B232E"/>
<path d="M100.621 16.3638C100.572 16.4072 100.519 16.4459 100.464 16.4795C100.307 16.5804 100.143 16.6706 99.9745 16.7494C99.3505 17.0406 98.6697 17.1864 97.9825 17.1758C97.7562 17.174 97.5307 17.1489 97.3094 17.101C97.0599 17.0492 96.8311 16.9236 96.6521 16.7403C96.5532 16.6401 96.4808 16.5163 96.4416 16.3804C96.4024 16.2444 96.3976 16.1007 96.4278 15.9624C96.5277 15.6826 96.7324 15.4537 96.9976 15.3251C98.0094 14.7512 99.2814 14.5176 100.587 14.4405C100.917 14.4224 101.24 14.4042 101.563 14.3997C101.888 14.3847 102.212 14.446 102.51 14.5789C102.657 14.6443 102.788 14.7432 102.892 14.8678C102.996 14.9925 103.07 15.1396 103.109 15.2978C103.157 15.6076 103.084 15.9244 102.904 16.1801C102.737 16.413 102.528 16.6116 102.287 16.7653C102.063 16.9195 101.839 17.0511 101.614 17.1758C101.199 17.4037 100.764 17.5912 100.313 17.736C99.6608 17.9451 98.9785 18.0432 98.2943 18.0264C98.109 18.0229 97.924 18.0093 97.7402 17.9855C97.6757 17.9814 97.6118 17.9708 97.5495 17.9538C97.6137 17.9492 97.6782 17.9492 97.7424 17.9538C97.868 17.9538 98.0542 17.9742 98.2943 17.9742C98.9718 17.9725 99.6448 17.8631 100.289 17.6498C100.732 17.5021 101.161 17.3123 101.57 17.0828C101.794 16.9581 102.018 16.8243 102.243 16.6723C102.471 16.5252 102.67 16.335 102.828 16.1121C102.989 15.8801 103.055 15.5939 103.012 15.3137C102.976 15.1724 102.909 15.0412 102.815 14.9303C102.722 14.8194 102.604 14.7318 102.471 14.6741C102.189 14.5512 101.882 14.4954 101.574 14.5108C101.258 14.5108 100.932 14.5335 100.605 14.5516C99.3015 14.6288 98.0475 14.8578 97.0582 15.4135C96.8157 15.5257 96.627 15.7304 96.5333 15.9828C96.5071 16.1039 96.5115 16.2296 96.546 16.3485C96.5805 16.4674 96.644 16.5756 96.7307 16.6632C96.8959 16.8344 97.1074 16.9527 97.3386 17.0034C97.555 17.0539 97.7761 17.0805 97.9982 17.0828C98.6758 17.1001 99.3492 16.9694 99.9723 16.6995C100.141 16.6252 100.306 16.542 100.466 16.45C100.516 16.4181 100.567 16.3893 100.621 16.3638Z" fill="#1B232E"/>
<path d="M113.246 17.0447C113.199 17.0491 113.152 17.0491 113.104 17.0447C112.968 17.0365 112.833 17.016 112.701 16.9835C112.214 16.8553 111.753 16.6443 111.337 16.3597C110.798 16.024 110.215 15.5296 109.479 15.1576C108.664 14.7723 107.748 14.6625 106.866 14.8446C105.984 15.0215 105.141 15.3589 104.378 15.8403C103.753 16.2348 103.15 16.6641 102.572 17.1263C102.072 17.5142 101.659 17.8204 101.365 18.0177C101.219 18.1175 101.103 18.1923 101.024 18.2445C100.985 18.272 100.942 18.2956 100.898 18.3148C100.933 18.2809 100.97 18.2505 101.011 18.2241L101.34 17.9837C101.625 17.775 102.027 17.4597 102.52 17.0651C103.092 16.5915 103.691 16.153 104.315 15.7519C105.087 15.2579 105.943 14.9126 106.839 14.7335C107.306 14.6459 107.783 14.6291 108.254 14.6836C108.695 14.7356 109.123 14.8645 109.52 15.0646C110.273 15.4502 110.848 15.9537 111.375 16.294C111.785 16.5762 112.236 16.7913 112.712 16.9313C113.051 17.0311 113.248 17.0311 113.246 17.0447Z" fill="#1B232E"/>
<path d="M108.095 17.0267C108.048 17.0296 108.001 17.0296 107.954 17.0267C107.862 17.0267 107.729 17.0267 107.55 17.0403C107.37 17.0539 107.16 17.0675 106.913 17.0992C106.789 17.1151 106.657 17.1355 106.518 17.1605C106.375 17.1716 106.236 17.2158 106.112 17.2898C106.084 17.305 106.063 17.3293 106.051 17.3586C106.039 17.3879 106.038 17.4205 106.047 17.4508C106.065 17.4816 106.089 17.5076 106.119 17.527C106.149 17.5463 106.182 17.5582 106.217 17.5619C106.377 17.5937 106.561 17.6141 106.742 17.6345C107.108 17.6753 107.503 17.7025 107.916 17.7071C108.35 17.7151 108.784 17.7 109.217 17.6617C109.438 17.6595 109.656 17.6035 109.852 17.4984C109.896 17.4722 109.934 17.4368 109.963 17.3946C109.992 17.3523 110.012 17.3042 110.022 17.2535C110.028 17.2016 110.022 17.1491 110.007 17.0995C109.991 17.0498 109.965 17.0042 109.93 16.9654C109.769 16.8015 109.574 16.6767 109.358 16.6003C109.149 16.5078 108.933 16.432 108.712 16.3734C108.296 16.2615 107.866 16.2066 107.435 16.2101C106.702 16.2186 105.981 16.4028 105.331 16.7477C104.893 16.9788 104.492 17.2763 104.142 17.63C103.895 17.8817 103.777 18.0405 103.768 18.0337C103.791 17.9912 103.818 17.951 103.848 17.9135C103.929 17.8033 104.016 17.698 104.109 17.5982C104.536 17.1368 105.05 16.7665 105.621 16.5094C106.192 16.2523 106.808 16.1135 107.433 16.1013C107.874 16.0938 108.314 16.1472 108.741 16.26C108.967 16.3186 109.188 16.3944 109.403 16.4869C109.636 16.57 109.847 16.7067 110.02 16.886C110.065 16.9372 110.1 16.9977 110.12 17.0635C110.14 17.1294 110.146 17.1988 110.136 17.2671C110.126 17.3348 110.1 17.3991 110.061 17.4553C110.022 17.5115 109.971 17.558 109.912 17.5914C109.7 17.7071 109.464 17.7693 109.223 17.7729C108.788 17.8101 108.35 17.823 107.913 17.8114C107.494 17.8114 107.097 17.7729 106.729 17.7275C106.543 17.7026 106.37 17.6821 106.193 17.6458C106.145 17.6381 106.099 17.6188 106.06 17.5896C106.021 17.5604 105.99 17.5221 105.968 17.478C105.953 17.4299 105.955 17.3781 105.972 17.3309C105.99 17.2836 106.022 17.2436 106.065 17.2172C106.201 17.1362 106.355 17.0896 106.513 17.0811C106.653 17.0584 106.787 17.0425 106.913 17.0289C107.162 17.004 107.377 16.9926 107.554 16.9904C107.732 16.9881 107.868 16.9904 107.96 16.9904C108.007 16.996 108.052 17.0082 108.095 17.0267Z" fill="#1B232E"/>
</g>
<path d="M121.391 48.0023C121.391 48.0341 101.811 48.0613 77.6632 48.0613C53.5158 48.0613 33.9336 48.0227 33.9336 48.0023C33.9336 47.9819 53.5091 47.9434 77.6632 47.9434C101.817 47.9434 121.391 47.957 121.391 48.0023Z" fill="#465159"/>
<path d="M36.2487 85.0613C36.2285 85.0613 36.1478 84.7257 35.984 84.1881C35.7691 83.4889 35.5037 82.8067 35.1899 82.1468C34.8748 81.4871 34.5119 80.8518 34.1041 80.2462C33.79 79.7812 33.5769 79.5045 33.5926 79.4932C33.6552 79.5454 33.7117 79.6048 33.7609 79.6701C33.8641 79.7903 34.0054 79.9695 34.1714 80.1985C34.6009 80.796 34.9763 81.4314 35.2931 82.0969C35.6113 82.7618 35.8681 83.455 36.0603 84.1677C36.1343 84.4421 36.1859 84.6644 36.2128 84.8209C36.2338 84.8994 36.2458 84.9801 36.2487 85.0613Z" fill="#465159"/>
<path d="M37.7237 86.0391C37.6945 86.0391 37.127 84.143 36.4607 81.7841C35.7944 79.4253 35.2785 77.5043 35.3121 77.4884C35.3458 77.4725 35.9088 79.3845 36.5751 81.7433C37.2414 84.1021 37.7551 86.03 37.7237 86.0391Z" fill="#465159"/>
<path d="M38.9311 80.9277C38.9177 81.1864 38.8885 81.4439 38.8436 81.6989C38.783 82.1729 38.7135 82.8329 38.6753 83.5587C38.6372 84.2845 38.6349 84.9468 38.6462 85.4254C38.6601 85.6837 38.6601 85.9427 38.6462 86.201C38.6223 86.1348 38.6094 86.0651 38.608 85.9946C38.5901 85.8608 38.5744 85.668 38.5587 85.4276C38.5221 84.8029 38.5221 84.1766 38.5587 83.5519C38.5911 82.927 38.6593 82.3045 38.7628 81.6875C38.8032 81.4494 38.8413 81.2589 38.8727 81.1296C38.8837 81.0601 38.9033 80.9923 38.9311 80.9277Z" fill="#465159"/>
<path d="M102.943 42.0176C102.975 42.0176 103.381 43.3399 103.841 44.991C104.301 46.6422 104.666 47.9895 104.637 47.9985C104.608 48.0076 104.2 46.6762 103.729 45.0251C103.257 43.3739 102.912 42.0267 102.943 42.0176Z" fill="#465159"/>
<path d="M105.609 42.4395C105.627 42.4395 105.542 42.7479 105.445 43.2469C105.318 43.8944 105.243 44.5513 105.221 45.2111C105.202 45.8706 105.237 46.5306 105.326 47.1843C105.393 47.6878 105.461 47.994 105.441 47.9985C105.409 47.9316 105.386 47.8606 105.373 47.7876C105.321 47.5934 105.278 47.3966 105.245 47.1979C105.017 45.8805 105.057 44.5298 105.364 43.2287C105.408 43.0318 105.462 42.8372 105.526 42.6459C105.542 42.573 105.57 42.5033 105.609 42.4395Z" fill="#465159"/>
<path d="M107.267 43.4983C107.283 43.5097 107.128 43.7251 106.915 44.1152C106.639 44.6119 106.413 45.1355 106.242 45.678C106.076 46.2222 105.966 46.7824 105.914 47.3495C105.874 47.7873 105.876 48.0595 105.856 48.0595C105.838 47.9977 105.829 47.9334 105.831 47.8689C105.822 47.6944 105.822 47.5195 105.831 47.345C105.89 46.1856 106.237 45.0599 106.841 44.0721C106.932 43.9233 107.031 43.7794 107.137 43.6412C107.215 43.546 107.26 43.4938 107.267 43.4983Z" fill="#465159"/>
<path d="M104.99 63.7091C104.871 63.2555 105.172 62.7792 105.511 62.4435C105.85 62.1078 106.251 61.8039 106.426 61.3594C106.711 60.6358 106.33 59.7014 106.814 59.0913C107.099 58.7375 107.613 58.6195 107.866 58.2407C107.982 58.03 108.058 57.7993 108.091 57.5603C108.361 56.3608 108.944 55.2564 109.78 54.3623C109.833 55.4322 109.601 56.497 109.107 57.4446C108.877 57.8035 108.707 58.1981 108.604 58.6127C108.497 59.2931 108.876 60.0076 108.71 60.6789C108.519 61.4501 107.662 61.9649 107.622 62.7588C107.588 63.4392 108.167 64.0176 108.124 64.6867C108.089 64.9718 107.987 65.2445 107.828 65.4828C107.314 66.3446 106.563 66.9389 105.421 66.9185L104.023 66.9684L104.99 63.7091Z" fill="#FFC44C"/>
<g opacity="0.3">
<path d="M104.979 63.7101C104.86 63.2565 105.16 62.7802 105.499 62.4445C105.838 62.1088 106.239 61.8049 106.414 61.3603C106.699 60.6368 106.318 59.7024 106.802 59.0923C107.087 58.7384 107.601 58.6205 107.855 58.2417C107.971 58.031 108.047 57.8002 108.079 57.5613C108.349 56.3618 108.932 55.2574 109.768 54.3633C109.822 55.4332 109.589 56.4979 109.095 57.4456C108.865 57.8044 108.696 58.1991 108.593 58.6137C108.485 59.2941 108.864 60.0086 108.698 60.6799C108.507 61.4511 107.65 61.9659 107.61 62.7598C107.576 63.4402 108.155 64.0185 108.113 64.6876C108.077 64.9728 107.975 65.2455 107.816 65.4837C107.303 66.3456 106.551 66.9398 105.409 66.9194L104.012 66.9693L104.979 63.7101Z" fill="#1B232E"/>
</g>
<path d="M103.741 67.0188C103.614 67.0411 103.484 67.0411 103.357 67.0188C103.204 66.9945 103.054 66.9557 102.909 66.9032C102.706 66.8306 102.517 66.7257 102.348 66.5924C102.249 66.5082 102.172 66.4007 102.123 66.2794C102.082 66.1427 102.06 66.0006 102.058 65.8576C102.055 65.7059 102.043 65.5545 102.025 65.404C101.998 65.2428 101.94 65.0886 101.854 64.9503C101.69 64.6578 101.417 64.381 101.327 63.9841C101.259 63.572 101.272 63.1505 101.365 62.7435C101.467 62.3057 101.456 61.849 101.334 61.4167C101.183 60.9744 100.885 60.5752 100.724 60.0762C100.562 59.5772 100.641 59.0306 100.609 58.4885C100.599 58.2176 100.538 57.9511 100.427 57.7038C100.313 57.452 100.156 57.2161 100.035 56.953C99.7859 56.42 99.7432 55.819 99.6737 55.227C99.6423 54.9276 99.6086 54.626 99.575 54.3198C99.5545 54.0126 99.5019 53.7085 99.418 53.4126C99.324 53.1142 99.2124 52.8219 99.0837 52.5371C99.0177 52.3906 98.9637 52.2389 98.9222 52.0834C98.8984 51.9226 98.8835 51.7606 98.8773 51.5981C98.8624 51.2718 98.8744 50.9448 98.9132 50.6205C98.9513 50.2939 99.0097 49.9696 99.0456 49.643V49.5863V49.5205L99.1016 49.55C99.3981 49.7029 99.6559 49.9225 99.8554 50.1919C100.049 50.4558 100.204 50.7459 100.318 51.0537C100.518 51.6569 100.663 52.2771 100.753 52.9068C100.841 53.5064 101.035 54.085 101.327 54.6146C101.48 54.8664 101.666 55.0977 101.827 55.3427C102.002 55.5812 102.121 55.8565 102.175 56.1479C102.258 56.7466 101.933 57.2706 102 57.8013C102.032 58.0612 102.12 58.311 102.256 58.5339C102.381 58.7607 102.532 58.9694 102.673 59.1803C102.818 59.3859 102.943 59.6046 103.048 59.8335C103.146 60.0572 103.205 60.2968 103.22 60.5412C103.254 61.0175 103.187 61.4711 103.22 61.902C103.257 62.3083 103.374 62.7031 103.564 63.0633C103.734 63.4126 103.923 63.7256 104.08 64.0318C104.158 64.1837 104.232 64.3334 104.291 64.4854C104.347 64.6319 104.388 64.7839 104.414 64.939C104.457 65.2062 104.46 65.4782 104.425 65.7464C104.389 66.1208 104.25 66.4775 104.024 66.7761C103.99 66.8207 103.952 66.8624 103.911 66.9009C103.883 66.9296 103.853 66.9554 103.819 66.978C103.768 67.0166 103.739 67.0347 103.739 67.0347C103.84 66.9566 103.931 66.8659 104.01 66.7648C104.226 66.465 104.357 66.1114 104.389 65.7419C104.421 65.4778 104.415 65.2104 104.371 64.9481C104.346 64.7982 104.304 64.6514 104.248 64.5103C104.185 64.3554 104.114 64.2039 104.035 64.0567C103.875 63.7551 103.687 63.4421 103.514 63.0928C103.319 62.7259 103.197 62.3235 103.155 61.9088C103.119 61.4734 103.185 61.0197 103.155 60.548C103.14 60.3128 103.083 60.0824 102.987 59.8675C102.884 59.6427 102.759 59.4285 102.615 59.2279C102.473 59.0193 102.323 58.8083 102.193 58.577C102.052 58.3449 101.961 58.0852 101.926 57.8149C101.859 57.2502 102.182 56.7217 102.099 56.166C102.045 55.8868 101.93 55.6234 101.762 55.3949C101.603 55.1544 101.417 54.9231 101.26 54.6645C100.96 54.1267 100.761 53.5378 100.672 52.9272C100.582 52.3038 100.437 51.6897 100.239 51.0923C100.129 50.7925 99.9784 50.51 99.7903 50.2531C99.6003 49.9943 99.3539 49.7832 99.0702 49.6362L99.133 49.5999V49.6566C99.0972 49.9877 99.0388 50.3121 99.0007 50.6341C98.9619 50.9539 98.9499 51.2763 98.9648 51.5981C98.9707 51.756 98.9849 51.9135 99.0074 52.0698C99.047 52.2208 99.0996 52.3681 99.1645 52.5099C99.2927 52.7982 99.405 53.0935 99.501 53.3944C99.5848 53.695 99.6374 54.0036 99.658 54.3153C99.6916 54.6192 99.7253 54.9208 99.7567 55.2225C99.824 55.8167 99.8689 56.411 100.107 56.9258C100.226 57.1799 100.383 57.418 100.499 57.6766C100.613 57.9333 100.676 58.2098 100.685 58.4908C100.717 59.0352 100.645 59.5682 100.791 60.0513C100.937 60.5344 101.24 60.9335 101.397 61.3917C101.521 61.8353 101.531 62.3039 101.426 62.7526C101.333 63.1511 101.318 63.5639 101.381 63.9683C101.462 64.347 101.726 64.6215 101.895 64.9231C101.982 65.0678 102.041 65.2279 102.07 65.3949C102.087 65.5454 102.097 65.6969 102.099 65.8485C102.099 65.9882 102.118 66.1272 102.157 66.2613C102.207 66.3772 102.284 66.4791 102.381 66.5584C102.546 66.6913 102.731 66.7962 102.929 66.8691C103.074 66.9244 103.224 66.9662 103.377 66.9939C103.472 67.0105 103.567 67.0196 103.662 67.0211L103.741 67.0188Z" fill="#465159"/>
<path d="M99.3223 50.3643C99.329 50.3778 99.3336 50.3923 99.3357 50.4074C99.3357 50.4414 99.3537 50.4845 99.3671 50.5344C99.3941 50.6455 99.4277 50.8156 99.4793 51.0243C99.5309 51.2329 99.661 51.4779 99.7687 51.7637C99.8977 52.0916 100.009 52.4262 100.103 52.7662C100.208 53.1427 100.303 53.5623 100.401 54.0091C100.487 54.4883 100.638 54.9531 100.85 55.3903C100.964 55.6172 101.092 55.844 101.195 56.1071C101.296 56.3681 101.364 56.6409 101.397 56.919C101.468 57.494 101.568 58.0648 101.698 58.6292C101.978 59.7859 102.245 60.8973 102.49 61.8952L103.163 64.558C103.347 65.3132 103.497 65.9188 103.612 66.3566C103.661 66.5652 103.699 66.7285 103.726 66.8465L103.753 66.9758C103.753 67.003 103.753 67.0189 103.753 67.0189C103.747 67.0056 103.742 66.992 103.737 66.978L103.701 66.851C103.67 66.7331 103.627 66.572 103.571 66.3656L103.105 64.5739C102.909 63.8163 102.678 62.9159 102.432 61.9156C102.185 60.9154 101.916 59.8063 101.633 58.6473C101.502 58.0809 101.402 57.5078 101.332 56.9304C101.301 56.6594 101.236 56.3934 101.139 56.1388C101.041 55.8916 100.915 55.6602 100.798 55.4289C100.585 54.9851 100.434 54.5133 100.35 54.0272C100.253 53.5736 100.164 53.1585 100.06 52.782C99.9571 52.4055 99.8517 52.0721 99.744 51.7818C99.6363 51.4915 99.5197 51.2511 99.4658 51.0333C99.412 50.8156 99.3918 50.6523 99.3694 50.5389C99.3694 50.4867 99.3537 50.4436 99.3469 50.4096C99.3359 50.3962 99.3275 50.3808 99.3223 50.3643Z" fill="#465159"/>
<path d="M103.495 67.0235C102.582 66.4746 102.319 64.8098 102.7 63.8073C103.082 62.8048 103.748 61.8862 103.851 60.818C103.93 59.9969 103.665 59.1532 103.851 58.3503C104.107 57.2661 105.155 56.4247 105.141 55.311C105.141 54.685 104.782 54.0976 104.811 53.4739C104.845 52.7073 105.426 52.0994 105.787 51.4326C106.339 50.4006 106.375 49.1781 106.564 48.0305C106.752 46.8828 107.189 45.6308 108.203 45.0615C108.354 46.0436 108.609 46.7172 108.531 48.0509C108.502 48.5294 107.952 49.4457 107.876 50.4936C107.831 51.1196 107.802 51.7479 107.764 52.3761C107.757 52.988 107.658 53.5953 107.47 54.177C107.304 54.6147 107.039 55.0139 106.916 55.4653C106.691 56.3158 106.988 57.2344 106.801 58.0962C106.642 58.8266 106.144 59.4571 106.041 60.1942C105.897 61.233 106.564 62.3126 106.223 63.3038C106.054 63.796 105.653 64.1906 105.55 64.6987C105.46 65.0933 105.55 65.5106 105.476 65.9076C105.348 66.5449 104.145 67.0416 103.501 67.0008" fill="#FFC44C"/>
<path d="M107.954 46.0186C107.956 46.0374 107.956 46.0564 107.954 46.0753C107.954 46.1161 107.942 46.1683 107.933 46.2363C107.913 46.3792 107.889 46.5878 107.841 46.8555C107.794 47.1231 107.653 47.4338 107.543 47.8013C107.433 48.1687 107.319 48.5906 107.207 49.0646C107.094 49.5386 107.016 50.0648 106.924 50.6273C106.85 51.2354 106.693 51.8301 106.457 52.3942C106.327 52.689 106.184 52.9861 106.076 53.3014C105.971 53.6248 105.906 53.96 105.883 54.2994C105.832 55.0211 105.743 55.7396 105.616 56.4518C105.336 57.9079 105.071 59.296 104.826 60.5593C104.582 61.8226 104.342 62.9521 104.153 63.907C103.965 64.8619 103.799 65.6217 103.689 66.1615C103.633 66.4223 103.588 66.6264 103.557 66.7716C103.543 66.8374 103.53 66.8895 103.521 66.9304C103.518 66.9491 103.512 66.9674 103.505 66.9848C103.504 66.9667 103.504 66.9485 103.505 66.9304C103.505 66.8873 103.521 66.8351 103.532 66.7693C103.561 66.6219 103.599 66.4155 103.646 66.1524C103.752 65.6126 103.902 64.8437 104.095 63.8843C104.288 62.9249 104.506 61.7931 104.755 60.5343C105.004 59.2756 105.259 57.8829 105.537 56.4268C105.664 55.7177 105.753 55.0022 105.804 54.2835C105.829 53.937 105.896 53.595 106.004 53.2651C106.116 52.943 106.262 52.6459 106.39 52.3579C106.626 51.8015 106.784 51.2144 106.859 50.6137C106.955 50.049 107.045 49.525 107.155 49.0487C107.25 48.6212 107.366 48.1988 107.503 47.7831C107.619 47.4134 107.763 47.1027 107.817 46.8464C107.871 46.5901 107.897 46.3724 107.924 46.2318L107.954 46.0707V46.0186Z" fill="#465159"/>
<path d="M110.797 88.2856C111.015 88.3907 111.21 88.5393 111.37 88.7225C111.53 88.9057 111.652 89.1197 111.728 89.3516C111.878 89.8174 111.92 90.3116 111.851 90.7964C111.746 91.7331 111.221 92.6789 110.653 93.4296C109.873 92.7492 109.693 91.538 109.64 90.9234C109.554 89.9504 109.987 88.1404 110.797 88.2856Z" fill="#FFC44C"/>
<path d="M111.561 94.9759C111.508 94.7078 111.526 94.4304 111.613 94.1716C111.7 93.9128 111.853 93.6817 112.057 93.5016C112.263 93.3259 112.502 93.1935 112.76 93.1121C113.018 93.0308 113.289 93.002 113.557 93.0276C113.682 93.0265 113.806 93.0527 113.92 93.1044C114.033 93.1561 114.135 93.232 114.217 93.327C114.278 93.4299 114.31 93.5474 114.31 93.6672C114.31 93.787 114.278 93.9045 114.217 94.0074C114.099 94.2118 113.929 94.3808 113.726 94.4973C113.053 94.926 112.317 95.2163 111.552 94.985" fill="#FFC44C"/>
<path d="M110.561 97.8497C110.565 97.7849 110.574 97.7204 110.587 97.657L110.682 97.1353C110.77 96.556 110.95 95.9947 111.213 95.4728C111.489 94.9518 111.896 94.5143 112.393 94.2049C112.545 94.1145 112.707 94.0422 112.876 93.9895C112.921 93.9747 112.968 93.9634 113.015 93.9554C113.031 93.9524 113.048 93.9524 113.064 93.9554C112.839 94.0302 112.622 94.1298 112.418 94.2526C111.938 94.5688 111.544 95.0026 111.274 95.5136C111.013 96.0302 110.83 96.5827 110.729 97.1534C110.682 97.3803 110.644 97.5481 110.614 97.6683C110.602 97.7304 110.584 97.7912 110.561 97.8497Z" fill="#465159"/>
<path d="M110.59 89.6943C110.594 89.7222 110.594 89.7504 110.59 89.7783C110.59 89.8395 110.59 89.9211 110.605 90.0187C110.605 90.2296 110.628 90.5335 110.639 90.9078C110.664 91.6585 110.682 92.6973 110.677 93.8449C110.673 94.9926 110.646 96.0291 110.614 96.7799C110.599 97.1541 110.585 97.4603 110.572 97.6689C110.572 97.7665 110.56 97.8481 110.556 97.9094C110.555 97.9377 110.552 97.9658 110.545 97.9933C110.542 97.9654 110.542 97.9373 110.545 97.9094C110.545 97.8459 110.545 97.7665 110.545 97.6667C110.545 97.4399 110.558 97.1473 110.567 96.7776C110.585 96.0268 110.605 94.9903 110.61 93.8427C110.614 92.695 110.61 91.6608 110.592 90.91C110.592 90.5403 110.581 90.2296 110.578 90.0209V89.7783C110.579 89.7499 110.583 89.7217 110.59 89.6943Z" fill="#465159"/>
<path d="M110.21 95.5455C110.115 94.978 109.889 94.4415 109.549 93.9801C109.208 93.5187 108.765 93.1457 108.254 92.8918C107.991 92.7648 107.65 92.6809 107.437 92.8782C107.224 93.0755 107.271 93.4271 107.374 93.6993C107.602 94.267 107.992 94.7536 108.493 95.0975C108.995 95.4415 109.586 95.6274 110.192 95.6317" fill="#FFC44C"/>
<path d="M108.379 93.7793C108.436 93.7999 108.492 93.825 108.545 93.8541C108.609 93.884 108.671 93.9174 108.731 93.9539C108.801 93.9993 108.886 94.0424 108.969 94.1059C109.064 94.1697 109.155 94.2386 109.243 94.3123C109.344 94.3965 109.44 94.4858 109.532 94.5799C109.742 94.7965 109.927 95.0362 110.084 95.2944C110.236 95.5562 110.358 95.8347 110.447 96.1245C110.483 96.2606 110.519 96.3876 110.539 96.5101C110.562 96.6232 110.577 96.7376 110.587 96.8526C110.592 96.947 110.592 97.0416 110.587 97.1361C110.591 97.2078 110.591 97.2798 110.587 97.3515C110.585 97.4125 110.579 97.4733 110.566 97.533C110.551 97.533 110.566 97.2722 110.53 96.8526C110.519 96.7397 110.501 96.6277 110.477 96.5169C110.451 96.3896 110.419 96.2639 110.38 96.1404C110.203 95.569 109.896 95.0477 109.483 94.6185C109.394 94.524 109.301 94.4346 109.202 94.3509C109.113 94.2692 109.021 94.2034 108.938 94.1399C108.608 93.9018 108.372 93.7929 108.379 93.7793Z" fill="#465159"/>
<path d="M103.961 81.2892C103.946 81.3277 103.928 81.3643 103.904 81.3981C103.86 81.4797 103.801 81.5795 103.729 81.6997C103.658 81.8199 103.557 81.9878 103.456 82.1783C103.355 82.3688 103.231 82.5775 103.108 82.8202C102.857 83.2965 102.583 83.8816 102.307 84.5394C102.014 85.2577 101.758 85.9904 101.538 86.7349C101.313 87.5287 101.143 88.2976 101.015 89.003C100.887 89.7084 100.815 90.3502 100.773 90.89C100.746 91.1599 100.737 91.4049 100.723 91.6181C100.71 91.8313 100.703 92.0195 100.699 92.1715C100.694 92.3235 100.699 92.4278 100.699 92.5208C100.7 92.5613 100.695 92.6018 100.685 92.641C100.677 92.6015 100.673 92.5612 100.674 92.5208C100.674 92.4278 100.674 92.3121 100.674 92.1692C100.674 92.0263 100.674 91.8313 100.674 91.6158C100.674 91.4004 100.674 91.1622 100.708 90.8832C100.751 90.247 100.826 89.6134 100.932 88.9848C101.063 88.2154 101.235 87.4538 101.448 86.7031C101.669 85.9551 101.93 85.2198 102.231 84.5008C102.514 83.8385 102.796 83.2579 103.059 82.7816C103.184 82.5412 103.312 82.328 103.422 82.1465C103.532 81.9651 103.629 81.8041 103.714 81.677C103.799 81.55 103.855 81.4661 103.909 81.389C103.963 81.3119 103.961 81.2869 103.961 81.2892Z" fill="#465159"/>
<path d="M100.419 84.5596C100.425 84.6611 100.42 84.7629 100.406 84.8635C100.385 85.0903 100.358 85.3625 100.329 85.6936C100.262 86.3922 100.177 87.3607 100.105 88.4289C100.033 89.4972 99.9905 90.4702 99.9614 91.1711L99.9232 92.0034C99.9255 92.1062 99.9164 92.2089 99.8963 92.3096C99.8799 92.2085 99.8739 92.1059 99.8784 92.0034C99.8784 91.8061 99.8784 91.5226 99.8784 91.1688C99.8784 90.4657 99.9165 89.4927 99.9883 88.4221C100.06 87.3516 100.159 86.3809 100.246 85.6845C100.291 85.3353 100.329 85.054 100.361 84.859C100.371 84.7576 100.391 84.6574 100.419 84.5596Z" fill="#465159"/>
<path d="M96.9793 87.5264C97.0389 87.5669 97.0932 87.6149 97.1409 87.6693C97.2806 87.8083 97.4124 87.9552 97.5357 88.1093C97.9446 88.6179 98.2834 89.1802 98.543 89.7809C98.8022 90.3811 98.9788 91.0145 99.0679 91.6634C99.0962 91.8595 99.1134 92.0572 99.1195 92.2553C99.1289 92.3306 99.1289 92.4068 99.1195 92.4821C99.0993 92.4821 99.0791 92.176 98.9939 91.686C98.7705 90.4094 98.2508 89.2046 97.4774 88.1705C97.1745 87.7645 96.9636 87.54 96.9793 87.5264Z" fill="#465159"/>
<path d="M110.719 50.167C110.757 50.1981 110.793 50.2331 110.824 50.2713L111.111 50.5843L111.315 50.8111C111.39 50.8973 111.464 50.9948 111.54 51.0969C111.701 51.3056 111.894 51.5347 112.078 51.8114L112.374 52.2378C112.475 52.3875 112.567 52.5508 112.67 52.7163C112.884 53.0452 113.072 53.4172 113.278 53.8027C114.144 55.5045 114.707 57.3471 114.941 59.2462C114.983 59.6839 115.035 60.099 115.044 60.4891C115.044 60.6864 115.064 60.8746 115.064 61.0561V61.5778C115.064 61.9089 115.035 62.2083 115.017 62.4714C115.017 62.6029 114.999 62.7277 114.988 62.8388C114.977 62.95 114.959 63.052 114.945 63.145C114.921 63.3197 114.9 63.4603 114.882 63.5669C114.879 63.6171 114.869 63.6667 114.853 63.7143C114.85 63.6644 114.85 63.6145 114.853 63.5646C114.864 63.4557 114.878 63.3151 114.894 63.1405C114.894 63.0475 114.914 62.9454 114.925 62.8343C114.936 62.7232 114.938 62.6075 114.945 62.4669C114.956 62.206 114.983 61.9066 114.974 61.5755V61.0561C114.974 60.8769 114.954 60.6887 114.945 60.4959C114.934 60.1058 114.88 59.6952 114.833 59.2598C114.588 57.3765 114.031 55.5485 113.184 53.8526C112.98 53.4671 112.796 53.0951 112.59 52.7685C112.489 52.6029 112.397 52.4374 112.298 52.2877C112.199 52.138 112.103 51.9951 112.011 51.859C111.834 51.58 111.645 51.3487 111.488 51.1377C111.41 51.0334 111.338 50.9336 111.264 50.8474L111.066 50.6206L110.797 50.294C110.766 50.2549 110.74 50.2122 110.719 50.167Z" fill="#465159"/>
<path d="M117.419 54.6436C117.399 54.7583 117.369 54.8713 117.331 54.9815C117.266 55.2083 117.177 55.5077 117.071 55.8887C116.522 57.9063 116.203 59.9807 116.12 62.0716C116.104 62.473 116.095 62.7973 116.091 63.0219C116.095 63.1386 116.089 63.2555 116.073 63.3712C116.053 63.2567 116.044 63.1404 116.046 63.0242C116.046 62.7973 116.03 62.473 116.046 62.0693C116.082 59.967 116.404 57.8798 117.002 55.8661C117.118 55.4805 117.226 55.172 117.298 54.9588C117.329 54.8502 117.369 54.7447 117.419 54.6436Z" fill="#465159"/>
<path d="M117.904 59.085C117.622 59.6072 117.375 60.1483 117.166 60.7044C116.995 61.2731 116.863 61.8528 116.771 62.4395C116.746 62.2642 116.746 62.0863 116.771 61.911C116.818 61.4871 116.91 61.0696 117.047 60.6658C117.182 60.2613 117.362 59.8733 117.583 59.5091C117.668 59.3523 117.776 59.2093 117.904 59.085Z" fill="#465159"/>
<path d="M48.8237 101.416L46.4708 124.35L44.7818 158.884H35.7683L35.5234 85.3848L61.3314 87.2434L66.6806 125.805L62.0494 159.559H52.1602L54.4717 127.467L48.8237 101.416Z" fill="#465159"/>
<path d="M48.8535 100.958C48.8901 99.9787 48.8735 98.9982 48.8037 98.0209C48.8011 97.0396 48.7457 96.0592 48.6377 95.084C48.5244 96.0588 48.5049 97.0424 48.5796 98.0209C48.5773 99.0065 48.669 99.9901 48.8535 100.958Z" fill="#55646F"/>
<path d="M45.869 92.3995C45.8208 92.3942 45.7721 92.3942 45.7238 92.3995L45.2797 92.3743L43.57 92.2904L37.4614 92.0303H37.3535V92.1352C37.3535 94.0652 37.3535 96.2469 37.3535 98.5503V98.7517L37.4241 98.781L41.3996 100.388H41.437H41.4743L44.9893 99.1545L45.0432 99.1335V99.0747C45.3005 97.0734 45.5163 95.4078 45.6698 94.212C45.7362 93.654 45.7902 93.2051 45.8317 92.8736C45.8543 92.7221 45.8681 92.5694 45.8732 92.4163C45.8607 92.4587 45.8523 92.5023 45.8483 92.5463C45.8483 92.647 45.8109 92.7645 45.786 92.9072C45.7321 93.2428 45.6615 93.6959 45.5744 94.2624C45.4001 95.4371 45.1594 97.0818 44.8606 99.0496L44.9229 98.974L41.3996 100.182H41.4743L37.5029 98.5629L37.5735 98.6678V98.5419C37.5735 96.2385 37.5735 94.0568 37.5735 92.1268L37.4697 92.2317L43.5119 92.3827L45.2507 92.4121H45.8856L45.869 92.3995Z" fill="#55646F"/>
<path d="M58.884 92.5076H58.7512H58.3362L56.7883 92.4614L51.2151 92.3271H51.1113V92.432C51.1736 94.3369 51.24 96.527 51.3147 98.864V98.8849L51.3603 98.9185L52.0077 99.338L55.2736 101.49L55.3317 101.528L55.3898 101.495L59.0708 99.2248L59.1164 99.1954V99.1409C59.0459 97.1437 58.9878 95.4781 58.9463 94.2823C58.9255 93.7285 58.9048 93.2796 58.8923 92.9481C58.8799 92.6167 58.8633 92.4866 58.8591 92.4908C58.8535 92.5354 58.8535 92.5805 58.8591 92.625V93.011C58.8591 93.3509 58.8591 93.804 58.8591 94.3704C58.8591 95.5494 58.9006 97.1983 58.9297 99.1702L58.9753 99.0905L55.2778 101.331H55.394L52.1363 99.1618L51.4931 98.7423L51.5429 98.8346C51.4599 96.4976 51.3811 94.3033 51.3105 92.3985L51.2109 92.5034L56.7261 92.5327H58.7139L58.884 92.5076Z" fill="#55646F"/>
<path d="M48.4927 45.6729L38.7695 45.5512L39.8568 37.4704C39.8568 37.4704 39.1928 37.332 39.1472 33.816C39.1015 30.3001 38.9355 24.3255 38.9355 24.3255C40.9867 23.4653 43.2232 23.1566 45.4274 23.4294C47.6315 23.7021 49.7283 24.5471 51.5138 25.8821L52.0491 26.3016L48.4927 45.6729Z" fill="#D4AB93"/>
<path d="M50.9204 30.5931C50.9826 30.5679 53.4103 29.8798 53.3149 32.2713C53.2194 34.6628 50.7793 34.1006 50.7793 34.0293C50.7793 33.958 50.9204 30.5931 50.9204 30.5931Z" fill="#D4AB93"/>
<path d="M39.3544 30.0779C39.2921 30.0527 37.101 29.4779 37.1757 31.8778C37.2504 34.2777 39.7113 33.7113 39.7154 33.6399C39.7196 33.5686 39.3544 30.0779 39.3544 30.0779Z" fill="#D4AB93"/>
<path d="M51.7205 30.3246C51.3553 32.3385 51.4258 33.3958 51.0855 34.7426C50.5461 36.8698 49.463 38.5187 47.5001 39.5676C45.5372 40.6165 42.8771 40.6123 41.1923 39.148C40.0179 38.1411 39.1879 37.0082 39.0136 35.4936C38.8393 33.979 38.6692 31.298 38.6567 29.7834C38.6567 27.0394 38.4492 24.4171 38.4492 24.4171L46.4792 22.999L51.044 25.6507L51.7205 30.3246Z" fill="#465159"/>
<path d="M43.4219 40.7801C43.8716 40.9471 44.3574 40.9891 44.8287 40.9018C45.3063 40.8884 45.7712 40.7433 46.1732 40.4823C46.1732 40.4235 45.5591 40.6039 44.8038 40.6836C44.0485 40.7634 43.4426 40.7172 43.4219 40.7801Z" fill="#465159"/>
<path d="M51.3308 33.7486C51.5632 31.6843 51.7167 29.3264 52.0487 27.1488C52.1732 26.3097 52.4637 25.1559 52.3973 24.3336C52.373 23.5013 52.1927 22.6812 51.8661 21.9169C51.6222 21.4443 51.2763 21.0334 50.8538 20.7145C50.4314 20.3957 49.9434 20.1771 49.426 20.075C48.9034 19.9771 48.3659 19.9958 47.8513 20.1299C47.3366 20.264 46.8571 20.5101 46.4464 20.8512C46.1369 20.4246 45.7125 20.0972 45.2238 19.9082C44.7351 19.7192 44.2029 19.6766 43.6909 19.7855C43.1862 19.9026 42.7272 20.1685 42.3719 20.5493C42.0166 20.9302 41.7809 21.409 41.6948 21.9253C41.3968 21.6648 41.0269 21.503 40.6351 21.4618C40.2433 21.4205 39.8484 21.5017 39.5037 21.6945C39.1738 21.8953 38.9177 22.1992 38.7739 22.5603C38.6301 22.9214 38.6066 23.32 38.7069 23.6958C38.4218 23.7433 38.1522 23.8597 37.921 24.035C37.6898 24.2103 37.5039 24.4393 37.3789 24.7028C37.2633 24.9656 37.2149 25.2535 37.2381 25.5402C37.2613 25.8268 37.3554 26.103 37.5117 26.3433C37.8852 26.9013 38.5575 27.2076 38.9642 27.7404C39.1963 28.0483 39.3323 28.4192 39.3544 28.8057C39.3766 29.1922 39.2841 29.5766 39.0887 29.9096" fill="#465159"/>
<path d="M40.1758 26.3013C40.1886 26.3816 40.2199 26.4577 40.2671 26.5236C40.3817 26.7287 40.5406 26.9051 40.7319 27.0397C41.0365 27.2594 41.4036 27.3728 41.7776 27.3628C42.0201 27.3551 42.2587 27.2988 42.4795 27.1973C42.7003 27.0957 42.899 26.9509 43.0641 26.7712L42.8939 26.725C42.9556 27.0022 43.087 27.2586 43.2752 27.4695C43.4635 27.6804 43.7024 27.8388 43.9688 27.9292C44.2659 28.0414 44.5854 28.0797 44.9003 28.041C45.2151 28.0023 45.5162 27.8877 45.7781 27.7068C46.2472 27.393 46.6049 26.9358 46.799 26.402L46.6039 26.4271C46.8101 26.7218 47.0822 26.9632 47.3981 27.1316C47.7139 27.3 48.0645 27.3907 48.4216 27.3963C48.704 27.4027 48.9848 27.3522 49.2477 27.2477C49.5106 27.1433 49.7503 26.987 49.9529 26.788C50.2145 26.5368 50.4051 26.2196 50.5048 25.8691C50.5489 25.7471 50.5659 25.6167 50.5546 25.4873C50.5546 25.4873 50.5172 25.6216 50.4342 25.8481C50.3094 26.1695 50.1119 26.4569 49.8574 26.6873C49.4664 27.0419 48.9549 27.2299 48.4299 27.2117C48.1028 27.2004 47.7827 27.1127 47.4947 26.9555C47.2067 26.7983 46.9587 26.5758 46.7699 26.3055L46.6537 26.125L46.5749 26.3264C46.3922 26.8135 46.0645 27.2313 45.637 27.5222C45.405 27.6836 45.1381 27.7865 44.8587 27.8223C44.5793 27.858 44.2955 27.8256 44.031 27.7278C43.7971 27.6512 43.5861 27.5161 43.4177 27.3349C43.2494 27.1537 43.1292 26.9323 43.0682 26.6914L43.035 26.4901L42.8981 26.6453C42.6365 26.939 42.2808 27.1298 41.8936 27.1843C41.5064 27.2388 41.1127 27.1534 40.7817 26.9432C40.5402 26.7713 40.3343 26.5532 40.1758 26.3013Z" fill="#55646F"/>
<path d="M40.1919 25.3411C40.2381 25.0265 40.3545 24.7266 40.5322 24.4642C40.7367 24.1876 41.0302 23.9918 41.3621 23.9103C41.5708 23.8624 41.7868 23.8578 41.9972 23.8967C42.2077 23.9357 42.4081 24.0174 42.5864 24.1369L42.7814 24.2754L42.7607 24.0404C42.7415 23.8063 42.7698 23.5708 42.8437 23.3481C42.9242 23.1033 43.0534 22.8777 43.2232 22.685C43.393 22.4924 43.6 22.3369 43.8313 22.2279C44.2235 22.0557 44.6606 22.0174 45.0763 22.1188C45.4615 22.2295 45.8174 22.4259 46.1179 22.6936C46.1179 22.6936 46.0722 22.5803 45.9187 22.4251C45.6904 22.2128 45.4161 22.0576 45.1178 21.972C44.6159 21.8161 44.0735 21.866 43.6076 22.1109C43.1418 22.3558 42.7899 22.7761 42.6279 23.281C42.5459 23.5323 42.5162 23.798 42.5407 24.0614L42.715 23.9607C42.5102 23.825 42.2797 23.7341 42.0382 23.6936C41.7967 23.6531 41.5495 23.6641 41.3124 23.7257C40.9378 23.8233 40.6124 24.0581 40.3994 24.3844C40.2604 24.5905 40.1747 24.8285 40.1504 25.0767C40.1545 25.2487 40.1794 25.3411 40.1919 25.3411Z" fill="#55646F"/>
<path d="M45.3125 25.4075C45.3415 25.4075 45.3125 25.2733 45.3125 25.0803C45.3368 24.8249 45.4238 24.5798 45.5656 24.367C45.7274 24.1195 45.9183 23.8677 46.0304 23.7293C46.1424 23.5908 46.2669 23.6957 46.2877 23.6831C46.3084 23.6706 46.2877 23.6286 46.2337 23.5866C46.1865 23.5606 46.1329 23.5487 46.0792 23.5524C46.0256 23.5561 45.9741 23.5753 45.9308 23.6076C45.8281 23.689 45.7348 23.7819 45.6528 23.8845C45.5498 24.0004 45.4554 24.1238 45.3706 24.2537C45.2067 24.5007 45.1307 24.7965 45.1548 25.0929C45.188 25.311 45.2876 25.4201 45.3125 25.4075Z" fill="#55646F"/>
<path d="M50.0612 22.3878C50.0861 22.3878 50.0612 22.199 49.9118 21.9683C49.8199 21.8147 49.6933 21.6853 49.5424 21.5906C49.348 21.4687 49.1174 21.4196 48.8909 21.4522C48.5032 21.5194 48.1549 21.7322 47.9157 22.048C47.7372 22.2703 47.6542 22.4214 47.675 22.4382C47.6957 22.4549 47.8327 22.3375 48.0319 22.1529C48.2731 21.9045 48.5825 21.735 48.92 21.6662C49.0844 21.6497 49.2502 21.6771 49.4009 21.7455C49.5516 21.814 49.682 21.9212 49.779 22.0564C49.9657 22.2452 50.0612 22.4004 50.0612 22.3878Z" fill="#55646F"/>
<path d="M48.8163 32.5954C49.5542 31.6752 49.9597 30.5283 49.9659 29.3438C49.8995 29.3438 49.7708 30.099 49.4554 30.9926C49.14 31.8863 48.7707 32.545 48.8163 32.5954Z" fill="#55646F"/>
<path d="M47.75 33.1576C48.024 32.8404 48.2265 32.4668 48.3434 32.0625C48.5281 31.688 48.6287 31.2768 48.6381 30.8584C48.4205 31.2096 48.2515 31.5894 48.1359 31.987C47.9514 32.3561 47.8214 32.7504 47.75 33.1576Z" fill="#55646F"/>
<path d="M40.98 33.3213C40.8662 34.033 40.9629 34.7628 41.258 35.4191C41.4939 36.1168 41.9267 36.7294 42.503 37.1813C42.1164 36.5976 41.7778 35.983 41.4904 35.3436C41.2665 34.6845 41.0958 34.0082 40.98 33.3213Z" fill="#55646F"/>
<path d="M39.9004 31.5664C39.6426 32.1652 39.5872 32.8332 39.7427 33.467C39.8265 34.119 40.1178 34.7258 40.5726 35.1956C40.3195 34.6256 40.1154 34.0347 39.9626 33.4293C39.8864 32.8115 39.8656 32.188 39.9004 31.5664Z" fill="#55646F"/>
<path d="M26.9003 65.208V75.2775C26.9003 75.2775 34.3701 91.9677 34.3701 91.7118C34.3701 91.4558 37.0385 81.1766 37.0385 81.1766L34.034 73.1587L33.7518 67.9225L27.5851 55.4531C27.5851 55.4531 26.0538 63.8444 26.3028 64.3479C26.456 64.6645 26.6577 64.9548 26.9003 65.208Z" fill="#FFAC34"/>
<path d="M36.204 45.212C36.204 45.212 29.4148 48.7741 28.5765 49.8733C27.7383 50.9726 27.5723 55.4661 27.5723 55.4661L36.204 72.9199L36.619 79.9518C36.619 79.9518 34.0212 85.4271 34.0212 89.2535V89.6731L33.6062 94.926L43.9808 95.8575C43.9808 95.8575 44.5701 92.9751 44.5701 93.231C44.5701 93.4869 45.3254 95.8575 45.3254 95.8575H62.51L61.875 84.2901L58.9494 66.4335C58.9494 66.4335 60.1943 56.1919 60.2566 55.8185C60.3645 55.1556 71.2454 50.2761 71.2454 50.2761L76.3705 47.4776C77.0245 47.1178 77.5707 46.5867 77.9518 45.9401C78.3329 45.2934 78.535 44.555 78.5367 43.8022C78.5344 43.0243 78.3181 42.2623 77.9122 41.6014C77.5062 40.9405 76.9264 40.4067 76.2377 40.0597L61.7754 32.8223L58.4099 38.5451L62.817 41.4065L65.9751 43.6176L57.2147 44.4568C57.2147 44.4568 55.6585 42.4009 54.9904 42.4009C54.3223 42.4009 48.9565 43.6596 48.9565 43.6596L49.0395 42.3044C49.0395 42.3044 47.6161 40.6933 46.0226 40.7772C44.429 40.8611 37.7228 42.8121 37.7228 42.8121L36.204 45.212Z" fill="#FFAC34"/>
<path d="M60.5678 34.8735L56.7956 32.654L51.0563 29.5073C51.0563 29.5073 49.164 28.0556 48.417 28.0976C48.0997 28.156 47.7982 28.2815 47.5321 28.4658C47.2661 28.6502 47.0416 28.8893 46.8733 29.1675C46.8401 29.3395 47.1513 29.6583 47.6327 29.5241C47.7904 29.4821 48.2303 29.1591 48.4627 29.2094C48.9077 29.3159 49.2928 29.5966 49.5333 29.9898C49.5631 30.0285 49.5814 30.075 49.5861 30.1238C49.5909 30.1726 49.5819 30.2217 49.5602 30.2656C49.5385 30.3095 49.505 30.3462 49.4635 30.3717C49.4221 30.3971 49.3743 30.4102 49.3258 30.4094C49.3258 30.4094 46.0765 29.5702 44.8647 30.2415C44.7218 30.3117 44.6095 30.4326 44.549 30.5812C44.4886 30.7297 44.4843 30.8955 44.5369 31.0471C44.624 31.2611 44.8564 31.4667 45.425 31.3408C46.5662 31.1184 48.4502 32.0037 48.4502 32.0037C48.4502 32.0037 44.234 31.8653 43.5119 32.2303C43.2255 32.3729 42.9143 33.3044 43.7733 33.4009C44.7859 33.5099 46.782 33.468 46.782 33.468C46.782 33.468 48.666 33.7323 48.3631 34.0889C48.0601 34.4456 45.1677 34.4749 44.9477 34.5085C44.7278 34.5421 43.7484 34.5085 43.8024 35.3141C43.8314 35.7714 44.678 36.0609 45.7736 36.0231C46.7031 35.9938 49.5873 35.935 49.9234 36.4679C50.2596 37.0007 50.0313 37.3867 49.7657 37.521C48.9221 37.7307 48.063 37.871 47.197 37.9405C46.8152 37.9405 46.313 38.6538 47.2426 38.8803C48.2552 39.1321 49.11 38.9265 49.9857 38.9265C50.8613 38.9265 51.9818 38.9978 54.4385 38.0244C54.4385 38.0244 56.0984 37.265 58.3559 38.5741L60.5678 34.8735Z" fill="#D4AB93"/>
<path d="M48.5329 43.7427C48.5329 43.8057 45.8895 44.1623 42.6111 44.5819C39.3327 45.0014 36.6643 45.2615 36.6602 45.1986C36.656 45.1357 39.3036 44.779 42.5862 44.3595C45.8687 43.9399 48.5288 43.684 48.5329 43.7427Z" fill="#465159"/>
<path d="M47.9453 80.8447C47.9879 80.7615 48.0365 80.6815 48.0906 80.6055L48.547 79.9384C48.962 79.3636 49.514 78.5203 50.207 77.463C50.9 76.4057 51.6677 75.1386 52.4936 73.6869C53.3194 72.2352 54.1535 70.6367 55.0125 68.9123C55.8715 67.1879 56.5729 65.5138 57.1995 63.974C57.8261 62.4342 58.3324 61.0371 58.735 59.8371C59.1375 58.6372 59.4529 57.6806 59.6562 57.0051C59.7558 56.6904 59.8347 56.4345 59.8969 56.2331C59.9229 56.1424 59.9562 56.054 59.9965 55.9688C59.9879 56.0627 59.9699 56.1555 59.9426 56.2457C59.8886 56.447 59.8222 56.7072 59.7351 57.0302C59.5566 57.7141 59.2703 58.7085 58.8802 59.8875C58.4901 61.0664 57.9921 62.5013 57.3821 64.0495C56.7721 65.5977 56.0417 67.2802 55.2076 69.0088C54.3734 70.7374 53.4978 72.3653 52.6679 73.7876C51.8379 75.2099 51.037 76.4938 50.3356 77.5385C49.6343 78.5832 49.0492 79.4139 48.6259 79.972L48.1404 80.6181C48.0845 80.7012 48.019 80.7773 47.9453 80.8447Z" fill="#465159"/>
<path d="M33.8755 91.7278C33.87 91.6496 33.87 91.5711 33.8755 91.4929C33.8755 91.3251 33.9129 91.0985 33.9377 90.8216C34 90.2384 34.1203 89.3867 34.3071 88.3252C34.8371 85.4687 35.5792 82.6567 36.5273 79.9129V79.9549C36.436 78.4948 36.3405 76.9215 36.2451 75.2894C36.1953 74.4796 36.1496 73.6824 36.104 72.923V72.965C34.2573 69.3274 32.7301 66.0674 31.6885 63.701C31.1656 62.522 30.7673 61.5612 30.5017 60.8983C30.3813 60.5795 30.2817 60.3235 30.207 60.1305C30.1766 60.0448 30.1544 59.9563 30.1406 59.8662C30.1901 59.9473 30.2318 60.033 30.2651 60.1221L30.593 60.8732C30.8834 61.5235 31.2984 62.4759 31.8379 63.6465C32.9127 65.9918 34.4648 69.2434 36.3115 72.8769V72.8978C36.3571 73.6573 36.4069 74.4544 36.4526 75.2642C36.5522 76.8963 36.6435 78.4696 36.7265 79.9297V79.9507C35.7738 82.6811 35.0098 85.4752 34.4399 88.3126C34.2324 89.3699 34.0954 90.2174 34.0249 90.7964L33.9253 91.4635C33.924 91.5539 33.9072 91.6433 33.8755 91.7278Z" fill="#465159"/>
<path d="M45.1466 88.3047C45.0628 89.5975 44.909 90.8847 44.686 92.1605C44.533 93.4449 44.3086 94.7196 44.0137 95.9785C44.0951 94.6869 44.2489 93.4009 44.4743 92.1269C44.6275 90.8411 44.852 89.565 45.1466 88.3047Z" fill="#465159"/>
<path d="M57.4445 52.6877C57.3578 52.5976 57.2838 52.496 57.2245 52.3856C57.0959 52.1842 56.9216 51.8821 56.7224 51.5003C56.2096 50.4986 55.8021 49.4454 55.5065 48.3578C55.2082 47.2711 55.0219 46.1561 54.9504 45.0306C54.9255 44.6111 54.9214 44.2503 54.9297 44.0111C54.924 43.8857 54.9352 43.7601 54.9629 43.6377C55.0002 43.6377 55.0127 44.1663 55.104 45.0181C55.3278 47.2397 55.9213 49.4072 56.8594 51.429C57.0757 51.8381 57.271 52.2582 57.4445 52.6877Z" fill="#465159"/>
<g opacity="0.3">
<path d="M48.4004 80.0423C48.8274 80.2244 49.2906 80.3034 49.7531 80.2728C50.2156 80.2422 50.6647 80.1029 51.0646 79.8661C51.8589 79.3826 52.5547 78.7504 53.1146 78.0032C57.4707 72.6544 59.6437 65.8265 59.19 58.9131C56.7386 66.2881 53.2186 73.2545 48.7448 79.585" fill="#1B232E"/>
</g>
<g opacity="0.3">
<path d="M30.4808 60.7387C30.1182 60.3002 29.6533 59.9598 29.128 59.7485C28.8838 59.6516 28.6119 59.6543 28.3696 59.756C28.1273 59.8578 27.9335 60.0506 27.8291 60.294C27.784 60.5783 27.8215 60.8698 27.937 61.1331C28.7379 63.5204 29.5637 65.9623 31.1324 67.9216C31.4149 68.2387 31.7472 68.5066 32.1159 68.7146C32.4894 68.9538 33.5061 69.1635 33.6472 68.7566C33.72 68.4108 33.72 68.0534 33.6472 67.7077C33.6472 67.7077 31.4104 63.0925 30.3273 60.7219" fill="#1B232E"/>
</g>
<g opacity="0.3">
<path d="M65.8844 43.6124C66.8829 43.8504 67.9244 43.8317 68.9138 43.5578C67.3576 42.3663 65.3284 42.1061 63.3945 41.8418L65.8844 43.6124Z" fill="#1B232E"/>
</g>
<path d="M72.2914 43.7878C71.9699 43.8202 71.646 43.8202 71.3245 43.7878L69.0089 43.7207L66.6932 43.6829C66.3713 43.6969 66.0488 43.6787 65.7305 43.6284C66.0448 43.5555 66.3667 43.5217 66.6891 43.5277C67.2825 43.4983 68.1042 43.4816 69.013 43.5025C69.9218 43.5235 70.7435 43.5781 71.3369 43.6326C71.66 43.6463 71.9804 43.6984 72.2914 43.7878Z" fill="#465159"/>
<path d="M29.3105 72.034C29.3105 72.0088 29.5305 72.1598 29.8459 72.4032C30.2391 72.7294 30.6713 73.0042 31.1323 73.2213C31.5931 73.4233 32.1007 73.4902 32.5972 73.4143C32.9749 73.343 33.1824 73.2004 33.2031 73.2339C33.2239 73.2675 33.033 73.4479 32.6304 73.5654C32.1023 73.6957 31.5463 73.6456 31.0493 73.4227C30.5677 73.1987 30.1271 72.8937 29.7463 72.5207C29.4641 72.2228 29.3105 72.034 29.3105 72.034Z" fill="#465159"/>
<path opacity="0.3" d="M45.1466 89.0977L47.1884 95.8778H45.3375L44.4785 92.8276L45.1466 89.0977Z" fill="#1B232E"/>
</g>
</g>
</svg>
