<svg width="234" height="234" viewBox="0 0 234 234" fill="none" xmlns="http://www.w3.org/2000/svg">
<mask id="mask0_3_34163" style="mask-type:luminance" maskUnits="userSpaceOnUse" x="0" y="0" width="234" height="234">
<path d="M0.109375 0.679688H233.359V234H0.109375V0.679688Z" fill="white"/>
</mask>
<g mask="url(#mask0_3_34163)">
<path d="M209.977 305.039L58.3508 304.736L58.2939 304.734L58.2962 304.667L58.3598 299.179L60.8722 77.4591L60.9377 72.0581L60.9381 71.905L61.0623 71.9003L182.742 72.147L182.915 72.2441L192.505 77.7202L212.362 89.0551L210.038 299.481L210.043 299.481L209.977 305.039Z" fill="#FCFEFF"/>
<path d="M209.979 305.041L58.2596 304.805L58.2026 304.803L58.2049 304.739L60.7754 71.8997L60.7757 71.7476L60.8998 71.746L182.735 72.0431L182.756 72.0439L182.77 72.0504L212.391 88.9714L212.431 88.9909L212.43 89.0398L210.039 299.475L210.044 299.475L209.979 305.041ZM209.979 305.041L210.045 299.487L210.04 299.487L212.296 89.0472L212.335 89.1216L182.702 72.2301L182.738 72.2374L60.9042 72.0503L61.0337 71.8957L58.3178 304.743L58.2632 304.674L209.979 305.041Z" fill="#263238"/>
<path d="M74.3546 197.747L137.641 197.997L137.579 202.89L74.2918 202.64L74.3546 197.747Z" fill="#C7C7C7" fill-opacity="0.51"/>
<path d="M74.3546 207.485L137.641 207.735L137.579 212.629L74.2918 212.378L74.3546 207.485Z" fill="#C7C7C7" fill-opacity="0.51"/>
<path d="M74.3446 217.224L115.734 217.318L115.681 222.211L74.2918 222.116L74.3446 217.224Z" fill="#C7C7C7" fill-opacity="0.51"/>
<path d="M60.9381 71.905L60.9378 72.0571L61.0623 71.9003L60.9381 71.905ZM58.2962 304.667L58.2939 304.734L58.3508 304.736L58.2962 304.667ZM58.4157 299.181L60.9963 77.4574L61.0619 72.0564L60.9377 72.0581L60.8722 77.4591L58.3598 299.179L58.2962 304.667L58.3532 304.669L58.4157 299.181ZM182.742 72.147L61.0623 71.9003L61.062 72.0524L182.915 72.2441L182.742 72.147ZM58.3532 304.669L58.3508 304.736L209.977 305.039L58.3532 304.669Z" fill="#263238"/>
<path d="M186.286 72.368L195.481 78.3926L77.6789 78.1522L66.3923 78.1443L60.9482 78.1373L60.8211 78.1399L60.8961 72.351L60.8967 72.1919L61.024 72.1864L186.109 72.2618L186.286 72.368Z" fill="#455A64"/>
<path d="M147.427 93.7858L74.7499 93.2695L74.102 184.475L146.779 184.992L147.427 93.7858Z" fill="#DBDBDB"/>
<path d="M189.834 93.0441L157.773 92.8164L157.758 94.9834L189.818 95.2111L189.834 93.0441Z" fill="#455A64"/>
<path d="M105.787 234.15L73.7264 233.922L73.711 236.089L105.771 236.317L105.787 234.15Z" fill="#455A64"/>
<path d="M156.629 104.991C160.69 104.898 164.755 104.85 168.819 104.816L181.004 104.769L193.191 104.833C197.252 104.877 201.314 104.927 205.373 105.028C201.312 105.129 197.248 105.17 193.189 105.203L181.004 105.249L168.817 105.185C164.75 105.143 160.688 105.093 156.629 104.991Z" fill="#A6A6A6"/>
<path d="M156.614 111.956C160.674 111.863 164.74 111.814 168.798 111.781L180.983 111.733L193.169 111.798C197.23 111.839 201.292 111.891 205.351 111.993C201.29 112.086 197.225 112.134 193.162 112.168L180.977 112.214L168.79 112.15C164.734 112.107 160.673 112.058 156.614 111.956Z" fill="#A6A6A6"/>
<path d="M156.332 118.925C160.393 118.831 164.458 118.783 168.517 118.75L180.702 118.702L192.888 118.766C196.949 118.808 201.011 118.86 205.07 118.962C201.009 119.055 196.944 119.103 192.885 119.137L180.7 119.182L168.514 119.118C164.453 119.076 160.391 119.026 156.332 118.925Z" fill="#A6A6A6"/>
<path d="M156.166 125.067C158.649 124.983 161.13 124.959 163.61 124.934C166.09 124.91 168.578 124.931 171.057 124.932C173.536 124.966 176.022 124.981 178.5 125.041C180.979 125.102 183.462 125.161 185.945 125.28C183.461 125.363 180.981 125.395 178.5 125.412C176.02 125.43 173.533 125.416 171.054 125.414C168.574 125.381 166.088 125.371 163.611 125.306C161.134 125.24 158.648 125.179 156.166 125.067Z" fill="#A6A6A6"/>
<path d="M155.895 137.831C159.956 137.738 164.02 137.689 168.079 137.656L180.264 137.608L192.451 137.673C196.512 137.714 200.573 137.766 204.632 137.868C200.571 137.968 196.506 138.009 192.448 138.043L180.263 138.09L168.077 138.025C164.016 137.982 159.954 137.933 155.895 137.831Z" fill="#A6A6A6"/>
<path d="M155.746 144.8C159.807 144.706 163.872 144.658 167.931 144.625L180.116 144.577L192.302 144.641C196.363 144.683 200.425 144.735 204.484 144.837C200.423 144.93 196.358 144.978 192.294 145.011L180.109 145.057L167.923 144.993C163.867 144.951 159.805 144.901 155.746 144.8Z" fill="#A6A6A6"/>
<path d="M155.606 150.768C159.667 150.675 163.732 150.627 167.795 150.594L179.98 150.546L192.168 150.61C196.229 150.652 200.29 150.704 204.35 150.806C200.288 150.906 196.224 150.947 192.16 150.98L179.975 151.026L167.789 150.962C163.727 150.92 159.666 150.87 155.606 150.768Z" fill="#A6A6A6"/>
<path d="M155.325 157.733C159.385 157.64 163.45 157.592 167.508 157.558L179.693 157.511L191.874 157.575C195.935 157.619 199.996 157.668 204.053 157.77C199.992 157.87 195.928 157.911 191.869 157.945L179.684 157.991L167.498 157.926C163.445 157.885 159.384 157.835 155.325 157.733Z" fill="#A6A6A6"/>
<path d="M155.306 163.879C157.79 163.796 160.27 163.771 162.751 163.747C165.231 163.722 167.719 163.743 170.198 163.745C172.677 163.778 175.163 163.793 177.641 163.854C180.119 163.914 182.603 163.974 185.085 164.093C182.603 164.176 180.121 164.203 177.641 164.226C175.161 164.248 172.674 164.229 170.194 164.228C167.715 164.193 165.229 164.184 162.752 164.118C160.274 164.053 157.789 163.998 155.306 163.879Z" fill="#A6A6A6"/>
<path d="M197.754 182.027L156.625 181.735L156.609 183.902L197.738 184.194L197.754 182.027Z" fill="#455A64"/>
<path d="M154.649 191.35L139.015 191.239L139 193.409L154.634 193.52L154.649 191.35Z" fill="#C7C7C7"/>
<path d="M154.508 209.811L138.875 209.7L138.859 211.87L154.493 211.981L154.508 209.811Z" fill="#C7C7C7"/>
<path d="M154.376 228.268L138.742 228.157L138.727 230.327L154.36 230.438L154.376 228.268Z" fill="#C7C7C7"/>
<path d="M171.155 191.482C173.138 191.355 175.12 191.281 177.105 191.219L183.05 191.086L188.995 191.064C190.981 191.074 192.957 191.096 194.936 191.165C192.953 191.296 190.971 191.367 188.987 191.429L183.041 191.561L177.096 191.584C175.113 191.574 173.136 191.551 171.155 191.482Z" fill="#A6A6A6"/>
<path d="M171.108 197.408C173.092 197.28 175.073 197.207 177.058 197.145L183.003 197.012L188.948 196.99C190.934 197 192.91 197.022 194.889 197.091C192.906 197.222 190.924 197.293 188.94 197.355L182.994 197.487L177.049 197.51C175.07 197.5 173.089 197.476 171.108 197.408Z" fill="#A6A6A6"/>
<path d="M171.043 201.804C172.495 201.716 173.938 201.676 175.388 201.647C176.838 201.619 178.286 201.632 179.735 201.623C181.183 201.654 182.632 201.658 184.079 201.709C185.526 201.759 186.977 201.816 188.424 201.925C186.973 202.01 185.529 202.053 184.079 202.081C182.629 202.109 181.177 202.098 179.732 202.106C178.284 202.075 176.837 202.07 175.388 202.02C173.939 201.969 172.488 201.912 171.043 201.804Z" fill="#A6A6A6"/>
<path d="M170.749 209.982C172.732 209.855 174.714 209.781 176.698 209.719L182.644 209.586L188.589 209.564C190.575 209.574 192.55 209.596 194.53 209.665C192.546 209.796 190.565 209.867 188.58 209.929L182.635 210.061L176.69 210.084C174.707 210.074 172.729 210.058 170.749 209.982Z" fill="#A6A6A6"/>
<path d="M170.702 215.908C172.685 215.78 174.667 215.707 176.651 215.645L182.597 215.511L188.542 215.49C190.528 215.499 192.503 215.522 194.483 215.591C192.499 215.722 190.518 215.793 188.533 215.855L182.588 215.987L176.643 216.01C174.664 216 172.682 215.983 170.702 215.908Z" fill="#A6A6A6"/>
<path d="M170.637 220.304C172.089 220.216 173.532 220.176 174.982 220.147C176.432 220.119 177.88 220.132 179.329 220.123C180.777 220.154 182.226 220.158 183.673 220.209C185.12 220.259 186.571 220.316 188.018 220.425C186.567 220.51 185.123 220.553 183.673 220.581C182.223 220.609 180.77 220.598 179.325 220.606C177.878 220.575 176.431 220.57 174.982 220.52C173.533 220.469 172.082 220.412 170.637 220.304Z" fill="#A6A6A6"/>
<path d="M170.343 228.486C172.326 228.359 174.308 228.284 176.292 228.223L182.238 228.09L188.183 228.068C190.169 228.077 192.144 228.1 194.124 228.169C192.141 228.3 190.159 228.371 188.174 228.433L182.229 228.565L176.284 228.588C174.305 228.578 172.323 228.562 170.343 228.486Z" fill="#A6A6A6"/>
<path d="M170.296 234.416C172.279 234.288 174.261 234.215 176.245 234.153L182.191 234.02L188.136 233.998C190.122 234.007 192.097 234.03 194.077 234.099C192.094 234.23 190.112 234.301 188.127 234.363L182.182 234.495L176.237 234.518C174.258 234.508 172.276 234.484 170.296 234.416Z" fill="#A6A6A6"/>
<path d="M162.351 191.743L162.409 201.09L162.414 210.436L162.339 229.138L162.273 230.284L162.135 239.632L161.944 248.984L161.887 239.63L161.882 230.284L161.831 229.133L162.029 210.436L162.161 201.089L162.351 191.743Z" fill="#8DD6FF"/>
<path d="M163.311 192.487C163.31 192.678 163.252 192.865 163.145 193.023C163.037 193.181 162.885 193.304 162.708 193.375C162.531 193.447 162.337 193.465 162.15 193.426C161.963 193.387 161.791 193.294 161.657 193.158C161.523 193.021 161.432 192.849 161.397 192.661C161.361 192.473 161.382 192.279 161.456 192.103C161.531 191.927 161.656 191.777 161.816 191.672C161.975 191.568 162.163 191.512 162.354 191.514C162.481 191.515 162.606 191.541 162.723 191.59C162.84 191.64 162.946 191.712 163.035 191.802C163.124 191.892 163.194 191.999 163.241 192.117C163.289 192.235 163.313 192.36 163.311 192.487Z" fill="#8DD6FF"/>
<path d="M163.179 210.995C163.177 211.186 163.119 211.372 163.012 211.531C162.905 211.689 162.753 211.811 162.576 211.883C162.398 211.955 162.204 211.973 162.017 211.934C161.83 211.895 161.658 211.802 161.524 211.665C161.39 211.529 161.3 211.356 161.264 211.169C161.228 210.981 161.249 210.787 161.323 210.611C161.398 210.435 161.523 210.285 161.683 210.18C161.843 210.075 162.03 210.02 162.221 210.022C162.348 210.023 162.473 210.049 162.59 210.098C162.707 210.147 162.813 210.219 162.902 210.31C162.991 210.4 163.061 210.507 163.109 210.625C163.156 210.742 163.18 210.868 163.179 210.995Z" fill="#8DD6FF"/>
<path d="M163.046 229.514C163.044 229.705 162.986 229.892 162.879 230.05C162.772 230.208 162.62 230.331 162.443 230.403C162.266 230.474 162.071 230.492 161.884 230.453C161.697 230.414 161.525 230.321 161.391 230.185C161.257 230.049 161.167 229.876 161.131 229.688C161.095 229.5 161.116 229.306 161.191 229.13C161.265 228.954 161.39 228.804 161.55 228.7C161.71 228.595 161.897 228.54 162.088 228.541C162.215 228.542 162.34 228.568 162.457 228.617C162.574 228.667 162.68 228.739 162.769 228.829C162.858 228.92 162.928 229.027 162.976 229.144C163.023 229.262 163.047 229.388 163.046 229.514Z" fill="#8DD6FF"/>
<path d="M138.476 182.59L138.518 192.356L138.513 202.121L138.431 221.647L138.232 241.175L138.091 250.935L137.905 260.699L137.858 250.933L137.862 241.168L137.952 221.643L138.15 202.114L138.284 192.354L138.476 182.59Z" fill="#455A64"/>
<path d="M185.312 72.1055L211.914 88.727L200.47 95.1245L185.312 72.1055Z" fill="#DBDBDB"/>
<path d="M144.425 81.3512C144.413 81.2843 144.406 81.2166 144.405 81.1487C144.397 80.9974 144.387 80.7968 144.371 80.5435C144.349 79.9924 144.316 79.2075 144.275 78.2071C144.241 77.1863 144.192 75.9474 144.14 74.5104C144.136 73.7442 144.085 72.9789 143.991 72.2186C143.93 71.8094 143.797 71.4142 143.598 71.0519C143.392 70.6784 143.07 70.383 142.679 70.2117C142.25 70.0509 141.786 70.0052 141.334 70.079C140.881 70.1528 140.456 70.3436 140.1 70.6325C139.335 71.2982 138.8 72.1889 138.572 73.177C138.049 75.3781 137.921 77.6547 138.194 79.9006C138.3 81.0904 138.419 82.3184 138.576 83.5599C138.709 84.8219 139.045 86.0541 139.572 87.2085C140.134 88.3899 141.093 89.3371 142.28 89.8858C142.881 90.1569 143.543 90.2633 144.199 90.1941C144.861 90.1137 145.488 89.8517 146.011 89.4372C147.052 88.5804 147.76 87.3862 148.012 86.0618C148.249 84.7648 148.331 83.4443 148.256 82.1281C148.194 79.5127 148.134 76.9979 148.08 74.596C148.055 73.3987 148.033 72.2302 148.011 71.0907C147.986 69.9512 147.97 68.8506 147.858 67.7958C147.775 66.7776 147.552 65.7756 147.197 64.8179C146.863 63.9389 146.338 63.1449 145.661 62.4931C144.455 61.3987 142.895 60.7745 141.267 60.7345C140.04 60.6652 138.824 61 137.806 61.6875C137.178 62.1445 136.679 62.7561 136.357 63.4629C136.142 63.9501 136.08 64.2247 136.064 64.2233C136.117 63.9546 136.2 63.6924 136.31 63.4418C136.615 62.7104 137.112 62.0749 137.748 61.6021C138.779 60.8768 140.022 60.517 141.281 60.5801C142.954 60.6048 144.561 61.2336 145.808 62.3504C146.51 63.0184 147.055 63.8333 147.406 64.7368C147.775 65.7113 148.007 66.7327 148.094 67.7713C148.21 68.8375 148.231 69.9496 148.262 71.0835C148.292 72.2175 148.324 73.3897 148.357 74.5881C148.422 76.9859 148.486 79.5082 148.554 82.122C148.635 83.4582 148.553 84.7994 148.312 86.1161C148.045 87.5051 147.301 88.7571 146.208 89.6552C145.645 90.1007 144.97 90.3811 144.257 90.4653C143.553 90.5407 142.841 90.4264 142.195 90.1343C140.949 89.5569 139.943 88.5616 139.354 87.3209C138.816 86.1382 138.474 84.8764 138.339 83.5843C138.18 82.3307 138.066 81.1091 137.958 79.9091C137.688 77.632 137.827 75.3249 138.371 73.0971C138.615 72.0638 139.183 71.1357 139.993 70.4484C140.38 70.1391 140.842 69.9369 141.332 69.8621C141.821 69.7873 142.322 69.8425 142.784 70.0221C143.21 70.2152 143.561 70.5407 143.786 70.95C143.988 71.3321 144.122 71.7467 144.181 72.175C144.272 72.9448 144.314 73.7197 144.306 74.4948C144.342 75.9314 144.373 77.1728 144.392 78.1933C144.412 79.1989 144.425 79.98 144.436 80.53C144.434 80.7889 144.439 80.988 144.442 81.1399C144.44 81.2105 144.434 81.2811 144.425 81.3512Z" fill="#263238"/>
<path d="M134.983 154.846L131.279 150.37L86.7487 158.832C86.7487 158.832 82.6865 177.727 82.8319 178.967C82.8173 180.548 82.6729 182.125 82.4003 183.682L142.78 184.259C142.78 184.253 144.901 168.047 134.983 154.846Z" fill="#263238"/>
<path d="M97.7615 168.326C97.6915 168.495 97.5951 168.651 97.4759 168.79C97.2685 169.073 96.9634 169.474 96.5516 169.947C96.0653 170.507 95.5161 171.009 94.915 171.443C94.1686 171.97 93.3261 172.345 92.4353 172.547C90.8348 172.911 89.1857 173.011 87.553 172.843C87.0614 172.798 86.5728 172.725 86.0894 172.625C85.9062 172.608 85.7276 172.559 85.5622 172.478C85.5725 172.429 86.3358 172.54 87.5674 172.609C89.1741 172.706 90.7863 172.576 92.3571 172.225C93.2106 172.034 94.021 171.686 94.7467 171.198C95.3357 170.784 95.8815 170.312 96.3758 169.788C97.2348 168.896 97.7213 168.292 97.7615 168.326Z" fill="#455A64"/>
<path d="M110.799 183.993C110.73 183.797 110.691 183.592 110.683 183.385C110.629 182.991 110.56 182.42 110.496 181.716C110.361 180.304 110.226 178.344 110.176 176.18C110.126 174.015 110.173 172.052 110.247 170.635C110.284 169.925 110.326 169.351 110.36 168.958C110.36 168.75 110.391 168.543 110.453 168.344C110.51 169.107 110.518 169.874 110.478 170.639C110.467 172.059 110.454 174.01 110.503 176.17C110.552 178.329 110.652 180.28 110.73 181.693C110.803 182.457 110.826 183.225 110.799 183.993Z" fill="#455A64"/>
<path d="M115.037 183.359C114.949 183.357 114.864 180.092 114.846 176.06C114.829 172.029 114.888 168.757 114.982 168.76C115.076 168.762 115.155 172.029 115.173 176.058C115.191 180.087 115.125 183.361 115.037 183.359Z" fill="#455A64"/>
<path d="M138.059 162.903C138.076 162.924 137.917 163.086 137.61 163.366C137.302 163.646 136.866 164.043 136.286 164.501C135.609 165.047 134.882 165.527 134.113 165.932C133.161 166.439 132.117 166.749 131.042 166.846C129.959 166.926 128.873 166.707 127.906 166.213C127.128 165.817 126.409 165.315 125.768 164.721C125.336 164.329 124.927 163.911 124.545 163.47C124.393 163.319 124.261 163.149 124.155 162.964C124.196 162.923 124.809 163.599 125.923 164.545C126.564 165.101 127.274 165.57 128.036 165.941C128.962 166.394 129.992 166.592 131.02 166.517C132.052 166.424 133.056 166.134 133.979 165.663C134.738 165.277 135.463 164.825 136.144 164.314C137.32 163.441 138.024 162.864 138.059 162.903Z" fill="#455A64"/>
<path d="M140.329 175.29C140.141 175.411 139.939 175.507 139.726 175.577L138.051 176.271C136.636 176.864 134.701 177.719 132.613 178.767C130.525 179.815 128.679 180.872 127.36 181.655C126.75 182.022 126.233 182.329 125.802 182.587C125.619 182.718 125.42 182.824 125.209 182.901C125.363 182.739 125.538 182.599 125.729 182.482C126.077 182.229 126.592 181.879 127.238 181.458C128.924 180.373 130.666 179.377 132.457 178.476C134.247 177.574 136.084 176.765 137.959 176.054C138.68 175.784 139.269 175.579 139.677 175.451C139.886 175.368 140.106 175.314 140.329 175.29Z" fill="#455A64"/>
<path d="M101.132 166.731C101.087 166.74 100.965 166.415 100.813 165.861C100.612 165.143 100.491 164.406 100.452 163.662C100.411 162.908 100.52 162.153 100.772 161.441C100.976 160.9 101.191 160.611 101.226 160.632C100.92 161.609 100.769 162.629 100.78 163.653C100.824 164.38 100.912 165.103 101.042 165.819C101.122 166.116 101.153 166.424 101.132 166.731Z" fill="#455A64"/>
<path d="M103.731 167.114C103.604 166.823 103.527 166.512 103.503 166.196C103.36 165.446 103.29 164.685 103.295 163.922C103.304 163.494 103.362 163.069 103.468 162.655C103.565 162.315 103.707 161.99 103.891 161.688C104.043 161.401 104.268 161.16 104.544 160.989C104.411 161.27 104.261 161.543 104.095 161.805C103.778 162.469 103.616 163.196 103.62 163.931C103.6 164.797 103.701 165.59 103.732 166.171C103.788 166.483 103.787 166.802 103.731 167.114Z" fill="#455A64"/>
<path d="M119.92 167.011C119.997 165.454 119.81 163.895 119.368 162.4C118.821 160.942 118.037 159.585 117.047 158.383C117.439 158.64 117.78 158.965 118.056 159.344C118.772 160.221 119.321 161.222 119.676 162.297C120.034 163.37 120.193 164.5 120.144 165.63C120.151 166.1 120.076 166.568 119.92 167.011Z" fill="#455A64"/>
<path d="M122.895 166.256C122.74 164.83 122.48 163.417 122.118 162.029C121.64 160.674 121.066 159.354 120.398 158.082C120.713 158.377 120.975 158.723 121.174 159.106C121.71 159.99 122.133 160.938 122.433 161.927C122.735 162.916 122.915 163.938 122.97 164.97C123.01 165.4 122.985 165.833 122.895 166.256Z" fill="#455A64"/>
<path d="M112.046 163.136C112.03 163.123 112.173 162.979 112.504 162.857C112.986 162.695 113.511 162.721 113.974 162.929C114.302 163.068 114.588 163.292 114.801 163.577C115.036 163.92 115.152 164.329 115.133 164.744C115.11 165.198 114.952 165.635 114.678 165.998C114.529 166.197 114.343 166.364 114.129 166.49C113.915 166.616 113.678 166.698 113.432 166.731C112.958 166.787 112.48 166.683 112.071 166.436C111.663 166.189 111.349 165.814 111.178 165.369C111.059 164.976 111.058 164.557 111.177 164.164C111.256 163.817 111.43 163.498 111.678 163.243C112.059 162.903 112.552 162.718 113.062 162.723C113.155 162.717 113.248 162.73 113.336 162.76C113.424 162.791 113.505 162.838 113.574 162.9C113.407 162.861 113.236 162.844 113.064 162.849C112.604 162.891 112.173 163.088 111.84 163.409C111.638 163.645 111.501 163.929 111.441 164.234C111.345 164.575 111.353 164.937 111.464 165.273C111.62 165.645 111.892 165.957 112.24 166.161C112.588 166.366 112.993 166.453 113.394 166.41C113.79 166.336 114.148 166.129 114.41 165.823C114.673 165.517 114.822 165.131 114.835 164.729C114.863 164.378 114.776 164.027 114.587 163.73C114.411 163.473 114.17 163.267 113.887 163.135C113.472 162.929 112.998 162.872 112.545 162.974C112.222 163.059 112.063 163.164 112.046 163.136Z" fill="#455A64"/>
<path d="M78.4975 99.2235C78.1173 99.6109 67.5599 105.109 65.6978 109.079C63.8356 113.05 64.7912 129.997 64.9555 132.927C65.1199 135.856 69.8385 147.276 69.8385 147.276C69.8385 147.276 68.2307 151.885 69.5455 154.927C70.401 156.813 71.7901 158.407 73.5411 159.512L84.0734 154.886L80.2962 126.12L78.4975 99.2235Z" fill="#F99D25"/>
<path d="M76.9928 128.961C77.3152 128.581 77.7246 128.353 77.9884 128.069C78.2521 127.785 78.7752 127.692 78.9976 128.007C79.2502 128.367 78.9008 128.838 78.5729 129.132C79.5852 129.265 80.4734 127.947 81.4286 128.308C81.5741 128.386 81.7021 128.493 81.8052 128.623C81.9082 128.752 81.9841 128.9 82.0282 129.06C82.0724 129.219 82.084 129.386 82.0623 129.549C82.0405 129.713 81.986 129.871 81.9018 130.013C81.5348 130.576 80.9973 131.007 80.3678 131.242C79.7399 131.472 79.1634 131.823 78.6713 132.275C78.4352 132.531 78.2611 132.937 78.4694 133.218C78.8172 133.694 79.7795 133.252 80.0802 133.761C80.289 134.105 79.9639 134.517 79.6702 134.787C78.5971 135.774 77.5181 136.76 76.446 137.747C76.1851 138.034 75.8522 138.246 75.4818 138.361C75.2953 138.415 75.095 138.396 74.922 138.307C74.7491 138.218 74.6167 138.067 74.5519 137.884C74.54 137.695 74.5885 137.507 74.6906 137.347C74.7926 137.188 74.9428 137.065 75.1193 136.997C75.4748 136.868 75.8202 136.714 76.1526 136.534C76.3156 136.437 76.4346 136.281 76.4847 136.098C76.5348 135.915 76.512 135.72 76.421 135.554C76.1267 135.189 75.5403 135.42 75.1411 135.681C73.9149 136.478 72.6935 137.275 71.4769 138.07C71.2245 138.271 70.9221 138.399 70.6024 138.44C70.4428 138.453 70.2841 138.405 70.1594 138.304C70.0347 138.204 69.9535 138.059 69.9329 137.9C69.9502 137.733 70.0164 137.575 70.1232 137.446C70.847 136.409 71.7916 135.546 72.8891 134.917C73.3213 134.716 73.7179 134.446 74.0633 134.117C74.2352 133.95 74.3501 133.733 74.3914 133.497C74.4328 133.261 74.3986 133.018 74.2937 132.803C73.5649 133.379 72.7715 133.868 71.9296 134.261C71.628 134.405 71.2111 134.5 71.0207 134.232C70.8303 133.964 71.0844 133.584 71.3349 133.348C72.6387 132.061 73.9436 130.777 75.2497 129.495C75.3931 129.31 75.5722 129.156 75.7763 129.042C75.9805 128.928 76.2055 128.857 76.438 128.832L76.9928 128.961Z" fill="white"/>
<path d="M87.3566 90.5919L84.1081 95.4804L76.1857 100.762C74.5139 108.122 73.827 115.672 74.1431 123.213C74.1431 123.213 82.3911 153.463 82.5471 154.766C82.8314 157.185 87.0206 159.568 87.0206 159.568C87.0206 159.568 103.481 161.159 109.212 160.837C114.944 160.515 129.392 153.084 130.784 152.044C132.176 151.003 134.156 145.629 134.156 145.629L126.547 116.526L127.716 96.6245L112.998 91.442L108.232 87.0358L87.3566 90.5919Z" fill="#F99D25"/>
<path d="M100.9 115.326C100.908 115.329 100.94 115.251 100.989 115.093C101.049 114.912 101.12 114.686 101.211 114.407C101.405 113.804 101.685 112.928 102.072 111.829C103.122 108.826 104.378 105.898 105.83 103.067L105.558 103.053C106.604 105.723 107.775 108.721 109.005 111.883C109.113 112.163 109.221 112.438 109.321 112.694L109.568 113.317L109.639 112.653C110.267 106.621 110.832 101.2 111.241 97.2487C111.428 95.3088 111.58 93.7346 111.69 92.6092C111.733 92.087 111.767 91.6691 111.796 91.3447C111.818 91.1994 111.824 91.0521 111.813 90.9055C111.769 91.0472 111.742 91.1935 111.732 91.3414C111.688 91.6577 111.634 92.0765 111.568 92.5929C111.433 93.7212 111.246 95.2942 111.018 97.2222C110.578 101.172 109.979 106.592 109.314 112.615L109.626 112.575C109.527 112.319 109.417 112.038 109.311 111.764C108.068 108.607 106.886 105.614 105.835 102.945L105.716 102.635L105.569 102.928C104.126 105.778 102.901 108.734 101.904 111.77C101.542 112.88 101.29 113.765 101.122 114.378C101.052 114.663 100.99 114.892 100.943 115.076C100.918 115.157 100.904 115.241 100.9 115.326Z" fill="#263238"/>
<g opacity="0.3">
<path d="M111.756 91.0391C112.476 99.7794 111.856 108.578 109.917 117.132C107.344 115.182 105.537 112.391 104.812 109.245C104.16 111.304 102.897 113.116 101.191 114.44C102.211 110.506 103.706 106.712 105.644 103.141C105.644 103.141 109.532 113.035 109.426 112.781C110.247 105.468 111.025 98.2923 111.756 91.0391Z" fill="black"/>
</g>
<path d="M127.93 115.094C128.253 114.714 128.662 114.486 128.926 114.202C129.19 113.918 129.713 113.825 129.935 114.139C130.188 114.5 129.838 114.971 129.51 115.265C130.523 115.397 131.411 114.08 132.366 114.44C132.512 114.519 132.64 114.626 132.743 114.756C132.846 114.885 132.922 115.034 132.966 115.193C133.01 115.352 133.021 115.519 133 115.683C132.978 115.847 132.923 116.005 132.839 116.147C132.472 116.71 131.935 117.14 131.305 117.375C130.677 117.605 130.101 117.956 129.609 118.408C129.373 118.664 129.199 119.07 129.407 119.352C129.755 119.828 130.717 119.385 131.018 119.895C131.226 120.239 130.901 120.651 130.608 120.921C129.535 121.908 128.457 122.894 127.383 123.88C127.122 124.167 126.789 124.379 126.418 124.493C126.232 124.546 126.033 124.526 125.861 124.438C125.69 124.349 125.558 124.199 125.492 124.017C125.48 123.828 125.529 123.64 125.631 123.48C125.733 123.321 125.883 123.198 126.06 123.13C126.415 123.002 126.761 122.847 127.093 122.667C127.256 122.57 127.375 122.414 127.425 122.231C127.475 122.048 127.452 121.853 127.362 121.687C127.067 121.322 126.481 121.554 126.082 121.814C124.863 122.61 123.633 123.406 122.417 124.203C122.165 124.404 121.863 124.532 121.543 124.573C121.383 124.587 121.223 124.539 121.098 124.438C120.973 124.337 120.891 124.192 120.87 124.033C120.888 123.866 120.954 123.708 121.061 123.579C121.785 122.542 122.729 121.678 123.827 121.05C124.259 120.849 124.655 120.578 125.001 120.25C125.173 120.083 125.287 119.866 125.329 119.63C125.37 119.394 125.336 119.151 125.231 118.936C124.502 119.512 123.709 120.001 122.867 120.394C122.565 120.537 122.149 120.632 121.959 120.365C121.77 120.097 122.022 119.717 122.272 119.481C123.576 118.194 124.881 116.91 126.187 115.627C126.331 115.443 126.51 115.289 126.714 115.175C126.918 115.061 127.143 114.989 127.375 114.964L127.93 115.094Z" fill="white"/>
<path d="M127.471 96.6343C127.471 96.6343 135.555 100.253 137.292 105.454C139.029 110.655 145.319 135.066 144.423 139.35C143.527 143.635 141.683 148.547 137.892 148.436C134.101 148.325 130.097 144.104 130.097 144.104L127.188 138.288L127.874 132.526L125.374 116.8L127.471 96.6343Z" fill="#F99D25"/>
<path d="M87.5029 94.1008C87.5062 94.1322 100.814 115.662 100.814 115.662L104.859 96.3581L105.865 88.4537L88.507 92.3416L87.5029 94.1008Z" fill="#AE7461"/>
<path d="M74.1405 123.219C74.2025 123.338 74.2488 123.464 74.2782 123.595C74.3598 123.879 74.4717 124.251 74.6138 124.693C74.8948 125.647 75.282 127.038 75.747 128.756C76.69 132.193 77.8491 136.97 79.1726 142.243C79.8346 144.876 80.4951 147.377 81.0939 149.654C81.4028 150.794 81.6723 151.878 81.9808 152.873C82.2572 153.797 82.6227 154.691 83.0721 155.544C83.7309 156.776 84.6458 157.852 85.7553 158.7C86.5518 159.292 87.0514 159.536 87.0307 159.565C86.9037 159.523 86.782 159.466 86.6682 159.395C86.3279 159.217 85.999 159.019 85.6833 158.8C84.5221 157.975 83.5619 156.899 82.8741 155.651C82.4061 154.79 82.0223 153.885 81.7281 152.95C81.4072 151.948 81.1258 150.862 80.8054 149.728C80.187 147.457 79.5166 144.954 78.8526 142.32C77.5599 137.063 76.3871 132.305 75.5242 128.813C75.0944 127.117 74.7451 125.728 74.4935 124.726C74.3817 124.271 74.2958 123.899 74.2268 123.61C74.1833 123.483 74.1543 123.352 74.1405 123.219Z" fill="#263238"/>
<path d="M100.668 116.33C100.662 116.336 100.61 116.269 100.522 116.129C100.417 115.969 100.29 115.769 100.129 115.523C99.7864 114.991 99.2889 114.218 98.6312 113.256C96.8392 110.627 94.8687 108.124 92.7336 105.765L92.9919 105.682C92.6734 108.531 92.3183 111.729 91.9479 115.102C91.9157 115.401 91.8831 115.694 91.8531 115.967L91.7758 116.633L91.5352 116.01C89.3676 110.346 87.4188 105.256 85.9969 101.544C85.3153 99.7198 84.7603 98.2388 84.366 97.1804C84.1854 96.6868 84.0424 96.2898 83.9325 95.9861C83.8743 95.8514 83.8314 95.7106 83.8046 95.5663C83.8839 95.692 83.9486 95.8263 83.9974 95.9667C84.1223 96.2607 84.2828 96.6512 84.4796 97.1331C84.9023 98.188 85.4903 99.6588 86.2088 101.462C87.6568 105.164 89.6376 110.244 91.8388 115.89L91.527 115.932C91.5569 115.658 91.5901 115.359 91.6217 115.067C92.005 111.695 92.3721 108.498 92.6967 105.649L92.7316 105.318L92.9491 105.563C95.08 107.943 97.0275 110.48 98.7747 113.154C99.4117 114.133 99.8887 114.923 100.205 115.471C100.346 115.729 100.466 115.934 100.559 116.1C100.605 116.172 100.641 116.249 100.668 116.33Z" fill="#263238"/>
<path d="M123.856 133.708C123.913 133.776 118.416 138.717 111.581 144.741C104.746 150.765 99.1469 155.597 99.0893 155.532C99.0316 155.468 104.529 150.523 111.37 144.5C118.211 138.476 123.798 133.64 123.856 133.708Z" fill="#263238"/>
<path d="M112.131 160.003C111.987 159.345 111.884 158.678 111.822 158.007C111.647 156.773 111.369 155.077 110.935 153.229C110.502 151.382 110.015 149.736 109.638 148.549C109.4 147.919 109.2 147.275 109.039 146.621C109.372 147.21 109.644 147.832 109.85 148.477C110.419 150.006 110.885 151.57 111.247 153.16C111.616 154.75 111.882 156.362 112.044 157.986C112.142 158.654 112.171 159.33 112.131 160.003Z" fill="#263238"/>
<path d="M72.9169 122.071C71.5338 121.156 70.2113 120.152 68.9577 119.066C67.6364 118.061 66.3821 116.97 65.203 115.801C66.5865 116.717 67.9092 117.721 69.1629 118.808C70.4854 119.811 71.7394 120.901 72.9169 122.071Z" fill="#263238"/>
<path d="M137.891 148.431C137.818 148.439 137.744 148.439 137.671 148.431C137.497 148.416 137.284 148.403 137.028 148.387C136.682 148.36 136.341 148.3 136.006 148.209C135.551 148.107 135.106 147.967 134.674 147.791C133.519 147.293 132.479 146.563 131.619 145.646C130.523 144.46 129.696 143.05 129.197 141.513L129.199 141.494C128.82 139.074 128.402 136.386 127.958 133.556C127.148 128.172 126.413 123.301 125.87 119.723C125.621 117.98 125.419 116.555 125.277 115.525C125.218 115.054 125.17 114.673 125.132 114.381C125.107 114.248 125.097 114.112 125.101 113.977C125.148 114.103 125.18 114.234 125.196 114.368C125.252 114.662 125.32 115.039 125.404 115.509C125.581 116.528 125.813 117.954 126.101 119.685C126.661 123.259 127.429 128.126 128.278 133.503C128.708 136.336 129.121 139.023 129.491 141.439L129.486 141.419C129.961 142.916 130.751 144.294 131.803 145.46C132.627 146.369 133.628 147.1 134.744 147.609C135.754 148.015 136.812 148.291 137.891 148.431Z" fill="#263238"/>
<path d="M76.9521 143.488C76.536 143.566 76.116 143.622 75.6939 143.654C74.6994 143.813 73.7408 144.146 72.8624 144.638C71.9866 145.136 71.2032 145.78 70.5465 146.544C70.2969 146.888 70.0298 147.218 69.7461 147.535C69.8719 147.12 70.0826 146.735 70.3648 146.405C70.993 145.567 71.7893 144.869 72.7028 144.356C73.6163 143.843 74.6268 143.526 75.6697 143.426C76.0967 143.355 76.534 143.376 76.9521 143.488Z" fill="#263238"/>
<path d="M77.1296 142.788C76.1788 143.245 75.1569 143.535 74.1081 143.648C73.0759 143.863 72.0145 143.902 70.9692 143.763C70.9654 143.668 72.3601 143.595 74.0546 143.33C75.7492 143.065 77.1004 142.697 77.1296 142.788Z" fill="#263238"/>
<path d="M78.2037 107.981C78.5261 107.601 78.9355 107.372 79.1993 107.088C79.4631 106.804 79.9861 106.712 80.2086 107.026C80.4611 107.386 80.1117 107.858 79.7839 108.151C80.7962 108.284 81.6844 106.966 82.6396 107.327C82.7851 107.406 82.9133 107.513 83.0164 107.642C83.1195 107.771 83.1955 107.92 83.2396 108.08C83.2838 108.239 83.2953 108.406 83.2735 108.57C83.2517 108.734 83.197 108.892 83.1126 109.034C82.7455 109.596 82.208 110.027 81.5788 110.262C80.9509 110.491 80.3744 110.842 79.8823 111.295C79.6461 111.55 79.473 111.957 79.6802 112.239C80.0281 112.715 80.9903 112.272 81.2911 112.781C81.4999 113.126 81.1747 113.538 80.8811 113.808C79.808 114.794 78.7299 115.781 77.6568 116.768C77.3959 117.055 77.063 117.266 76.6927 117.381C76.506 117.433 76.3065 117.413 76.134 117.324C75.9616 117.236 75.829 117.085 75.7628 116.903C75.7509 116.714 75.7995 116.526 75.9015 116.367C76.0035 116.207 76.1537 116.085 76.3303 116.016C76.6858 115.888 77.0311 115.733 77.3635 115.554C77.6717 115.336 77.8691 114.869 77.632 114.573C77.3367 114.208 76.7512 114.44 76.3521 114.7C75.133 115.497 73.9039 116.293 72.6878 117.09C72.4355 117.291 72.1331 117.418 71.8133 117.459C71.6546 117.473 71.4965 117.425 71.3719 117.326C71.2472 117.227 71.1654 117.083 71.1433 116.926C71.1606 116.759 71.2268 116.601 71.3336 116.472C72.0574 115.435 73.002 114.571 74.0995 113.943C74.5317 113.741 74.9283 113.471 75.2737 113.142C75.4456 112.975 75.5605 112.759 75.6019 112.523C75.6432 112.287 75.609 112.044 75.5041 111.828C74.7753 112.404 73.9819 112.894 73.14 113.287C72.8384 113.43 72.4215 113.525 72.2311 113.258C72.0407 112.99 72.2948 112.61 72.5453 112.375C73.8491 111.087 75.154 109.802 76.4601 108.52C76.6035 108.335 76.7826 108.182 76.9868 108.068C77.1909 107.954 77.4159 107.882 77.6484 107.857L78.2037 107.981Z" fill="white"/>
<path d="M103.665 118.743C103.987 118.362 104.396 118.134 104.66 117.85C104.924 117.566 105.447 117.473 105.67 117.788C105.922 118.148 105.573 118.62 105.245 118.913C106.257 119.046 107.145 117.728 108.101 118.089C108.246 118.167 108.374 118.275 108.477 118.404C108.58 118.533 108.656 118.682 108.701 118.841C108.745 119.001 108.756 119.168 108.734 119.331C108.713 119.495 108.658 119.653 108.574 119.796C108.206 120.358 107.669 120.788 107.04 121.024C106.412 121.253 105.835 121.604 105.343 122.057C105.107 122.312 104.934 122.718 105.141 123.001C105.489 123.477 106.451 123.034 106.752 123.543C106.961 123.888 106.636 124.3 106.342 124.569C105.269 125.555 104.191 126.542 103.118 127.528C102.857 127.815 102.523 128.027 102.153 128.142C101.967 128.195 101.767 128.175 101.595 128.087C101.423 127.998 101.292 127.847 101.227 127.665C101.215 127.476 101.263 127.288 101.365 127.129C101.467 126.969 101.618 126.847 101.794 126.778C102.15 126.65 102.495 126.495 102.827 126.316C102.99 126.219 103.109 126.062 103.16 125.88C103.21 125.697 103.187 125.502 103.096 125.335C102.802 124.97 102.215 125.202 101.816 125.462C100.597 126.259 99.3678 127.055 98.1518 127.852C97.8994 128.052 97.597 128.18 97.2773 128.221C97.1172 128.235 96.9579 128.187 96.8325 128.086C96.7072 127.986 96.6256 127.841 96.6047 127.681C96.6221 127.515 96.6883 127.357 96.795 127.227C97.5189 126.19 98.4635 125.327 99.5609 124.699C99.9932 124.497 100.39 124.227 100.735 123.898C100.907 123.731 101.022 123.514 101.063 123.278C101.105 123.042 101.07 122.799 100.966 122.584C100.237 123.16 99.4434 123.65 98.6015 124.043C98.2998 124.186 97.883 124.281 97.6926 124.013C97.5022 123.746 97.7563 123.365 98.0068 123.129C99.3106 121.843 100.616 120.558 101.922 119.275C102.065 119.09 102.244 118.937 102.448 118.823C102.653 118.709 102.877 118.638 103.11 118.613L103.665 118.743Z" fill="white"/>
<path d="M91.5162 142.688C91.8386 142.308 92.248 142.079 92.5118 141.795C92.7756 141.511 93.2986 141.419 93.5211 141.733C93.7736 142.094 93.4242 142.565 93.0974 142.858C94.1097 142.991 94.9979 141.674 95.9531 142.034C96.0986 142.113 96.2268 142.22 96.3299 142.349C96.433 142.479 96.5089 142.627 96.5531 142.787C96.5973 142.946 96.6088 143.113 96.587 143.277C96.5652 143.441 96.5105 143.599 96.4261 143.741C96.0587 144.304 95.5209 144.734 94.8913 144.969C94.2634 145.198 93.6869 145.549 93.1948 146.002C92.9586 146.257 92.7845 146.664 92.9927 146.946C93.3406 147.422 94.3028 146.979 94.6036 147.488C94.8124 147.833 94.4872 148.245 94.1936 148.515C93.1205 149.501 92.0424 150.488 90.9693 151.475C90.7081 151.762 90.3749 151.973 90.0042 152.088C89.8182 152.139 89.6198 152.119 89.4483 152.03C89.2767 151.942 89.1447 151.793 89.0782 151.611C89.0663 151.423 89.1149 151.235 89.2169 151.075C89.3189 150.916 89.4691 150.793 89.6457 150.725C90.0012 150.596 90.3465 150.442 90.6789 150.262C90.8418 150.165 90.9606 150.008 91.0105 149.826C91.0604 149.643 91.0374 149.448 90.9464 149.281C90.6521 148.916 90.0657 149.148 89.6665 149.408C88.4409 150.206 87.2195 151.003 86.0022 151.798C85.7499 151.999 85.4475 152.126 85.1277 152.167C84.9677 152.181 84.8085 152.133 84.6834 152.032C84.5583 151.931 84.4769 151.786 84.4563 151.627C84.4737 151.46 84.5399 151.302 84.6466 151.173C85.3705 150.136 86.3151 149.272 87.4125 148.644C87.8448 148.443 88.2414 148.172 88.5868 147.843C88.7587 147.677 88.8735 147.46 88.9149 147.224C88.9563 146.988 88.9221 146.745 88.8171 146.529C88.0883 147.106 87.295 147.595 86.453 147.988C86.1514 148.131 85.7345 148.226 85.5441 147.959C85.3537 147.691 85.6078 147.311 85.8584 147.075C87.1621 145.788 88.4671 144.503 89.7732 143.22C89.9166 143.036 90.0958 142.882 90.2999 142.768C90.5041 142.654 90.729 142.583 90.9614 142.558L91.5162 142.688Z" fill="white"/>
<path d="M121.485 143.11C121.807 142.73 122.217 142.501 122.481 142.217C122.744 141.933 123.267 141.84 123.49 142.155C123.742 142.515 123.393 142.987 123.066 143.28C124.078 143.413 124.967 142.095 125.921 142.456C126.066 142.535 126.195 142.642 126.298 142.771C126.401 142.9 126.477 143.049 126.521 143.209C126.565 143.368 126.577 143.535 126.555 143.699C126.533 143.863 126.478 144.02 126.394 144.163C126.027 144.725 125.489 145.156 124.86 145.391C124.232 145.62 123.656 145.971 123.164 146.424C122.927 146.679 122.753 147.086 122.961 147.368C123.309 147.844 124.272 147.401 124.572 147.91C124.781 148.256 124.456 148.667 124.162 148.936C123.089 149.923 122.011 150.909 120.938 151.897C120.677 152.184 120.344 152.395 119.973 152.51C119.786 152.564 119.586 152.544 119.414 152.456C119.241 152.367 119.109 152.215 119.044 152.032C119.032 151.843 119.081 151.655 119.183 151.496C119.285 151.336 119.435 151.214 119.612 151.145C119.967 151.017 120.312 150.862 120.645 150.682C120.808 150.585 120.926 150.429 120.976 150.246C121.026 150.063 121.003 149.868 120.912 149.702C120.618 149.337 120.032 149.569 119.632 149.829C118.413 150.626 117.184 151.422 115.968 152.219C115.716 152.419 115.413 152.547 115.094 152.588C114.934 152.601 114.776 152.552 114.652 152.452C114.527 152.351 114.446 152.207 114.425 152.049C114.442 151.882 114.509 151.724 114.615 151.594C115.339 150.558 116.284 149.694 117.381 149.066C117.814 148.864 118.21 148.594 118.556 148.265C118.727 148.098 118.842 147.882 118.884 147.646C118.925 147.41 118.891 147.167 118.786 146.951C118.057 147.527 117.264 148.017 116.422 148.41C116.12 148.553 115.703 148.648 115.514 148.381C115.324 148.113 115.577 147.733 115.827 147.496C117.131 146.21 118.436 144.925 119.742 143.643C119.885 143.458 120.065 143.304 120.269 143.19C120.473 143.077 120.699 143.005 120.931 142.98L121.485 143.11Z" fill="white"/>
<path d="M109.817 145.454C109.804 145.459 109.756 145.368 109.671 145.184C109.571 144.968 109.45 144.7 109.302 144.378C108.986 143.678 108.554 142.661 108.037 141.384C107.004 138.845 105.67 135.291 104.414 131.299C103.157 127.306 102.183 123.633 101.569 120.959C101.259 119.625 101.027 118.537 100.878 117.783C100.816 117.438 100.766 117.151 100.717 116.914C100.695 116.814 100.682 116.712 100.68 116.609C100.727 116.701 100.761 116.8 100.781 116.901C100.842 117.132 100.911 117.415 101.001 117.756C101.202 118.546 101.467 119.612 101.788 120.903C102.459 123.557 103.453 127.212 104.713 131.197C105.974 135.182 107.266 138.74 108.24 141.3C108.722 142.547 109.116 143.563 109.408 144.331C109.529 144.661 109.638 144.935 109.719 145.156C109.795 145.352 109.831 145.45 109.817 145.454Z" fill="#263238"/>
<path d="M144.491 138.854C144.456 139.321 142.214 140.106 141.75 140.019L141.221 139.805C140.841 140.13 140.4 140.293 140.102 140.537C139.805 140.781 139.263 140.789 139.099 140.443C138.907 140.049 139.326 139.639 139.693 139.39C138.714 139.104 137.63 140.272 136.749 139.767C136.617 139.667 136.508 139.542 136.426 139.398C136.344 139.255 136.292 139.096 136.272 138.933C136.253 138.769 136.267 138.602 136.313 138.444C136.359 138.285 136.436 138.138 136.54 138.009C136.987 137.507 137.586 137.164 138.247 137.034C138.903 136.908 139.528 136.652 140.085 136.282C140.234 136.191 140.349 136.054 140.412 135.892C140.475 135.729 140.483 135.55 140.434 135.383C140.16 134.857 139.15 135.145 138.926 134.597C138.776 134.226 139.153 133.869 139.493 133.643C140.707 132.837 142.371 131.708 143.578 130.896C143.566 130.889 144.633 136.718 144.491 138.854Z" fill="white"/>
<g opacity="0.3">
<path d="M99.2845 155.192C108.762 151.052 117.519 143.82 122.712 134.876L99.2845 155.192Z" fill="black"/>
</g>
<g opacity="0.3">
<path d="M69.7511 147.525C71.854 143.877 75.4314 143.134 78.8129 143.482C78.8641 143.287 78.8416 143.08 78.7495 142.9C78.6575 142.72 78.5025 142.58 78.314 142.507C77.9312 142.377 77.5213 142.348 77.1239 142.422C75.456 142.515 73.8202 142.92 72.3015 143.615C71.5999 143.987 71.0038 144.53 70.5689 145.194C70.1339 145.858 69.8742 146.622 69.8141 147.413" fill="black"/>
</g>
<g opacity="0.3">
<path d="M83.8983 95.6835C85.465 104.312 88.3413 112.651 92.4276 120.411C94.4083 117.862 95.4311 114.699 95.3176 111.473C96.479 113.293 98.1667 114.716 100.156 115.553C98.155 112.018 95.7298 108.74 92.9347 105.792C92.9347 105.792 91.7405 116.355 91.7765 116.082C89.0904 109.231 86.4811 102.5 83.8983 95.6835Z" fill="black"/>
</g>
<path d="M126.9 109.18L123.239 102.119L123.522 95.5154L125.58 91.1592C125.58 91.1592 126.932 90.9573 127.015 92.5607C126.991 93.7569 126.719 94.9351 126.217 96.0212L126.848 99.2887C126.848 99.2887 127.117 99.6576 127.514 98.3542C127.912 97.0509 128.286 87.1628 128.339 86.4809C128.393 85.799 128.59 84.194 129.581 84.4343C130.571 84.6746 130.775 86.0365 130.716 86.714C130.657 87.3914 130.815 94.0605 130.815 94.0605C130.815 94.0605 131 94.674 131.245 94.6131C131.489 94.5521 131.661 87.5073 131.708 86.3932C131.755 85.2791 131.726 82.8131 133.024 82.9206C134.321 83.0281 134.211 84.2622 134.169 85.6218C134.128 86.9813 134.31 94.6374 134.31 94.6374C134.31 94.6374 134.468 95.129 134.705 94.5083C134.942 93.8876 135.899 85.6667 136.076 85.2927C136.254 84.9188 137.051 84.4746 137.567 85.4613C138.083 86.448 137.745 88.6058 137.327 92.4449C136.949 95.8992 136.717 97.3293 137.093 97.6323C137.469 97.9352 139.113 95.9369 139.113 95.9369C139.113 95.9369 141.284 91.5283 142.772 91.8211C144.26 92.1139 143.149 93.1922 142.8 94.2327C142.503 95.1102 139.41 100.237 139.349 100.283C139.289 100.329 135.875 109.629 135.875 109.629L140.614 121.019C141.455 123.002 141.651 125.2 141.172 127.3C140.923 128.667 140.268 129.928 139.293 130.918C138.318 131.908 137.067 132.582 135.704 132.852C134.686 133.084 133.621 133.002 132.65 132.617C131.679 132.233 130.847 131.564 130.263 130.699C129.311 129.436 128.739 127.928 128.613 126.352C128.245 122.085 126.903 109.182 126.903 109.182L126.9 109.18Z" fill="#AE7461"/>
<path d="M131.557 104.749C131.502 104.738 131.607 104.244 131.538 103.453C131.44 102.427 131.039 101.453 130.384 100.657C129.869 100.009 129.147 99.5569 128.339 99.3779C127.834 99.2711 127.309 99.3429 126.851 99.581L126.791 99.6139L126.771 99.555C126.7 99.3671 126.677 99.2706 126.697 99.2554C126.718 99.2401 126.779 99.3318 126.877 99.4969L126.791 99.4754C127.018 99.31 127.276 99.1917 127.549 99.1275C127.822 99.0633 128.105 99.0545 128.382 99.1016C129.271 99.2537 130.073 99.728 130.634 100.434C131.334 101.276 131.73 102.328 131.761 103.423C131.808 103.875 131.738 104.332 131.557 104.749Z" fill="#77574A"/>
<path d="M135.591 100.01C135.64 100.089 135.023 100.532 134.398 101.21C134.053 101.659 133.681 102.086 133.283 102.489C133.412 101.91 133.719 101.385 134.161 100.99C134.525 100.523 135.024 100.181 135.591 100.01Z" fill="#77574A"/>
<path d="M72.7668 154.529C72.5939 157.327 73.441 160.093 75.1513 162.315C76.4147 163.95 77.7636 165.518 79.1923 167.012L89.5076 172.771C90.5529 172.914 91.6169 172.825 92.6239 172.51C93.6309 172.196 94.556 171.663 95.3335 170.949C96.3044 170.244 97.1282 169.356 97.7586 168.335C97.7586 168.335 100.856 170.057 102.114 170.11C104.243 170.202 104.037 168.672 104.037 168.672C104.037 168.672 97.2915 164.151 95.7399 162.496C94.1883 160.84 89.4246 159.424 85.9434 159.572L83.9854 159.005L83.4967 156.261C83.4967 156.261 80.111 150.12 76.3667 151.842C72.6224 153.563 72.7668 154.529 72.7668 154.529Z" fill="#AE7461"/>
<path d="M94.2917 39.5185C94.3507 39.0678 94.499 38.6334 94.728 38.2407C94.9569 37.848 95.2619 37.505 95.6251 37.2317C95.9883 36.9584 96.4024 36.7603 96.8431 36.6489C97.2838 36.5376 97.7423 36.5154 98.1917 36.5835C98.7438 35.6003 99.6537 34.8678 100.732 34.5385C101.811 34.2092 102.975 34.3084 103.982 34.8155C104.918 35.3345 105.626 36.1935 106.54 36.7505C107.42 37.2865 108.445 37.5185 109.372 37.9655C109.853 38.1499 110.281 38.4506 110.618 38.8408C110.955 39.2309 111.19 39.6984 111.303 40.2015C111.312 40.7748 111.139 41.3364 110.809 41.8053C110.479 42.2742 110.009 42.6261 109.466 42.8105C108.371 43.1556 107.214 43.258 106.076 43.1105C106.31 43.279 106.475 43.527 106.54 43.8082C106.604 44.0893 106.565 44.3845 106.428 44.6385C106.132 45.1384 105.666 45.5148 105.115 45.6985C104.219 46.0413 103.246 46.1306 102.302 45.9565C101.359 45.7824 100.482 45.3516 99.7677 44.7115L97.6307 43.0765C97.1767 43.0658 96.7293 42.9649 96.3147 42.7796C95.9 42.5943 95.5264 42.3283 95.2156 41.9971C94.9049 41.666 94.6631 41.2762 94.5045 40.8507C94.3458 40.4251 94.2735 39.9723 94.2917 39.5185Z" fill="#263238"/>
<path d="M99.6352 46.6575C99.8459 46.8383 100.116 46.9355 100.393 46.9307C100.671 46.9259 100.937 46.8194 101.141 46.6315C101.335 46.4336 101.472 46.1864 101.536 45.9167C101.601 45.647 101.59 45.3648 101.506 45.1005C101.325 44.5705 100.964 44.1209 100.485 43.8305C100.01 43.541 99.4954 43.3224 98.9572 43.1815C98.1401 42.9209 97.2941 42.761 96.4382 42.7055C96.134 42.6752 95.8269 42.7118 95.5382 42.8125C95.3956 42.866 95.2699 42.9567 95.1742 43.0752C95.0785 43.1938 95.0164 43.3358 94.9942 43.4865C94.9602 43.9115 95.3332 44.2505 95.6762 44.5035C96.9593 45.4515 98.3263 46.2803 99.7602 46.9795" fill="#1794C9"/>
<path d="M100.887 46.4459C102.913 44.1839 107.955 44.4889 109.161 45.9569C110.052 45.5293 111.073 45.461 112.013 45.7662C112.953 46.0714 113.739 46.7266 114.208 47.5959L119.579 48.7289C120.513 48.8468 121.401 49.1979 122.163 49.7499C122.533 50.0379 122.784 50.451 122.87 50.9114C122.956 51.3718 122.871 51.8478 122.631 52.2499C123.081 52.4048 123.485 52.6673 123.81 53.0145C124.135 53.3617 124.369 53.7831 124.494 54.2418C124.618 54.7006 124.629 55.1828 124.524 55.6464C124.419 56.1101 124.203 56.5411 123.893 56.9019C124.076 57.1102 124.213 57.3535 124.298 57.617C124.383 57.8804 124.414 58.1584 124.388 58.434C124.362 58.7096 124.28 58.9769 124.147 59.2197C124.014 59.4624 123.832 59.6755 123.614 59.8459C125.112 61.6145 126.295 63.6262 127.114 65.7939C127.541 66.6717 127.642 67.6722 127.401 68.6179C127.329 68.844 127.209 69.0519 127.05 69.2275C126.89 69.4031 126.694 69.5422 126.476 69.6355C126.258 69.7287 126.022 69.7739 125.785 69.768C125.548 69.762 125.315 69.705 125.101 69.6009C125.366 69.9713 125.519 70.4101 125.542 70.865C125.565 71.3199 125.457 71.7718 125.23 72.1669C126.135 72.1839 126.419 73.5829 125.801 74.2479C125.451 74.5362 125.045 74.7494 124.609 74.8741C124.172 74.9988 123.715 75.0324 123.265 74.9729C122.361 74.8505 121.441 75.0141 120.634 75.4409C120.643 75.552 120.674 75.6602 120.726 75.759C120.777 75.8578 120.848 75.9452 120.934 76.0159C121.704 76.5882 122.224 77.4352 122.385 78.3807C122.547 79.3262 122.337 80.2976 121.801 81.0929C121.694 81.2429 121.595 81.3849 121.501 81.5139C120.761 82.306 119.869 82.9421 118.879 83.3849C116.836 84.4709 115.613 84.2729 113.326 84.6209C113.961 86.0929 110.266 89.3889 105.987 86.2049C98.3944 88.4391 90.518 89.5624 82.6033 89.5399C81.3503 89.5529 79.8393 89.3939 79.2773 88.2739C78.7595 88.3769 78.2241 88.3466 77.7213 88.1861C77.2184 88.0255 76.7646 87.7398 76.4023 87.3559C75.6879 86.5807 75.1127 85.6879 74.7023 84.7169C73.6154 84.4103 72.6502 83.7746 71.9394 82.8972C71.2285 82.0198 70.8068 80.9437 70.7323 79.8169C69.9936 79.2418 69.3825 78.5195 68.9377 77.6958C68.4929 76.8721 68.2241 75.965 68.1483 75.0319C67.6335 74.851 67.1617 74.5658 66.7624 74.194C66.363 73.8223 66.0447 73.372 65.8275 72.8716C65.6103 72.3711 65.4987 71.8311 65.4999 71.2855C65.5011 70.7399 65.6149 70.2004 65.8343 69.7009C66.2731 67.1037 67.1374 64.5967 68.3923 62.2809C66.9503 61.9809 66.3923 60.0449 66.9803 58.6929C67.7013 57.4003 68.7862 56.348 70.1003 55.6669C69.0273 55.9669 68.0793 54.6159 68.3283 53.5339C68.7026 52.4739 69.4819 51.6055 70.4953 51.1189C71.8891 50.2694 73.3802 49.5909 74.9363 49.0979C75.4363 47.1979 77.8363 45.0299 79.6053 44.1759C86.7203 40.7259 91.7283 39.8329 100.887 46.4459Z" fill="#263238"/>
<path d="M106.396 57.9115C106.496 56.4115 106.744 54.9205 105.254 54.6925L90.0566 50.1105C85.1566 49.3675 81.6126 55.2815 81.0756 60.2075C80.4836 65.6795 79.9756 72.3865 80.4366 76.5075C80.6784 78.8609 81.5807 81.0981 83.0394 82.9607C84.4981 84.8234 86.4537 86.2356 88.6806 87.0345C88.6806 87.0255 88.4916 92.0645 88.4916 92.0645C89.1226 95.9355 92.9036 99.5525 94.4746 101.101C99.8566 100.096 105.847 89.0165 105.847 89.0165L106.396 57.9115Z" fill="#AE7461"/>
<path d="M88.6744 87.0381C92.2347 86.6036 95.6738 85.4688 98.7934 83.6991C98.7934 83.6991 96.8844 88.8991 88.6014 89.5311L88.6744 87.0381Z" fill="#6F4439"/>
<path d="M82.946 59.8799C83.135 60.1459 83.929 59.9139 84.873 59.9439C85.817 59.9439 86.602 60.1969 86.8 59.9349C86.886 59.8059 86.774 59.5439 86.435 59.2829C85.9841 58.9621 85.4444 58.7898 84.891 58.7899C84.3374 58.7748 83.7929 58.9324 83.333 59.2409C82.985 59.4899 82.865 59.7469 82.946 59.8799Z" fill="#263238"/>
<path d="M77.3629 64.1657C77.3953 62.8612 77.8791 61.6084 78.7319 60.6207C79.2662 60.1565 79.7762 59.6652 80.2599 59.1487C81.1869 57.9297 81.0599 56.2387 81.4529 54.7627C81.7176 53.8092 82.2056 52.9324 82.8765 52.205C83.5474 51.4776 84.3819 50.9204 85.3109 50.5797C86.8559 50.0307 88.6109 50.1037 90.0569 49.3347C91.1299 48.7687 91.9469 47.7807 93.0469 47.2747C95.1979 46.2967 97.6919 47.3967 99.7219 48.6097C100.122 50.2237 99.1039 51.6177 98.1219 52.9567C97.6243 53.6254 96.9875 54.1781 96.2554 54.5767C95.5234 54.9753 94.7136 55.2104 93.8819 55.2657C92.5939 55.3427 91.0919 55.0507 90.1819 55.9657C89.2289 56.9317 89.5979 58.6307 88.8129 59.7377C87.6929 61.3217 85.1519 60.7157 83.4789 61.6947C82.1869 62.4497 81.6419 63.9947 80.9899 65.3427C80.3379 66.6907 79.2129 68.0967 77.7189 68.0287C77.4555 66.7585 77.3361 65.4627 77.3629 64.1657Z" fill="#263238"/>
<path d="M96.5077 51.5339C100.28 51.4819 104.027 52.1611 107.541 53.5339C108.622 53.8542 109.574 54.5106 110.258 55.4079C110.717 56.2867 110.915 57.2783 110.829 58.2659C110.578 61.623 109.744 64.9107 108.366 67.9819L104.508 70.2869C101.543 69.5869 102.908 64.4589 103.053 61.8929C102.021 61.4197 101.143 60.6668 100.517 59.7195C99.8922 58.7722 99.5452 57.6685 99.5157 56.5339C98.671 55.9799 97.962 55.2427 97.4412 54.3771C96.9205 53.5115 96.6014 52.5397 96.5077 51.5339Z" fill="#263238"/>
<path d="M104.569 69.1837C104.69 67.4197 106.853 67.0767 108.369 67.9907C109.201 68.4907 109.828 69.4797 109.721 71.3507C109.432 76.3457 104.48 75.0247 104.475 74.8827C104.475 74.7927 104.432 71.2477 104.569 69.1837Z" fill="#AE7461"/>
<path d="M106.106 73.0733C106.127 73.0603 106.192 73.1373 106.333 73.2153C106.534 73.317 106.766 73.3378 106.981 73.2733C107.317 73.0878 107.598 72.8154 107.792 72.4848C107.987 72.1541 108.09 71.7772 108.089 71.3933C108.127 70.9651 108.068 70.5339 107.917 70.1313C107.879 69.9726 107.803 69.8255 107.696 69.7023C107.589 69.5791 107.453 69.4834 107.301 69.4233C107.203 69.3909 107.096 69.3941 106.999 69.4325C106.903 69.4709 106.823 69.542 106.773 69.6333C106.701 69.7733 106.728 69.8733 106.701 69.8783C106.685 69.8913 106.595 69.7883 106.647 69.5823C106.682 69.4605 106.757 69.3543 106.861 69.2823C107.006 69.1867 107.181 69.1511 107.351 69.1833C107.554 69.2361 107.74 69.3399 107.891 69.4849C108.042 69.6298 108.153 69.8111 108.214 70.0113C108.403 70.4567 108.478 70.9419 108.432 71.4233C108.431 71.8698 108.298 72.3059 108.05 72.677C107.802 73.0481 107.45 73.3376 107.037 73.5093C106.901 73.5412 106.759 73.5415 106.622 73.5103C106.485 73.4791 106.357 73.4173 106.247 73.3293C106.11 73.1963 106.089 73.0843 106.106 73.0733Z" fill="#6F4439"/>
<path d="M106.663 75.1765L106.676 75.2405C106.688 75.3069 106.711 75.3708 106.745 75.4295C106.871 75.6645 107.076 75.848 107.324 75.9485C107.713 76.1184 108.134 76.2062 108.56 76.2065C108.827 76.2136 109.095 76.1962 109.36 76.1545C109.663 76.1139 109.959 76.0255 110.236 75.8925L110.176 75.8625C110.244 76.286 110.421 76.6845 110.689 77.0193C110.958 77.3541 111.308 77.6138 111.706 77.7732C112.104 77.9327 112.537 77.9864 112.962 77.9291C113.387 77.8718 113.791 77.7056 114.133 77.4465L114.047 77.4335C114.121 77.5465 114.218 77.6435 114.331 77.7187C114.444 77.7939 114.57 77.8459 114.704 77.8715C114.975 77.928 115.257 77.904 115.515 77.8025C115.783 77.7014 116.012 77.5162 116.167 77.2745C116.319 77.0255 116.406 76.7421 116.42 76.4505C116.441 75.8501 116.25 75.2614 115.881 74.7875C115.496 74.3072 115.054 73.8763 114.564 73.5045L114.555 73.6205C114.762 73.4899 114.941 73.3169 115.077 73.113C115.214 72.909 115.307 72.6785 115.349 72.4365C115.448 71.9426 115.398 71.4304 115.207 70.9645C114.998 70.4968 114.702 70.073 114.336 69.7155C113.964 69.3569 113.57 69.0229 113.156 68.7155L113.165 68.8275C113.344 68.6336 113.48 68.4043 113.565 68.1544C113.65 67.9045 113.682 67.6395 113.659 67.3765C113.622 66.8369 113.426 66.3202 113.097 65.8915C112.422 65.149 111.591 64.5668 110.663 64.1875L110.702 64.2735C110.831 63.7531 110.833 63.209 110.706 62.6878C110.58 62.1666 110.329 61.6839 109.975 61.2808C109.621 60.8778 109.175 60.5666 108.674 60.3737C108.174 60.1809 107.634 60.1122 107.102 60.1735L107.179 60.2595C107.26 59.8294 107.241 59.3865 107.124 58.9647C107.007 58.5429 106.795 58.1535 106.505 57.8265C106.248 57.5111 105.926 57.255 105.561 57.0756C105.196 56.8963 104.797 56.798 104.391 56.7875L104.455 56.8515C104.443 56.4261 104.335 56.009 104.138 55.6314C103.942 55.2538 103.663 54.9256 103.322 54.6715C103.031 54.4381 102.695 54.2663 102.336 54.1668C101.977 54.0672 101.601 54.0419 101.232 54.0925L101.288 54.1395C101.262 53.6859 101.125 53.2455 100.891 52.8565C100.691 52.5095 100.434 52.199 100.131 51.9385C99.6585 51.5078 99.0557 51.2479 98.4185 51.2005L98.2295 51.1875C98.1695 51.1875 98.1095 51.1965 98.0535 51.2005C97.9425 51.2135 97.8355 51.2135 97.7365 51.2345C97.5746 51.2678 97.4152 51.3122 97.2595 51.3675C97.1445 51.4195 97.0495 51.4575 96.9805 51.4875C96.9493 51.4991 96.9191 51.5135 96.8905 51.5305C96.8905 51.5305 96.9255 51.5225 96.9905 51.5005C97.0555 51.4785 97.1525 51.4405 97.2725 51.3935C97.4282 51.3412 97.5876 51.3011 97.7495 51.2735C97.8435 51.2525 97.9495 51.2565 98.0625 51.2435C98.1185 51.2435 98.1745 51.2345 98.2345 51.2345C98.2945 51.2345 98.3545 51.2435 98.4185 51.2515C99.0387 51.3104 99.6223 51.5714 100.08 51.9945C100.372 52.254 100.62 52.5601 100.814 52.9005C101.039 53.2748 101.169 53.699 101.191 54.1355V54.1875H101.252C101.606 54.1421 101.966 54.1693 102.31 54.2675C102.654 54.3656 102.974 54.5327 103.252 54.7585C103.577 55.0031 103.843 55.3182 104.029 55.6801C104.216 56.042 104.318 56.4415 104.329 56.8485V56.9125H104.393C104.779 56.9255 105.159 57.0216 105.505 57.1941C105.852 57.3666 106.157 57.6116 106.401 57.9125C106.676 58.2239 106.877 58.5941 106.988 58.995C107.099 59.3959 107.116 59.8168 107.04 60.2255L107.019 60.3255L107.119 60.3125C107.628 60.2544 108.144 60.3205 108.622 60.5053C109.1 60.6901 109.526 60.988 109.864 61.3735C110.202 61.759 110.442 62.2206 110.562 62.7188C110.683 63.2171 110.681 63.7372 110.557 64.2345L110.544 64.2945L110.6 64.3205C111.507 64.6905 112.321 65.2579 112.982 65.9815C113.294 66.3847 113.48 66.8722 113.514 67.3815C113.536 67.6232 113.508 67.8671 113.43 68.0971C113.353 68.3271 113.227 68.5382 113.063 68.7165L113.003 68.7765L113.072 68.8285C113.919 69.3707 114.614 70.12 115.091 71.0055C115.269 71.4445 115.317 71.926 115.228 72.3915C115.189 72.6137 115.105 72.8254 114.98 73.0131C114.855 73.2008 114.693 73.3603 114.503 73.4815L114.417 73.5325L114.494 73.5965C114.977 73.9605 115.413 74.3827 115.794 74.8535C116.148 75.3019 116.334 75.8609 116.318 76.4325C116.319 76.6972 116.242 76.9563 116.096 77.1771C115.95 77.3979 115.742 77.5703 115.498 77.6725C115.273 77.7753 115.021 77.7999 114.781 77.7422C114.542 77.6846 114.328 77.548 114.176 77.3545L114.142 77.3035L114.091 77.3425C113.733 77.6101 113.309 77.7737 112.864 77.8154C112.42 77.857 111.972 77.7751 111.572 77.5785C111.238 77.4067 110.949 77.1606 110.726 76.8593C110.503 76.5579 110.352 76.2094 110.285 75.8405L110.276 75.7845L110.224 75.8105C109.955 75.9417 109.669 76.0314 109.374 76.0765C109.113 76.121 108.848 76.1411 108.584 76.1365C108.165 76.1429 107.75 76.0625 107.365 75.9005C107.123 75.8057 106.919 75.6338 106.786 75.4115C106.738 75.3367 106.697 75.2581 106.663 75.1765Z" fill="#455A64"/>
<path d="M125.701 69.8349C125.774 69.7418 125.837 69.6412 125.89 69.5349C126.044 69.2272 126.134 68.8915 126.156 68.5479C126.196 67.9953 126.052 67.4449 125.748 66.9819C125.543 66.6743 125.276 66.4128 124.964 66.2141C124.652 66.0154 124.302 65.8839 123.937 65.8279L123.98 65.8879C124.146 65.0378 123.985 64.1562 123.529 63.4199C123.282 63.0066 122.948 62.652 122.551 62.3809C122.117 62.1235 121.66 61.9078 121.186 61.7369C120.95 61.6395 120.731 61.5077 120.534 61.3459C120.336 61.1793 120.181 60.9691 120.079 60.7319C119.856 60.2509 119.787 59.6849 119.504 59.1699C119.205 58.643 118.756 58.2175 118.214 57.9482C117.671 57.6789 117.061 57.5781 116.461 57.6589L116.547 57.7449C116.632 57.1381 116.578 56.5196 116.387 55.9372C116.196 55.3548 115.874 54.8239 115.446 54.3854C115.018 53.9469 114.495 53.6125 113.917 53.4078C113.339 53.2032 112.722 53.1338 112.114 53.2049L112.195 53.2869C112.259 52.5859 112.117 51.8814 111.785 51.2606C111.453 50.6398 110.946 50.1299 110.328 49.7939C109.763 49.5089 109.133 49.3774 108.501 49.4125C107.869 49.4476 107.258 49.6481 106.728 49.9939L106.81 50.0029C106.311 49.5268 105.715 49.1642 105.063 48.9399C104.484 48.7278 103.882 48.5894 103.269 48.5279C102.278 48.4179 101.275 48.4846 100.308 48.7249C99.6863 48.8733 99.0925 49.1197 98.5487 49.4549C98.4057 49.5451 98.2694 49.6453 98.1407 49.7549C98.0943 49.7883 98.0498 49.8243 98.0077 49.8629C98.0167 49.8759 98.1967 49.7209 98.5657 49.4899C99.1123 49.1689 99.7058 48.9354 100.325 48.7979C101.286 48.5692 102.28 48.5126 103.261 48.6309C103.864 48.695 104.457 48.8361 105.025 49.0509C105.66 49.2728 106.24 49.63 106.725 50.0979L106.764 50.1369L106.807 50.1069C107.317 49.7762 107.906 49.5851 108.514 49.5526C109.121 49.5202 109.727 49.6475 110.27 49.9219C110.861 50.2462 111.344 50.7366 111.66 51.3325C111.975 51.9283 112.11 52.6037 112.046 53.2749L112.037 53.3689L112.131 53.3559C112.716 53.2874 113.31 53.3542 113.866 53.5512C114.422 53.7481 114.925 54.07 115.337 54.4919C115.75 54.9139 116.059 55.4248 116.243 55.9853C116.427 56.5458 116.479 57.1409 116.397 57.7249L116.384 57.8249L116.484 57.8079C117.053 57.7334 117.633 57.8298 118.147 58.0849C118.662 58.3401 119.09 58.7424 119.376 59.2409C119.642 59.7219 119.715 60.2839 119.951 60.7899C120.064 61.0441 120.233 61.2698 120.445 61.4509C120.654 61.6174 120.885 61.7546 121.132 61.8589C121.6 62.0245 122.051 62.2345 122.48 62.4859C122.864 62.747 123.188 63.0881 123.428 63.4859C123.873 64.1963 124.035 65.0477 123.883 65.8719L123.874 65.9229L123.926 65.9319C124.279 65.9841 124.617 66.1087 124.92 66.298C125.223 66.4873 125.483 66.7372 125.685 67.0319C125.986 67.4791 126.134 68.0123 126.106 68.5509C126.09 68.889 126.01 69.221 125.87 69.5289C125.77 69.7319 125.697 69.8309 125.701 69.8349Z" fill="#455A64"/>
<path d="M77.913 71.1818C77.9444 71.1188 77.9621 71.0499 77.9651 70.9796C77.968 70.9093 77.9561 70.8391 77.93 70.7738C77.8719 70.6124 77.771 70.47 77.638 70.3618C77.4558 70.2168 77.2453 70.1116 77.02 70.0528C76.745 69.9834 76.4817 69.8736 76.239 69.7268C75.9701 69.5279 75.7729 69.2472 75.677 68.9268C75.5636 68.5567 75.5228 68.1683 75.557 67.7828C75.574 67.3708 75.639 66.9328 75.639 66.4658C75.5395 65.4606 75.3265 64.47 75.004 63.5128C74.8699 62.9752 74.8451 62.4161 74.931 61.8688C74.9723 61.584 75.0745 61.3116 75.2307 61.07C75.3869 60.8284 75.5933 60.6233 75.836 60.4688C76.3923 60.1981 76.9807 59.9992 77.587 59.8768C77.9077 59.7882 78.2118 59.6477 78.487 59.4608C78.7617 59.256 78.979 58.9839 79.118 58.6708C79.3624 58.0357 79.5394 57.3768 79.646 56.7048C79.7135 56.373 79.8308 56.0534 79.994 55.7568C80.1623 55.4666 80.4217 55.2402 80.732 55.1128C81.183 54.9923 81.6473 54.9288 82.114 54.9238C82.3553 54.9034 82.5917 54.8439 82.814 54.7478C83.0376 54.6447 83.229 54.4829 83.368 54.2798C83.6002 53.8806 83.7749 53.4507 83.887 53.0028C84.0144 52.5866 84.2281 52.2019 84.514 51.8738C84.7856 51.5601 85.1191 51.3059 85.4935 51.1271C85.868 50.9483 86.2753 50.8488 86.69 50.8348C87.4685 50.8126 88.2263 51.0871 88.81 51.6028L88.874 51.6628L88.913 51.5808C89.197 50.9671 89.6088 50.4212 90.1209 49.9795C90.6329 49.5379 91.2333 49.2107 91.882 49.0198C92.4243 48.8653 92.9911 48.8158 93.552 48.8738C94.0292 48.9179 94.4944 49.0484 94.925 49.2588C95.5306 49.555 96.0374 50.0205 96.384 50.5988C96.478 50.7501 96.5612 50.9078 96.633 51.0708C96.659 51.1228 96.676 51.1608 96.693 51.1948C96.71 51.2288 96.714 51.2378 96.714 51.2338C96.714 51.2298 96.714 51.2168 96.701 51.1908C96.688 51.1648 96.671 51.1138 96.65 51.0618C96.5869 50.895 96.5093 50.734 96.418 50.5808C96.0784 49.984 95.5701 49.5008 94.957 49.1918C94.5188 48.9737 94.0443 48.8381 93.557 48.7918C92.9873 48.7251 92.41 48.7692 91.857 48.9218C91.1902 49.1127 90.572 49.4444 90.0441 49.8945C89.5163 50.3445 89.091 50.9025 88.797 51.5308L88.897 51.5098C88.2894 50.9697 87.4997 50.6799 86.687 50.6988C86.2529 50.7118 85.8263 50.8146 85.4339 51.0007C85.0415 51.1867 84.6919 51.452 84.407 51.7798C84.1069 52.1217 83.883 52.5236 83.75 52.9588C83.6413 53.3928 83.4709 53.8091 83.244 54.1948C83.1093 54.3717 82.9361 54.5158 82.7376 54.6161C82.5391 54.7164 82.3204 54.7703 82.098 54.7738C81.6178 54.7802 81.1403 54.8474 80.677 54.9738C80.3355 55.113 80.0501 55.3622 79.866 55.6818C79.6937 55.9912 79.5706 56.3255 79.501 56.6728C79.3986 57.3342 79.226 57.9829 78.986 58.6078C78.8576 58.8985 78.6564 59.1513 78.402 59.3418C78.143 59.5204 77.8556 59.6539 77.552 59.7368C76.9345 59.8642 76.3359 60.0706 75.771 60.3508C75.5031 60.513 75.2792 60.7386 75.119 61.0078C74.9648 61.268 74.86 61.5545 74.81 61.8528C74.7201 62.4188 74.7463 62.9972 74.887 63.5528C75.2095 64.4983 75.4285 65.476 75.54 66.4688C75.54 66.9238 75.484 67.3618 75.467 67.7818C75.4379 68.1796 75.4862 68.5793 75.609 68.9588C75.715 69.2933 75.9253 69.5852 76.209 69.7918C76.4585 69.9376 76.728 70.0461 77.009 70.1138C77.2285 70.1666 77.4346 70.2647 77.614 70.4018C77.7431 70.505 77.8437 70.6396 77.906 70.7928C77.9559 70.9172 77.9584 71.0556 77.913 71.1818Z" fill="#455A64"/>
<path d="M68.2186 63.4461C68.2406 63.4176 68.2581 63.3859 68.2706 63.3521C68.3046 63.2831 68.3526 63.1891 68.4076 63.0731C68.5276 62.8161 68.7076 62.4551 68.9226 61.9871C69.1376 61.5191 69.4036 60.9311 69.7636 60.2871C70.1428 59.5445 70.7228 58.9233 71.4376 58.4941C71.8376 58.2751 72.3086 58.1291 72.7766 57.9231C73.0194 57.818 73.2484 57.6837 73.4586 57.5231C73.6789 57.3501 73.8542 57.1264 73.9696 56.8711C74.2056 56.3521 74.2146 55.7641 74.4026 55.2271C74.4899 54.9562 74.6577 54.7183 74.8836 54.5451C75.1285 54.3786 75.3986 54.2526 75.6836 54.1721C75.9886 54.0882 76.2847 53.9747 76.5676 53.8331C76.8636 53.6746 77.1022 53.4269 77.2496 53.1251C77.4805 52.504 77.6262 51.8544 77.6826 51.1941C77.7301 50.8691 77.8423 50.557 78.0126 50.2761C78.104 50.1409 78.2212 50.025 78.3575 49.9351C78.4937 49.8452 78.6463 49.783 78.8066 49.7521C79.4636 49.6151 80.1716 49.8461 80.9006 49.7311C81.267 49.6668 81.6035 49.4879 81.8616 49.2201C82.1004 48.9583 82.309 48.6705 82.4836 48.3621C82.6521 48.0655 82.8353 47.7774 83.0326 47.4991C83.2192 47.2304 83.4721 47.0145 83.7666 46.8721C84.3807 46.6697 85.0443 46.6757 85.6546 46.8891C86.268 47.0841 86.9171 47.1397 87.5546 47.0521C88.1456 46.9004 88.7045 46.6437 89.2046 46.2941C89.6678 45.9764 90.1608 45.7044 90.6766 45.4821C91.6349 45.1616 92.666 45.1289 93.6426 45.3881C94.4526 45.5935 95.205 45.981 95.8426 46.5211C96.3184 46.9326 96.7267 47.4161 97.0526 47.9541C97.2542 48.2973 97.4278 48.6561 97.5716 49.0271C97.6186 49.1471 97.6576 49.2461 97.6876 49.3151C97.7176 49.3841 97.7306 49.4151 97.7306 49.4151C97.724 49.3809 97.7139 49.3474 97.7006 49.3151C97.6746 49.2425 97.6413 49.1425 97.6006 49.0151C97.4699 48.6351 97.3025 48.2687 97.1006 47.9211C96.7783 47.3714 96.3713 46.876 95.8946 46.4531C95.2509 45.8988 94.4898 45.4977 93.6686 45.2801C92.6715 45.0061 91.6155 45.0346 90.6346 45.3621C90.1097 45.5871 89.6074 45.8617 89.1346 46.1821C88.6456 46.5186 88.1009 46.7658 87.5256 46.9121C86.9084 46.99 86.2817 46.933 85.6886 46.7451C85.3689 46.6628 85.0432 46.6053 84.7146 46.5731C84.3703 46.5423 84.0237 46.5969 83.7056 46.7321C83.388 46.8857 83.1147 47.1177 82.9116 47.4061C82.7096 47.6873 82.5233 47.9794 82.3536 48.2811C82.1877 48.5818 81.9862 48.8615 81.7536 49.1141C81.5174 49.3595 81.2092 49.5234 80.8736 49.5821C80.1916 49.6941 79.4876 49.4621 78.7736 49.6081C78.4131 49.6797 78.0953 49.8902 77.8886 50.1941C77.7058 50.4916 77.5847 50.8229 77.5326 51.1681C77.4798 51.8169 77.3413 52.4558 77.1206 53.0681C76.9849 53.343 76.7677 53.5693 76.4986 53.7161C76.2227 53.8508 75.9357 53.9612 75.6406 54.0461C75.3403 54.13 75.056 54.2636 74.7996 54.4411C74.5535 54.6314 74.3708 54.8919 74.2756 55.1881C74.0826 55.7541 74.0756 56.3381 73.8546 56.8231C73.6206 57.2872 73.2188 57.6447 72.7306 57.8231C72.2716 58.0291 71.8036 58.1791 71.3876 58.4071C70.6575 58.8485 70.0679 59.4884 69.6876 60.2521C69.3276 60.9041 69.0826 61.4921 68.8636 61.9641C68.6446 62.4361 68.4946 62.7941 68.3786 63.0511C68.3276 63.1711 68.2846 63.2661 68.2546 63.3391C68.2373 63.3728 68.2252 63.4089 68.2186 63.4461Z" fill="#455A64"/>
<path d="M73.53 58.2128C73.501 58.2026 73.4707 58.1969 73.44 58.1958C73.3475 58.1913 73.2556 58.2121 73.174 58.2558C73.0239 58.3501 72.8996 58.4803 72.8123 58.6346C72.725 58.7889 72.6775 58.9625 72.674 59.1398C72.674 59.3926 72.71 59.6441 72.781 59.8868C72.8651 60.1682 72.9085 60.4601 72.91 60.7538C72.8737 61.0865 72.7525 61.4044 72.558 61.6768C72.365 61.9768 72.116 62.2768 71.918 62.6338C71.8029 62.82 71.7321 63.0302 71.7111 63.2482C71.6901 63.4661 71.7195 63.686 71.797 63.8908C71.956 64.3158 72.265 64.6718 72.415 65.1048C72.5467 65.5636 72.4973 66.0554 72.277 66.4788C72.084 66.9338 71.805 67.3788 71.612 67.8868C71.5073 68.1437 71.4533 68.4184 71.453 68.6958C71.4579 68.9819 71.5223 69.2639 71.642 69.5238C71.9148 70.0262 72.2321 70.5031 72.59 70.9488C72.957 71.3927 73.1453 71.9575 73.118 72.5328C72.9837 73.117 72.7806 73.6833 72.513 74.2198C72.3958 74.5119 72.3331 74.8231 72.328 75.1378C72.3351 75.4521 72.4159 75.7604 72.564 76.0378C72.8667 76.5489 73.2281 77.0227 73.641 77.4498C74.0271 77.8558 74.3238 78.3381 74.512 78.8658C74.65 79.3961 74.8234 79.9166 75.031 80.4238C75.1502 80.6694 75.3232 80.885 75.537 81.0548C75.7512 81.2086 75.9909 81.3233 76.245 81.3938C76.4807 81.4612 76.7115 81.5444 76.936 81.6428C77.1462 81.7473 77.341 81.8802 77.515 82.0378C77.8334 82.3571 78.1091 82.7165 78.335 83.1068C78.562 83.4798 78.777 83.8448 79.017 84.1708C79.4446 84.7747 80.0555 85.2246 80.759 85.4538C81.2838 85.6287 81.8413 85.683 82.39 85.6128C82.7373 85.5721 83.0754 85.4734 83.39 85.3208C83.4981 85.2676 83.6027 85.2075 83.703 85.1408C83.2926 85.3567 82.8463 85.4963 82.386 85.5528C81.8459 85.6134 81.2991 85.5519 80.786 85.3728C80.1036 85.1429 79.5137 84.6989 79.104 84.1068C78.872 83.7848 78.662 83.4198 78.434 83.0428C78.2079 82.64 77.928 82.2699 77.602 81.9428C77.4193 81.7752 77.2144 81.6335 76.993 81.5218C76.7621 81.4224 76.5257 81.3363 76.285 81.2638C76.0466 81.1952 75.8217 81.0863 75.62 80.9418C75.4216 80.7849 75.2629 80.5835 75.157 80.3538C74.9557 79.8513 74.7873 79.3362 74.653 78.8118C74.4559 78.2678 74.1496 77.77 73.753 77.3488C73.3496 76.9283 72.9953 76.4633 72.697 75.9628C72.5606 75.7058 72.4856 75.4207 72.478 75.1298C72.4838 74.8338 72.5434 74.5414 72.654 74.2668C72.9264 73.7196 73.1326 73.1418 73.268 72.5458C73.3021 72.2385 73.2609 71.9276 73.148 71.6398C73.0372 71.3635 72.8917 71.1024 72.715 70.8628C72.3612 70.4246 72.0467 69.9561 71.775 69.4628C71.6629 69.2219 71.6016 68.9604 71.595 68.6948C71.5975 68.4331 71.6484 68.174 71.745 67.9308C71.925 67.4418 72.2 66.9998 72.402 66.5308C72.6325 66.0765 72.6801 65.5511 72.535 65.0628C72.367 64.5958 72.053 64.2468 71.904 63.8478C71.832 63.6577 71.8045 63.4537 71.8238 63.2514C71.843 63.0491 71.9084 62.8538 72.015 62.6808C72.204 62.3328 72.448 62.0368 72.642 61.7278C72.8417 61.4402 72.9643 61.1063 72.998 60.7578C72.9927 60.4563 72.9438 60.1573 72.853 59.8698C72.7793 59.6348 72.7415 59.39 72.741 59.1438C72.7415 58.9741 72.783 58.8071 72.8621 58.657C72.9411 58.5069 73.0554 58.3782 73.195 58.2818C73.2985 58.2293 73.4142 58.2055 73.53 58.2128Z" fill="#455A64"/>
<path d="M109.623 74.3552C109.894 74.4574 110.146 74.6037 110.37 74.7882C111 75.2891 111.431 75.9983 111.585 76.7882C111.7 77.3301 111.686 77.8914 111.546 78.4272C111.376 79.0401 111.063 79.6037 110.632 80.0712C110.16 80.594 109.561 80.9857 108.893 81.2082C108.172 81.4471 107.396 81.4635 106.666 81.2552C105.935 81.0517 105.276 80.6491 104.761 80.0922C104.284 79.5691 103.968 78.9194 103.851 78.2212C103.752 77.6341 103.789 77.0322 103.959 76.4616C104.13 75.8911 104.428 75.3672 104.833 74.9302C105.161 74.6153 105.548 74.3673 105.971 74.2002C106.286 74.0674 106.618 73.9809 106.958 73.9432C107.172 73.9196 107.388 73.9267 107.6 73.9642C107.674 73.9761 107.747 73.9983 107.816 74.0302C107.535 73.9785 107.248 73.9728 106.966 74.0132C106.636 74.0613 106.315 74.1566 106.013 74.2962C105.609 74.4683 105.242 74.7161 104.932 75.0262C104.55 75.4503 104.27 75.9558 104.114 76.5042C103.957 77.0526 103.927 77.6296 104.027 78.1912C104.143 78.8534 104.445 79.4687 104.9 79.9642C105.392 80.494 106.022 80.8751 106.72 81.0642C107.413 81.2632 108.151 81.2483 108.836 81.0212C109.473 80.8093 110.046 80.4378 110.5 79.9422C110.915 79.4969 111.221 78.9607 111.393 78.3762C111.533 77.8642 111.554 77.3265 111.453 76.8052C111.312 76.0398 110.913 75.3458 110.322 74.8392C109.9 74.4922 109.61 74.3762 109.623 74.3552Z" fill="#E0E0E0"/>
<path d="M88.4464 72.8996C87.8362 72.6775 87.2006 72.5328 86.5544 72.4686C86.2544 72.4246 85.9744 72.3516 85.9334 72.1446C85.9223 71.8337 86.006 71.5268 86.1734 71.2646L87.1634 69.0206C88.0743 67.1231 88.831 65.1554 89.4264 63.1366C88.3641 64.9567 87.4495 66.8592 86.6914 68.8256C86.3621 69.6143 86.0458 70.3673 85.7424 71.0846C85.5374 71.4379 85.4634 71.8522 85.5334 72.2546C85.5722 72.3624 85.635 72.46 85.7171 72.5399C85.7993 72.6198 85.8986 72.6799 86.0074 72.7156C86.1714 72.7683 86.3415 72.7999 86.5134 72.8096C87.1514 72.9214 87.8009 72.9516 88.4464 72.8996Z" fill="#263238"/>
<path d="M93.4566 59.8102C93.5566 60.1352 94.7376 60.0362 96.1076 60.2652C97.4826 60.4652 98.5756 60.9202 98.7716 60.6422C98.8596 60.5092 98.6796 60.1992 98.2436 59.8702C97.6662 59.4575 96.9987 59.1884 96.2966 59.0852C95.5946 58.9671 94.8746 59.0186 94.1966 59.2352C93.6846 59.4172 93.4186 59.6562 93.4566 59.8102Z" fill="#263238"/>
<path d="M92.1568 74.6288C92.0865 74.4637 91.9554 74.3319 91.7907 74.2606C91.626 74.1893 91.4402 74.184 91.2718 74.2458L88.0318 75.4328L87.6718 75.5648C87.828 76.2246 88.0686 76.8615 88.3878 77.4598C88.5346 77.7169 88.7361 77.9388 88.978 78.1096C89.2199 78.2805 89.4963 78.3963 89.7878 78.4488C90.2666 78.4818 90.7436 78.3628 91.1508 78.1088C91.4906 77.9529 91.7937 77.7271 92.0403 77.446C92.2869 77.165 92.4714 76.835 92.5818 76.4778C92.5948 75.8358 92.4488 75.2006 92.1568 74.6288Z" fill="#6F4439"/>
<path d="M93.4546 67.929C93.4391 68.2213 93.5386 68.5081 93.7318 68.7281C93.9251 68.948 94.1967 69.0837 94.4886 69.106C94.6307 69.1238 94.775 69.1129 94.9129 69.0739C95.0507 69.035 95.1794 68.9689 95.2913 68.8794C95.4031 68.7899 95.4959 68.6789 95.5642 68.5529C95.6324 68.4269 95.6747 68.2886 95.6886 68.146C95.7038 67.8537 95.6042 67.567 95.411 67.3471C95.2178 67.1272 94.9464 66.9915 94.6546 66.969C94.5124 66.9513 94.3682 66.9623 94.2304 67.0013C94.0926 67.0403 93.964 67.1065 93.8521 67.1959C93.7403 67.2854 93.6475 67.3964 93.5792 67.5223C93.511 67.6482 93.4686 67.7864 93.4546 67.929Z" fill="#263238"/>
<path d="M83.0327 67.929C83.0172 68.2213 83.1167 68.5081 83.31 68.7281C83.5032 68.948 83.7748 69.0837 84.0667 69.106C84.2088 69.1238 84.3531 69.1129 84.491 69.0739C84.6289 69.035 84.7575 68.9689 84.8694 68.8794C84.9813 68.7899 85.0741 68.6789 85.1423 68.5529C85.2105 68.4269 85.2528 68.2886 85.2667 68.146C85.2819 67.8537 85.1823 67.567 84.9891 67.3471C84.796 67.1272 84.5245 66.9915 84.2327 66.969C84.0906 66.9513 83.9463 66.9623 83.8085 67.0013C83.6707 67.0403 83.5421 67.1065 83.4303 67.1959C83.3184 67.2854 83.2256 67.3964 83.1574 67.5223C83.0891 67.6482 83.0467 67.7864 83.0327 67.929Z" fill="#263238"/>
<path d="M82.284 63.5237C82.392 63.6927 83.248 63.1107 84.349 63.2337C85.449 63.3337 86.177 64.0847 86.315 63.9397C86.382 63.8767 86.287 63.5827 85.973 63.2467C85.5629 62.8188 85.0141 62.5504 84.4245 62.4896C83.8349 62.4288 83.2429 62.5795 82.754 62.9147C82.379 63.1767 82.23 63.4477 82.284 63.5237Z" fill="#263238"/>
<path d="M92.7985 64.4256C92.9495 64.5986 93.8925 63.8656 95.2155 63.8776C96.5385 63.8696 97.5015 64.6056 97.6475 64.4326C97.7185 64.3556 97.5685 64.0446 97.1475 63.7116C96.5889 63.2857 95.9059 63.0548 95.2035 63.0546C94.5074 63.0516 93.8303 63.2811 93.2795 63.7066C92.8685 64.0386 92.7265 64.3486 92.7995 64.4266" fill="#263238"/>
<path d="M89.0506 78.0475C89.0406 78.0585 89.1426 78.1875 89.4046 78.3105C89.7849 78.4658 90.2038 78.5007 90.6046 78.4105C91.2012 78.2878 91.75 77.9962 92.1856 77.5705C92.4534 77.3101 92.6408 76.9783 92.7256 76.6145C92.8054 76.2285 92.7941 75.8293 92.6926 75.4485C92.5993 75.0803 92.4634 74.7242 92.2876 74.3875C92.2446 74.2852 92.1805 74.1932 92.0995 74.1173C92.0185 74.0415 91.9224 73.9836 91.8176 73.9475C91.6172 73.9179 91.4127 73.9529 91.2336 74.0475L89.6276 74.6915C89.1214 74.865 88.6358 75.0937 88.1796 75.3735C88.7065 75.2802 89.2216 75.1293 89.7156 74.9235L91.3476 74.3445C91.6766 74.2075 91.8306 74.2255 91.9826 74.5445C92.1425 74.8586 92.2675 75.1892 92.3556 75.5305C92.456 75.8414 92.4718 76.1735 92.4015 76.4926C92.3313 76.8118 92.1773 77.1065 91.9556 77.3465C91.5703 77.7403 91.0871 78.0244 90.5556 78.1695C90.1966 78.2715 89.8169 78.276 89.4556 78.1825C89.2006 78.1085 89.0726 78.0205 89.0556 78.0485" fill="#263238"/>
</g>
</svg>
