<svg width="200" height="199" viewBox="0 0 200 199" fill="none" xmlns="http://www.w3.org/2000/svg">
<path d="M128.352 27.0881L135.814 30.8457L136.615 29.2801H136.607L146.182 10.3413L127.077 0.460938L123.239 7.87835C123.076 8.11127 122.85 8.29382 122.588 8.40534C122.326 8.51685 122.038 8.55293 121.757 8.5095C121.475 8.46608 121.211 8.34486 120.995 8.15955C120.779 7.97423 120.619 7.73222 120.533 7.46075C120.322 6.68803 119.818 6.02803 119.128 5.62116C118.528 5.38738 117.863 5.38719 117.263 5.62064C116.663 5.85409 116.173 6.30416 115.889 6.88185C115.605 7.45955 115.548 8.12278 115.729 8.74037C115.911 9.35796 116.318 9.88495 116.869 10.2171C117.228 10.4197 117.632 10.5281 118.044 10.532C118.456 10.5359 118.862 10.4353 119.225 10.2395C119.399 10.1694 119.587 10.1367 119.775 10.1433C119.962 10.15 120.147 10.1959 120.316 10.2782C120.484 10.353 120.635 10.4604 120.761 10.5941C120.887 10.7278 120.985 10.8852 121.05 11.0571C121.115 11.2291 121.145 11.4122 121.139 11.5958C121.132 11.7794 121.089 11.96 121.013 12.1269L116.658 21.0305L119.531 22.483L123.855 24.7097C124.123 24.8174 124.348 25.0114 124.494 25.2611C124.639 25.5108 124.698 25.8019 124.66 26.0886C124.622 26.3752 124.49 26.641 124.284 26.8442C124.078 27.0473 123.811 27.1761 123.524 27.2103C123.146 27.2916 122.788 27.4488 122.473 27.6724C122.158 27.896 121.892 28.1814 121.69 28.5111C121.55 28.8074 121.473 29.1294 121.464 29.457C121.454 29.7845 121.513 30.1105 121.635 30.4144C121.757 30.7183 121.941 30.9937 122.175 31.2232C122.409 31.4527 122.688 31.6315 122.994 31.7482C123.271 31.937 123.583 32.0684 123.912 32.1344C124.24 32.2005 124.579 32.1999 124.907 32.1327C125.236 32.0656 125.547 31.9332 125.824 31.7435C126.1 31.5537 126.336 31.3104 126.516 31.028C126.665 30.6561 126.738 30.2583 126.732 29.8578C126.726 29.4572 126.641 29.0618 126.482 28.6944C126.41 28.5271 126.377 28.3458 126.384 28.164C126.391 27.9821 126.439 27.8042 126.524 27.6432C126.603 27.4826 126.715 27.3399 126.851 27.224C126.987 27.1081 127.146 27.0214 127.318 26.9694C127.489 26.9173 127.669 26.901 127.847 26.9214C128.025 26.9419 128.197 26.9986 128.352 27.0881Z" fill="#C0CFD5"/>
<path d="M47.0299 39.2059C45.3239 35.832 43.9127 32.317 42.8119 28.7001C41.7117 25.0664 41.5311 21.2163 42.2863 17.4955C42.4167 16.9373 43.6471 13.1491 44.2216 13.1328C44.6291 13.1206 44.0179 16.5869 44.2654 16.9119C46.5496 20.1169 47.8066 23.9399 47.8702 27.875C48.0122 31.6717 47.731 35.4724 47.0319 39.2069" fill="#263238"/>
<path d="M71.9629 68.4556C71.6573 65.8073 70.1783 52.5553 70.1987 52.5523C70.1987 52.5523 79.1623 50.4753 78.6102 41.3976C78.3424 37.0176 77.0548 28.0285 75.7959 19.9113C75.1426 15.7044 72.9293 11.8976 69.5963 9.24873C66.2634 6.59983 62.0553 5.30296 57.8095 5.61628L56.9345 5.68047C47.54 6.9252 43.3494 15.5996 44.8539 24.9564L51.6571 68.4791L67.6491 67.7171L71.9629 68.4556Z" fill="#FFBF9D"/>
<path d="M70.1804 52.5476C65.9914 52.845 61.8049 51.9351 58.1172 49.9258C58.1172 49.9258 61.449 56.4448 70.4422 54.9648L70.1804 52.5476Z" fill="#FF9A6C"/>
<path d="M73.1616 28.4012C73.1899 28.7387 73.0852 29.0739 72.8697 29.3352C72.6543 29.5965 72.3452 29.7632 72.0086 29.7998C71.8444 29.8257 71.6767 29.8183 71.5154 29.7782C71.3541 29.7381 71.2025 29.6661 71.0695 29.5664C70.9365 29.4667 70.8249 29.3413 70.7413 29.1977C70.6576 29.054 70.6037 28.8951 70.5825 28.7302C70.5547 28.3932 70.6594 28.0586 70.8743 27.7975C71.0892 27.5363 71.3974 27.3693 71.7335 27.3317C71.8978 27.3057 72.0657 27.3129 72.2272 27.3529C72.3887 27.3929 72.5405 27.4649 72.6736 27.5646C72.8068 27.6644 72.9186 27.7898 73.0024 27.9335C73.0862 28.0772 73.1404 28.2362 73.1616 28.4012Z" fill="#263238"/>
<path d="M74.1403 23.8351C73.9916 24.0153 72.9577 23.3614 71.5643 23.4683C70.1708 23.5539 69.2012 24.3464 69.0372 24.1865C68.9567 24.1162 69.0983 23.7994 69.52 23.4419C70.0924 22.9799 70.7936 22.7063 71.5276 22.6586C72.252 22.6027 72.9754 22.7786 73.5933 23.1608C74.0497 23.4582 74.2177 23.7525 74.1403 23.8351Z" fill="#263238"/>
<path d="M60.434 30.0225C60.4624 30.3598 60.3577 30.6948 60.1425 30.9561C59.9273 31.2174 59.6185 31.3842 59.282 31.421C59.1179 31.447 58.9502 31.4399 58.7889 31.3999C58.6276 31.36 58.476 31.288 58.343 31.1884C58.21 31.0887 58.0984 30.9634 58.0148 30.8198C57.9311 30.6763 57.8771 30.5174 57.856 30.3525C57.8282 30.0154 57.9328 29.6807 58.1477 29.4194C58.3626 29.1581 58.6708 28.9908 59.007 28.953C59.1712 28.927 59.3391 28.9342 59.5005 28.9742C59.6619 29.0142 59.8136 29.0862 59.9467 29.1859C60.0798 29.2857 60.1915 29.4111 60.2752 29.5548C60.3589 29.6985 60.4129 29.8576 60.434 30.0225Z" fill="#263238"/>
<path d="M60.5619 25.3898C60.4142 25.5701 59.3783 24.9162 57.9859 25.0231C56.5935 25.1097 55.6238 25.9011 55.4587 25.7412C55.3793 25.6709 55.5188 25.3541 55.9426 24.9976C56.5148 24.5353 57.2161 24.2613 57.9502 24.2133C58.6748 24.1573 59.3983 24.3335 60.0159 24.7165C60.4672 25.0129 60.6353 25.3073 60.5619 25.3898Z" fill="#263238"/>
<path d="M66.3428 35.7214C67.0606 35.4378 67.811 35.2448 68.5766 35.1469C68.929 35.0838 69.2611 34.988 69.3039 34.7395C69.3065 34.3699 69.1967 34.0083 68.9891 33.7026L67.7372 31.0705C66.5919 28.8466 65.6269 26.5345 64.8516 24.1562C66.1735 26.2824 67.3221 28.5115 68.2863 30.822C68.7086 31.7468 69.1117 32.6296 69.4954 33.4703C69.7506 33.883 69.8523 34.3724 69.7826 34.8526C69.7403 34.9819 69.669 35.0998 69.5742 35.1974C69.4794 35.295 69.3636 35.3697 69.2356 35.4158C69.0426 35.484 68.8417 35.5275 68.6377 35.5452C67.8832 35.7005 67.1121 35.7597 66.3428 35.7214Z" fill="#263238"/>
<path d="M72.8668 17.9524C72.6631 18.2967 71.6648 18.0807 70.5138 18.1989C69.3587 18.2773 68.4155 18.6583 68.1527 18.3558C68.0356 18.207 68.1527 17.8729 68.5428 17.5246C69.0728 17.1006 69.7166 16.8435 70.3928 16.7858C71.069 16.7282 71.7471 16.8726 72.3412 17.2007C72.7843 17.4777 72.9554 17.7894 72.8668 17.9524Z" fill="#263238"/>
<path d="M60.5777 22.1811C60.3516 22.5131 59.3706 22.2432 58.2145 22.2993C57.0564 22.3145 56.0938 22.6425 55.8483 22.3247C55.7404 22.1699 55.8738 21.8429 56.2833 21.518C56.8356 21.123 57.4928 20.9012 58.1714 20.8805C58.8501 20.8598 59.5196 21.0413 60.0949 21.4019C60.5227 21.7013 60.6765 22.0191 60.5777 22.1811Z" fill="#263238"/>
<path d="M46.0965 31.6179C45.9366 31.5628 39.7303 30.2325 40.3842 36.4185C41.0381 42.6044 47.7079 40.9003 47.6998 40.719C47.6916 40.5377 46.0965 31.6179 46.0965 31.6179Z" fill="#FFBF9D"/>
<path d="M44.9542 38.3474C44.9247 38.3301 44.8524 38.434 44.6813 38.5369C44.4367 38.6737 44.1486 38.7102 43.8776 38.6388C43.4514 38.4276 43.089 38.1069 42.8277 37.7095C42.5664 37.3122 42.4154 36.8524 42.3904 36.3775C42.3194 35.8487 42.367 35.3108 42.53 34.8027C42.5669 34.6026 42.652 34.4145 42.778 34.2548C42.9041 34.095 43.0672 33.9684 43.2532 33.886C43.3735 33.8402 43.5061 33.838 43.6279 33.8797C43.7498 33.9213 43.8532 34.0043 43.9204 34.1141C44.0222 34.2781 43.9947 34.4065 44.0283 34.4136C44.0619 34.4207 44.1506 34.2955 44.0731 34.0459C44.0226 33.8961 43.9223 33.7682 43.789 33.6833C43.6054 33.5731 43.3861 33.5391 43.1778 33.5886C42.9293 33.6657 42.7047 33.8052 42.5254 33.9939C42.3462 34.1826 42.2184 34.4141 42.1541 34.6662C41.9477 35.23 41.8823 35.8356 41.9636 36.4304C41.9914 36.9843 42.1822 37.5176 42.512 37.9634C42.8418 38.4092 43.296 38.7476 43.8175 38.9362C43.9887 38.9667 44.1646 38.9584 44.3322 38.912C44.4998 38.8657 44.6549 38.7824 44.7862 38.6683C44.9604 38.4982 44.9767 38.3566 44.9542 38.3474Z" fill="#FF9A6C"/>
<path d="M70.6423 10.1358C71.5795 9.46967 68.2069 6.57072 65.6217 5.7426C61.7143 4.48362 55.9226 4.09555 52.6091 5.45945C48.6203 7.10143 45.43 9.54605 43.7911 13.5359C42.2352 17.5858 41.7845 21.9767 42.4852 26.2582C42.5852 27.5774 43.0352 28.8461 43.789 29.9333C44.8076 31.2015 46.5637 31.8686 46.7063 33.7642C46.7226 34.108 46.8068 34.4452 46.9542 34.7563C47.1016 35.0673 47.3092 35.346 47.565 35.5763C48.8331 36.6499 50.087 35.3614 50.5933 34.1503C51.674 31.5743 51.4937 28.6672 51.2951 25.8813C51.261 23.892 50.9011 21.9217 50.2296 20.0488C49.81 19.0537 49.211 18.1369 48.8484 17.1193C48.6344 16.6219 48.5311 16.0838 48.5457 15.5424C48.5603 15.001 48.6924 14.4693 48.933 13.9841C49.0627 13.7822 49.211 13.5929 49.3761 13.4188C50.1516 12.5678 51.1397 11.9386 52.2388 11.5958C53.3379 11.253 54.5085 11.209 55.6302 11.4681C59.2514 12.3003 65.4088 13.4575 66.8206 12.0987C67.8444 11.2393 68.6772 10.1751 69.2652 8.97462L70.6423 10.1358Z" fill="#263238"/>
<path d="M67.3044 39.4626C67.2311 39.2395 66.1361 39.4626 64.9871 38.9787C63.8289 38.5132 63.2096 37.5812 63.0008 37.6882C62.899 37.735 62.9255 38.0569 63.1801 38.4918C63.5331 39.0561 64.0537 39.4958 64.6691 39.7495C65.2844 40.0032 65.9636 40.0581 66.6117 39.9066C67.0986 39.7773 67.34 39.5654 67.3044 39.4626Z" fill="#263238"/>
<path d="M50.9688 23.825C49.4884 24.0157 47.9881 23.9886 46.5155 23.7445C45.0226 23.6693 43.5524 23.3482 42.1641 22.7942C42.1905 22.7066 44.1279 23.0825 46.5614 23.3381C48.9917 23.6233 50.9668 23.715 50.9688 23.825Z" fill="#EBEBEB"/>
<path d="M36.4957 100.495L23.0431 99.8105L35.8051 89.2456L25.5539 70.371C25.5539 70.371 4.19597 95.3979 2.3299 98.961C0.245851 102.948 -1.5204 109.438 4.24588 112.61C8.25305 114.814 39.9345 114.587 39.9345 114.587L36.4957 100.495Z" fill="#FFBF9D"/>
<path d="M54.7891 150.103V200.756H101.887L107.323 137.453L54.7891 150.103Z" fill="#263238"/>
<path d="M90.5703 57.3008C90.5703 57.3008 116.621 80.043 117.035 79.4919C117.448 78.9409 125.617 57.3008 125.617 57.3008L140.465 57.5982C140.465 57.5982 132.609 90.4052 127.785 94.7169C122.961 99.0287 117.586 97.6352 113.864 96.9028C110.142 96.1705 92.2174 79.6916 92.2174 79.6916L90.5703 57.3008Z" fill="#FFBF9D"/>
<path d="M50.3422 56.8764L29.4609 63.9454L34.0161 80.6932L43.2049 107.647L53.9653 150.293L114.444 134.982L97.1457 81.3207L90.5432 57.3021L84.891 55.2109L74.6653 56.7959L71.1532 56.5443C71.1532 56.5443 71.9864 60.9548 63.7388 61.2543C58.7884 61.4335 50.3422 56.8764 50.3422 56.8764Z" fill="#B61D2D"/>
<path d="M95.7609 86.596L103.12 91.1889L111.425 73.2616C111.425 73.2616 95.2434 56.6422 89.9518 55.5237C84.6602 54.4053 82.7422 56.0422 82.7422 56.0422L95.7609 86.596Z" fill="#B61D2D"/>
<path d="M28.8911 99.2071L10.375 86.6926C10.375 86.6926 22.6552 70.2005 24.3991 68.1663C25.8946 66.3691 27.7387 64.8934 29.82 63.8281L37.4055 90.3789L28.8911 99.2071Z" fill="#B61D2D"/>
<path d="M32.4319 75.1446C32.3576 75.168 34.1462 80.8834 36.4238 87.9097C38.7014 94.936 40.6082 100.614 40.6815 100.59C40.7549 100.567 38.9672 94.8514 36.6886 87.8241C34.41 80.7968 32.5042 75.1212 32.4319 75.1446Z" fill="#263238"/>
<path d="M95.7508 107.424L78.0547 107.34V111.202H78.073L78.288 173.996L126.198 174.186L126.282 138.229C126.256 136.641 127.965 135.511 129.735 135.487C130.609 135.49 131.448 135.83 132.078 136.436C133.317 137.691 134.982 138.436 136.743 138.522C137.445 138.536 138.143 138.405 138.791 138.134C139.439 137.864 140.024 137.462 140.508 136.953C140.991 136.444 141.363 135.839 141.6 135.178C141.837 134.517 141.933 133.813 141.882 133.113C141.829 129.983 140.014 128.091 136.564 127.846C134.042 127.665 132.801 129.107 131.869 130.043C131.585 130.343 131.243 130.582 130.865 130.748C130.486 130.914 130.078 131.002 129.665 131.007C129.269 131.04 128.87 130.994 128.492 130.872C128.114 130.75 127.763 130.555 127.46 130.298C127.158 130.04 126.909 129.726 126.728 129.372C126.547 129.018 126.437 128.632 126.405 128.236L126.431 107.726L118.887 107.697L107.089 107.579C106.283 107.609 105.498 107.319 104.906 106.772C104.314 106.224 103.963 105.464 103.931 104.658C103.94 104.257 104.038 103.862 104.218 103.502C104.398 103.143 104.656 102.828 104.972 102.58C106.016 101.744 107.493 100.249 107.524 98.4683C107.571 95.7069 105.14 93.743 101.653 93.6962C98.1649 93.6493 95.6703 95.5459 95.6235 98.3063C95.5939 100.088 97.0189 101.622 98.0355 102.483C98.3435 102.739 98.5904 103.062 98.7583 103.426C98.9262 103.79 99.0109 104.187 99.0062 104.588C98.9469 105.394 98.5717 106.145 97.962 106.676C97.3523 107.207 96.5576 107.476 95.7508 107.424Z" fill="#C2CACD"/>
<path d="M156.652 153.779L174.348 153.696V157.557H174.33L174.115 201.809L126.205 201.999L126.121 184.581C126.147 182.993 124.438 181.862 122.668 181.839C121.794 181.842 120.955 182.182 120.325 182.787C119.086 184.042 117.421 184.787 115.66 184.873C114.958 184.888 114.26 184.756 113.612 184.486C112.964 184.216 112.379 183.813 111.895 183.304C111.412 182.795 111.04 182.191 110.803 181.529C110.566 180.868 110.47 180.165 110.521 179.464C110.574 176.335 112.389 174.443 115.839 174.197C118.361 174.017 119.602 175.458 120.534 176.394C120.818 176.694 121.16 176.934 121.538 177.1C121.917 177.265 122.325 177.353 122.738 177.359C123.134 177.391 123.533 177.345 123.911 177.224C124.289 177.102 124.64 176.907 124.943 176.649C125.245 176.392 125.495 176.077 125.676 175.723C125.857 175.37 125.966 174.984 125.998 174.587L125.972 154.078L133.516 154.048L145.314 153.93C146.12 153.961 146.905 153.671 147.497 153.123C148.089 152.576 148.44 151.816 148.472 151.01C148.463 150.608 148.365 150.213 148.185 149.854C148.005 149.495 147.747 149.18 147.431 148.932C146.387 148.096 144.91 146.6 144.879 144.82C144.832 142.058 147.263 140.095 150.751 140.048C154.238 140.001 156.733 141.897 156.78 144.658C156.809 146.438 155.384 147.973 154.368 148.834C154.06 149.091 153.813 149.413 153.645 149.777C153.477 150.142 153.392 150.539 153.397 150.94C153.455 151.747 153.83 152.498 154.44 153.03C155.05 153.562 155.845 153.831 156.652 153.779Z" fill="#35454D"/>
<path d="M155.635 107.685C154.828 107.632 154.033 107.9 153.422 108.431C152.812 108.961 152.436 109.711 152.376 110.518C152.371 110.919 152.456 111.316 152.624 111.681C152.791 112.045 153.038 112.367 153.346 112.624C154.365 113.489 155.791 115.023 155.758 116.801C155.712 119.562 153.212 121.459 149.729 121.411C146.247 121.363 143.812 119.399 143.858 116.639C143.888 114.858 145.366 113.363 146.405 112.527C146.721 112.279 146.979 111.964 147.159 111.604C147.339 111.245 147.438 110.85 147.447 110.448C147.431 109.784 147.19 109.146 146.765 108.637C146.339 108.128 145.754 107.778 145.104 107.645L130.38 107.703L126.421 107.752L126.395 128.232C126.427 128.629 126.536 129.015 126.717 129.368C126.898 129.722 127.147 130.037 127.45 130.294C127.753 130.552 128.103 130.747 128.482 130.869C128.86 130.991 129.259 131.037 129.655 131.004C130.068 130.999 130.476 130.91 130.855 130.745C131.233 130.579 131.575 130.339 131.859 130.039C132.791 129.102 134.032 127.662 136.554 127.842C140.004 128.088 141.82 129.981 141.872 133.109C141.923 133.81 141.827 134.513 141.59 135.174C141.353 135.836 140.981 136.44 140.497 136.949C140.014 137.458 139.429 137.861 138.781 138.131C138.133 138.401 137.435 138.533 136.733 138.518C134.971 138.432 133.307 137.688 132.068 136.432C131.438 135.827 130.599 135.487 129.725 135.484C128.111 135.506 126.552 136.448 126.309 137.818C126.334 137.953 126.347 138.089 126.345 138.226L126.188 155.644L174.347 155.45L173.79 107.764L155.635 107.685Z" fill="#768A95"/>
<path d="M96.767 154.041C97.5741 153.988 98.3694 154.256 98.9798 154.786C99.5903 155.317 99.9665 156.067 100.027 156.873C100.031 157.275 99.9467 157.672 99.7787 158.036C99.6108 158.401 99.3639 158.723 99.0558 158.98C98.0372 159.845 96.6112 161.379 96.6438 163.156C96.6906 165.918 99.1903 167.814 102.673 167.766C106.155 167.718 108.59 165.755 108.544 162.994C108.515 161.214 107.037 159.718 105.998 158.882C105.681 158.634 105.423 158.319 105.243 157.96C105.063 157.6 104.965 157.205 104.956 156.803C104.971 156.14 105.212 155.502 105.637 154.992C106.063 154.483 106.648 154.133 107.298 154L122.022 154.058L125.981 154.108L126.007 174.588C125.975 174.984 125.866 175.37 125.685 175.724C125.504 176.078 125.255 176.392 124.952 176.65C124.649 176.907 124.299 177.102 123.92 177.224C123.542 177.346 123.143 177.392 122.747 177.36C122.334 177.354 121.926 177.266 121.548 177.1C121.169 176.935 120.827 176.695 120.543 176.395C119.611 175.458 118.37 174.017 115.848 174.198C112.398 174.443 110.582 176.337 110.53 179.465C110.48 180.165 110.576 180.869 110.812 181.53C111.049 182.191 111.421 182.796 111.905 183.305C112.388 183.814 112.973 184.216 113.621 184.487C114.27 184.757 114.967 184.889 115.669 184.874C117.431 184.788 119.096 184.043 120.334 182.788C120.964 182.182 121.803 181.843 122.677 181.839C124.292 181.862 125.85 182.804 126.093 184.174C126.068 184.308 126.056 184.445 126.058 184.581L126.216 201.999L78.0625 201.807L78.6197 154.12L96.767 154.041Z" fill="#4F6671"/>
<path d="M155.404 107.878L173.786 107.766V104.099H173.768L173.555 59.8457L126.24 59.6562L126.155 77.0743C126.181 78.6623 124.494 79.7929 122.744 79.8163C121.88 79.8111 121.051 79.4712 120.433 78.868C119.216 77.6148 117.569 76.8694 115.824 76.7819C115.126 76.7717 114.434 76.9073 113.791 77.18C113.149 77.4526 112.57 77.8564 112.093 78.3655C111.615 78.8746 111.249 79.4777 111.018 80.1364C110.786 80.7951 110.695 81.4947 110.75 82.1907C110.802 85.3208 112.594 87.2124 116.003 87.4579C118.493 87.6382 119.719 86.1978 120.639 85.2607C120.919 84.9617 121.255 84.7221 121.629 84.5563C122.003 84.3906 122.407 84.3021 122.816 84.2961C123.209 84.2663 123.605 84.3144 123.979 84.4376C124.354 84.5608 124.701 84.7568 124.999 85.0143C125.298 85.2718 125.543 85.5857 125.72 85.9381C125.897 86.2905 126.003 86.6744 126.032 87.0677L126.423 107.73L133.504 107.697L144.206 107.726C144.602 107.713 144.997 107.778 145.369 107.918C145.74 108.057 146.08 108.269 146.37 108.54C146.66 108.811 146.893 109.137 147.057 109.498C147.221 109.86 147.312 110.25 147.325 110.646C147.27 111.056 147.129 111.449 146.912 111.8C146.695 112.151 146.406 112.452 146.064 112.683C145.414 113.178 144.874 113.804 144.481 114.519C144.087 115.235 143.846 116.025 143.776 116.838C143.73 119.6 146.13 121.564 149.574 121.61C153.018 121.657 155.707 119.69 155.752 116.925C155.782 115.143 154.349 113.49 153.346 112.625C153.042 112.39 152.797 112.088 152.629 111.742C152.461 111.397 152.375 111.017 152.377 110.633C152.384 110.25 152.469 109.872 152.627 109.523C152.785 109.174 153.013 108.86 153.296 108.602C153.58 108.344 153.913 108.147 154.275 108.022C154.638 107.898 155.022 107.848 155.404 107.878Z" fill="#455A64"/>
<g opacity="0.3">
<path d="M125.985 59.7074C129.303 58.3394 132.822 61.1446 136.139 59.7767C136.613 59.5169 137.161 59.4274 137.693 59.523C137.987 59.6554 138.244 59.8583 138.441 60.1138C138.639 60.3693 138.77 60.6695 138.823 60.9878C139.034 61.8565 139.06 62.7596 138.9 63.639C138.739 64.5183 138.397 65.3543 137.893 66.093C136.87 67.5679 135.43 68.7044 133.758 69.3576C132.448 69.9669 130.973 70.1248 129.564 69.8068C127.157 69.1253 125.953 62.203 125.985 59.7074Z" fill="black"/>
</g>
<path d="M125.337 57.5173C125.822 57.2485 126.213 56.8376 126.457 56.3398C126.845 55.2785 129.789 54.7417 129.789 54.7417C130.257 54.4857 130.741 54.2608 131.238 54.0684C131.98 53.7903 133.628 54.8934 133.628 54.8934C135.319 53.9604 135.837 54.4422 136.85 55.0971C137.274 55.3454 137.674 55.6315 138.047 55.9518C138.14 55.8459 138.261 55.7676 138.396 55.7254C138.531 55.6832 138.675 55.6787 138.813 55.7124C139.27 55.7727 139.699 55.9662 140.047 56.2686C140.395 56.5711 140.646 56.9692 140.769 57.4135C141.23 58.7702 141.545 60.1723 141.708 61.5958C141.369 63.0372 140.835 64.4258 140.122 65.7232C140.122 65.7232 138.781 66.5543 137.912 66.1744C137.043 65.7945 138.035 63.1033 138.035 63.1033L137.294 59.4608C137.294 59.4608 136.056 67.4059 135.443 68.3461C134.83 69.2862 132.862 69.1446 132.862 69.1446C130.912 70.8294 129.981 69.3606 129.981 69.3606C129.981 69.3606 129.741 69.6203 128.871 69.2394C128.001 68.8584 126.463 59.7155 126.463 59.7155L123.828 60.0374C123.843 59.5233 123.989 59.0217 124.254 58.5805C124.518 58.1393 124.891 57.7732 125.337 57.5173Z" fill="#FFBF9D"/>
<path d="M134.176 57.3359C134.137 57.4886 134.112 57.6449 134.104 57.8025C134.069 58.1366 134.025 58.5644 133.972 59.0777C133.87 60.1554 133.736 61.6456 133.602 63.2917C133.534 64.6969 133.382 66.0969 133.149 67.4842C133.06 67.9002 132.941 68.3089 132.79 68.7065C132.726 68.8496 132.671 68.9966 132.625 69.1466C132.63 69.1466 132.655 69.114 132.694 69.0447C132.753 68.9437 132.806 68.8396 132.854 68.733C133.031 68.3394 133.17 67.9302 133.27 67.5107C133.542 66.1231 133.712 64.7174 133.779 63.3049C133.914 61.6578 134.026 60.1676 134.098 59.0869L134.174 57.8075C134.19 57.6507 134.191 57.4929 134.176 57.3359Z" fill="#FF9A6C"/>
<path d="M130.367 57.3164C130.335 57.4729 130.318 57.6323 130.316 57.7921C130.297 58.1313 130.272 58.5673 130.242 59.0888C130.187 60.1848 130.123 61.6984 130.064 63.3669C130.005 65.0353 129.962 66.5541 129.938 67.6501C129.929 68.1726 129.923 68.6086 129.918 68.9498C129.909 69.1093 129.915 69.2692 129.936 69.4275C129.968 69.2714 129.985 69.1124 129.986 68.9529C130.006 68.6137 130.031 68.1777 130.061 67.6562C130.116 66.5602 130.18 65.0466 130.24 63.3781C130.3 61.7096 130.342 60.1909 130.366 59.0939C130.375 58.5724 130.38 58.1354 130.386 57.7951C130.395 57.6353 130.389 57.4751 130.367 57.3164Z" fill="#FF9A6C"/>
<path d="M44.3666 100.646L19.3376 99.8516L16.0781 114.02L42.909 114.989L44.3666 100.646Z" fill="#FFBF9D"/>
<path d="M8.10938 98.6396C8.11549 98.6884 8.97926 98.5784 10.3809 98.5764C12.2077 98.5922 14.0319 98.7181 15.8436 98.9533L21.29 99.6663C21.9888 99.7529 22.5551 99.816 22.9473 99.8466C23.1494 99.8779 23.3546 99.8855 23.5584 99.869C23.3642 99.8024 23.1629 99.759 22.9585 99.7396L21.3155 99.4717C19.9272 99.2507 18.0091 98.9319 15.8731 98.6732C14.05 98.4333 12.2111 98.3343 10.3727 98.3768C10.0203 98.3849 9.70145 98.4083 9.42133 98.4358C9.14122 98.4633 8.90185 98.4827 8.70832 98.5163C8.50455 98.5339 8.30354 98.5753 8.10938 98.6396Z" fill="#FF9A6C"/>
<path d="M95.3323 81.8349C95.2179 81.4507 95.0285 81.093 94.775 80.7826C94.5215 80.4721 94.2089 80.215 93.8554 80.0261C93.5019 79.8372 93.1144 79.7203 92.7154 79.6821C92.3164 79.644 91.9138 79.6853 91.5309 79.8038C91.1345 79.9117 90.7651 80.101 90.446 80.3597C90.127 80.6184 89.8654 80.9408 89.678 81.3063C89.0292 82.4776 88.2153 84.2327 85.7697 84.6533C82.4246 85.2258 80.2173 83.7427 79.3719 80.5851C78.5264 77.4274 79.9687 74.6548 82.887 73.8786C84.6103 73.5511 86.3934 73.91 87.8557 74.8789C88.2194 75.1071 88.6248 75.2606 89.0483 75.3306C89.4719 75.4006 89.9051 75.3855 90.3228 75.2863C92.0014 74.8402 93.3409 73.2878 92.9121 71.6846L89.844 59.2047L88.5199 54.0312L42.4141 65.79L54.2563 113.97L71.3453 109.976C72.1497 109.81 72.8556 109.332 73.3084 108.646C73.7612 107.961 73.9241 107.124 73.7614 106.319C73.6672 105.915 73.4871 105.536 73.2333 105.209C72.9794 104.881 72.6579 104.612 72.2906 104.419C71.0927 103.789 69.3295 102.58 68.9058 100.767C68.2498 97.9573 70.1709 95.4342 73.5434 94.6387C76.916 93.8431 79.7569 95.2498 80.4108 98.0561C80.8335 99.8682 79.7905 101.739 78.997 102.843C78.7532 103.179 78.5846 103.564 78.5025 103.971C78.4204 104.378 78.4269 104.797 78.5213 105.202C78.6905 105.859 79.0752 106.44 79.6139 106.852C80.1527 107.265 80.8142 107.484 81.4926 107.476L96.8907 103.552L100.509 102.594L95.3323 81.8349Z" fill="#455A64"/>
<path d="M36.6953 104.574L43.5026 95.4312L48.8696 91.4414L48.9246 94.1916C48.9246 94.1916 59.5272 93.1231 61.0643 93.4918C61.9983 93.7159 63.3571 96.3551 61.2883 96.9449C61.7812 97.1537 62.2204 97.4712 62.5732 97.8738C62.926 98.2763 63.1832 98.7534 63.3255 99.2693C63.6505 100.905 62.8315 101.674 60.8911 102.303C60.8911 102.303 63.0617 103.451 62.6166 104.875C62.4342 105.329 62.1587 105.74 61.8078 106.081C61.4569 106.423 61.0385 106.687 60.5794 106.857C60.5794 106.857 61.7447 109.054 60.6914 109.87C58.8998 111.023 56.946 111.901 54.8946 112.476L47.7644 113.89L43.3121 115.169L36.6953 104.574Z" fill="#FFBF9D"/>
<path d="M54.8828 98.3272C55.9814 98.351 57.077 98.2032 58.1301 97.8892C59.2184 97.7403 60.2769 97.4228 61.2674 96.948C60.1692 96.9241 59.0739 97.0715 58.0211 97.385C56.9325 97.5344 55.8737 97.8523 54.8828 98.3272Z" fill="#FF9A6C"/>
<path d="M55.6719 103.479C57.4353 103.467 59.179 103.108 60.8036 102.422C59.0403 102.435 57.2967 102.794 55.6719 103.479Z" fill="#FF9A6C"/>
<path d="M56.2344 107.815C56.2863 107.961 57.253 107.676 58.4182 107.379C59.1535 107.291 59.8759 107.117 60.5705 106.861C59.8319 106.613 59.0318 106.62 58.297 106.878C57.5362 106.994 56.8222 107.319 56.2344 107.815Z" fill="#FF9A6C"/>
<path d="M47.6406 94.678C48.7195 94.699 49.7965 94.5785 50.8441 94.3195C51.9192 94.2277 52.9775 93.9945 53.9916 93.6258C52.912 93.488 51.8163 93.5508 50.7596 93.8112C49.6753 93.905 48.6178 94.199 47.6406 94.678Z" fill="#FF9A6C"/>
</svg>
